<svg id="Robot" xmlns="http://www.w3.org/2000/svg" width="1920" height="1080" viewBox="0 0 1920 1080">
  <defs>
    <style>
      .cls-1 {
        fill: #6b7c7e;
      }

      .cls-1, .cls-10, .cls-11, .cls-12, .cls-13, .cls-2, .cls-3, .cls-4, .cls-5, .cls-6, .cls-7, .cls-8, .cls-9 {
        fill-rule: evenodd;
      }

      .cls-2 {
        fill: #515e63;
      }

      .cls-3 {
        fill: #525e64;
      }

      .cls-4 {
        fill: #999f9f;
      }

      .cls-5 {
        fill: #dde9e9;
      }

      .cls-6 {
        fill: #4b575d;
      }

      .cls-7 {
        fill: #6d7c7d;
      }

      .cls-8 {
        fill: #c26e7c;
      }

      .cls-9 {
        fill: #9a404f;
      }

      .cls-10 {
        fill: #8e9a9a;
      }

      .cls-11 {
        fill: #b5baba;
      }

      .cls-12 {
        fill: #323232;
      }

      .cls-13 {
        fill: #fefefe;
      }
    </style>
  </defs>
  <g id="Robot-2" data-name="Robot">
    <g id="Group_7_copy" data-name="Group 7 copy">
      <path class="cls-1" d="M1028.42,883.7l-18.55,15.842-21.081-5.575c-2.275-.6-6.826,3.946-6.826,3.946l-9.351-32.37,26.356,10.374,21.592-17.42Z"/>
      <path class="cls-2" d="M963.954,935.91l-4.29-41.214,13.939-29.34,12.2,26.432Z"/>
      <path class="cls-1" d="M1088.96,907.939l7.99,25,4,1,2.01-13,5.01-60Z"/>
      <path class="cls-3" d="M1016.97,845.922s1.38,35.1,9.99,49l6,13,64,0.015,7-17s4.65-32.416,4.01-41c-4.32-.811-36,2.992-36,2.992Z"/>
      <path class="cls-4" d="M1046.95,942.929l-19.99-53,12.01-18,15,1-0.01,18-4.01,48Z"/>
      <path class="cls-4" d="M1106.97,862.943l18,22,17-8,10.99,15,2.99,52h-6l-22.99-44.006-1-4-8,6-14-12S1105.48,868.152,1106.97,862.943Z"/>
      <path class="cls-5" d="M1149.95,942.953l-23.99-48.006,16.01-18,11.99,14,0.99,52h-5Z"/>
      <path class="cls-6" d="M1036.98,841.927s-18.05,1.347-19.01,4c0,0,3.07,7.8,41,7.009l29,1.007s17.19-.445,20-3c0,0,4.88-3.53-20-5C1059.56,844.255,1036.98,841.927,1036.98,841.927Z"/>
      <path class="cls-7" d="M1031.98,822.926l3.99,22,7,1,1,7,44,1.01,1-7,9-2,1.01-23Z"/>
      <path class="cls-8" d="M1123.4,723.638l-74.99-3.7L1006,732.92l-16.006,29s-48.681,4.555-43-11.01a158.514,158.514,0,0,1,56-28.987s10.43-43.227,58.01-42.987l7,2S1114.67,678.955,1123.4,723.638Z"/>
      <path class="cls-9" d="M1048,717.929l-42,7.991s-44.813,18.816-49,24.989l-5,6s-3.6,9.076,39,5.009Z"/>
      <path class="cls-9" d="M1078.01,706.936l0.99,7,35,1.009-1.99-6Z"/>
      <path class="cls-10" d="M1050,718.93l-54,17.988s-21.105,37.546,13.981,89l55-2.988Z"/>
      <path class="cls-11" d="M1047,718.929l12.98,104,75,0.017,9.02-98Z"/>
      <path class="cls-12" d="M1060,730.932l9.98,82,60,1.014,7.02-78Z"/>
      <path class="cls-13" d="M1086.61,758.945c4.42-.16,8.17,4.408,8.38,10.2s-3.2,10.622-7.62,10.782-8.16-4.408-8.37-10.2S1082.2,759.105,1086.61,758.945Z"/>
      <path id="Ellipse_2_copy" data-name="Ellipse 2 copy" class="cls-13" d="M1115.93,760.1c4.18-.272,7.85,3.948,8.21,9.425s-2.74,10.139-6.91,10.411-7.85-3.948-8.21-9.426S1111.76,760.372,1115.93,760.1Z"/>
      <path class="cls-13" d="M1089.99,797.939s5.39-9.122,13-10c0,0,2.88-.187,7,4,0,0,4.77,3.038,5,6l-2,1a38.394,38.394,0,0,0-5-5s-2.84-2.1-5-2a20.966,20.966,0,0,0-10,6h-3Z"/>
    </g>
  </g>
</svg>
