<svg id="Robot" xmlns="http://www.w3.org/2000/svg" width="1920" height="1080" viewBox="0 0 1920 1080">
  <defs>
    <style>
      .cls-1 {
        fill: #6b7c7e;
      }

      .cls-1, .cls-2, .cls-3, .cls-4 {
        fill-rule: evenodd;
      }

      .cls-2 {
        fill: #515e63;
      }

      .cls-3 {
        fill: #b5baba;
      }

      .cls-4 {
        fill: #8e9a9a;
      }
    </style>
  </defs>
  <g>
    <path class="cls-1" d="M1097.55,472.062l-4.41-9.573,17.65-12.986,16.54,21.211Z"/>
    <path class="cls-2" d="M1110.79,449.5l-25.37-7.24,7.72,20.226,2.21,2.116,18.75-11.928Z"/>
    <path class="cls-2" d="M1100.28,550.3l-8.72,23.09,31.14-9.5Z"/>
    <path class="cls-1" d="M1100.28,544.549l-1.25,10.365,23.67,8.981,8.72-20.789Z"/>
    <path class="cls-1" d="M1155.94,468.758l18.83-20.337,18.59,5.758-0.74,16.973Z"/>
    <path class="cls-2" d="M1174.77,448.421l26.17-11.088-8.62,26.146Z"/>
    <path class="cls-1" d="M1157.36,547.617l15.84,16.3,22.7-5.907-2.13-13.063Z"/>
    <path class="cls-2" d="M1168.56,561.282s24.29,15.341,24.49,15.719c0.4,0.758.57-19.31,0.57-19.31Z"/>
    <path class="cls-3" d="M1100.75,472.986l89.22-8.554,3.8,84.849-90.17-3.012Z"/>
    <path class="cls-4" d="M1100.75,472.022l1.83,74.257,23.73,0.741-1.22-77.156Z"/>
  </g>
</svg>
