<svg id="Robot" xmlns="http://www.w3.org/2000/svg" width="1920" height="1080" viewBox="0 0 1920 1080">
  <defs>
    <style>
      .cls-1 {
        fill: #6b7c7e;
      }

      .cls-1, .cls-10, .cls-11, .cls-12, .cls-13, .cls-2, .cls-3, .cls-4, .cls-5, .cls-6, .cls-7, .cls-8, .cls-9 {
        fill-rule: evenodd;
      }

      .cls-2 {
        fill: #515e63;
      }

      .cls-3 {
        fill: #525e64;
      }

      .cls-4 {
        fill: #999f9f;
      }

      .cls-5 {
        fill: #dde9e9;
      }

      .cls-6 {
        fill: #4b575d;
      }

      .cls-7 {
        fill: #6d7c7d;
      }

      .cls-8 {
        fill: #c26e7c;
      }

      .cls-9 {
        fill: #9a404f;
      }

      .cls-10 {
        fill: #8e9a9a;
      }

      .cls-11 {
        fill: #b5baba;
      }

      .cls-12 {
        fill: #323232;
      }

      .cls-13 {
        fill: #fefefe;
      }
    </style>
  </defs>
  <g id="Robot-2" data-name="Robot">
    <g>
      <path class="cls-1" d="M1031.14,884.393l-17.96,16.521-21.266-4.788c-2.3-.516-6.675,4.2-6.675,4.2l-10.547-32,26.728,9.388,20.92-18.211Z"/>
      <path class="cls-2" d="M968.656,938.963l-5.82-41.027,12.84-29.838,13.177,25.961Z"/>
      <path class="cls-1" d="M1092.54,906.364l8.91,24.687,4.04,0.852,1.52-13.065,2.78-60.144Z"/>
      <path class="cls-3" d="M1018.29,847.066s2.69,35.023,11.81,48.6l6.47,12.77,63.96-2.364,6.37-17.247s3.44-32.567,2.48-41.12c-4.35-.65-35.86,4.328-35.86,4.328Z"/>
      <path class="cls-4" d="M1051.86,942.892l-21.95-52.225,11.33-18.431,15.03,0.445,0.66,17.988-2.22,48.115Z"/>
      <path class="cls-4" d="M1108.86,860.73l18.8,21.32,16.69-8.623,11.55,14.584,4.92,51.853-6,.222-24.61-43.12-1.14-3.961-7.78,6.292-14.43-11.475S1107.57,865.991,1108.86,860.73Z"/>
      <path class="cls-5" d="M1154.79,939.087l-25.76-47.081,15.32-18.579,12.51,13.548,2.92,51.927Z"/>
      <path class="cls-6" d="M1038.13,842.33s-17.98,2.017-18.84,4.7c0,0,3.36,7.678,41.23,5.481l29.02-.072s17.16-1.083,19.88-3.737c0,0,4.74-3.709-20.17-4.258C1060.79,843.817,1038.13,842.33,1038.13,842.33Z"/>
      <path class="cls-7" d="M1032.43,823.528l4.81,21.837,7.04,0.741,1.25,6.958,44.01-.626,0.74-7.032,8.92-2.331,0.15-23.022Z"/>
      <path class="cls-8" d="M1118.72,721.271l-73.99,1.734-41.6,11.545-14.92,29.571s-48.478,6.361-43.377-9.4a158.493,158.493,0,0,1,54.89-31.049s8.807-43.585,56.377-45.113l7.03,0.741S1109.37,676.836,1118.72,721.271Z"/>
      <path class="cls-9" d="M1044.54,718.008l-41.67,9.546s-44.086,20.47-48.044,26.793l-4.775,6.181s-3.263,9.2,39.158,3.556Z"/>
      <path class="cls-9" d="M1074.12,705.908l1.26,6.958,35.01-.294-2.22-5.922Z"/>
      <path class="cls-10" d="M1040,720l-46.718,18.916s-19.7,38.3,17.278,88.422l54.85-5.029Z"/>
      <path class="cls-11" d="M1039,720l19,103,77.36-3.277,5.38-98.266Z"/>
      <path class="cls-12" d="M1057.02,730.556l13.02,81.575,60-1.217,4.11-78.206Z"/>
      <path class="cls-13" d="M1084.65,757.561c4.41-.324,8.32,4.1,8.75,9.885s-2.8,10.734-7.21,11.058-8.32-4.1-8.75-9.885S1080.24,757.885,1084.65,757.561Z"/>
      <path id="Ellipse_2_copy" data-name="Ellipse 2 copy" class="cls-13" d="M1114,757.625c4.16-.427,7.98,3.653,8.54,9.114s-2.35,10.233-6.51,10.66-7.99-3.653-8.55-9.114S1109.84,758.052,1114,757.625Z"/>
      <path id="Shape_8_copy" data-name="Shape 8 copy" class="cls-13" d="M1089.36,787.954s5.33,7.461,13.35,8.942c0,0,3.92.426,8.67-3.3,0,0,3.31-2.283,3.82-5.144l-2.04-.926a20.174,20.174,0,0,1-4.59,3.956s-3.2,1.806-5.5,1.531a18.624,18.624,0,0,1-10.5-6Z"/>
    </g>
  </g>
</svg>
