<svg id="Gambar" xmlns="http://www.w3.org/2000/svg" width="1920" height="1080" viewBox="0 0 1920 1080">
  <defs>
    <style>
      .cls-1 {
        fill: #3c3b3d;
      }

      .cls-15, .cls-2 {
        fill: #587587;
      }

      .cls-14, .cls-3 {
        fill: #445a67;
      }

      .cls-4 {
        fill: #d8e0f4;
      }

      .cls-5, .cls-6 {
        fill: #39383b;
      }

      .cls-14, .cls-15, .cls-18, .cls-20, .cls-26, .cls-27, .cls-28, .cls-30, .cls-31, .cls-32, .cls-33, .cls-34, .cls-35, .cls-36, .cls-5, .cls-8, .cls-9 {
        fill-rule: evenodd;
      }

      .cls-7 {
        fill: #4e7c83;
      }

      .cls-11, .cls-8 {
        fill: #598d95;
      }

      .cls-9 {
        fill: #5fa091;
      }

      .cls-10 {
        fill: #4c4b4d;
      }

      .cls-12 {
        fill: #66abad;
      }

      .cls-13 {
        fill: #63859b;
      }

      .cls-16 {
        fill: #4a484c;
      }

      .cls-17 {
        fill: #323033;
      }

      .cls-18, .cls-20 {
        fill: none;
        stroke: #3c3b3d;
      }

      .cls-18 {
        stroke-width: 6px;
      }

      .cls-19 {
        fill: #5a7f3b;
      }

      .cls-20 {
        stroke-width: 8px;
      }

      .cls-21 {
        fill: #c0bc64;
      }

      .cls-22 {
        fill: #7f8b8a;
      }

      .cls-23 {
        fill: #4d4f5a;
      }

      .cls-24 {
        fill: #212c2f;
      }

      .cls-25 {
        fill: #71797b;
      }

      .cls-26 {
        fill: #5a6061;
      }

      .cls-27 {
        fill: #7e8487;
      }

      .cls-28 {
        fill: #cedddf;
      }

      .cls-29 {
        fill: #3a3c2b;
      }

      .cls-30 {
        fill: #4d555a;
      }

      .cls-31 {
        fill: #8796a5;
      }

      .cls-32 {
        fill: #97b4da;
      }

      .cls-33 {
        fill: #b9d3cc;
      }

      .cls-34 {
        fill: #90b4c5;
        stroke: #5f7087;
        stroke-width: 5px;
      }

      .cls-35 {
        fill: #d4d1f5;
      }

      .cls-36 {
        fill: #9d97da;
      }
    </style>
  </defs>
  <g>
    <g>
      <rect class="cls-1" x="94" y="423" width="8" height="30"/>
      <rect class="cls-2" x="83" y="196" width="11" height="298"/>
      <rect id="_" data-name=" " class="cls-3" x="-3" y="186" width="86" height="312"/>
    </g>
    <g>
      <rect class="cls-4" x="869" y="671" width="29" height="61" rx="3" ry="3"/>
      <path class="cls-5" d="M929,696s-15.973-5.13-22,5c0,0-4.262,14.922-18,19l-1-8s6.623,0.846,11-10c0,0,4.409-15.339,24-13l6,2v5Z"/>
      <path class="cls-5" d="M834,738a21.121,21.121,0,0,0,24-2s4.2-17.8,1-25c0,0,.449-19.825,12-24l11-1v6l-10,1s-6.741,5.768-6,19c0,0,2.831,20.288-3,26,0,0-6.3,14.82-29,7l-6-3Z"/>
      <rect class="cls-6" x="874" y="680" width="20" height="17" rx="3" ry="3"/>
      <rect id="Rectangle_49_copy" data-name="Rectangle 49 copy" class="cls-6" x="874" y="708" width="20" height="15" rx="3" ry="3"/>
    </g>
    <g>
      <rect class="cls-7" x="160" y="772" width="759" height="176"/>
      <g>
        <path id="Rectangle_34_copy_2" data-name="Rectangle 34 copy 2" class="cls-8" d="M359.987,784.989L502,785.7V936.011L359.987,935.3V784.989Z"/>
        <path id="Rectangle_34_copy_3" data-name="Rectangle 34 copy 3" class="cls-8" d="M199.987,781.989L342,782.7V933.011L199.987,932.3V781.989Z"/>
        <path id="Rectangle_33_copy_5" data-name="Rectangle 33 copy 5" class="cls-9" d="M367.008,797.033L495,794.009,495,926l-127.992-1.964v-127Z"/>
        <path id="Rectangle_33_copy_6" data-name="Rectangle 33 copy 6" class="cls-9" d="M207.008,795.033L335,792.009,335,924l-127.992-1.964v-127Z"/>
        <circle class="cls-10" cx="387.453" cy="863.453" r="9.453"/>
        <circle id="Ellipse_4_copy" data-name="Ellipse 4 copy" class="cls-10" cx="316.5" cy="863.5" r="9.5"/>
      </g>
      <g>
        <path id="Rectangle_34_copy" data-name="Rectangle 34 copy" class="cls-8" d="M521.547,785.364L685,786.073V936.354l-163.453-.708V785.364Z"/>
        <path id="Rectangle_33_copy_3" data-name="Rectangle 33 copy 3" class="cls-9" d="M542,804.186L675,803v47.442L542,854V804.186Z"/>
        <path id="Rectangle_33_copy_4" data-name="Rectangle 33 copy 4" class="cls-9" d="M673,871.186L540,870v47.442L673,921V871.186Z"/>
        <rect id="Rectangle_35_copy_3" data-name="Rectangle 35 copy 3" class="cls-10" x="594" y="821" width="36" height="6"/>
        <rect id="Rectangle_35_copy_4" data-name="Rectangle 35 copy 4" class="cls-10" x="594" y="884" width="36" height="6"/>
        <rect class="cls-11" x="716" y="781" width="176" height="160"/>
        <path class="cls-9" d="M738,790l133-1v40l-133,3V790Z"/>
        <path id="Rectangle_33_copy" data-name="Rectangle 33 copy" class="cls-9" d="M738,843.93L871,843v39.875L738,883V843.93Z"/>
        <path id="Rectangle_33_copy_2" data-name="Rectangle 33 copy 2" class="cls-9" d="M738,896.93L871,896v39.875L738,936V896.93Z"/>
        <rect class="cls-10" x="788" y="811" width="30" height="6"/>
        <rect id="Rectangle_35_copy" data-name="Rectangle 35 copy" class="cls-10" x="787" y="865" width="30" height="6"/>
        <rect id="Rectangle_35_copy_2" data-name="Rectangle 35 copy 2" class="cls-10" x="788" y="918" width="30" height="6"/>
      </g>
      <rect class="cls-12" x="161" y="755" width="754" height="21"/>
    </g>
    <g>
      <rect class="cls-13" x="160" y="759" width="11" height="180"/>
      <path class="cls-14" d="M-10,712.014H163v236H-10v-236Z"/>
      <path class="cls-15" d="M-10,709.992H161.958v21H-10v-21Z"/>
      <rect class="cls-16" x="109" y="686" width="6" height="20"/>
      <rect class="cls-1" x="-3" y="683" width="113" height="27"/>
      <rect class="cls-17" x="7" y="678" width="68" height="5"/>
      <rect class="cls-17" x="162" y="720" width="8" height="33"/>
      <g>
        <path class="cls-18" d="M81,639H93v22H81V639Z"/>
        <path id="Rectangle_43_copy" data-name="Rectangle 43 copy" class="cls-18" d="M9,659H-3V637H9v22Z"/>
        <rect class="cls-19" x="2" y="632" width="82" height="47"/>
        <path class="cls-20" d="M31,616H51v8H31v-8Z"/>
        <rect class="cls-21" x="-3" y="624" width="87" height="11"/>
      </g>
    </g>
    <g>
      <rect class="cls-22" x="690" y="680" width="143" height="75"/>
      <rect class="cls-23" x="697" y="688" width="108" height="60" rx="9" ry="9"/>
      <rect class="cls-24" x="810" y="688" width="18" height="17" rx="4" ry="4"/>
      <rect class="cls-25" x="811" y="710" width="17" height="38" rx="3" ry="3"/>
    </g>
    <g>
      <g>
        <path class="cls-26" d="M365,754l-1-14,36-44,15,1-1,21-12-1,1-5-25,31,2,11v1H365v-1Z"/>
        <path class="cls-26" d="M457,671"/>
        <path class="cls-27" d="M400,696l2,21,15,1-1-21Z"/>
      </g>
      <g>
        <path class="cls-28" d="M521,754l-10-15.765-1-58.857L525,651Z"/>
        <path id="Shape_34_copy" data-name="Shape 34 copy" class="cls-28" d="M536,754l-10-15.765-1-58.857L540,651Z"/>
        <path id="Shape_34_copy_2" data-name="Shape 34 copy 2" class="cls-28" d="M564.994,753.581L552.386,739.89l-11.307-57.511,9.788-30.456Z"/>
        <path id="Shape_34_copy_3" data-name="Shape 34 copy 3" class="cls-28" d="M600,752.989l-15.586-10.055-25.428-52.892,1.7-32.043Z"/>
        <g>
          <rect class="cls-29" x="501" y="722" width="6" height="32"/>
          <rect class="cls-29" x="623" y="721" width="6" height="33"/>
          <rect class="cls-29" x="506" y="727" width="118" height="4"/>
          <rect class="cls-29" x="506" y="744" width="118" height="4"/>
        </g>
      </g>
    </g>
  </g>
  <g id="Kulkas">
    <path class="cls-30" d="M916,557.986h235v388.02H916V557.986Z"/>
    <path class="cls-31" d="M926,554.994h216V714.581H926V554.994Z"/>
    <path id="Rectangle_29_copy" data-name="Rectangle 29 copy" class="cls-31" d="M926,724.559h216V939.023H926V724.559Z"/>
    <g>
      <path id="Rectangle_12_copy_9" data-name="Rectangle 12 copy 9" class="cls-32" d="M1023.04,634.4l32.96,0.165-0.04,40.669L1023,675.07Z"/>
      <path id="Rectangle_12_copy_10" data-name="Rectangle 12 copy 10" class="cls-33" d="M1060.03,653.756l25.97,0.149-0.03,36.758-25.97-.149Z"/>
      <path id="Rectangle_2_copy" data-name="Rectangle 2 copy" class="cls-34" d="M988,742.52h89v72.816H988V742.52Z"/>
      <path id="Rectangle_12_copy" data-name="Rectangle 12 copy" class="cls-35" d="M1031.22,785.358l29.76-2.234,2.98,39.466-29.76,2.234Z"/>
      <path class="cls-36" d="M1002.19,747.926l53.34,0.128-0.06,31.689-53.35-.128Z"/>
    </g>
  </g>
</svg>
