<svg xmlns="http://www.w3.org/2000/svg" width="2450" height="1080" viewBox="2 0 2450 1080">
  <defs>
    <style>
      .cls-1 {
        fill: #61624c;
        opacity: 0.99;
      }

      .cls-1, .cls-3, .cls-4, .cls-5 {
        fill-rule: evenodd;
      }

      .cls-2, .cls-4 {
        fill: #4f635e;
      }

      .cls-3 {
        fill: #a0bd9e;
      }

      .cls-5 {
        fill: #a28a48;
      }
    </style>
  </defs>
  <g>
    <path class="cls-1" d="M290,901l2-872H268V901h22Z"/>
    <g>
      <rect class="cls-2" x="266" y="147" width="36" height="11"/>
      <rect id="Shape_89_copy" data-name="Shape 89 copy" class="cls-2" x="267" y="221" width="36" height="11"/>
      <path class="cls-3" d="M300,136l2,115,54,2,9-7,6-1V134H302"/>
      <path class="cls-4" d="M371,218v27l-6,1-8,7-55-2-2-116,17-1-12,3-1,11,4,89,30,2c6.184,1.687,13,3,13,3l6,5,4-5,6-1Z"/>
    </g>
    <g id="Group_19_copy" data-name="Group 19 copy">
      <path class="cls-4" d="M293,162H257v11h36V162Z"/>
      <path id="Shape_89_copy-2" data-name="Shape 89 copy" class="cls-4" d="M292,236H256v11h36V236Z"/>
      <path class="cls-3" d="M259,151l-2,115-54,2-9-7-6-1V149h69"/>
      <path class="cls-4" d="M188,233v28l6,1,8,6,55-2,2-116H192l58,4-2,15-9,84-18-6c-6.184,1.687-14,3-14,3l-4,4h-5l-6-2Z"/>
      <path class="cls-5" d="M568-60"/>
    </g>
  </g>
</svg>
