<svg id="Folder_9" data-name="Folder 9" xmlns="http://www.w3.org/2000/svg" width="1920" height="1080" viewBox="0 0 1920 1080">
  <defs>
    <style>
      .cls-1, .cls-2 {
        fill: #b4a390;
      }

      .cls-1, .cls-2, .cls-3, .cls-4, .cls-5, .cls-6 {
        fill-rule: evenodd;
      }

      .cls-1 {
        mix-blend-mode: multiply;
      }

      .cls-3 {
        fill: #909c9c;
      }

      .cls-3, .cls-4, .cls-5, .cls-6 {
        stroke: #322c26;
      }

      .cls-3, .cls-4, .cls-5 {
        stroke-width: 6px;
      }

      .cls-4 {
        fill: #566268;
      }

      .cls-5 {
        fill: #6e7e81;
      }

      .cls-6 {
        fill: #4d5f61;
        stroke-width: 5px;
      }
    </style>
  </defs>
  <g id="main_menu_Copy_2" data-name="main menu Copy 2">
    <g id="lapyop">
      <path class="cls-1" d="M575,65a141.546,141.546,0,0,1-13,21L59,599l-90-44L119,243Z"/>
      <path class="cls-2" d="M564,560"/>
      <path class="cls-3" d="M56,579l-3-53L573,22V64L56,579"/>
      <path class="cls-4" d="M-19,480l71,45,2,50-73-43V480Z"/>
      <path class="cls-5" d="M53,527l-87-55,8-492L381-30,573,17s0.219,4.73.118,4.828C549.879,44.236,53,527,53,527Z"/>
      <g>
        <path class="cls-6" d="M104,249l119,53L384,154,269,112Z"/>
        <path id="Shape_23_copy_9" data-name="Shape 23 copy 9" class="cls-6" d="M39,214l39,20L243,97,207,81Zm-11,9,40,20L33,269-9,248Zm-43,33,39,21-34,25-42-21ZM293,11l40,17L300,55,260,38ZM250,45l40,17L257,89,217,72ZM-16,199l36,18-36,26-36-17Zm48-37,36,17L32,207-4,188Zm44-33,33,16L77,171,42,154Zm44-34,33,15-33,27L86,121Zm41-33,33,15-31,25L129,87Zm45-34,33,15L208,68,174,52ZM-12.049,141.011L23,157l-38,27-33.105-16.964ZM32.02,107.978l33.052,16.016L32,149-2.033,133ZM77,74l32.14,14.959L76,116,42,100Zm41.154-34.089L150.2,55.926,119,81,87,66ZM162.222,6.878l33.052,15.015L164,46,130.172,30.9Zm-218.391,113.2,35.053,16-38,27.014L-92.229,146.12Zm44.074-33.05,33.055,16.024-33.075,25.019-34.038-16.005Zm44.986-34L65.035,68,31,95-2.113,79.049ZM74.05,18.929L106.1,34.953,76,61,43,44Zm44.074-33.05L151.18,0.9,119.9,25.022,86.07,9.915Z"/>
      </g>
    </g>
  </g>
</svg>
