<svg id="Folder_9" data-name="Folder 9" xmlns="http://www.w3.org/2000/svg" width="1920" height="1080" viewBox="0 0 1920 1080">
  <defs>
    <style>
      .cls-1 {
        fill: #5c4856;
      }

      .cls-1, .cls-2, .cls-3, .cls-4, .cls-5 {
        stroke: #363636;
        stroke-width: 3px;
        fill-rule: evenodd;
      }

      .cls-2 {
        fill: #899286;
      }

      .cls-3 {
        fill: #467c6a;
      }

      .cls-4 {
        fill: #bad665;
      }

      .cls-5 {
        fill: #767c60;
      }
    </style>
  </defs>
  <g id="main_menu_Copy_2" data-name="main menu Copy 2">
    <g id="pulpen">
      <path class="cls-1" d="M1937.94,856.391l-14.95-12.169,12.15-6.552Z"/>
      <path class="cls-2" d="M1921.12,843.286s-23.65-21.923-28.97-28.082l-33.64-45.866s12.59-19.5,45.79-25.274l23.36,56.164s7.53,30.031,8.41,36.506Z"/>
      <path class="cls-3" d="M1858.51,769.338L1616.48,337.815s23.69-45.079,31.77-52.42l256.99,458.669S1876.34,745.3,1858.51,769.338Z"/>
      <path class="cls-4" d="M1830.48,612.08s-30.95,3.833-44.86,27.145l-4.67-8.424s16.27-24.407,45.79-25.274Z"/>
      <path class="cls-4" d="M1646.38,288.2l-27.1-42.122s-31.03-6.258-37.38,22.465l-6.54.936-4.67,9.361s36.04,73.628,50.46,97.35c0,0,31.44,56.031,44.85,70.2l11.22-.936-3.74-6.552-6.54-2.808s-21.42-35.039-37.38-62.716c-10.66-18.485-17.89-33.05-15.89-29.018-7.04-14.178-13.3-30.46-15.88-40.251a9.753,9.753,0,0,1,1.86-7.488l19.63,35.57S1641.71,290.428,1646.38,288.2Z"/>
      <path class="cls-5" d="M1600.59,299.436L1581.9,267.61l-6.54,3.744s24.88,45.011,29.9,55.228c0.62,1.252,1.06,1.033,1.06,1.033C1606.96,326.957,1593.84,304.2,1600.59,299.436Z"/>
    </g>
  </g>
</svg>
