<svg id="Folder3" xmlns="http://www.w3.org/2000/svg" width="1920" height="1080" viewBox="0 0 1920 1080">
  <defs>
    <style>
      .cls-1 {
        fill: #e9c9bf;
        fill-rule: evenodd;
      }
    </style>
  </defs>
  <g id="Folder8">
    <path class="cls-1" d="M1193,469l-19-49s-4.54-5.889-17-10c0,0-42.08-12.126-55-32,0,0-11.44-14.124-10-26,0,0,1.48-13.21,24-9l18,4s0.52-.876-3-8c0,0-9.88-27.96-11-37,0,0-3.49-18.682-3-26,0,0,1.78-9.247,7-12,0,0,7.21-5.076,17,1,9.32,5.784,13,13,13,13a329.526,329.526,0,0,1,16,36s-8.22-35.579-9-45c0,0-2.61-18.893-1-29,0,0,2.86-12.471,10-16a17.94,17.94,0,0,1,18,2s5.42,2.417,10,12c0,0,4.62,11.476,10,29l10,34s-5.52-26.288-6-31a151.5,151.5,0,0,1,1-16s1.64-6.142,5-9a22.378,22.378,0,0,1,11-7,20.768,20.768,0,0,1,14,2s6.9,7.369,9,15c0,0,4.61,18.928,6,27,0.26,1.309,5,28,5,28a167.865,167.865,0,0,1-1-18,13.951,13.951,0,0,1,4-8,13.188,13.188,0,0,1,10-5,12.687,12.687,0,0,1,11,7s5.61,15.033,7,24c0,0,2.39,14.575,3,19,0,0,.15,18.932-2,28,0,0-5.06,21.959-9,28,0,0-5.13,11.019-7,15a66.275,66.275,0,0,0,2,16l7,31,1,2Z"/>
  </g>
</svg>
