<svg id="Folder3" xmlns="http://www.w3.org/2000/svg" width="1920" height="1080" viewBox="0 0 1920 1080">
  <defs>
    <style>
      .cls-1 {
        fill: #e9c9bf;
        fill-rule: evenodd;
      }
    </style>
  </defs>
  <g id="Folder8">
    <path id="Shape_2_copy" data-name="Shape 2 copy" class="cls-1" d="M1194,475l-21-57s-1.7-3.321-14-7c0,0-29.84-10.211-42-28,0,0-7.16-7.209-7-16,0,0-.62-18.462,20-15l16,5s0.25-2.624-3-9c0,0-6.23-24.909-7-33,0,0-1.77-16.45-1-23a13.844,13.844,0,0,1,7-7s5.94-3.442,16,1c6.22,2.746,12,18,12,18s3.34,10.693,5,14c0,0-3.58-21.568-4-30,0,0-1.1-15.489,0-23,0,0,1.73-7.841,9-11,0,0,9.41-2.038,18,1,0,0,2.79.422,7,9,0,0,3.28,9.315,8,25l8,25s-1.7-17.783-2-22c0,0-.19-9.12,0-15,0,0,.53-7.442,4-10,0,0,.77-2.224,8-4,0,0,9.16-1.429,16,2,0,0,4.31,2.33,7,13,0,0,2.96,15.064,5,36a17.967,17.967,0,0,0,1,3,118.405,118.405,0,0,0,3-12s1.99-4.695,5-6a16.968,16.968,0,0,1,7-2s8.7,0.455,12,6c0,0,4.95,13.974,6,22,0,0,2.56,18.039,3,22,0,0-.5,13.883-3,22,0,0-4.11,15.305-8,22,0,0-4.77,5.86-5,13,0,0,1.31,9.924,3.18,18.153L1289,449.9l2.45,9.775Z"/>
  </g>
</svg>
