<svg id="Folder49" xmlns="http://www.w3.org/2000/svg" width="1920" height="1080" viewBox="0 0 1920 1080">
  <defs>
    <style>
      .cls-1 {
        fill: #e8cac1;
        fill-rule: evenodd;
      }
    </style>
  </defs>
  <g id="Folder4">
    <path id="Shape_2_copy" data-name="Shape 2 copy" class="cls-1" d="M1426,425l-133,28-23-70s-33.42-13.955-38-19c0,0-16.83-19.864-21-37,0,0-5.38-17.7-3-37,0,0,1.4-19.128,11-21l12,1s-15-58.333-16-79c0,0,.61-12.07,10-18,0,0,15.16-10.1,29,0a98.821,98.821,0,0,1,19,24l18,37a31.836,31.836,0,0,1,5-15s6.1-8.14,33-7c0,0,8.75-.29,21,14,0,0,5.01-10.829,15-9a38.527,38.527,0,0,1,18,4s11.86,6.281,19,17c0,0,6.52-1.238,10-1,0,0,9.08,3.489,14,8,0,0,6.96,10.339,9,20,0,0,1.49,27.416-1,40,0,0-6.25,35.69-11,47,0,0-7.49,17.584-8,19Z"/>
  </g>
</svg>
