<svg id="Folder49" xmlns="http://www.w3.org/2000/svg" width="1920" height="1080" viewBox="0 0 1920 1080">
  <defs>
    <style>
      .cls-1 {
        fill: #e8cac1;
        fill-rule: evenodd;
      }
    </style>
  </defs>
  <g id="Folder4">
    <path class="cls-1" d="M1426,425l-133,28-23-70s-33.42-13.955-38-19c0,0-16.83-19.864-21-37,0,0-5.38-20.7-3-40,0,0,1.4-18.128,11-20l12,3s-18.75-64.551-18-85c0,0-1.39-18.07,8-24,0,0,15.16-10.1,29,0,0,0,14.94,21.515,23,36l17,31a25.572,25.572,0,0,1,4-15s7.1-9.14,34-8c0,0,8.75-.29,21,14a17.823,17.823,0,0,1,16-5,38.527,38.527,0,0,1,18,4s11.86,7.281,19,18c0,0,6.52-1.238,10-1,0,0,9.08,3.489,14,8,0,0,7.96,9.339,10,19,0,0,.49,30.416-2,43,0,0-6.25,35.69-11,47,0,0-7.49,17.584-8,19Z"/>
  </g>
</svg>
