<svg id="Folder_9" data-name="Folder 9" xmlns="http://www.w3.org/2000/svg" width="1920" height="1080" viewBox="0 0 1920 1080">
  <defs>
    <style>
      .cls-1 {
        fill: #7e798b;
        stroke: #445d69;
        stroke-width: 6px;
      }

      .cls-1, .cls-10, .cls-11, .cls-12, .cls-13, .cls-14, .cls-15, .cls-16, .cls-17, .cls-18, .cls-19, .cls-3, .cls-4, .cls-5, .cls-6, .cls-7, .cls-8, .cls-9 {
        fill-rule: evenodd;
      }

      .cls-2 {
        font-size: 18px;
        fill: #e4e4e4;
        text-anchor: middle;
        font-family: "Arial Rounded MT Bold";
      }

      .cls-3 {
        fill: #90b4c5;
        stroke: #5f7087;
      }

      .cls-13, .cls-3, .cls-5, .cls-9 {
        stroke-width: 8px;
      }

      .cls-4 {
        fill: #7398a7;
      }

      .cls-5 {
        fill: #99afcd;
        stroke: #48546c;
      }

      .cls-6 {
        fill: #768397;
      }

      .cls-7 {
        fill: #55667a;
      }

      .cls-8 {
        fill: #cfd9e8;
      }

      .cls-9 {
        fill: #818fc5;
        stroke: #55667a;
      }

      .cls-10 {
        fill: #a3bdd8;
      }

      .cls-11 {
        fill: #6d718b;
      }

      .cls-12 {
        fill: #e1e6ea;
      }

      .cls-13 {
        fill: #8890be;
        stroke: #647890;
      }

      .cls-14 {
        fill: #9d97da;
      }

      .cls-15 {
        fill: #d4d1f5;
      }

      .cls-16 {
        fill: #da9797;
      }

      .cls-17 {
        fill: #b1da97;
      }

      .cls-18 {
        fill: #dace97;
      }

      .cls-19 {
        fill: #dab697;
      }
    </style>
  </defs>
  <g id="Gambar">
    <g id="Image">
      <path class="cls-1" d="M1602,416.655h112V548.492H1602V416.655Z"/>
      <text id="Believe_in_Your_Self" data-name="Believe in Your Self" class="cls-2" x="1658.586" y="471.119"><tspan x="1658.586">Believe in</tspan><tspan x="1658.586" dy="21.6">Your Self</tspan></text>
    </g>
    <g id="gambar-2" data-name="gambar">
      <path class="cls-3" d="M1266,229h211V364H1266V229Z"/>
      <path class="cls-4" d="M1270,344l67.32-90,33.14,78s21.99-31.074,45.58-5l41.42-74L1473,323v37H1270V344Z"/>
    </g>
    <g id="Gambar-3" data-name="Gambar">
      <path class="cls-5" d="M370,324.768H618V456.605H370V324.768Z"/>
      <path class="cls-6" d="M376,449.614l24-59.338,72-1.978,9,35.6,29-70.218,54-4.944,25,61.316,6-23.735,13,11.867c1.868,0.37,6,5.484,6,5.484V452.61l-240,1v-3Z"/>
      <path class="cls-7" d="M376,453.609l28-57.928,63,2,11,54.932Z"/>
      <path class="cls-7" d="M473,452.61l43-95.881,48-4.994L588,452.61H473Z"/>
      <path class="cls-7" d="M593,386.692L582,452.61h32l-6-53.933-6,11.985Z"/>
      <path class="cls-8" d="M403.5,333.757A22.976,22.976,0,1,1,381,356.729,22.74,22.74,0,0,1,403.5,333.757Z"/>
    </g>
    <g id="gambar-4" data-name="gambar">
      <path class="cls-9" d="M208,393.683H324v162.8H208v-162.8Z"/>
      <path class="cls-10" d="M320,474.583l-15-3-13,5.992H258l-16,6.992-30-3v-83.9H321Z"/>
      <path class="cls-11" d="M244,466.593l18,11.985,30-3.995,5-14.981Z"/>
      <path class="cls-12" d="M271,462.6l-1-10.986-18,3,17-33.958,21,28.964-17,2,1,10.986"/>
      <path class="cls-11" d="M320,472.586l-18-2-10,4-37,3-13,4.994-30-1v3l31,2,13-5.992,36-3,11-3,17,1v-3Z"/>
      <path class="cls-11" d="M304,487.567H284l-23,11.985-13-2-8,5.992,2,3,7-5.993,14,3,22-12.984h19v-3Z"/>
      <path class="cls-11" d="M222,528.517l13-11.986,13,9.988,5-5.993,11,7.991-10-4-6,4.993-13-8.989-11,8.989Z"/>
      <path class="cls-11" d="M312,518.529l-11-4-8,7.99-6-4-7,7.99,1,2,6-5.993,7,3,9-7.99,8,3Z"/>
    </g>
    <path class="cls-13" d="M78,282l18,8V442l-18-4V282Z"/>
    <g>
      <path class="cls-14" d="M735.758,506.528l45.714,5.124-3.23,28.82-45.714-5.124Z"/>
      <path id="Rectangle_12_copy" data-name="Rectangle 12 copy" class="cls-15" d="M747.211,544.009l45.925-2.616,1.653,28.892L748.864,572.9Z"/>
      <path id="Rectangle_12_copy_2" data-name="Rectangle 12 copy 2" class="cls-15" d="M613.994,548.975l33.8-2.99,1.216,33.02-33.8,2.989Z"/>
      <path id="Rectangle_12_copy_3" data-name="Rectangle 12 copy 3" class="cls-16" d="M629.769,528l-45.763,5.134,3.233,28.874L633,556.872Z"/>
      <path id="Rectangle_12_copy_8" data-name="Rectangle 12 copy 8" class="cls-17" d="M727.92,552.106l-46.443,1.672-3.1,45.513,46.443-1.672Z"/>
      <path id="Rectangle_12_copy_4" data-name="Rectangle 12 copy 4" class="cls-18" d="M1621.58,557.288l-45.91-3.541-2.24,28.969,45.91,3.541Z"/>
      <path id="Rectangle_12_copy_5" data-name="Rectangle 12 copy 5" class="cls-16" d="M1644.99,576.592l-29.56-3.6-1.44,29.414,29.56,3.6Z"/>
      <path id="Rectangle_12_copy_6" data-name="Rectangle 12 copy 6" class="cls-19" d="M110.274,571.873L83,571.021l2.258,31.9,27.239-3.538Z"/>
      <path id="Rectangle_12_copy_7" data-name="Rectangle 12 copy 7" class="cls-15" d="M102.016,591.162l17.528-.567,1.383,30.572-17.736,3.906Z"/>
    </g>
  </g>
</svg>
