<svg id="Folder_9" data-name="Folder 9" xmlns="http://www.w3.org/2000/svg" width="1920" height="1080" viewBox="0 0 1920 1080">
  <defs>
    <style>
      .cls-1 {
        fill: #936a60;
      }

      .cls-1, .cls-2, .cls-3, .cls-4, .cls-5, .cls-6, .cls-7 {
        fill-rule: evenodd;
      }

      .cls-2 {
        fill: #be9a89;
      }

      .cls-3 {
        fill: #fff;
      }

      .cls-4 {
        fill: #587c3e;
      }

      .cls-5 {
        fill: #68914b;
      }

      .cls-6 {
        fill: #608745;
      }

      .cls-7 {
        fill: #739f54;
      }
    </style>
  </defs>
  <g id="Meja">
    <path class="cls-1" d="M1083.69,945l14.84-66.259,26.26-1.142-1.15,12.566,165.53-1.142-3.43-12.567L1312,877.6l14.84,67.4h-29.68l-3.43-28.56H1117.94L1114.51,945h-30.82Z"/>
    <path class="cls-2" d="M1062,851.324l6.85,26.275,279.68,1.142,6.85-22.848Z"/>
    <path class="cls-3" d="M1202.41,853.609s-6.34-28.29,3.43-30.845l1.14-9.139s24.85-.3,25.11,0,0,8,0,8,8.49,1.668,2.28,31.987h-31.96Z"/>
    <path class="cls-4" d="M1217.25,813.625s-29.32-16.821-12.56-30.845c0,0,10.47,28.666,14.84,29.7S1217.25,813.625,1217.25,813.625Z"/>
    <path class="cls-5" d="M1219.53,813.625s-26-28.931-9.13-44.553c0,0,6.5-4.99,10.28,4.569l1.14,39.984h-2.29Z"/>
    <path class="cls-6" d="M1224.1,813.625s-4.25-14.073,7.99-17.136c0,0,4.38,6.462-2.28,13.709l-3.43,3.427h-2.28Z"/>
    <path class="cls-7" d="M1220.68,813.625s-2.95-33.452,18.26-39.984c0,0,10.92,3.6-5.71,18.278,0,0-6.37,7.515-10.27,21.706h-2.28Z"/>
  </g>
</svg>
