<?xml version="1.0" encoding="UTF-8" standalone="no"?>
<!-- Created with Inkscape (http://www.inkscape.org/) -->

<svg
   width="210mm"
   height="297mm"
   viewBox="0 0 210 297"
   version="1.1"
   id="svg1"
   xml:space="preserve"
   inkscape:version="1.3.2 (091e20e, 2023-11-25, custom)"
   sodipodi:docname="Karakter Guru - Duduk .svg"
   xmlns:inkscape="http://www.inkscape.org/namespaces/inkscape"
   xmlns:sodipodi="http://sodipodi.sourceforge.net/DTD/sodipodi-0.dtd"
   xmlns="http://www.w3.org/2000/svg"
   xmlns:svg="http://www.w3.org/2000/svg"><sodipodi:namedview
     id="namedview1"
     pagecolor="#ffffff"
     bordercolor="#999999"
     borderopacity="1"
     inkscape:showpageshadow="2"
     inkscape:pageopacity="0"
     inkscape:pagecheckerboard="0"
     inkscape:deskcolor="#d1d1d1"
     inkscape:document-units="mm"
     inkscape:zoom="0.76729168"
     inkscape:cx="329.73119"
     inkscape:cy="473.74422"
     inkscape:window-width="1920"
     inkscape:window-height="991"
     inkscape:window-x="-9"
     inkscape:window-y="-9"
     inkscape:window-maximized="1"
     inkscape:current-layer="layer1"
     showguides="false" /><defs
     id="defs1" /><g
     inkscape:label="Layer 1"
     inkscape:groupmode="layer"
     id="layer1"
     style="display:inline"><path
       style="display:inline;fill:#2b3d42;fill-opacity:1;stroke-width:0.326319"
       d="m 113.73408,202.88143 3.06755,15.85284 -22.353092,4.3421 -0.102,-0.56126 5.48275,-6.29112 -1.93141,-10.45637 z"
       id="path16-3"
       sodipodi:nodetypes="ccccccc"
       inkscape:label="sepatu kiri" /><path
       style="display:inline;fill:#2b3d42;fill-opacity:1;stroke-width:0.325104"
       d="m 90.125778,200.21265 3.01269,15.86296 -22.20447,4.29016 -0.0887,-0.56366 5.94035,-6.36665 -1.7941,-10.48122 z"
       id="path17-3"
       sodipodi:nodetypes="ccccccc"
       inkscape:label="sepatu kanan" /><path
       style="display:inline;fill:#8aa687;fill-opacity:1;stroke-width:0.347312"
       d="m 109.8377,175.05502 c 0,0 -12.895272,4.43783 -16.665532,9.72503 -3.05604,4.28562 -3.21819,15.57379 -3.21819,15.57379 0,0 -14.28886,3.82959 -14.37331,3.37338 -3.79596,-20.50629 -0.16482,-25.07015 -0.16482,-25.07015 -0.0244,-3.71363 15.69025,-13.41681 15.69025,-13.41681 0,0 7.28482,-9.69867 11.580972,3.32854 z"
       id="path15-5"
       sodipodi:nodetypes="cscssccc"
       inkscape:label="kaki kanan" /><path
       style="display:inline;fill:#8faa8c;fill-opacity:1;stroke-width:0.358929"
       d="m 129.1923,171.86209 c 0,0 -1.63016,3.66103 -5.64563,8.96301 -1.08635,1.43439 -8.62169,5.48153 -8.88535,8.60445 -0.54311,6.43296 -0.55397,14.66359 -0.55397,14.66359 0,0 -16.343162,3.173 -16.433102,2.71552 -4.04285,-20.56358 -0.0904,-28.38359 -0.0904,-28.38359 -0.026,-3.724 16.710742,-13.45428 16.710742,-13.45428 0,0 7.75862,-9.72577 12.33418,3.33784 z"
       id="path15-2"
       sodipodi:nodetypes="csscssccc"
       inkscape:label="kaki kanan" /><path
       style="display:inline;fill:#8faa8c;fill-opacity:1;stroke-width:0.348877"
       d="m 133.02088,160.97069 -45.189912,0.35528 c 0,0 -0.661612,5.27671 0.107232,7.73961 0.849848,2.72239 4.769487,7.10315 4.769487,7.10315 0,0 2.204603,2.45749 3.570423,3.35129 1.019193,0.66696 3.358221,1.44039 3.358221,1.44039 l 4.342049,0.25445 4.63995,1.06892 4.1536,-0.17761 2.48129,0.38422 c 0,0 1.83245,0.28174 3.68222,-0.11839 1.84977,-0.40013 4.69291,-0.90229 7.33762,-2.52947 2.20347,-1.3557 2.1806,-1.33156 2.96674,-2.25669 0.78614,-0.92514 1.18384,-1.54547 1.76358,-3.58829 0.57974,-2.04287 1.2602,-5.62522 1.2602,-5.62522 0,0 0.62777,-3.4948 0.62777,-5.59561 0,-0.60593 0.12953,-1.80599 0.12953,-1.80599 z"
       id="path13-8"
       sodipodi:nodetypes="ccacaccccczszscscc"
       inkscape:label="celana" /><path
       style="display:inline;fill:#e9c7be;fill-opacity:1;stroke-width:0.349101"
       d="m 82.683798,163.57337 0.11887,1.43469 0.19832,1.52229 0.191,1.79601 0.1181,0.97905 c 0,0 -0.1806,1.06528 -0.80753,1.42134 -0.62697,0.35606 -1.00884,0.26375 -1.00884,0.26375 0,0 -0.74422,-0.0815 -1.19423,0.0159 -0.45001,0.0974 -1.92665,1.16862 -1.92665,1.16862 0,0 -0.37883,0.5067 -0.6455,0.51861 -0.26665,0.0125 -1.3767,0.29341 -2.47905,-0.48231 -1.10236,-0.7757 -0.81125,-0.84025 -1.5636,-1.55424 -0.75233,-0.71399 -2.33471,-1.46828 -2.33471,-1.46828 0,0 -1.10354,-1.42011 -0.86257,-2.64244 0.24098,-1.22229 1.7895,-4.5652 1.7895,-4.5652 l 1.97755,-3.46516 8.62364,4.16466 z"
       id="path11-8"
       sodipodi:nodetypes="cccccscscssscscccc"
       inkscape:label="tagan kanan" /><path
       style="display:inline;fill:#608995;fill-opacity:1;stroke-width:0.289472"
       d="m 95.397608,113.12777 c -2.59118,-1.29322 -7.95101,1.91598 -8.58026,2.54453 -0.59619,0.59559 -4.73955,9.57489 -4.73955,9.57489 l -3.45648,9.02841 -4.17016,12.0083 -3.2965,9.41999 -0.75833,2.35058 -0.20217,0.87591 5.26812,2.51874 6.59587,2.60158 2.14554,0.43006 2.85154,-8.24029 3.47502,-11.55898 3.05372,-9.11622 2.72405,-8.1742 1.26171,-4.56894 c 0,0 1.77496,-7.72445 -2.17212,-9.69436 z"
       id="path9-9"
       sodipodi:nodetypes="ssccccccccccccccs"
       inkscape:label="lengan kanan" /><path
       style="display:inline;fill:#e9c7be;fill-opacity:1;stroke-width:0.32507"
       d="m 133.7089,166.61159 -0.86205,1.38466 -1.17557,1.73063 -0.9774,1.90737 -1.04764,1.68833 c 0,0 -0.76022,0.65781 -1.44595,0.87137 -0.68572,0.21356 -0.87687,0.21746 -1.27376,0.20373 -0.3969,-0.0137 -1.07992,-0.36774 -1.07992,-0.36774 l -0.79395,-0.43595 c 0,0 -0.76325,-0.26818 -1.23602,-0.23045 -0.47275,0.0377 -0.90321,0.0153 -1.09585,-0.1055 -0.1927,-0.12077 -1.137,-0.73764 -1.35449,-0.93588 -0.21754,-0.19822 -0.75888,-0.30258 -1.11665,-1.03431 -0.35774,-0.73176 -0.30992,-1.51851 -0.31144,-1.6432 -0.001,-0.12474 -0.58581,-1.80287 -0.84273,-2.1001 -0.25691,-0.29725 -1.04518,-1.05135 -1.07306,-1.37817 -0.0279,-0.32686 0.0403,-1.41028 0.20511,-1.61633 0.16484,-0.20602 1.15532,-0.90918 1.15532,-0.90918 0,0 1.78142,-0.51657 2.06304,-0.55038 0.2816,-0.0338 1.03794,-0.3322 1.37156,-0.6142 0.58587,-0.49529 0.84901,-1.43832 1.61228,-1.59491 3.40914,-0.69944 9.27917,5.73021 9.27917,5.73021 z"
       id="path12-3"
       inkscape:label="tangan kiri"
       sodipodi:nodetypes="cccccssccssscscsscsssc" /><path
       style="display:inline;fill:#608995;fill-opacity:1;stroke-width:0.264583"
       d="m 131.97578,113.77089 6.21766,2.4383 c 0,0 9.99703,13.8983 11.58192,22.18852 1.5849,8.29022 0,0.24383 0,0.24383 l 0.60958,5.85192 -4.0232,11.58192 -11.70383,12.43532 -12.31341,-9.26553 9.75319,-9.02171 c 0,0 3.29171,-10.72852 3.04788,-12.06958 -0.24383,-1.34107 -7.92447,-12.1915 -7.92447,-12.1915 0,0 -7.43682,-12.31341 4.75468,-12.19149 z"
       id="path8-8" /></g><g
     inkscape:groupmode="layer"
     id="layer2"
     inkscape:label="Layer 2"
     style="display:inline"><path
       style="display:inline;opacity:1;fill:#608995;fill-opacity:1;stroke-width:0.284391"
       d="m 94.048058,111.0036 27.370092,-0.66565 8.68474,2.74583 1.75449,0.58245 c 0,0 2.65185,1.70661 2.67513,5.61939 0.0373,6.2662 -2.49344,24.91758 -2.49344,24.91758 0,0 -0.32521,15.05006 -0.50066,16.29817 -0.0919,0.65379 -0.38535,2.54774 -0.38535,2.54774 0,0 -3.88205,-0.20004 -5.81999,-0.10806 -3.20313,0.152 -6.35159,0.90253 -9.55273,1.08846 -3.72521,0.21638 -11.19654,0.0294 -11.19654,0.0294 0,0 -4.06178,-0.22425 -6.110032,-0.41183 -1.85929,-0.17029 -5.58276,-0.6178 -5.58276,-0.6178 0,0 -1.96155,-0.11167 -3.4427,0.26477 -0.59852,0.15211 -1.62332,-0.37636 -1.75237,-0.58836 -0.25244,-0.41473 -0.26362,-3.97145 -0.26362,-3.97145 l -0.94778,-30.38148 c 0,0 -0.58352,-4.63798 -0.55822,-6.96683 0.0194,-1.78734 0.54452,-5.33738 0.54452,-5.33738 0,0 2.9344,-2.91188 7.57722,-5.04496 z"
       id="path10"
       inkscape:label="badan"
       sodipodi:nodetypes="ccccscscascscssccacc" /><path
       style="display:inline;opacity:1;fill:#c6d4c6;fill-opacity:1;stroke-width:0.284391"
       d="m 120.67249,107.61946 c 0,0 1.40359,3.24506 1.49132,3.41147 0.0877,0.16643 -1.0527,2.08018 -1.84222,2.95386 -0.78952,0.87367 -3.24581,3.82752 -3.24581,3.82752 l -3.11423,3.41148 -1.62291,1.53933 -3.11422,-4.03553 -2.76333,-3.27627 -0.61406,-0.17684 -3.15809,4.24356 -1.62291,2.37141 -0.61406,0.87367 -6.272332,-10.10965 -0.35089,-0.79046 0.70179,-0.74886 0.48249,-1.74735 0.52635,-1.04009 0.21931,-0.41604 z"
       id="path5"
       inkscape:label="kerah"
       sodipodi:nodetypes="csscccccccccccccccc" /><path
       style="display:inline;opacity:1;fill:#e8c4ba;fill-opacity:1;stroke-width:0.27951"
       d="m 86.694318,86.638436 1.0697,5.351832 c 0.10192,1.500513 0.37243,2.959608 1.08554,6.360769 0.71314,3.401163 2.1394,5.101753 2.1394,5.101753 0,0 1.37533,2.10071 2.64878,3.45117 1.27346,1.35047 4.43161,3.60124 4.43161,3.60124 0,0 2.263592,1.68331 3.532352,2.24407 1.14069,0.50415 2.67873,0.87514 3.59561,0.9752 0.9169,0.10007 2.16253,-0.0175 3.21654,-0.23811 1.2412,-0.25979 3.59978,-1.26585 3.59978,-1.26585 l 3.02558,-1.37933 c 0,0 2.80945,-1.66227 3.13361,-1.80374 0.32417,-0.14147 2.7014,-1.80374 2.91752,-1.98058 0.2161,-0.17684 3.06158,-2.58182 3.24167,-2.9355 0.1801,-0.35367 2.41325,-2.47571 2.41325,-2.47571 l 0.93649,-0.84882 6.59141,-9.08944 0.86445,-8.382087 c 0,0 -4.97057,-12.3562 -6.87956,-12.745244 -1.90899,-0.38904 -11.67004,-2.0332 -11.67004,-2.0332 l -13.25487,-2.614391 -7.419842,1.10995 -8.96865,9.854742 z"
       id="path4"
       sodipodi:nodetypes="ccscscasaccsssccccsccccc"
       inkscape:label="wajah" /><path
       style="display:none;opacity:1;fill:#d797a0;fill-opacity:1;stroke-width:0.264583"
       d="m 118.08899,105.00808 c 0,0 0.0528,-1.26119 -0.98699,-1.48601 -1.03979,-0.22482 -1.77044,0.22963 -1.77044,0.22963 0,0 -0.67446,0.46952 -1.01168,1.08777 -0.33723,0.61825 -0.39344,1.09939 -0.39344,1.09939 0,0 -0.14051,0.56205 0.19672,0.78687 0.33723,0.22482 0.78686,0.47774 1.43321,0.47774 0.64636,0 1.13432,0 1.61206,-0.28103 0.47774,-0.28102 0.67587,-0.50584 0.78828,-0.81496 0.11241,-0.30913 0.13228,-1.0994 0.13228,-1.0994 z"
       id="path18"
       sodipodi:nodetypes="cscscssssc"
       inkscape:label="mulut1" /><path
       style="display:none;opacity:1;fill:#d797a0;fill-opacity:1;stroke-width:0.424869"
       d="m 120.13142,104.78113 c 0,0 0.0955,-1.7979 -1.78533,-2.1184 -1.88082,-0.32049 -3.57561,0.32735 -3.57561,0.32735 0,0 -0.84686,0.37052 -1.45682,1.25186 -0.61001,0.88135 -0.71168,1.86608 -0.71168,1.86608 0,0 0.0128,0.80123 0.62281,1.12173 0.60999,0.32048 1.15634,0.68104 2.3255,0.68104 1.16916,0 2.0518,0 2.91597,-0.40063 0.86416,-0.4006 1.22254,-0.7211 1.42588,-1.16176 0.20333,-0.44069 0.23928,-1.56727 0.23928,-1.56727 z"
       id="path23"
       sodipodi:nodetypes="cscscssssc"
       inkscape:label="mulut2" /><path
       style="display:none;opacity:1;fill:#d797a0;fill-opacity:1;stroke-width:0.326153"
       d="m 119.9066,104.99861 c 0,0 0.0955,-1.05949 -1.78533,-1.24836 -1.88082,-0.18886 -3.57561,0.19291 -3.57561,0.19291 0,0 -0.84686,0.21834 -1.45682,0.73771 -0.61001,0.51937 -0.71168,1.09967 -0.71168,1.09967 0,0 0.0128,0.47216 0.62281,0.66103 0.60999,0.18885 1.15634,0.40133 2.3255,0.40133 1.16916,0 2.0518,0 2.91597,-0.23609 0.86416,-0.23607 1.22254,-0.42494 1.42588,-0.68462 0.20333,-0.25969 0.23928,-0.92358 0.23928,-0.92358 z"
       id="path24"
       sodipodi:nodetypes="cscscssssc"
       inkscape:label="mulut3" /><path
       style="display:none;opacity:1;fill:#d797a0;fill-opacity:1;stroke-width:0.233742"
       d="m 118.33724,104.82436 c 0,0 0.0395,-1.31386 -0.73943,-1.54807 -0.77898,-0.23421 -1.48091,0.23922 -1.48091,0.23922 0,0 -0.35075,0.27076 -0.60337,0.91483 -0.25267,0.64406 -0.29477,1.36369 -0.29477,1.36369 0,0 0.004,0.58552 0.25794,0.81973 0.25265,0.2342 0.47894,0.49769 0.96317,0.49769 0.48423,0 0.84979,0 1.20771,-0.29277 0.35791,-0.29275 0.50634,-0.52697 0.59056,-0.84899 0.0842,-0.32204 0.0991,-1.14533 0.0991,-1.14533 z"
       id="path25"
       sodipodi:nodetypes="cscscssssc"
       inkscape:label="mulut4" /><path
       style="display:inline;opacity:1;fill:#d3b2a9;fill-opacity:1;stroke-width:0.328598"
       d="m 100.82382,104.53352 c 0.23833,-0.12272 1.13622,-0.0181 1.70438,-0.0181 1.2778,0 3.72428,0.004 3.72428,0.004 0,0 1.2525,-0.0447 1.52616,-0.0447 0.10998,0 0.27306,-0.0115 0.31698,0.0981 0.058,0.14474 -0.12599,0.16976 -0.22382,0.19314 -0.31236,0.0746 -1.62297,0.1246 -2.43624,0.14338 -0.93631,0.0216 -2.80945,-0.0355 -2.80945,-0.0355 -0.94071,-0.0192 -0.98965,-0.0467 -1.25804,-0.0467 -0.18543,0 -0.42923,-0.011 -0.54892,-0.1175 -0.0538,-0.048 -0.0537,-0.14573 0.005,-0.1758 z"
       id="path27"
       sodipodi:nodetypes="sscsssasssss"
       inkscape:label="mulut diam" /><path
       style="display:none;opacity:1;fill:#d797a0;fill-opacity:1;stroke-width:0.300451"
       d="m 120.04045,103.32502 c 0,0 0.0876,-0.97899 -1.63964,-1.1535 -1.72736,-0.17452 -3.28385,0.17825 -3.28385,0.17825 0,0 -0.77778,0.20175 -1.33795,0.68166 -0.56028,0.47989 -0.65364,1.01611 -0.65364,1.01611 0,0 0.009,0.43627 0.57195,0.61079 0.56025,0.17451 1.06203,0.37083 2.1358,0.37083 1.07376,0 1.88438,0 2.67804,-0.21815 0.79365,-0.21813 1.12279,-0.39266 1.30953,-0.63259 0.18673,-0.23995 0.21976,-0.8534 0.21976,-0.8534 z"
       id="path26"
       sodipodi:nodetypes="cscscssssc"
       inkscape:label="mulut5" /><path
       style="opacity:0.7;fill:#c7a49d;fill-opacity:1;stroke-width:0.356393"
       d="m 103.72975,94.983213 c 0,0 -0.46755,-0.263944 -1.12502,-0.09073 -0.65749,0.173207 -0.89187,0.287416 -1.25328,0.557092 -0.29868,0.222866 -0.63165,0.606908 -0.70777,0.840538 -0.0762,0.233644 -0.13895,0.795791 0.0304,1.140003 0.12192,0.248135 0.37141,0.466664 0.65218,0.549018 0.32839,0.09631 0.70665,-0.07935 0.70665,-0.07935 0,0 0.17861,-0.154601 -0.13902,-0.203655 -0.28758,-0.04439 -0.79538,-0.297711 -0.80306,-0.669453 -0.007,-0.371728 0.20617,-0.661154 0.43977,-0.916767 0.24696,-0.270267 0.6411,-0.475911 0.95587,-0.585533 0.31478,-0.109618 0.73439,-0.206765 1.05497,-0.197837 0.3206,0.009 0.18851,-0.343334 0.18851,-0.343334 z"
       id="path20"
       sodipodi:nodetypes="csacascscasscc"
       inkscape:label="hidung" /><ellipse
       id="path42"
       style="fill:#5f9276;stroke:#000000;stroke-width:0.266147"
       cx="-126.7994"
       cy="144.70566"
       rx="0.032477908"
       ry="0.032863107"
       transform="scale(-1,1)" /></g><g
     inkscape:groupmode="layer"
     id="layer3"
     inkscape:label="mata"
     style="display:inline"
     transform="translate(0,0.36574489)"><path
       style="display:inline;opacity:1;fill:#d2f7f2;fill-opacity:1;stroke-width:0.312358"
       d="m 120.86319,87.410493 0.0418,0.78518 -0.1038,0.995956 c 0,0 -0.19916,1.102187 -0.41354,1.414755 -0.21437,0.312564 -0.3433,0.761792 -0.72315,1.165436 -0.37985,0.403643 -1.59976,1.195242 -1.59976,1.195242 0,0 -1.20055,0.655538 -1.52722,0.719746 -0.32662,0.06421 -1.41542,0.278236 -2.11867,0.244615 -0.70325,-0.03361 -1.37213,-0.153478 -1.91491,-0.3994 -0.54278,-0.245919 -1.04041,-0.51118 -1.28723,-0.976858 -0.65159,-1.229391 -0.46504,-2.937336 -0.15507,-4.125373 0.30952,-1.188034 1.65758,-1.387316 1.65758,-1.387316 l 3.84604,-0.541198 2.71644,0.360989 z"
       id="path21"
       inkscape:label="mata kiri putih"
       sodipodi:nodetypes="cccsccsszaccccc" /><path
       style="display:inline;opacity:1;fill:#0a1f22;fill-opacity:1;stroke-width:0.309876"
       d="m 112.50782,86.900634 c 0,0 1.45114,-0.313478 2.19422,-0.412705 0.5939,-0.07931 1.14449,-0.105357 1.79884,-0.13842 0.65437,-0.03301 1.41178,-0.02146 2.10906,0.06497 0.46023,0.05708 1.43002,0.199394 1.43002,0.199394 5.2e-4,-0.0065 1.11542,0.265019 1.59725,0.545835 0.19591,0.114179 0.39475,0.255704 0.5016,0.448911 0.0802,0.145029 0.25512,0.49044 0.0788,0.486385 -0.0986,-0.0023 -0.76514,-0.267469 -0.76514,-0.267469 0,0 -0.94875,-0.349369 -1.58101,-0.524993 -0.58242,-0.161774 -1.51508,-0.167447 -2.19517,-0.204073 -0.6801,-0.03661 -1.85007,0.0144 -2.1575,0.07772 -0.30741,0.06331 -0.39877,0.06859 -0.39877,0.06859 0,0 1.16187,1.302861 1.11287,2.782371 -0.0156,0.819503 -0.22734,1.716493 -0.74589,2.394069 -0.36304,0.474352 -0.93972,0.824211 -1.53186,1.007886 -0.53522,0.166018 -1.16277,0.22679 -1.68772,0.042 -0.49967,-0.175878 -0.90652,-0.589492 -1.17042,-1.017379 -0.23436,-0.380032 -0.63088,-1.728511 -0.56639,-2.546071 0.0645,-0.817577 0.12359,-1.267487 0.37233,-1.532318 0.0355,-0.03772 -0.40859,0.216261 -0.40859,0.216261 0,0 -0.66923,0.334828 -0.53836,-0.248325 l 0.019,-0.10153 c 0.004,-0.02576 0.0755,-0.176587 0.11126,-0.198435 0.0705,-0.04295 0.4424,-0.39427 0.84276,-0.598031 0.40038,-0.203762 1.01428,-0.376416 1.57877,-0.544658 z"
       id="path19"
       sodipodi:nodetypes="cssscaascsssccaaascsccsszc"
       inkscape:label="mata kiri" /><path
       style="display:inline;opacity:1;fill:#000000;fill-opacity:1;stroke-width:0.284391"
       d="m 112.23668,82.800475 c 1.04936,-0.302385 3.20872,-0.671518 3.20872,-0.671518 0,0 2.59934,-0.199399 3.22262,-0.205967 0.62327,-0.0067 2.73026,0.198028 2.73026,0.198028 l 0.97465,0.237418 c 0,0 0.41849,0.335257 0.37172,0.362678 -0.0468,0.02743 -0.34432,-0.02369 -0.34432,-0.02369 l -1.49367,-0.11656 -1.86008,-0.05312 -1.56285,0.05644 -1.94515,0.184983 -1.6709,0.313451 -1.52511,0.403089 -1.49569,0.539973 -1.04365,0.473828 c 0,0 -0.24109,0.05311 -0.32561,-0.01261 -0.14828,-0.115301 -0.11441,-0.23995 -0.0648,-0.348645 0.10921,-0.239531 0.17366,-0.321028 0.17366,-0.321028 z"
       id="path22"
       sodipodi:nodetypes="ccsccscccccccccsscc"
       inkscape:label="alis kiri" /><path
       style="fill:#0a1f22;fill-opacity:1;stroke-width:0.291466"
       d="m 99.986878,83.841261 -0.50575,-0.460276 -0.87013,-0.65689 -1.01402,-0.532391 -1.27392,-0.391079 -1.16622,-0.219597 -1.53813,-0.153225 -1.07248,-0.0071 -0.63371,0.0042 -0.83343,0.07486 c 0,0 -0.61139,0.06292 -0.86619,0.167819 -0.1953,0.08042 -0.4347,0.397751 0.28626,0.430522 0.16107,0.0073 1.04154,-0.05678 1.04154,-0.05678 l 1.98063,0.02236 1.44492,0.175001 1.14323,0.218551 1.31718,0.455515 0.80977,0.458111 0.80284,0.614711 0.23973,0.219129 c 0,0 0.790292,0.173274 0.70788,-0.363467 z"
       id="path1"
       sodipodi:nodetypes="ccccccccccsscccccccccc"
       inkscape:label="alis kanan" /><path
       style="display:inline;fill:#d2f9f4;fill-opacity:1;stroke-width:0.297269"
       d="m 91.224028,86.53385 -0.0821,0.976616 0.0357,1.595468 0.16061,0.733093 0.56395,1.222661 c 0,0 0.38928,0.626914 0.55794,0.751323 0.1687,0.12441 0.90412,0.737729 0.90412,0.737729 0,0 0.43559,0.391846 0.71412,0.528163 0.29437,0.144062 0.63887,0.219835 0.97465,0.288156 0.3567,0.07258 0.72523,0.129017 1.0917,0.126701 0.34757,-0.0022 0.70971,-0.03342 1.02363,-0.133174 0.28178,-0.08954 0.7087,-0.39346 0.7087,-0.39346 l 0.55444,-0.685033 0.50115,-1.850092 -0.39838,-1.978588 -1.95421,-1.417886 c 0,0 -3.04891,-0.703165 -3.11807,-0.73645 -0.0691,-0.03328 -2.23794,0.234772 -2.23794,0.234772 z"
       id="path7"
       sodipodi:nodetypes="cccccscaaascccccscc"
       inkscape:label="mata kanan putih" /><path
       style="fill:#0a1f22;stroke-width:0.30339"
       d="m 90.083258,86.58677 c 0,0 0.41287,-0.203511 0.63037,-0.280991 0.23497,-0.0837 0.72442,-0.197079 0.72442,-0.197079 l 0.87992,-0.141726 1.0774,0.05128 1.44068,0.198692 c 0,0 0.95976,0.160806 1.42032,0.307597 0.51251,0.163358 0.99822,0.35007 1.48242,0.559306 0.24136,0.104293 0.48815,0.208621 0.70745,0.346228 0.21432,0.134484 0.43851,0.279944 0.6291,0.423109 0.14761,0.110889 0.29622,0.237809 0.38253,0.39646 0.0661,0.12139 0.13402,0.299706 0.0462,0.405786 -0.071,0.08596 -0.2287,0.05292 -0.34413,0.04189 -0.15644,-0.01497 -0.44804,-0.144136 -0.44804,-0.144136 0,0 0.16536,0.339409 0.19212,0.458688 0.0779,0.348955 0.0581,0.654073 0.0716,0.98798 0.0136,0.339074 0.0268,0.684844 -0.0343,1.017777 0,0 -0.0479,0.412903 -0.11177,0.609842 -0.0867,0.268651 -0.36362,0.767756 -0.36362,0.767756 l -0.39156,0.461343 -0.4802,0.332889 -0.59065,0.168496 c 0,0 -0.56195,-0.04085 -0.82549,-0.129257 -0.29654,-0.09948 -0.61665,-0.23776 -0.82245,-0.442037 -0.27984,-0.277773 -0.42716,-0.66434 -0.64427,-1.09388 -0.21712,-0.429541 -0.3435,-0.993013 -0.41954,-1.506651 -0.0789,-0.533163 -0.0931,-1.078517 -0.0346,-1.612219 0.0498,-0.45428 0.28679,-1.232106 0.32588,-1.332471 0.0391,-0.100367 -0.0996,-0.227482 -0.0996,-0.227482 l -1.03016,-0.232531 -0.62567,-0.0073 -0.76083,-0.0056 c 0,0 -0.58181,0.0852 -0.87041,0.154689 -0.17526,0.04219 -0.52348,0.169152 -0.52348,0.169152 l -0.54125,0.168197 c -0.19626,-0.106103 -0.0983,-0.28198 -0.0769,-0.482819 z"
       id="path2"
       inkscape:label="mata kanan"
       sodipodi:nodetypes="caccccsasssaacsssaccccaszaasccccscccc" /><path
       style="display:inline;fill:#d1afa7;fill-opacity:1;stroke-width:0.266147"
       d="m 109.1922,92.558171 c 0.18321,-0.04967 0.19671,1.393342 1.2927,1.819876 1.09599,0.426534 1.2084,0.426534 1.2084,0.426534 0,0 -0.84359,0.177697 -1.2365,0.05057 -0.46284,-0.14975 -0.86658,-0.53601 -1.15219,-0.90364 -0.18498,-0.238103 -0.30936,-0.550198 -0.30913,-0.853067 1.5e-4,-0.191925 -0.10801,-0.457655 0.19672,-0.540275 z"
       id="path6"
       inkscape:label="kerut mata"
       sodipodi:nodetypes="sscasss" /><path
       style="display:inline;fill:#d1afa7;fill-opacity:1;stroke-width:0.23049"
       d="m 99.320098,92.437185 c 0,0 -0.14753,1.393342 -0.96952,1.819876 -0.82199,0.426533 -0.9063,0.426533 -0.9063,0.426533 0,0 0.72103,7.39e-4 1.04167,-0.142178 0.33434,-0.14903 0.63837,-0.396329 0.84128,-0.710889 0.1593,-0.246961 0.14041,-0.853067 0.14041,-0.853067 0,0 0.0678,-0.481886 -0.14754,-0.540275 z"
       id="path6-1"
       inkscape:label="kerut mata"
       sodipodi:nodetypes="cscascc" /></g><g
     inkscape:groupmode="layer"
     id="g33"
     inkscape:label="mata setengah "
     style="display:none"
     transform="translate(0.05620455,1.0116819)"><path
       style="display:inline;opacity:1;fill:#d2f7f2;fill-opacity:1;stroke-width:0.259324"
       d="m 101.09335,88.959196 0.032,0.772163 0.15965,0.78404 c 0,0 0.2395,0.748405 0.44705,0.985995 0.20755,0.237587 0.23948,0.344503 0.76636,0.902835 0.52686,0.558334 1.42094,0.974113 1.42094,0.974113 0,0 1.08566,0.463298 1.37305,0.498938 0.28738,0.03564 1.24533,0.154433 1.85203,0.09503 0.6067,-0.05941 1.22703,-0.304418 1.50078,-0.422019 0.29997,-0.128852 1.01578,-0.473218 1.22615,-0.860961 0.54246,-0.999866 0.14692,-2.304608 -0.20428,-3.231204 -0.35127,-0.926597 -1.53273,-1.02163 -1.53273,-1.02163 l -3.36877,-0.249469 -2.34696,0.19007 z"
       id="path28"
       inkscape:label="mata kiri putih"
       sodipodi:nodetypes="cccsscsssaccccc" /><path
       style="display:inline;opacity:1;fill:#0a1f22;fill-opacity:1;stroke-width:0.264787"
       d="m 110.96174,89.449477 c 0,0 -0.54634,-0.348288 -0.85027,-0.476486 -0.4394,-0.185342 -1.39139,-0.423328 -1.39139,-0.423328 l -2.02242,-0.223151 c 0,0 -1.0628,-0.09865 -1.66609,-0.105285 -0.60329,-0.0066 -1.30478,-8.83e-4 -1.94585,0.08843 -0.42312,0.05898 -1.26279,0.29088 -1.26279,0.29088 0,0 -1.13669,0.324406 -1.67445,0.5673 -0.167323,0.07557 -0.401812,0.174002 -0.466563,0.315231 -0.06272,0.136819 -0.01692,0.371058 0.143638,0.389275 0.160532,0.0182 0.725655,-0.230938 0.725655,-0.230938 0,0 1.0948,-0.451603 1.67466,-0.609631 0.53416,-0.145569 1.1136,-0.261805 1.73957,-0.311163 0.62595,-0.04936 1.69634,0.01779 1.98048,0.05874 0.28411,0.04095 0.40191,0.158835 0.40191,0.158835 0,0 -0.87337,1.030167 -0.78772,2.025871 0.0264,0.648673 0.14746,1.606306 0.62066,2.130328 0.38714,0.428699 0.92245,0.649439 1.26241,0.705705 0.35503,0.05876 1.02661,-0.03512 1.478,-0.207609 0.40595,-0.155047 0.77374,-0.36008 1.01055,-0.706919 0.21033,-0.308041 0.5492,-1.500339 0.47778,-2.146023 -0.0714,-0.64569 -0.12669,-0.891858 -0.2501,-1.149746 -0.0492,-0.102902 0.43589,0.160452 0.43589,0.160452 0,0 0.58902,0.307069 0.36644,-0.300811 z"
       id="path29"
       sodipodi:nodetypes="cscccscssscsssccssascsccc"
       inkscape:label="mata kiri" /><path
       style="opacity:1;fill:#000000;fill-opacity:1;stroke-width:0.273552"
       d="m 111.68787,85.372305 c 0,0 -1.50596,-0.893163 -2.55224,-1.258227 -0.96685,-0.337352 -2.99451,-0.682442 -2.99451,-0.682442 0,0 -2.39283,-0.253118 -2.97486,-0.282582 -0.58202,-0.02946 -2.52265,0.05887 -2.52265,0.05887 l -1.295967,0.210495 c 0,0 -0.04818,0.146907 -0.0052,0.175724 0.0425,0.02882 0.3553,0.06117 0.3553,0.06117 l 1.371287,-0.05618 1.74183,0.03026 1.45419,0.0847 1.7822,0.15957 1.57286,0.403066 1.41287,0.396414 1.3671,0.646472 0.95383,0.506613 c 0,0 0.22286,0.06135 0.30478,-5.27e-4 0.14371,-0.108541 0.0866,-0.225805 0.0763,-0.342252 -0.004,-0.04 -0.0464,-0.111136 -0.0464,-0.111136 z"
       id="path30"
       sodipodi:nodetypes="cscsccscccccccccsacc"
       inkscape:label="alis kiri" /><path
       style="fill:#000000;fill-opacity:1;stroke-width:0.280356"
       d="m 120.76381,84.946044 0.49139,-0.432347 0.83985,-0.610365 0.96905,-0.480804 1.20593,-0.329409 1.09825,-0.164704 1.44281,-0.08236 1.00191,0.04117 0.59165,0.03265 0.77525,0.111473 c 0,0 0.56838,0.08969 0.802,0.20485 0.17905,0.08827 0.38948,0.412794 -0.28518,0.412794 -0.15073,0 -0.97037,-0.102943 -0.97037,-0.102943 l -1.85064,-0.06691 -1.35668,0.108092 -1.07673,0.164704 -1.249,0.391174 -0.77525,0.416542 -0.77523,0.571686 -0.23297,0.20588 c 0,0 -0.74524,0.1358 -0.64604,-0.391173 z"
       id="path31"
       sodipodi:nodetypes="ccccccccccsscccccccccc"
       inkscape:label="alis kanan" /><path
       style="display:inline;fill:#d2f9f4;fill-opacity:1;stroke-width:0.25138"
       d="m 129.28547,88.361205 -0.0154,0.810108 -0.17181,1.312149 -0.20306,0.593319 -0.59355,0.969849 c 0,0 -0.39049,0.490627 -0.54668,0.581909 -0.15623,0.09128 -0.84349,0.547679 -0.84349,0.547679 0,0 -0.40956,0.293871 -0.66138,0.387656 -0.26612,0.09913 -0.56936,0.138625 -0.86443,0.172579 -0.31345,0.03605 -0.63567,0.05807 -0.95093,0.03176 -0.29898,-0.02494 -0.60793,-0.07474 -0.86934,-0.177817 -0.23465,-0.09252 -0.57525,-0.37132 -0.57525,-0.37132 l -0.48342,-0.606447 -0.28116,-1.55868 0.15621,-1.631629 2.24924,-1.004077 c 0,0 2.68659,-0.376528 2.74906,-0.39935 0.0626,-0.02284 1.90561,0.3423 1.90561,0.3423 z"
       id="path32"
       sodipodi:nodetypes="cccccscaaascccccscc"
       inkscape:label="mata kanan putih" /><path
       style="fill:#0a1f22;stroke-width:0.254498"
       d="m 130.38908,88.496913 -0.67089,-0.27772 -0.69327,-0.196033 -0.82747,-0.09801 -1.00636,0.04901 -1.34182,0.163362 -1.31946,0.245047 c 0,0 -1.27473,0.457415 -1.36419,0.490089 -0.0896,0.03266 -0.64856,0.261381 -0.64856,0.261381 l -0.5367,0.359399 -0.38019,0.294053 -0.0446,0.228707 c 0,0 0.13419,0.09801 0.33547,0.09801 0.20127,0 0.44726,-0.163363 0.44726,-0.163363 0,0 -0.0904,0.211875 -0.11174,0.30181 -0.0626,0.263121 -0.0446,0.760051 -0.0446,0.760051 l 0.0336,0.767804 0.12299,0.45742 0.30112,0.579939 0.38018,0.343063 0.45924,0.245625 0.49202,0.121943 c 0,0 0.60382,-0.03647 0.76036,-0.150822 0.1526,-0.111469 0.6368,-0.404613 0.6368,-0.404613 0,0 0.57084,-0.588108 0.63792,-0.735135 0.067,-0.147028 0.46963,-0.865825 0.46963,-1.143544 0,-0.277716 0.0225,-0.963843 0.0225,-1.192551 0,-0.228707 -0.16816,-0.93171 -0.20771,-1.006796 -0.0393,-0.07507 -0.0869,-0.161721 -0.0869,-0.161721 l 0.95671,-0.184824 0.58511,-0.01155 0.7116,-0.01155 0.82229,0.127068 0.50604,0.196374 0.44277,0.115514 c 0,0 0.19631,-0.09161 0.16142,-0.467437 z"
       id="path33"
       inkscape:label="mata kanan"
       sodipodi:nodetypes="cccccccsccccscscccccccscssssccccccccc" /><path
       style="display:inline;fill:#d1afa7;fill-opacity:1;stroke-width:0.264583"
       d="m 111.31335,92.401706 c -0.18321,-0.04909 -0.19671,1.377011 -1.2927,1.798545 -1.09599,0.421534 -1.2084,0.421534 -1.2084,0.421534 0,0 0.84359,0.175615 1.2365,0.04998 0.46284,-0.147995 0.86658,-0.529728 1.15219,-0.893048 0.18498,-0.235313 0.30936,-0.543749 0.30913,-0.843068 -1.5e-4,-0.189676 0.10801,-0.452291 -0.19672,-0.533943 z"
       id="path6-4"
       inkscape:label="kerut mata"
       sodipodi:nodetypes="sscasss" /><path
       style="display:inline;fill:#d1afa7;fill-opacity:1;stroke-width:0.229135"
       d="m 121.18545,92.282138 c 0,0 0.14753,1.377011 0.96952,1.798545 0.82199,0.421534 0.9063,0.421534 0.9063,0.421534 0,0 -0.72103,7.3e-4 -1.04167,-0.140512 -0.33434,-0.147283 -0.63837,-0.391683 -0.84128,-0.702556 -0.1593,-0.244067 -0.14041,-0.843068 -0.14041,-0.843068 0,0 -0.0678,-0.476238 0.14754,-0.533943 z"
       id="path6-1-5"
       inkscape:label="kerut mata"
       sodipodi:nodetypes="cscascc" /></g><g
     inkscape:groupmode="layer"
     id="g39"
     inkscape:label="mata tertutup"
     style="display:none"
     transform="translate(-0.1124091,1.124091)"><path
       style="display:inline;opacity:1;fill:#0a1f22;fill-opacity:1;stroke-width:0.315263"
       d="m 110.38412,91.204145 c -0.0148,-0.07205 -0.40362,-0.326734 -0.81632,-0.528908 -0.4127,-0.202176 -1.11152,-0.481364 -1.67902,-0.646078 -0.55354,-0.160666 -1.67815,-0.408049 -1.67815,-0.408049 0,0 -1.05449,-0.131816 -1.65546,-0.191898 -0.601,-0.06008 -1.30227,-0.05658 -1.94839,0.01598 -0.42646,0.04791 -1.27909,0.205967 -1.27909,0.205967 0,0 -1.15691,0.300221 -1.711992,0.598787 -0.172719,0.09288 -0.414185,0.21249 -0.48975,0.406924 -0.07324,0.18836 -0.04437,0.469403 0.114308,0.508673 0.158633,0.03925 0.741011,-0.247749 0.741011,-0.247749 0,0 1.121483,-0.347964 1.711943,-0.522882 0.54391,-0.161128 1.29319,-0.20373 1.92114,-0.220979 0.62795,-0.01725 2.10557,0.160763 2.38566,0.242601 0,0 2.03685,0.488493 3.00919,0.867221 0.34078,0.132733 0.98152,0.489146 0.98152,0.489146 0,0 0.53711,0.129349 0.3934,-0.568747 z"
       id="path35"
       sodipodi:nodetypes="szsccscssscsscacss"
       inkscape:label="mata kiri" /><path
       style="opacity:1;fill:#808080;fill-opacity:1;stroke-width:0.296234"
       d="m 111.05648,85.563282 c 0,0 -1.69494,-0.862239 -2.85584,-1.186625 -1.07277,-0.29977 -3.30927,-0.632309 -3.30927,-0.632309 0,0 -2.61701,-0.116376 -3.25148,-0.110156 -0.63447,0.0062 -2.727381,0.321088 -2.727381,0.321088 l -1.394705,0.310684 c 0,0 -0.03067,0.270179 0.01732,0.298404 0.04799,0.02821 0.359473,0.05234 0.359473,0.05234 0,0 1.015124,-0.08063 1.522375,-0.120437 0.623198,-0.04888 1.867268,-0.142241 1.867268,-0.142241 0,0 1.0787,0.02114 1.61281,0.02235 0.65223,0.0015 1.3075,0.06157 1.95204,0.133795 0.58541,0.06561 1.13254,0.100324 1.69008,0.205924 0.54204,0.102656 1.60199,0.414399 1.60199,0.414399 l 1.51178,0.460109 1.06966,0.482593 c 0,0 0.24621,0.05147 0.3312,-0.02047 0.14911,-0.126086 0.0793,-0.24841 0.0605,-0.372933 -0.007,-0.04269 -0.0577,-0.116467 -0.0577,-0.116467 z"
       id="path36"
       sodipodi:nodetypes="cscsccscscssacccsacc"
       inkscape:label="alis kiri" /><path
       style="fill:#808080;fill-opacity:1;stroke-width:0.289203"
       d="m 120.70734,85.545539 0.54896,-0.414511 0.93967,-0.587036 1.08661,-0.46632 1.35514,-0.32635 1.23558,-0.169444 1.62468,-0.09605 1.12925,0.02619 0.66695,0.02334 0.87464,0.09546 c 0,0 0.64132,0.0775 0.90578,0.183297 0.20268,0.08109 0.44325,0.384892 -0.31686,0.393435 -0.16984,0.0019 -1.09439,-0.08492 -1.09439,-0.08492 l -2.08577,-0.03975 -1.52736,0.11926 -1.21133,0.169174 -1.403,0.385222 -0.86894,0.403179 -0.86729,0.549691 -0.26025,0.197374 c 0,0 -0.83818,0.13768 -0.73207,-0.361225 z"
       id="path37"
       sodipodi:nodetypes="ccccccccccsscccccccccc"
       inkscape:label="alis kanan" /><path
       style="fill:#0a1f22;stroke-width:0.277252"
       d="m 130.25454,89.798216 -0.58879,-0.189769 c 0,0 -0.56535,-0.141754 -0.84364,-0.180686 -0.28168,-0.0394 -0.83372,-0.100726 -0.83372,-0.100726 l -1.03065,-0.01788 c 0,0 -0.94283,0.05152 -1.41037,0.113299 -0.44667,0.05901 -1.32904,0.245443 -1.32904,0.245443 0,0 -0.93772,0.26289 -1.40422,0.402307 -0.22739,0.06796 -0.67978,0.211617 -0.67978,0.211617 0,0 -0.38469,0.144989 -0.54362,0.269736 -0.11431,0.08976 -0.24037,0.187158 -0.28057,0.333143 -0.0402,0.145982 -0.0112,0.416123 0.1151,0.44905 0.2638,0.06892 0.83425,-0.26127 1.25254,-0.388144 0.52822,-0.160216 1.05206,-0.336872 1.58754,-0.471137 0.31705,-0.07949 0.63943,-0.136606 0.9606,-0.197569 0.26104,-0.04955 0.78532,-0.136673 0.78532,-0.136673 0,0 0.60579,-0.0735 0.9103,-0.08818 0.21779,-0.0106 0.43626,-0.0085 0.65414,1.54e-4 0.23288,0.0093 0.46234,0.03162 0.69697,0.05531 0.28329,0.02864 0.61714,0.05666 0.85127,0.100336 0.23413,0.04369 0.55388,0.142373 0.55388,0.142373 l 0.98409,0.309808 c 0,0 0.68155,-0.03651 0.33594,-0.599493 z"
       id="path39"
       inkscape:label="mata kanan"
       sodipodi:nodetypes="ccsccscacazsaaacaaszcccc" /><path
       style="display:inline;fill:#d1afa7;fill-opacity:1;stroke-width:0.264583"
       d="m 111.30956,91.341021 c -0.18321,-0.04909 -0.19671,1.377011 -1.2927,1.798545 -1.09599,0.421534 -1.2084,0.421534 -1.2084,0.421534 0,0 0.84359,0.175615 1.2365,0.04998 0.46284,-0.147995 0.86658,-0.529728 1.15219,-0.893048 0.18498,-0.235313 0.30936,-0.543749 0.30913,-0.843068 -1.5e-4,-0.189676 0.10801,-0.452291 -0.19672,-0.533943 z"
       id="path6-6"
       inkscape:label="kerut mata"
       sodipodi:nodetypes="sscasss" /><path
       style="display:inline;fill:#d1afa7;fill-opacity:1;stroke-width:0.229135"
       d="m 120.96614,91.264556 c 0,0 0.14753,1.377011 0.96952,1.798545 0.82199,0.421534 0.9063,0.421534 0.9063,0.421534 0,0 -0.72103,7.3e-4 -1.04167,-0.140512 -0.33434,-0.147283 -0.63837,-0.391683 -0.84128,-0.702556 -0.1593,-0.244067 -0.14041,-0.843068 -0.14041,-0.843068 0,0 -0.0678,-0.476238 0.14754,-0.533943 z"
       id="path6-1-1"
       inkscape:label="kerut mata"
       sodipodi:nodetypes="cscascc" /></g><g
     inkscape:groupmode="layer"
     id="layer4"
     inkscape:label="rambut"><path
       style="display:inline;opacity:1;fill:#241c1c;fill-opacity:1;stroke-width:0.275863"
       d="m 90.599293,75.721893 c 0,0 -2.288265,0.710118 -3.637535,8.557244 -0.37873,2.202613 0.32046,5.540066 0.32046,5.540066 0,0 -2.83801,-3.83539 -3.03756,-10.74185 -0.14887,-5.151766 0.52002,-9.753342 1.16506,-12.104148 0.64504,-2.350806 1.83461,-5.252067 3.51465,-7.407829 1.28431,-1.647978 2.98932,-3.009646 4.83503,-3.988746 1.78167,-0.945128 4.36636,-1.65504 5.80528,-1.705057 0.995432,-0.0346 3.107722,-0.61501 5.061022,-0.957877 3.05225,-0.535775 5.08275,-0.909666 8.51974,-0.509568 3.437,0.400096 8.35961,1.243369 12.07302,3.108767 1.82392,0.916232 3.3331,2.391195 4.76516,3.84564 1.64073,1.666391 3.25755,3.427085 4.32081,5.527249 1.18959,2.3497 1.86649,4.78835 2.16419,7.639329 0.29771,2.850975 0.30529,1.300443 0.40453,2.900993 0.0992,1.600549 0,2.504121 0,4.151422 0,1.608532 -0.29359,4.951698 -0.64092,6.252142 -0.34732,1.300445 -1.79499,6.566859 -2.34078,7.767269 -0.5458,1.200414 -2.56544,3.553924 -2.56544,3.553924 l -2.66887,2.169033 c 0,0 1.49906,-2.665053 2.14409,-3.615384 0.64503,-0.950324 1.54419,-2.88662 1.8089,-4.47299 0.2816,-1.687525 0.33705,-3.527577 -0.27502,-5.125202 -0.42162,-1.1005 -2.21793,-2.753285 -2.21793,-2.753285 0,0 -1.56083,-0.424359 -2.25548,-0.07424 -0.69464,0.350121 -2.56806,2.503657 -2.56806,2.503657 0,0 -1.73913,-6.611853 -7.22813,-9.413261 -1.64225,-0.838147 -4.67977,-1.060493 -6.77651,-1.007523 0,0 -8.99227,11.790813 -9.65331,11.399447 0,0 -0.0657,-11.118017 -0.36377,-10.941549 0,0 -4.718352,9.250756 -5.117552,9.250756 -0.36098,0 -0.870058,-9.098717 -1.023368,-9.18948 0,0 -2.031166,4.401308 -3.147769,5.852665"
       id="path3"
       inkscape:label="rambut"
       sodipodi:nodetypes="cscssaasscaaasssssccsaacscsscsssc" /><path
       style="fill:#d1ada5;fill-opacity:1;stroke-width:0.641017"
       d="m 106.43344,107.68822 c 0,0 -1.31254,0.13442 -1.97111,0.12979 -0.62872,-0.005 -1.87965,-0.15037 -1.87965,-0.15037 0,0 1.8433,1.21459 3.85076,0.0206 z"
       id="path34"
       sodipodi:nodetypes="cscc"
       inkscape:label="kerut mulut" /></g></svg>
