<?xml version="1.0" encoding="UTF-8" standalone="no"?>
<!-- Created with Inkscape (http://www.inkscape.org/) -->

<svg
   width="210mm"
   height="297mm"
   viewBox="0 0 210 297"
   version="1.1"
   id="svg1"
   xml:space="preserve"
   inkscape:version="1.3.2 (091e20e, 2023-11-25, custom)"
   sodipodi:docname="Karakter NPC Duduk .svg"
   xmlns:inkscape="http://www.inkscape.org/namespaces/inkscape"
   xmlns:sodipodi="http://sodipodi.sourceforge.net/DTD/sodipodi-0.dtd"
   xmlns="http://www.w3.org/2000/svg"
   xmlns:svg="http://www.w3.org/2000/svg"><sodipodi:namedview
     id="namedview1"
     pagecolor="#ffffff"
     bordercolor="#999999"
     borderopacity="1"
     inkscape:showpageshadow="2"
     inkscape:pageopacity="0"
     inkscape:pagecheckerboard="0"
     inkscape:deskcolor="#d1d1d1"
     inkscape:document-units="mm"
     inkscape:zoom="1.1768768"
     inkscape:cx="351.77854"
     inkscape:cy="419.33021"
     inkscape:window-width="1920"
     inkscape:window-height="991"
     inkscape:window-x="-9"
     inkscape:window-y="-9"
     inkscape:window-maximized="1"
     inkscape:current-layer="layer2" /><defs
     id="defs1" /><g
     inkscape:label="Layer 1"
     inkscape:groupmode="layer"
     id="layer1"
     style="display:inline" /><g
     inkscape:groupmode="layer"
     id="layer2"
     inkscape:label="Layer 2"
     style="display:inline"><path
       style="display:inline;fill:#343939;fill-opacity:1;stroke-width:0.311134"
       d="m 104.83419,195.45933 -3.05428,14.47437 22.2564,3.96453 0.10157,-0.51246 -5.45904,-5.74408 1.92306,-9.54714 z"
       id="path16-6"
       sodipodi:nodetypes="ccccccc"
       inkscape:label="sepatu kiri" /><path
       style="display:inline;fill:#343939;fill-opacity:1;stroke-width:0.279568"
       d="m 126.31776,193.18709 -3.00781,11.74955 22.16849,3.1777 0.0885,-0.41752 -5.93071,-4.71571 1.79118,-7.76335 z"
       id="path17-5"
       sodipodi:nodetypes="ccccccc"
       inkscape:label="sepatu kanan" /><path
       style="display:inline;fill:#646d72;fill-opacity:1;stroke-width:0.31149"
       d="m 109.67412,168.85448 c 0,0 11.61375,4.63411 15.66722,8.80514 1.61894,1.66592 1.15232,15.75101 1.15232,15.75101 0,0 13.53879,1.81699 13.61384,1.40393 3.37227,-18.56659 0.14642,-22.69875 0.14642,-22.69875 0.0215,-3.36235 -13.93896,-12.1477 -13.93896,-12.1477 0,0 -6.47173,-8.78129 -10.28835,3.0137 z"
       id="path15-3"
       sodipodi:nodetypes="cscssccc"
       inkscape:label="kaki kanan" /><path
       style="display:inline;fill:#666f75;fill-opacity:1;stroke-width:0.328303"
       d="m 91.259406,167.26492 c 0,0 -0.33845,4.15182 3.40032,8.91586 1.0115,1.28885 11.276134,4.92537 11.455314,6.73661 0.57126,5.77415 -0.8101,13.30849 -0.8101,13.30849 0,0 14.76343,2.75466 14.86003,2.3462 4.54778,-19.22758 0.52486,-25.41002 0.52486,-25.41002 0.0243,-3.3462 -15.55926,-12.08923 -15.55926,-12.08923 0,0 -7.224034,-8.73901 -11.484294,2.99917 z"
       id="path15-2"
       sodipodi:nodetypes="csscssccc"
       inkscape:label="kaki kanan" /><path
       style="display:inline;fill:#666f75;fill-opacity:1;stroke-width:0.323024"
       d="m 84.548896,159.17306 43.484634,0.78993 c 0,0 0.2232,3.69866 -0.17051,6.24455 -0.25882,1.67372 -2.79038,5.72465 -2.79038,5.72465 0,0 -2.00046,3.21016 -3.58241,4.04895 -1.21172,0.64249 -4.06713,0.51009 -4.06713,0.51009 l -4.22335,0.2741 -4.57738,0.92889 -4.09759,-0.15434 -2.44784,0.33388 c 0,0 -1.80773,0.24485 -3.632554,-0.10282 -1.82483,-0.34771 -5.26115,-1.83091 -6.73606,-2.62695 -1.4749,-0.79605 -1.53572,-0.7283 -2.31126,-1.53225 -0.77553,-0.80393 -1.71257,-1.68819 -2.5228,-3.11824 -0.9168,-1.61815 -1.57829,-4.88834 -1.57829,-4.88834 0,0 -0.61931,-3.037 -0.61931,-4.86261 0,-0.52654 -0.12777,-1.56941 -0.12777,-1.56941 z"
       id="path13-7"
       sodipodi:nodetypes="ccscaccccczzsscscc"
       inkscape:label="celana" /><path
       style="display:inline;fill:#e9c7be;fill-opacity:1;stroke-width:0.318079"
       d="m 132.17719,154.28555 -0.11643,1.21593 -0.19428,1.29017 -0.18707,1.52216 -0.1157,0.82974 c 0,0 0.17692,0.90286 0.79101,1.20462 0.61414,0.30177 0.98818,0.22354 0.98818,0.22354 0,0 0.729,-0.0692 1.1698,0.0135 0.44081,0.0826 1.88722,0.99042 1.88722,0.99042 0,0 0.37108,0.42945 0.63231,0.43952 0.26117,0.0106 1.34851,0.2487 2.4283,-0.40876 1.0798,-0.65743 0.79465,-0.71211 1.53159,-1.31726 0.73695,-0.6051 2.28695,-1.24438 2.28695,-1.24438 0,0 1.08095,-1.20356 0.84492,-2.23951 -0.23607,-1.03592 -1.75288,-3.86908 -1.75288,-3.86908 l -1.93709,-2.9368 -8.44715,3.52964 z"
       id="path11-9"
       sodipodi:nodetypes="cccccscscssscscccc"
       inkscape:label="tagan kanan" /><path
       style="display:inline;fill:#e2e4ed;fill-opacity:1;stroke-width:0.229665"
       d="m 121.98366,114.30859 c 2.07675,-1.01568 6.37247,1.50482 6.8768,1.9985 0.47783,0.46777 3.79857,7.52012 3.79857,7.52012 l 2.77026,7.09091 3.34224,9.43133 2.64204,7.39847 0.60778,1.84616 0.16202,0.68792 -4.22223,1.97821 -5.28636,2.0433 -1.71957,0.33777 -2.2854,-6.47194 -2.78511,-9.07843 -2.44746,-7.15988 -2.18323,-6.42001 -1.01123,-3.58846 c 0,0 -1.42257,-6.06679 1.74088,-7.61397 z"
       id="path9-4"
       sodipodi:nodetypes="ssccccccccccccccs"
       inkscape:label="lengan kanan" /><path
       style="display:inline;opacity:1;fill:#e2e4ed;fill-opacity:1;stroke-width:0.259905"
       d="m 121.50566,112.12008 -24.799402,-0.61359 -7.869039,2.53108 -1.589704,0.5369 c 0,0 -2.402781,1.57314 -2.423871,5.17991 -0.03378,5.77613 2.25925,22.96881 2.25925,22.96881 0,0 0.294664,13.87303 0.453633,15.02352 0.08327,0.60265 0.236749,1.5892 0.236749,1.5892 0,0 3.868243,0.82237 5.385766,1.03931 1.517523,0.21694 9.442368,0.6237 9.442368,0.6237 l 9.35806,0.0272 5.87337,-0.10846 4.15914,-0.13559 c 0,0 2.47788,-0.18341 3.6814,-0.46099 0.54606,-0.12596 1.47085,-0.34692 1.58778,-0.54235 0.22873,-0.3823 0.23886,-3.66085 0.23886,-3.66085 l 0.85877,-28.0054 c 0,0 0.52871,-4.27525 0.50578,-6.42196 -0.0176,-1.64756 -0.49337,-4.91995 -0.49337,-4.91995 0,0 -2.65879,-2.68415 -6.86554,-4.6504 z"
       id="path10"
       inkscape:label="badan"
       sodipodi:nodetypes="ccccscscsccccssccacc" /><path
       style="display:inline;fill:#e9c7be;fill-opacity:1;stroke-width:0.306157"
       d="m 85.708669,160.25312 0.87991,1.20326 1.19994,1.50393 0.99766,1.65751 1.06935,1.46716 c 0,0 0.77599,0.57166 1.47592,0.75724 0.69993,0.18558 0.89504,0.18897 1.30017,0.17703 0.40512,-0.012 1.1023,-0.31956 1.1023,-0.31956 l 0.8104,-0.37885 c 0,0 0.77907,-0.23304 1.26164,-0.20026 0.48256,0.0327 0.92192,0.0132 1.11858,-0.0916 0.19668,-0.10493 1.16055,-0.64101 1.38254,-0.81329 0.22205,-0.17225 0.77461,-0.26294 1.1398,-0.89881 0.36516,-0.6359 0.31634,-1.3196 0.3179,-1.42794 10e-4,-0.10843 0.597941,-1.56672 0.860191,-1.825 0.26224,-0.25832 1.06684,-0.91363 1.09531,-1.19764 0.0284,-0.28404 -0.0412,-1.22555 -0.20937,-1.40459 -0.16826,-0.17904 -1.17925,-0.79009 -1.17925,-0.79009 0,0 -1.818361,-0.4489 -2.105811,-0.47828 -0.28745,-0.0294 -1.05946,-0.28868 -1.39999,-0.53374 -0.59802,-0.43042 -0.86662,-1.24992 -1.6457,-1.38598 -3.4798,-0.60783 -9.4715,4.97958 -9.47149,4.97958 z"
       id="path12-1"
       inkscape:label="tangan kiri"
       sodipodi:nodetypes="cccccssccssscscsscsssc" /><path
       style="display:inline;fill:#e2e4ed;fill-opacity:1;stroke-width:0.226922"
       d="m 89.156119,114.3343 -5.26299,2.11892 c 0,0 -8.46207,12.07766 -9.80362,19.28191 -1.34155,7.20423 0,0.21188 0,0.21188 l -0.51598,5.08535 3.40548,10.06474 9.9068,10.80634 10.4228,-8.05178 -8.25568,-7.83991 c 0,0 -2.22424,-8.81729 -2.01785,-9.98268 0.20639,-1.16539 7.26978,-9.52656 7.26978,-9.52656 0,0 5.17087,-12.27414 -5.14874,-12.16821 z"
       id="path8-5"
       sodipodi:nodetypes="ccsccccccscc" /><path
       style="display:inline;opacity:1;fill:#88949e;fill-opacity:0.99607801;stroke-width:0.264583"
       d="m 111.39856,116.16767 1.82816,2.18585 0.19871,3.33838 -0.31794,2.54353 -0.51665,2.54352 0.0397,18.04315 -2.30507,8.06776 -3.09992,-8.30621 -0.0397,-17.36753 c 0,0 -1.15253,-5.92165 -1.19228,-6.95496 -0.0397,-1.0333 1.47048,-3.25889 1.47048,-3.25889 l 0.99357,-0.8346 z"
       id="path6"
       inkscape:label="Dasi" /><path
       style="display:inline;opacity:1;fill:#d1d3de;fill-opacity:1;stroke-width:0.264583"
       d="m 96.932246,109.80886 c 0,0 -1.271762,3.09992 -1.351248,3.25889 -0.07949,0.15897 0.953823,1.98713 1.66919,2.82173 0.715367,0.83459 2.940952,3.65632 2.940952,3.65632 l 2.82173,3.25889 1.47048,1.47048 2.82172,-3.85503 2.50379,-3.12973 0.55639,-0.16892 2.86147,4.05375 1.47048,2.26533 0.55639,0.8346 5.6832,-9.65746 0.31794,-0.75511 -0.63588,-0.71536 -0.43717,-1.66919 -0.47691,-0.99357 -0.19872,-0.39743 z"
       id="path5"
       inkscape:label="kerah"
       sodipodi:nodetypes="csscccccccccccccccc" /><path
       style="display:inline;opacity:1;fill:#dbc7bd;fill-opacity:1;stroke-width:0.264583"
       d="m 127.84267,90.128833 -1.00338,5.112451 c -0.0956,1.433396 -0.34934,2.827227 -1.01824,6.076256 -0.66891,3.24904 -2.00675,4.87356 -2.00675,4.87356 0,0 -1.29006,2.00675 -2.48456,3.29681 -1.1945,1.29006 -4.15685,3.44016 -4.15685,3.44016 0,0 -2.12515,1.57923 -3.31334,2.14369 -1.06723,0.507 -2.51265,0.99497 -3.37269,1.09055 -0.86004,0.0956 -1.86826,-0.1728 -2.77866,-0.38643 -1.23704,-0.29029 -3.61505,-1.20923 -3.61505,-1.20923 l -2.83799,-1.31763 c 0,0 -2.635264,-1.58792 -2.939334,-1.72306 -0.304069,-0.13514 -2.533914,-1.72306 -2.736627,-1.89199 -0.202713,-0.16893 -2.871767,-2.46634 -3.040695,-2.8042 -0.168929,-0.33785 -2.26363,-2.36498 -2.26363,-2.36498 l -0.878422,-0.81085 -6.182748,-8.682881 -0.810853,-8.007165 c 0,0 4.6624,-3.142051 6.453031,-3.513693 1.790634,-0.371639 10.946506,-1.824415 10.946506,-1.824415 l 12.433062,-6.62196 6.95982,-2.533912 8.41259,11.453286 z"
       id="path4"
       sodipodi:nodetypes="ccscscasaccsssccccsccccc"
       inkscape:label="wajah" /><path
       style="display:none;opacity:1;fill:#d797a0;fill-opacity:1;stroke-width:0.264583"
       d="m 114.12675,104.73377 c 0,0 0.0528,-1.26119 -0.98699,-1.48601 -1.03979,-0.22482 -1.77044,0.22963 -1.77044,0.22963 0,0 -0.67446,0.46952 -1.01168,1.08777 -0.33723,0.61825 -0.39344,1.09939 -0.39344,1.09939 0,0 -0.14051,0.56205 0.19672,0.78687 0.33723,0.22482 0.78686,0.47774 1.43321,0.47774 0.64636,0 1.13432,0 1.61206,-0.28103 0.47774,-0.28102 0.67587,-0.50584 0.78828,-0.81496 0.11241,-0.30913 0.13228,-1.0994 0.13228,-1.0994 z"
       id="path18"
       sodipodi:nodetypes="cscscssssc"
       inkscape:label="mulut1" /><path
       style="display:none;opacity:1;fill:#d797a0;fill-opacity:1;stroke-width:0.424869"
       d="m 115.99677,104.98096 c 0,0 0.0955,-1.7979 -1.78533,-2.1184 -1.88082,-0.32049 -3.57561,0.32735 -3.57561,0.32735 0,0 -0.84686,0.37052 -1.45682,1.25186 -0.61001,0.88135 -0.71168,1.86608 -0.71168,1.86608 0,0 0.0128,0.80123 0.62281,1.12173 0.60999,0.32048 1.15634,0.68104 2.3255,0.68104 1.16916,0 2.0518,0 2.91597,-0.40063 0.86416,-0.4006 1.22254,-0.7211 1.42588,-1.16176 0.20333,-0.44069 0.23928,-1.56727 0.23928,-1.56727 z"
       id="path23"
       sodipodi:nodetypes="cscscssssc"
       inkscape:label="mulut2" /><path
       style="display:none;opacity:1;fill:#d797a0;fill-opacity:1;stroke-width:0.326153"
       d="m 115.77195,105.19844 c 0,0 0.0955,-1.05949 -1.78533,-1.24836 -1.88082,-0.18886 -3.57561,0.19291 -3.57561,0.19291 0,0 -0.84686,0.21834 -1.45682,0.73771 -0.61001,0.51937 -0.71168,1.09967 -0.71168,1.09967 0,0 0.0128,0.47216 0.62281,0.66103 0.60999,0.18885 1.15634,0.40133 2.3255,0.40133 1.16916,0 2.0518,0 2.91597,-0.23609 0.86416,-0.23607 1.22254,-0.42494 1.42588,-0.68462 0.20333,-0.25969 0.23928,-0.92358 0.23928,-0.92358 z"
       id="path24"
       sodipodi:nodetypes="cscscssssc"
       inkscape:label="mulut3" /><path
       style="display:none;opacity:1;fill:#d797a0;fill-opacity:1;stroke-width:0.233742"
       d="m 114.20259,105.02419 c 0,0 0.0395,-1.31386 -0.73943,-1.54807 -0.77898,-0.23421 -1.48091,0.23922 -1.48091,0.23922 0,0 -0.35075,0.27076 -0.60337,0.91483 -0.25267,0.64406 -0.29477,1.36369 -0.29477,1.36369 0,0 0.004,0.58552 0.25794,0.81973 0.25265,0.2342 0.47894,0.49769 0.96317,0.49769 0.48423,0 0.84979,0 1.20771,-0.29277 0.35791,-0.29275 0.50634,-0.52697 0.59056,-0.84899 0.0842,-0.32204 0.0991,-1.14533 0.0991,-1.14533 z"
       id="path25"
       sodipodi:nodetypes="cscscssssc"
       inkscape:label="mulut4" /><path
       style="display:inline;opacity:1;fill:#d3b2a9;fill-opacity:1;stroke-width:0.303475"
       d="m 114.90302,105.72473 c -0.20328,-0.12272 -0.95548,-0.0397 -1.43535,-0.0397 -1.05859,0 -3.19495,0.0253 -3.19495,0.0253 0,0 -1.0683,-0.0231 -1.30172,-0.0231 -0.0938,0 -0.2329,-7.2e-4 -0.27036,0.10883 -0.0495,0.14474 0.10746,0.20209 0.1909,0.22547 0.26643,0.0746 1.38462,0.0918 2.07796,0.10027 0.79892,0.01 2.39628,-0.057 2.39628,-0.057 0.80236,-0.0192 0.84411,-0.0467 1.07303,-0.0467 0.15816,0 0.3661,-0.011 0.46819,-0.1175 0.0459,-0.048 0.0458,-0.14573 -0.004,-0.1758 z"
       id="path27"
       sodipodi:nodetypes="sscsssasssss"
       inkscape:label="mulut diam" /><path
       style="opacity:0.7;fill:#c7a49d;fill-opacity:1;stroke-width:0.331569"
       d="m 111.80606,97.36804 c 0,0 0.3407,-0.356308 0.95897,-0.356308 0.61828,0 0.8521,0.04829 1.23657,0.208871 0.31773,0.132709 0.7066,0.405455 0.83278,0.602038 0.12623,0.196582 0.32474,0.698778 0.26498,1.056638 -0.043,0.257953 -0.20495,0.519593 -0.42901,0.66347 -0.26208,0.168291 -0.63722,0.0983 -0.63722,0.0983 0,0 -0.19546,-0.09899 0.0693,-0.221158 0.23973,-0.110602 0.61829,-0.466886 0.52996,-0.810909 -0.0883,-0.344019 -0.34901,-0.558554 -0.61829,-0.737187 -0.2847,-0.188878 -0.68136,-0.282591 -0.9842,-0.307162 -0.30283,-0.02457 -0.694,-0.01224 -0.97159,0.07371 -0.2776,0.08598 -0.25235,-0.270304 -0.25235,-0.270304 z"
       id="path20"
       sodipodi:nodetypes="csacascscasscc"
       inkscape:label="hidung" /></g><g
     inkscape:groupmode="layer"
     id="layer3"
     inkscape:label="mata"
     style="display:none"
     transform="translate(-0.15897047,0.79485237)"><path
       style="opacity:1;fill:#0a1f22;fill-opacity:1;stroke-width:0.264583"
       d="m 106.77782,86.412912 c 0,0 -1.4841,-0.819274 -2.50801,-1.142001 -0.94618,-0.298229 -2.92033,-0.574035 -2.92033,-0.574035 0,0 -2.325364,-0.176786 -2.890086,-0.188814 -0.564721,-0.01203 -2.438494,0.177403 -2.438494,0.177403 l -1.253568,0.190069 c 0,0 -0.04256,0.143091 -6.06e-4,0.169696 0.04195,0.02661 0.312404,-0.01952 0.312404,-0.01952 l 1.355446,-0.09782 1.687562,-0.04796 1.415101,0.07209 1.733181,0.173964 1.53516,0.344552 1.37997,0.342644 1.34264,0.585184 0.93831,0.461896 c 0,0 0.21764,0.0529 0.29528,-0.0091 0.13619,-0.108767 0.0775,-0.220294 0.0643,-0.332346 -0.005,-0.03848 -0.0481,-0.105911 -0.0481,-0.105911 z"
       id="path22"
       sodipodi:nodetypes="cscsccscccccccccsac"
       inkscape:label="alis kiri" /><path
       style="fill:#0a1f22;stroke-width:0.271165"
       d="m 115.63518,86.122254 0.47627,-0.417295 0.81402,-0.589115 0.93925,-0.464065 1.16885,-0.317941 1.06447,-0.15897 1.39845,-0.07949 0.97109,0.03974 0.57346,0.03151 0.7514,0.107592 c 0,0 0.5509,0.08656 0.77734,0.197718 0.17355,0.0852 0.37751,0.398423 -0.27641,0.398423 -0.1461,0 -0.94052,-0.09936 -0.94052,-0.09936 l -1.79374,-0.06458 -1.31496,0.104329 -1.04361,0.15897 -1.21059,0.377555 -0.7514,0.40204 -0.7514,0.551783 -0.2258,0.198712 c 0,0 -0.72232,0.131072 -0.62617,-0.377554 z"
       id="path1"
       sodipodi:nodetypes="ccccccccccsscccccccccc"
       inkscape:label="alis kanan" /></g><g
     inkscape:groupmode="layer"
     id="g33"
     inkscape:label="mata setengah "
     style="display:inline"
     transform="matrix(1.0565213,0,0,1.0881856,-5.5886248,-6.5169361)"><path
       style="display:inline;opacity:1;fill:#d2f7f2;fill-opacity:1;stroke-width:0.257565"
       d="m 96.840268,90.342937 0.03163,0.769006 0.158145,0.780836 c 0,0 0.23722,0.745345 0.442811,0.981964 0.205588,0.236615 0.237219,0.343095 0.759102,0.899144 0.521882,0.556051 1.407496,0.970131 1.407496,0.970131 0,0 1.075388,0.461403 1.360058,0.496897 0.28466,0.0355 1.23354,0.153802 1.83449,0.09464 0.60096,-0.05916 1.21541,-0.303173 1.48658,-0.420294 0.29712,-0.128325 1.00616,-0.471283 1.21454,-0.857441 0.53733,-0.995778 0.14552,-2.295186 -0.20236,-3.217994 -0.34793,-0.922809 -1.5182,-1.017454 -1.5182,-1.017454 l -3.33689,-0.248449 -2.324745,0.189293 z"
       id="path28"
       inkscape:label="mata kiri putih"
       sodipodi:nodetypes="cccsscsssaccccc" /><path
       style="display:inline;opacity:1;fill:#0a1f22;fill-opacity:1;stroke-width:0.262992"
       d="m 106.75603,90.85462 c 0,0 -0.52672,-0.368848 -0.82236,-0.508806 -0.42743,-0.202342 -1.36005,-0.477967 -1.36005,-0.477967 l -1.99265,-0.304497 c 0,0 -1.04789,-0.141497 -1.64471,-0.172687 -0.59683,-0.03119 -1.29132,-0.05407 -1.929389,0.0087 -0.421143,0.04144 -1.261497,0.237972 -1.261497,0.237972 0,0 -1.138033,0.276473 -1.68002,0.496252 -0.168638,0.06838 -0.40467,0.156767 -0.474438,0.294662 -0.06759,0.133588 -0.03163,0.368545 0.126515,0.393216 0.158149,0.02466 0.727472,-0.200221 0.727472,-0.200221 0,0 1.101689,-0.404753 1.681942,-0.538365 0.534507,-0.123079 1.112668,-0.215122 1.734178,-0.238719 0.621507,-0.0236 1.678167,0.08685 1.957737,0.139177 0.27955,0.05232 0.39139,0.174438 0.39139,0.174438 0,0 -0.9058,0.989501 -0.86106,1.983802 0,0.646558 0.0814,1.60442 0.52861,2.145155 0.36593,0.442374 0.88685,0.683851 1.22106,0.753699 0.34901,0.07294 1.01746,0.0069 1.47114,-0.146338 0.40801,-0.137736 0.78025,-0.326768 1.02857,-0.662248 0.22056,-0.297953 0.60387,-1.470575 0.55914,-2.115997 -0.0447,-0.645424 -0.0895,-0.892639 -0.20129,-1.154288 -0.0446,-0.104402 0.42495,0.177431 0.42495,0.177431 0,0 0.57061,0.32957 0.37476,-0.284395 z"
       id="path29"
       sodipodi:nodetypes="cscccscssscsssccssascsccc"
       inkscape:label="mata kiri" /><path
       style="opacity:1;fill:#0a1f22;fill-opacity:1;stroke-width:0.271697"
       d="m 107.28754,86.211681 c 0,0 -1.44648,-0.962655 -2.46385,-1.377352 -0.94013,-0.383216 -2.92938,-0.826413 -2.92938,-0.826413 0,0 -2.35499,-0.36971 -2.929382,-0.427704 -0.57439,-0.058 -2.498594,-0.06577 -2.498594,-0.06577 l -1.292375,0.145507 c 0,0 -0.05481,0.143755 -0.0142,0.174512 0.04061,0.03076 0.319846,0.07692 0.319846,0.07692 l 1.388791,-0.0013 1.723168,0.08699 1.435976,0.126967 1.75189,0.318967 1.53649,0.478449 1.37854,0.46395 1.32109,0.710425 0.91902,0.550941 c 0,0 0.2175,0.072 0.30156,0.0145 0.14745,-0.100883 0.0966,-0.220346 0.0921,-0.336682 -0.002,-0.03998 -0.0406,-0.112836 -0.0406,-0.112836 z"
       id="path30"
       sodipodi:nodetypes="cscsccscccccccccsacc"
       inkscape:label="alis kiri" /><path
       style="fill:#0a1f22;stroke-width:0.278456"
       d="m 115.59413,86.342869 0.48673,-0.430579 0.8319,-0.60787 0.95988,-0.478838 1.19452,-0.328063 1.08785,-0.164031 1.42916,-0.08202 0.99242,0.04101 0.58605,0.03251 0.7679,0.111017 c 0,0 0.563,0.08932 0.79442,0.204012 0.17736,0.08791 0.3858,0.411107 -0.28248,0.411107 -0.14931,0 -0.96118,-0.102523 -0.96118,-0.102523 l -1.83313,-0.06664 -1.34384,0.10765 -1.06653,0.164031 -1.23718,0.389575 -0.7679,0.414839 -0.76791,0.569349 -0.23076,0.205038 c 0,0 -0.73818,0.135245 -0.63992,-0.389574 z"
       id="path31"
       sodipodi:nodetypes="ccccccccccsscccccccccc"
       inkscape:label="alis kanan" /><path
       style="display:inline;fill:#d2f9f4;fill-opacity:1;stroke-width:0.22408"
       d="m 123.01556,89.969993 -0.0141,0.708877 -0.15602,1.14818 -0.1844,0.519177 -0.53897,0.848655 c 0,0 -0.35461,0.429318 -0.49644,0.509192 -0.14185,0.07988 -0.76593,0.479241 -0.76593,0.479241 0,0 -0.37192,0.257149 -0.60059,0.339214 -0.24165,0.08674 -0.51702,0.121303 -0.78496,0.151014 -0.28463,0.03155 -0.57723,0.05081 -0.8635,0.0278 -0.2715,-0.02182 -0.55206,-0.06541 -0.78943,-0.155597 -0.21307,-0.08096 -0.52236,-0.324918 -0.52236,-0.324918 l -0.43899,-0.530666 -0.2553,-1.363904 0.14184,-1.427738 2.04246,-0.878607 c 0,0 2.43962,-0.329476 2.49635,-0.349446 0.0567,-0.01998 1.73042,0.299525 1.73042,0.299525 z"
       id="path32"
       sodipodi:nodetypes="cccccscaaascccccscc"
       inkscape:label="mata kanan putih" /><path
       style="fill:#0a1f22;stroke-width:0.22686"
       d="m 123.85526,89.924712 -0.60924,-0.243016 -0.62953,-0.171536 -0.75139,-0.08577 -0.91385,0.04288 -1.21846,0.142948 -1.19815,0.214426 c 0,0 -1.15755,0.400256 -1.23878,0.428846 -0.0812,0.02858 -0.58892,0.228718 -0.58892,0.228718 l -0.48739,0.314488 -0.34523,0.257308 -0.0406,0.200129 c 0,0 0.12185,0.08577 0.30463,0.08577 0.18277,0 0.40615,-0.142949 0.40615,-0.142949 0,0 -0.0821,0.185399 -0.10148,0.264095 -0.0567,0.230241 -0.0406,0.665074 -0.0406,0.665074 l 0.0305,0.67186 0.11169,0.400258 0.27343,0.50747 0.34522,0.300193 0.41704,0.214931 0.44677,0.106704 c 0,0 0.54831,-0.03191 0.69047,-0.131975 0.13856,-0.09754 0.57825,-0.354051 0.57825,-0.354051 0,0 0.51836,-0.514618 0.57928,-0.643272 0.0609,-0.128654 0.42647,-0.75763 0.42647,-1.000644 0,-0.243013 0.0203,-0.8434 0.0203,-1.043529 0,-0.200127 -0.1527,-0.815282 -0.1886,-0.880985 -0.0359,-0.0657 -0.079,-0.141512 -0.079,-0.141512 l 0.86877,-0.161728 0.53131,-0.01011 0.64619,-0.01011 0.7467,0.11119 0.45951,0.171836 0.40208,0.101078 c 0,0 0.17826,-0.08016 0.14657,-0.409025 z"
       id="path33"
       inkscape:label="mata kanan"
       sodipodi:nodetypes="cccccccsccccscscccccccscssssccccccccc" /></g><g
     inkscape:groupmode="layer"
     id="g39"
     inkscape:label="mata tertutup"
     style="display:none"
     transform="translate(-0.15897047,0.79485237)"><path
       style="display:inline;opacity:1;fill:#0a1f22;fill-opacity:1;stroke-width:0.281579"
       d="m 106.41754,91.778694 c -0.0132,-0.06456 -0.35931,-0.292784 -0.72671,-0.473951 -0.3674,-0.181168 -0.98951,-0.431347 -1.49471,-0.578946 -0.49278,-0.143971 -1.49394,-0.365649 -1.49394,-0.365649 0,0 -0.93874,-0.11812 -1.47374,-0.171959 -0.53503,-0.05384 -1.15932,-0.0507 -1.734527,0.01432 -0.379649,0.04293 -1.138676,0.184565 -1.138676,0.184565 0,0 -1.02992,0.269026 -1.524075,0.536569 -0.153755,0.08323 -0.368712,0.190411 -0.435987,0.364642 -0.06517,0.168788 -0.03947,0.420628 0.101761,0.455818 0.141222,0.03517 0.659675,-0.222006 0.659675,-0.222006 0,0 0.998377,-0.311808 1.524019,-0.468551 0.484203,-0.144386 1.151238,-0.182561 1.71026,-0.198018 0.55902,-0.01546 1.87444,0.144059 2.12379,0.217393 0,0 1.81326,0.437735 2.67887,0.777111 0.30337,0.118941 0.87378,0.43832 0.87378,0.43832 0,0 0.47815,0.115909 0.35021,-0.50965 z"
       id="path35"
       sodipodi:nodetypes="szsccscssscsscacss"
       inkscape:label="mata kiri" /><path
       style="opacity:1;fill:#0a1f22;fill-opacity:1;stroke-width:0.264583"
       d="m 107.05584,86.247045 c 0,0 -1.50889,-0.772646 -2.54236,-1.063326 -0.95501,-0.268622 -2.94601,-0.566608 -2.94601,-0.566608 0,0 -2.329745,-0.104283 -2.894561,-0.09871 -0.564825,0.0056 -2.427998,0.287725 -2.427998,0.287725 l -1.241609,0.278402 c 0,0 -0.0273,0.242105 0.01542,0.267397 0.04272,0.02528 0.320014,0.0469 0.320014,0.0469 0,0 0.903698,-0.07225 1.355264,-0.107923 0.554787,-0.0438 1.662298,-0.127461 1.662298,-0.127461 0,0 0.960295,0.01894 1.435772,0.02003 0.58063,0.0013 1.16397,0.05517 1.73776,0.119892 0.52115,0.05879 1.00822,0.0899 1.50456,0.184527 0.48254,0.09199 1.42614,0.37134 1.42614,0.37134 l 1.34583,0.412301 0.95225,0.432448 c 0,0 0.21918,0.04612 0.29484,-0.01834 0.13274,-0.112985 0.0706,-0.222599 0.0539,-0.334183 -0.006,-0.03825 -0.0514,-0.104365 -0.0514,-0.104365 z"
       id="path36"
       sodipodi:nodetypes="cscsccscscssacccsacc"
       inkscape:label="alis kiri" /><path
       style="fill:#0a1f22;stroke-width:0.258304"
       d="m 115.40886,86.549088 0.4887,-0.371441 0.83652,-0.526038 0.96734,-0.417866 1.20638,-0.29244 1.09995,-0.151838 1.44634,-0.08607 1.00529,0.02347 0.59374,0.02091 0.77863,0.08554 c 0,0 0.57093,0.06945 0.80636,0.164251 0.18043,0.07266 0.39459,0.344899 -0.28208,0.352554 -0.1512,0.0017 -0.97426,-0.0761 -0.97426,-0.0761 l -1.85682,-0.03562 -1.3597,0.106868 -1.07836,0.151595 -1.24899,0.345195 -0.77356,0.361286 -0.77209,0.492574 -0.23168,0.176865 c 0,0 -0.74617,0.123374 -0.65171,-0.323691 z"
       id="path37"
       sodipodi:nodetypes="ccccccccccsscccccccccc"
       inkscape:label="alis kanan" /><path
       style="fill:#0a1f22;stroke-width:0.247629"
       d="m 123.9935,90.251182 -0.53235,-0.142322 c 0,0 -0.50927,-0.100448 -0.7585,-0.122291 -0.25227,-0.02211 -0.74591,-0.0512 -0.74591,-0.0512 l -0.9171,0.03213 c 0,0 -0.83575,0.09013 -1.2485,0.167248 -0.39431,0.07367 -1.16998,0.281701 -1.16998,0.281701 0,0 -0.82128,0.27904 -1.22945,0.425583 -0.19895,0.07143 -0.59438,0.221112 -0.59438,0.221112 0,0 -0.33517,0.147709 -0.4706,0.266762 -0.0974,0.08566 -0.20489,0.178705 -0.23377,0.311218 -0.0289,0.132513 0.01,0.372874 0.12344,0.396462 0.23776,0.04936 0.72937,-0.272758 1.09527,-0.405826 0.46205,-0.168038 0.91944,-0.350583 1.38918,-0.495737 0.27812,-0.08594 0.56203,-0.152103 0.84469,-0.221655 0.22973,-0.05653 0.69173,-0.158977 0.69173,-0.158977 0,0 0.53509,-0.09406 0.80511,-0.121418 0.19312,-0.01961 0.38744,-0.02797 0.58154,-0.03041 0.20747,-0.0026 0.41251,0.0067 0.62222,0.01694 0.25318,0.0124 0.55129,0.02188 0.76149,0.05003 0.21019,0.02816 0.49909,0.101538 0.49909,0.101538 l 0.88943,0.231279 c 0,0 0.60419,-0.0645 0.27047,-0.552149 z"
       id="path39"
       inkscape:label="mata kanan"
       sodipodi:nodetypes="ccsccscacazsaaacaaszcccc" /></g><g
     inkscape:groupmode="layer"
     id="layer4"
     inkscape:label="rambut"
     transform="translate(-0.15897047,0.79485237)"><path
       style="display:inline;opacity:1;fill:#282a27;fill-opacity:1;stroke-width:0.264583"
       d="m 124.01772,80.81696 c 0,0 2.12127,2.185069 3.26799,6.580822 0.85207,3.266271 0.0786,4.793576 0.0786,4.793576 0,0 3.83832,-3.165148 4.03048,-9.762689 0.14334,-4.921332 -0.86004,-9.317085 -1.48118,-11.562741 -0.62114,-2.245657 -3.15348,-6.54585 -3.87018,-7.405889 -0.71669,-0.860039 -4.15685,-3.535714 -5.30357,-4.061293 -1.14672,-0.525579 -4.04566,-1.779486 -5.43128,-1.827266 -0.95857,-0.03305 -3.41506,-0.641304 -5.14493,-0.710725 -2.94911,-0.118351 -5.93285,-0.0045 -8.84005,0.504904 -3.458841,0.606037 -6.929373,1.491474 -10.095157,3.010906 -1.571182,0.754097 -3.030779,1.779841 -4.299977,2.974166 -1.532991,1.442556 -3.041065,3.341435 -3.901103,4.96595 -0.860039,1.624518 -2.420763,5.158611 -3.2237,7.880922 -0.263183,0.892308 -0.418767,1.214174 -0.514326,2.743133 -0.09556,1.528958 -0.08714,2.408673 0.0562,3.937631 0.14334,1.528956 0.160248,4.758315 0.494708,6.000592 0.33446,1.242277 1.672297,5.542471 2.197875,6.689188 0.525579,1.14672 3.569476,4.19916 3.569476,4.19916 l 2.935054,1.637093 c 0,0 -1.396317,-1.945318 -2.017456,-2.853138 -0.621138,-0.907817 -3.018144,-3.998942 -3.097658,-4.452457 -0.249567,-1.423431 -0.529377,-4.025347 0.282883,-5.363186 0.812258,-1.337837 2.341216,-2.484557 2.341216,-2.484557 0,0 1.385618,-0.143338 2.054537,0.191122 0.668917,0.33446 3.342376,2.245656 3.342376,2.245656 0,0 2.330857,-3.536328 3.905923,-4.686175 1.575066,-1.149846 3.943105,-2.517026 3.943105,-2.517026 l 4.305904,5.199551 c 0,0 5.47457,-5.569978 5.89722,-6.302036 0,0 0.7824,0.928743 1.65018,1.887876 1.16915,1.292234 3.65066,4.33903 3.83781,4.526166 0.25578,0.255777 4.21799,-5.979883 4.21799,-5.979883 l 2.10903,2.619745 c 0.1675,0.208052 2.70201,-2.619098 2.70201,-2.619098 z"
       id="path3"
       inkscape:label="rambut"
       sodipodi:nodetypes="cscsssssaaaasassssccssscsczccssscsc" /></g></svg>
