<?xml version="1.0" encoding="UTF-8" standalone="no"?>
<!-- Created with Inkscape (http://www.inkscape.org/) -->

<svg
   width="210mm"
   height="297mm"
   viewBox="0 0 210 297"
   version="1.1"
   id="svg1"
   xml:space="preserve"
   inkscape:version="1.3.2 (091e20e, 2023-11-25, custom)"
   sodipodi:docname="Karakter Teman.svg"
   xmlns:inkscape="http://www.inkscape.org/namespaces/inkscape"
   xmlns:sodipodi="http://sodipodi.sourceforge.net/DTD/sodipodi-0.dtd"
   xmlns="http://www.w3.org/2000/svg"
   xmlns:svg="http://www.w3.org/2000/svg"><sodipodi:namedview
     id="namedview1"
     pagecolor="#ffffff"
     bordercolor="#999999"
     borderopacity="1"
     inkscape:showpageshadow="2"
     inkscape:pageopacity="0"
     inkscape:pagecheckerboard="0"
     inkscape:deskcolor="#d1d1d1"
     inkscape:document-units="mm"
     inkscape:zoom="4.7075074"
     inkscape:cx="421.98553"
     inkscape:cy="363.35578"
     inkscape:window-width="1920"
     inkscape:window-height="991"
     inkscape:window-x="-9"
     inkscape:window-y="-9"
     inkscape:window-maximized="1"
     inkscape:current-layer="layer2"
     showguides="false" /><defs
     id="defs1" /><g
     inkscape:label="Layer 1"
     inkscape:groupmode="layer"
     id="layer1"
     style="display:inline" /><g
     inkscape:groupmode="layer"
     id="layer2"
     inkscape:label="Layer 2"
     style="display:inline"><path
       style="display:inline;opacity:1;fill:#637178;fill-opacity:1;stroke-width:0.271036"
       d="m 90.29523,169.64568 0.08416,31.46975 12.10514,0.27571 0.9547,-30.87896 c 0,0 -6.537143,-9.01949 -13.144003,-0.8665 z"
       id="path14"
       sodipodi:nodetypes="cccccc"
       inkscape:label="kaki kiri" /><path
       style="display:inline;opacity:1;fill:#637178;fill-opacity:1;stroke-width:0.275178"
       d="m 113.222,167.66561 0.58324,34.36183 11.70921,0.004 0.39452,-33.99383 c 0,0 -6.21452,-7.4826 -12.58081,1.23908 z"
       id="path15"
       sodipodi:nodetypes="cccccc"
       inkscape:label="kaki kanan" /><path
       style="display:inline;opacity:1;fill:#2b4042;fill-opacity:1;stroke-width:0.272678"
       d="m 90.001039,200.8769 -0.145802,14.06082 18.256563,0.23763 -6e-5,-0.49678 -5.22764,-4.53607 0.0237,-9.26003 z"
       id="path16"
       sodipodi:nodetypes="ccccccc"
       inkscape:label="sepatu kiri" /><path
       style="display:inline;opacity:1;fill:#2b4042;fill-opacity:1;stroke-width:0.271821"
       d="m 113.42142,201.09208 -0.11523,14.06082 18.15245,0.23763 -0.0105,-0.49678 -5.60137,-4.53607 -0.0791,-9.26003 z"
       id="path17"
       sodipodi:nodetypes="ccccccc"
       inkscape:label="sepatu kanan" /><path
       style="display:inline;opacity:1;fill:#637178;fill-opacity:1;stroke-width:0.264583"
       d="m 87.751702,160.40121 38.723358,0.23846 c 0,0 -0.10844,7.13173 -0.45041,9.09807 -0.22482,1.2927 -2.68377,1.55968 -2.68377,1.55968 0,0 -1.62911,0.39069 -2.72203,0.58941 -1.09292,0.19871 -4.31208,0.63248 -4.31208,0.63248 l -3.27876,0.27677 -4.29221,0.22341 -4.07362,-0.11921 -2.12623,-0.0795 -2.742235,-0.2782 c 0,0 -1.908793,-0.14624 -2.861469,-0.23846 -1.082307,-0.10477 -3.242432,-0.44199 -3.242432,-0.44199 0,0 -1.921649,-0.27367 -2.69809,-0.80009 -0.673578,-0.45668 -1.014434,-0.54633 -1.511219,-1.91745 -0.496781,-1.37113 -1.079869,-3.77555 -1.079869,-3.77555 0,0 -0.537937,-2.34566 -0.537937,-3.75568 0,-0.4067 -0.110997,-1.21215 -0.110997,-1.21215 z"
       id="path13"
       sodipodi:nodetypes="ccscsccccccscascsc"
       inkscape:label="celana" /><path
       style="display:inline;opacity:1;fill:#9a3131;fill-opacity:1;stroke-width:0.264583"
       d="m 122.58105,112.95868 c 0,0 -34.930316,0.3764 -36.131634,0.91857 -2.970691,1.34077 -3.957441,3.31625 -4.95282,5.04029 -0.904968,1.56745 -3.653296,9.28506 -2.416795,22.54933 1.236498,13.26428 0.770871,11.15326 2.978842,16.46793 0.546868,1.31633 1.397944,3.91627 2.922636,4.46851 0.822453,0.29788 1.686137,0.92713 2.585408,0.36509 0.899274,-0.56205 32.656303,-23.97902 37.433983,-42.15342 0.70161,-2.66894 0.66481,-4.65293 -0.53677,-6.58839 -0.38554,-0.62102 -1.88285,-1.06793 -1.88285,-1.06793 z"
       id="path38"
       sodipodi:nodetypes="csssssssscc"
       inkscape:label="tas2" /><path
       style="display:inline;opacity:1;fill:#d9dff6;fill-opacity:1;stroke-width:0.264583"
       d="m 121.20205,115.71436 c 2.12538,-1.43538 6.87712,1.34872 7.45017,1.92176 0.54297,0.54298 4.60877,9.04894 4.60877,9.04894 l 3.48468,8.59929 4.27155,11.46573 3.37227,8.99273 0.78686,2.24818 0.22482,0.84307 -4.32775,2.81023 -5.45184,2.97884 -1.79855,0.56204 -2.92263,-7.86863 -3.6533,-11.0723 -3.14745,-8.71171 -2.81023,-7.81243 -1.34891,-4.38395 c 0,0 -1.97598,-7.43532 1.26154,-9.62179 z"
       id="path9"
       sodipodi:nodetypes="ssccccccccccccccs"
       inkscape:label="lengan kanan" /><path
       style="display:inline;opacity:1;fill:#d9dff6;fill-opacity:1;stroke-width:0.264583"
       d="m 121.05602,113.04164 -24.799398,-0.63588 -7.869039,2.62301 -1.589704,0.5564 c 0,0 -2.402781,1.63027 -2.423871,5.36804 -0.03378,5.98592 2.25925,23.80304 2.25925,23.80304 0,0 0.294664,14.37689 0.453633,15.56917 0.08327,0.62454 0.349158,2.43378 0.349158,2.43378 0,0 3.517431,-0.19109 5.273357,-0.10323 2.90228,0.14521 5.755024,0.86216 8.655504,1.03978 3.37533,0.2067 10.14492,0.0281 10.14492,0.0281 0,0 3.68028,-0.21422 5.53615,-0.39342 1.68466,-0.16267 5.05841,-0.59016 5.05841,-0.59016 0,0 1.77732,-0.10668 3.11935,0.25292 0.54231,0.14531 1.47085,-0.35952 1.58778,-0.56204 0.22873,-0.39618 0.23886,-3.79381 0.23886,-3.79381 l 0.85877,-29.02255 c 0,0 0.52871,-4.43053 0.50578,-6.65521 -0.0176,-1.70739 -0.49337,-5.09864 -0.49337,-5.09864 0,0 -2.65879,-2.78164 -6.86554,-4.8193 z"
       id="path10"
       inkscape:label="badan"
       sodipodi:nodetypes="ccccscscascscssccacc" /><path
       style="display:inline;opacity:1;fill:#e9c9bf;fill-opacity:1;stroke-width:0.264583"
       d="m 70.002767,160.74501 -0.505841,1.29271 -0.590147,1.68614 -0.786863,1.62993 -0.618252,1.57372 c 0,0 -0.08995,0.86583 0.06902,1.46197 0.15897,0.59614 0.238456,0.73524 0.417298,1.01343 0.17884,0.2782 0.695495,0.59614 0.695495,0.59614 l 0.61601,0.35768 c 0,0 0.496782,0.4173 0.675625,0.77499 0.178842,0.35768 0.377555,0.65575 0.536524,0.73523 0.158973,0.0795 0.953823,0.45705 1.172409,0.51666 0.218585,0.0596 0.516654,0.39742 1.132665,0.29807 0.616011,-0.0994 1.092922,-0.51666 1.172406,-0.57627 0.07949,-0.0596 1.390991,-0.45704 1.689063,-0.4173 0.298069,0.0397 1.112792,0.23846 1.331378,0.0994 0.218583,-0.1391 0.874337,-0.71537 0.93395,-0.93395 0.05961,-0.21859 0.07949,-1.27177 0.07949,-1.27177 0,0 -0.437168,-1.53009 -0.536525,-1.74867 -0.09936,-0.21859 -0.234973,-0.90669 -0.199713,-1.28341 0.06192,-0.6616 0.545348,-1.30947 0.317114,-1.93354 -1.019403,-2.78739 -7.601106,-3.87116 -7.601106,-3.87116 z"
       id="path12"
       inkscape:label="tangan kiri"
       sodipodi:nodetypes="cccccssccssscscsscsssc" /><path
       style="display:inline;opacity:1;fill:#b84c4c;fill-opacity:1;stroke-width:0.264583"
       d="m 121.6919,113.56453 c 0,0 0.69549,0.93395 0.93395,2.92109 0.23846,1.98713 0.34181,4.40261 0.18283,5.91283 -0.15897,1.51022 -0.86637,9.5374 -0.70737,11.6835 0.15897,2.1461 0.0193,9.49449 0.65517,12.59442 0.63589,3.09992 1.83863,5.77548 2.31554,7.12673 0.47691,1.35125 2.21195,3.18741 2.21195,3.18741 0,0 0.47692,0.17201 0.43717,-3.74263 -0.008,-0.81055 -0.55439,-2.7981 -0.55439,-2.7981 0,0 -1.02367,-4.39565 -1.10315,-5.90588 -0.0795,-1.51021 -0.2784,-7.04702 -0.23846,-10.57153 0.0332,-2.93052 0.22569,-5.85745 0.39742,-8.78312 0.16026,-2.73031 0.15897,-7.39213 -0.0795,-8.1075 -0.23846,-0.71536 -0.48871,-1.22394 -1.03331,-1.76854 -1.27439,-1.27439 -3.41786,-1.74868 -3.41786,-1.74868 z"
       id="path40"
       sodipodi:nodetypes="cssssscscsassscc"
       inkscape:label="tas3" /><path
       style="display:inline;opacity:1;fill:#b84c4c;fill-opacity:1;stroke-width:0.264583"
       d="m 94.601809,113.84232 c 0.594702,1.5001 1.348909,4.64934 1.348909,4.64934 0,0 1.185202,5.88431 1.448267,8.86785 0.207753,2.35623 0.324175,3.72314 0.09936,7.09541 -0.224817,3.37228 -1.037786,9.0915 -1.262605,9.99077 -0.224819,0.89928 -1.049052,3.23318 -2.102849,5.05841 -0.453134,0.78485 -5.039123,5.59435 -5.713578,5.93158 -0.674455,0.33722 -1.586195,1.1502 -1.586195,1.1502 l -0.140267,-4.05238 c -0.06956,-2.00963 2.629702,-4.41871 3.525009,-5.83963 0.643237,-1.02087 1.573728,-3.25986 1.573728,-3.25986 l 1.011682,-5.50805 c 0,0 0.462248,-4.4135 0.46269,-6.63213 4.5e-4,-2.25617 -0.172994,-4.51097 -0.46951,-6.74455 -0.176002,-1.32578 -0.786863,-3.93432 -0.786863,-3.93432 0,0 -0.382314,-2.279 -0.780045,-3.37227 -0.242025,-0.66527 -0.441851,-1.34477 -0.899271,-1.924 -0.146092,-0.185 -0.760501,-0.42845 -0.562047,-0.62691 0.540731,-0.54073 2.262235,-1.41151 4.510415,-1.41151 0,0 0.235938,0.34201 0.32317,0.56205 z"
       id="path34"
       sodipodi:nodetypes="scasssscssccsscssscs"
       inkscape:label="tas" /><path
       style="display:inline;opacity:1;fill:#d9dff6;fill-opacity:1;stroke-width:0.264583"
       d="m 91.538649,119.31863 c -1.464065,-2.53584 -2.318811,-3.69913 -2.318811,-3.69913 0,0 -1.827239,-0.14611 -3.05784,0.4982 -0.739973,0.38745 -2.066615,1.56784 -2.066615,1.56784 l -1.589707,2.09954 -3.179408,5.8016 -4.928087,12.71763 -3.258894,9.06132 -2.781982,8.1075 -0.715368,2.70249 -0.317941,0.87434 c 0,0 3.417866,4.2922 4.8486,5.16654 1.430735,0.87434 2.888581,1.39021 3.1134,1.47452 0.224816,0.0843 2.093619,0.22481 2.093619,0.22481 h 1.348909 l 0.99763,-2.66971 1.910956,-5.90148 1.264602,-4.29965 1.545625,-4.66498 1.517523,-4.01862 0.702556,-2.07957 1.282999,-3.18265 c 0,0 3.12517,-9.10209 3.59433,-10.81345 0,0 1.457969,-6.43125 -0.0061,-8.96709 z"
       id="path8"
       inkscape:label="lengan kiri"
       sodipodi:nodetypes="ccsccccccccsscccccccccsc" /><path
       style="display:inline;opacity:1;fill:#e9c9bf;fill-opacity:1;stroke-width:0.264583"
       d="m 135.05953,164.84795 -0.0422,1.11004 -0.0984,1.18029 -0.0843,1.39106 -0.0562,0.75877 c 0,0 0.16862,0.81496 0.64635,1.06788 0.47774,0.25292 0.75876,0.16862 0.75876,0.16862 0,0 0.55086,-0.0884 0.88867,-0.0288 0.33781,0.0596 1.47048,0.8346 1.47048,0.8346 0,0 0.29807,0.37756 0.49678,0.37756 0.19872,0 1.03331,0.17884 1.82816,-0.45705 0.79485,-0.63588 0.57627,-0.67562 1.1128,-1.25189 0.53652,-0.57627 1.68906,-1.21215 1.68906,-1.21215 0,0 0.77498,-1.13266 0.55639,-2.06661 -0.21858,-0.93395 -1.47787,-3.45761 -1.47787,-3.45761 l -1.58231,-2.60314 -6.27933,3.50699 z"
       id="path11"
       sodipodi:nodetypes="cccccscscssscscccc"
       inkscape:label="tagan kanan" /><path
       style="display:inline;opacity:1;fill:#7294b4;fill-opacity:0.996078;stroke-width:0.28016"
       d="m 111.39856,116.16767 1.82816,2.4508 0.19871,3.74303 -0.31794,2.85184 -0.51665,2.85183 0.60175,20.79224 -2.86712,8.48362 -3.66197,-9.032 0.52235,-19.7537 c 0,0 -1.15253,-6.63943 -1.19228,-7.79799 -0.0397,-1.15855 1.47048,-3.65391 1.47048,-3.65391 l 0.99357,-0.93576 z"
       id="path6"
       inkscape:label="Dasi"
       sodipodi:nodetypes="ccccccccccccc" /><path
       style="display:inline;opacity:1;fill:#c3caec;fill-opacity:1;stroke-width:0.264583"
       d="m 96.932246,109.80886 c 0,0 -1.271762,3.09992 -1.351248,3.25889 -0.07949,0.15897 0.953823,1.98713 1.66919,2.82173 0.715367,0.83459 2.940952,3.65632 2.940952,3.65632 l 2.82173,3.25889 1.47048,1.47048 2.82172,-3.85503 2.50379,-3.12973 0.55639,-0.16892 2.86147,4.05375 1.47048,2.26533 0.55639,0.8346 5.6832,-9.65746 0.31794,-0.75511 -0.63588,-0.71536 -0.43717,-1.66919 -0.47691,-0.99357 -0.19872,-0.39743 z"
       id="path5"
       inkscape:label="kerah"
       sodipodi:nodetypes="csscccccccccccccccc" /><path
       style="display:inline;opacity:1;fill:#e9c8bf;fill-opacity:1;stroke-width:0.264583"
       d="m 127.92698,90.315905 -1.00338,5.112451 c -0.0956,1.433396 -0.34934,2.827227 -1.01824,6.076254 -0.66891,3.24904 -2.00675,4.87356 -2.00675,4.87356 0,0 -1.29006,2.00675 -2.48456,3.29681 -1.1945,1.29006 -4.15685,3.44016 -4.15685,3.44016 0,0 -2.11323,1.60505 -3.31334,2.14369 -1.06407,0.47758 -2.51265,0.836 -3.37269,0.93158 -0.86004,0.0956 -2.03062,-0.0176 -3.01712,-0.22746 -1.16937,-0.24872 -3.37659,-1.20923 -3.37659,-1.20923 l -2.83799,-1.31763 c 0,0 -2.635267,-1.58792 -2.939337,-1.72306 -0.304069,-0.13514 -2.533914,-1.72306 -2.736627,-1.89199 -0.202713,-0.16893 -2.871767,-2.46634 -3.040695,-2.8042 -0.168929,-0.33785 -2.26363,-2.36498 -2.26363,-2.36498 l -0.878422,-0.81085 -6.182748,-8.682879 -0.810853,-8.007165 c 0,0 4.6624,-3.142051 6.453031,-3.513693 1.790634,-0.371639 10.946506,-1.824415 10.946506,-1.824415 l 12.433065,-6.62196 6.95982,-2.533912 8.41259,8.353362 z"
       id="path4"
       sodipodi:nodetypes="ccscscasaccsssccccsccccc"
       inkscape:label="wajah" /><path
       style="display:none;opacity:1;fill:#d797a0;fill-opacity:1;stroke-width:0.264583"
       d="m 114.12675,104.73377 c 0,0 0.0528,-1.26119 -0.98699,-1.48601 -1.03979,-0.22482 -1.77044,0.22963 -1.77044,0.22963 0,0 -0.67446,0.46952 -1.01168,1.08777 -0.33723,0.61825 -0.39344,1.09939 -0.39344,1.09939 0,0 -0.14051,0.56205 0.19672,0.78687 0.33723,0.22482 0.78686,0.47774 1.43321,0.47774 0.64636,0 1.13432,0 1.61206,-0.28103 0.47774,-0.28102 0.67587,-0.50584 0.78828,-0.81496 0.11241,-0.30913 0.13228,-1.0994 0.13228,-1.0994 z"
       id="path18"
       sodipodi:nodetypes="cscscssssc"
       inkscape:label="mulut1" /><path
       style="display:none;opacity:1;fill:#d797a0;fill-opacity:1;stroke-width:0.424869"
       d="m 115.99677,104.98096 c 0,0 0.0955,-1.7979 -1.78533,-2.1184 -1.88082,-0.32049 -3.57561,0.32735 -3.57561,0.32735 0,0 -0.84686,0.37052 -1.45682,1.25186 -0.61001,0.88135 -0.71168,1.86608 -0.71168,1.86608 0,0 0.0128,0.80123 0.62281,1.12173 0.60999,0.32048 1.15634,0.68104 2.3255,0.68104 1.16916,0 2.0518,0 2.91597,-0.40063 0.86416,-0.4006 1.22254,-0.7211 1.42588,-1.16176 0.20333,-0.44069 0.23928,-1.56727 0.23928,-1.56727 z"
       id="path23"
       sodipodi:nodetypes="cscscssssc"
       inkscape:label="mulut2" /><path
       style="display:none;opacity:1;fill:#d797a0;fill-opacity:1;stroke-width:0.326153"
       d="m 115.77195,105.19844 c 0,0 0.0955,-1.05949 -1.78533,-1.24836 -1.88082,-0.18886 -3.57561,0.19291 -3.57561,0.19291 0,0 -0.84686,0.21834 -1.45682,0.73771 -0.61001,0.51937 -0.71168,1.09967 -0.71168,1.09967 0,0 0.0128,0.47216 0.62281,0.66103 0.60999,0.18885 1.15634,0.40133 2.3255,0.40133 1.16916,0 2.0518,0 2.91597,-0.23609 0.86416,-0.23607 1.22254,-0.42494 1.42588,-0.68462 0.20333,-0.25969 0.23928,-0.92358 0.23928,-0.92358 z"
       id="path24"
       sodipodi:nodetypes="cscscssssc"
       inkscape:label="mulut3" /><path
       style="display:none;opacity:1;fill:#d797a0;fill-opacity:1;stroke-width:0.233742"
       d="m 114.20259,105.02419 c 0,0 0.0395,-1.31386 -0.73943,-1.54807 -0.77898,-0.23421 -1.48091,0.23922 -1.48091,0.23922 0,0 -0.35075,0.27076 -0.60337,0.91483 -0.25267,0.64406 -0.29477,1.36369 -0.29477,1.36369 0,0 0.004,0.58552 0.25794,0.81973 0.25265,0.2342 0.47894,0.49769 0.96317,0.49769 0.48423,0 0.84979,0 1.20771,-0.29277 0.35791,-0.29275 0.50634,-0.52697 0.59056,-0.84899 0.0842,-0.32204 0.0991,-1.14533 0.0991,-1.14533 z"
       id="path25"
       sodipodi:nodetypes="cscscssssc"
       inkscape:label="mulut4" /><path
       style="display:inline;opacity:1;fill:#d797a0;fill-opacity:1;stroke-width:0.279525"
       d="m 114.93292,106.15944 c 0,0 0.0794,-0.93519 -1.48565,-1.1019 -1.56512,-0.16671 -2.97542,0.17027 -2.97542,0.17027 0,0 -0.70472,0.19273 -1.21228,0.65117 -0.50766,0.45843 -0.59225,0.97066 -0.59225,0.97066 0,0 0.008,0.41676 0.51824,0.58347 0.50763,0.16671 0.96228,0.35425 1.93519,0.35425 0.97291,0 1.70739,0 2.42651,-0.2084 0.71911,-0.20837 1.01733,-0.37509 1.18654,-0.60429 0.16918,-0.22922 0.19912,-0.81523 0.19912,-0.81523 z"
       id="path26"
       sodipodi:nodetypes="cscscssssc"
       inkscape:label="mulut5" /><path
       style="display:none;opacity:1;fill:#d3b2a9;fill-opacity:1;stroke-width:0.303475"
       d="m 114.90302,105.72473 c -0.20328,-0.12272 -0.95548,-0.0397 -1.43535,-0.0397 -1.05859,0 -3.19495,0.0253 -3.19495,0.0253 0,0 -1.0683,-0.0231 -1.30172,-0.0231 -0.0938,0 -0.2329,-7.2e-4 -0.27036,0.10883 -0.0495,0.14474 0.10746,0.20209 0.1909,0.22547 0.26643,0.0746 1.38462,0.0918 2.07796,0.10027 0.79892,0.01 2.39628,-0.057 2.39628,-0.057 0.80236,-0.0192 0.84411,-0.0467 1.07303,-0.0467 0.15816,0 0.3661,-0.011 0.46819,-0.1175 0.0459,-0.048 0.0458,-0.14573 -0.004,-0.1758 z"
       id="path27"
       sodipodi:nodetypes="sscsssasssss"
       inkscape:label="mulut diam" /><path
       style="opacity:0.7;fill:#c7a49d;fill-opacity:1;stroke-width:0.331569"
       d="m 112.28367,97.120192 c 0,0 0.42363,-0.252137 1.01935,-0.08668 0.59573,0.165459 0.8081,0.274561 1.13557,0.532174 0.27063,0.212897 0.57232,0.579762 0.64129,0.802942 0.069,0.223193 0.1259,0.760196 -0.0275,1.089011 -0.11046,0.237037 -0.33652,0.445791 -0.59092,0.524461 -0.29755,0.092 -0.64028,-0.0758 -0.64028,-0.0758 0,0 -0.16184,-0.147686 0.12596,-0.194545 0.26058,-0.04241 0.72068,-0.284395 0.72764,-0.639509 0.007,-0.355101 -0.18681,-0.631581 -0.39846,-0.875761 -0.22377,-0.258178 -0.58089,-0.454624 -0.8661,-0.559343 -0.28521,-0.104715 -0.66542,-0.197516 -0.95588,-0.188988 -0.29049,0.0086 -0.17081,-0.327977 -0.17081,-0.327977 z"
       id="path20"
       sodipodi:nodetypes="csacascscasscc"
       inkscape:label="hidung" /></g><g
     inkscape:groupmode="layer"
     id="layer3"
     inkscape:label="mata"
     style="display:inline"><path
       style="display:inline;opacity:1;fill:#d2f7f2;fill-opacity:1;stroke-width:0.290602"
       d="m 96.759454,90.503825 -0.03785,0.75006 0.09405,0.951408 c 0,0 0.180457,1.052887 0.3747,1.351474 0.194239,0.298583 0.31106,0.727718 0.655232,1.113307 0.344171,0.385589 1.449496,1.141781 1.449496,1.141781 0,0 1.087798,0.626216 1.383778,0.687552 0.29595,0.06134 1.28249,0.265791 1.91968,0.233673 0.6372,-0.03211 1.24325,-0.146613 1.73506,-0.381534 0.4918,-0.23492 0.94269,-0.488316 1.16633,-0.933165 0.59039,-1.174401 0.42136,-2.805952 0.1405,-3.940849 -0.28045,-1.134894 -1.50189,-1.325262 -1.50189,-1.325262 l -3.48481,-0.516992 -2.4613,0.344843 z"
       id="path21"
       inkscape:label="mata kiri putih"
       sodipodi:nodetypes="cccsccsszaccccc" /><path
       style="display:inline;opacity:1;fill:#0a1f22;fill-opacity:1;stroke-width:0.288294"
       d="m 104.20303,89.856115 c 0,0 -1.32636,-0.234658 -2.00302,-0.296326 -0.54081,-0.0493 -1.04024,-0.04968 -1.63386,-0.05216 -0.593646,-0.0024 -1.278713,0.04225 -1.906281,0.155715 -0.414205,0.07492 -1.28613,0.253816 -1.28613,0.253816 -7.28e-4,-0.0062 -0.998679,0.302462 -1.423228,0.591844 -0.172622,0.117663 -0.346774,0.26155 -0.43553,0.450668 -0.06662,0.141959 -0.210728,0.479344 -0.05131,0.46764 0.08918,-0.0066 0.681534,-0.289234 0.681534,-0.289234 0,0 0.844351,-0.375548 1.409391,-0.571234 0.520495,-0.180255 1.364431,-0.227111 1.978484,-0.292282 0.61407,-0.06516 1.67513,-0.06846 1.956,-0.0217 0.28084,0.04675 0.36375,0.04774 0.36375,0.04774 0,0 -0.998,1.294898 -0.89274,2.70456 0.0479,0.781327 0.27643,1.62788 0.77367,2.251423 0.34812,0.436523 0.88449,0.744755 1.42801,0.893717 0.49126,0.134643 1.06177,0.164749 1.52931,-0.03491 0.44502,-0.190036 0.79624,-0.60281 1.01749,-1.022853 0.19648,-0.373063 0.49987,-1.677484 0.40784,-2.454784 -0.092,-0.777316 -0.16404,-1.204022 -0.40008,-1.445686 -0.0337,-0.03442 0.37872,0.188214 0.37872,0.188214 0,0 0.61953,0.289774 0.47706,-0.260891 l -0.0214,-0.09604 c -0.005,-0.02442 -0.0756,-0.165157 -0.10888,-0.184415 -0.0656,-0.03785 -0.41664,-0.356578 -0.78741,-0.533229 -0.37078,-0.176651 -0.93354,-0.314129 -1.45139,-0.449593 z"
       id="path19"
       sodipodi:nodetypes="cssscaascsssccaaascsccsszc"
       inkscape:label="mata kiri" /><path
       style="opacity:1;fill:#0a1f22;fill-opacity:1;stroke-width:0.264583"
       d="m 104.55222,85.873919 c -0.96606,-0.225658 -2.93968,-0.4487 -2.93968,-0.4487 0,0 -2.361886,-0.03495 -2.925897,-0.0041 -0.564009,0.0308 -2.457778,0.35177 -2.457778,0.35177 l -0.867937,0.284532 c 0,0 -0.359467,0.344616 -0.315617,0.367966 0.04385,0.02336 0.310027,-0.04314 0.310027,-0.04314 l 1.344132,-0.200286 1.679072,-0.161678 1.416495,-0.03948 1.769483,0.06026 1.52876,0.199109 1.40198,0.293274 1.38313,0.425535 0.97061,0.389453 c 0,0 0.22102,0.03625 0.29373,-0.03145 0.12757,-0.11878 0.0899,-0.235599 0.0389,-0.336269 -0.11232,-0.22185 -0.17522,-0.295702 -0.17522,-0.295702 z"
       id="path22"
       sodipodi:nodetypes="ccsccscccccccccsscc"
       inkscape:label="alis kiri" /><path
       style="fill:#0a1f22;stroke-width:0.271165"
       d="m 115.62695,86.83015 0.48057,-0.412334 0.82009,-0.580643 0.94401,-0.454301 1.17208,-0.305805 1.06606,-0.147924 1.3992,-0.06499 0.97063,0.04981 0.5731,0.03745 0.75025,0.115377 c 0,0 0.54997,0.09227 0.77524,0.205768 0.17266,0.087 0.37336,0.402316 -0.28052,0.395535 -0.14609,-0.0015 -0.93944,-0.109106 -0.93944,-0.109106 l -1.79298,-0.08318 -1.31597,0.09069 -1.0452,0.14814 -1.21444,0.364983 -0.75553,0.394227 -0.75708,0.543962 -0.22785,0.19636 c 0,0 -0.72364,0.123576 -0.62222,-0.384026 z"
       id="path1"
       sodipodi:nodetypes="ccccccccccsscccccccccc"
       inkscape:label="alis kanan" /><path
       style="display:inline;fill:#d2f9f4;fill-opacity:1;stroke-width:0.276564"
       d="m 123.6148,89.666393 0.0744,0.932933 -0.0324,1.524105 -0.14553,0.700302 -0.51098,1.167973 c 0,0 -0.35272,0.598873 -0.50554,0.717717 -0.15286,0.118845 -0.8192,0.704731 -0.8192,0.704731 0,0 -0.39467,0.374319 -0.64704,0.504539 -0.26673,0.137618 -0.57887,0.210002 -0.88311,0.275267 -0.3232,0.06933 -0.65711,0.123246 -0.98917,0.121034 -0.31492,-0.0021 -0.64305,-0.03193 -0.92748,-0.127218 -0.25532,-0.08553 -0.64214,-0.37586 -0.64214,-0.37586 l -0.50237,-0.654393 -0.45408,-1.767339 0.36097,-1.890088 1.77066,-1.354465 c 0,0 2.76254,-0.671713 2.82521,-0.703509 0.0626,-0.03179 2.02774,0.22427 2.02774,0.22427 z"
       id="path7"
       sodipodi:nodetypes="cccccscaaascccccscc"
       inkscape:label="mata kanan putih" /><path
       style="fill:#0a1f22;stroke-width:0.282259"
       d="m 124.9211,90.209606 c 0,0 -0.35192,-0.236882 -0.54022,-0.333439 -0.20343,-0.104317 -0.63314,-0.263704 -0.63314,-0.263704 l -0.77863,-0.22758 -0.97537,-0.06519 -1.31699,0.03639 c 0,0 -0.88015,0.05125 -1.30932,0.141954 -0.47758,0.100945 -0.93332,0.226898 -1.3899,0.374399 -0.22759,0.07352 -0.46007,0.146499 -0.67106,0.253983 -0.20619,0.105045 -0.42234,0.21947 -0.60802,0.335267 -0.14381,0.08969 -0.29007,0.1945 -0.38334,0.336024 -0.0714,0.10828 -0.15006,0.270417 -0.0814,0.380426 0.0556,0.08912 0.2008,0.07442 0.30584,0.07615 0.14236,0.0023 0.41764,-0.08951 0.41764,-0.08951 0,0 -0.18216,0.304807 -0.21794,0.415239 -0.10434,0.323112 -0.11639,0.614926 -0.1612,0.930563 -0.0455,0.320525 -0.0912,0.647463 -0.0688,0.970048 0,0 0.003,0.397133 0.041,0.590885 0.0518,0.264265 0.25232,0.76745 0.25232,0.76745 l 0.30748,0.479453 0.39989,0.366847 0.51547,0.222423 c 0,0 0.51012,0.02061 0.75613,-0.03548 0.27681,-0.06311 0.57866,-0.160585 0.78402,-0.332802 0.27924,-0.23418 0.44976,-0.58567 0.68736,-0.970589 0.2376,-0.384919 0.40661,-0.906602 0.52538,-1.386286 0.12328,-0.497921 0.18947,-1.014256 0.18905,-1.527211 -3.9e-4,-0.436625 -0.13765,-1.20025 -0.16303,-1.299683 -0.0254,-0.09943 0.11194,-0.20548 0.11194,-0.20548 l 0.95058,-0.111915 0.56421,0.05921 0.68579,0.07516 c 0,0 0.51565,0.142397 0.76877,0.238883 0.15372,0.05859 0.45491,0.215946 0.45491,0.215946 l 0.471,0.216919 c 0.18715,-0.08001 0.11616,-0.257362 0.11651,-0.450332 z"
       id="path2"
       inkscape:label="mata kanan"
       sodipodi:nodetypes="caccccsasssaacsssaccccaszaasccccscccc" /></g><g
     inkscape:groupmode="layer"
     id="g33"
     inkscape:label="mata setengah "
     style="display:none"
     transform="translate(0.05620455,1.0116819)"><path
       style="display:inline;opacity:1;fill:#d2f7f2;fill-opacity:1;stroke-width:0.250821"
       d="m 96.728599,90.16878 0.03095,0.74528 0.154746,0.756744 c 0,0 0.232122,0.722349 0.433295,0.951668 0.20117,0.229315 0.232121,0.332509 0.742789,0.871403 0.510666,0.538895 1.377252,0.940199 1.377252,0.940199 0,0 1.052279,0.447168 1.330829,0.481567 0.27854,0.0344 1.20703,0.149056 1.79507,0.09172 0.58804,-0.05734 1.18929,-0.29382 1.45463,-0.407327 0.29073,-0.124366 0.98454,-0.456743 1.18844,-0.830986 0.52578,-0.965056 0.14239,-2.224373 -0.19801,-3.11871 -0.34046,-0.894337 -1.48558,-0.986062 -1.48558,-0.986062 l -3.26518,-0.240784 -2.274784,0.183453 z"
       id="path28"
       inkscape:label="mata kiri putih"
       sodipodi:nodetypes="cccsscsssaccccc" /><path
       style="display:inline;opacity:1;fill:#0a1f22;fill-opacity:1;stroke-width:0.256106"
       d="m 106.29351,90.641993 c 0,0 -0.52954,-0.336163 -0.82412,-0.459898 -0.42589,-0.178889 -1.3486,-0.40859 -1.3486,-0.40859 l -1.96023,-0.215381 c 0,0 -1.03011,-0.09522 -1.61485,-0.10162 -0.584745,-0.0064 -1.264648,-8.53e-4 -1.886011,0.08535 -0.410114,0.05692 -1.223961,0.280754 -1.223961,0.280754 0,0 -1.10173,0.313111 -1.622946,0.547549 -0.162175,0.07294 -0.389452,0.167944 -0.452216,0.304256 -0.06081,0.132055 -0.01636,0.358139 0.139227,0.375722 0.155595,0.01757 0.703337,-0.222898 0.703337,-0.222898 0,0 1.061129,-0.43588 1.623162,-0.588406 0.517723,-0.140501 1.079353,-0.252691 1.68607,-0.30033 0.606708,-0.04764 1.644168,0.01717 1.919568,0.05669 0.27538,0.03952 0.38955,0.153306 0.38955,0.153306 0,0 -0.84651,0.994301 -0.76349,1.95534 0.0255,0.626089 0.14292,1.550382 0.60157,2.05616 0.37523,0.413774 0.89408,0.626829 1.2236,0.681136 0.3441,0.05671 0.99503,-0.03389 1.43254,-0.200382 0.39347,-0.149648 0.74994,-0.347543 0.97947,-0.682307 0.20387,-0.297317 0.53231,-1.448104 0.46308,-2.071309 -0.0692,-0.62321 -0.12279,-0.860808 -0.2424,-1.109717 -0.0477,-0.09932 0.42248,0.154865 0.42248,0.154865 0,0 0.5709,0.296378 0.35517,-0.290338 z"
       id="path29"
       sodipodi:nodetypes="cscccscssscsssccssascsccc"
       inkscape:label="mata kiri" /><path
       style="opacity:1;fill:#0a1f22;fill-opacity:1;stroke-width:0.264583"
       d="m 106.99732,86.706768 c 0,0 -1.45966,-0.862068 -2.47376,-1.214422 -0.93711,-0.325607 -2.90241,-0.658683 -2.90241,-0.658683 0,0 -2.319246,-0.244306 -2.88338,-0.272744 -0.564133,-0.02844 -2.445068,0.05682 -2.445068,0.05682 l -1.256116,0.203167 c 0,0 -0.0467,0.141793 -0.0055,0.169606 0.04116,0.02782 0.344369,0.05904 0.344369,0.05904 l 1.329128,-0.05422 1.688243,0.0292 1.409469,0.08175 1.727395,0.154015 1.52449,0.389033 1.36943,0.382613 1.32506,0.623965 0.92449,0.488976 c 0,0 0.21601,0.05921 0.29542,-5.09e-4 0.13929,-0.104762 0.0839,-0.217944 0.0739,-0.330337 -0.004,-0.03861 -0.045,-0.107266 -0.045,-0.107266 z"
       id="path30"
       sodipodi:nodetypes="cscsccscccccccccsacc"
       inkscape:label="alis kiri" /><path
       style="fill:#0a1f22;stroke-width:0.271165"
       d="m 115.79415,86.295347 0.47627,-0.417295 0.81402,-0.589115 0.93925,-0.464065 1.16885,-0.317941 1.06447,-0.15897 1.39845,-0.07949 0.97109,0.03974 0.57346,0.03151 0.7514,0.107592 c 0,0 0.5509,0.08656 0.77734,0.197718 0.17355,0.0852 0.37751,0.398423 -0.27641,0.398423 -0.1461,0 -0.94052,-0.09936 -0.94052,-0.09936 l -1.79374,-0.06458 -1.31496,0.104329 -1.04361,0.15897 -1.21059,0.377555 -0.7514,0.40204 -0.7514,0.551783 -0.2258,0.198712 c 0,0 -0.72232,0.131072 -0.62617,-0.377554 z"
       id="path31"
       sodipodi:nodetypes="ccccccccccsscccccccccc"
       inkscape:label="alis kanan" /><path
       style="display:inline;fill:#d2f9f4;fill-opacity:1;stroke-width:0.218213"
       d="m 123.05609,89.77082 -0.0138,0.687006 -0.15267,1.112755 -0.18043,0.503159 -0.52739,0.822472 c 0,0 -0.34699,0.416072 -0.48577,0.493482 -0.1388,0.07741 -0.74947,0.464455 -0.74947,0.464455 0,0 -0.36393,0.249215 -0.58768,0.328748 -0.23646,0.08406 -0.50591,0.11756 -0.7681,0.146355 -0.27851,0.03058 -0.56482,0.04924 -0.84494,0.02694 -0.26566,-0.02115 -0.54019,-0.06339 -0.77246,-0.150796 -0.20849,-0.07846 -0.51114,-0.314894 -0.51114,-0.314894 l -0.42955,-0.514293 -0.24982,-1.321824 0.13879,-1.383688 1.99857,-0.851499 c 0,0 2.38719,-0.319311 2.4427,-0.338665 0.0555,-0.01936 1.69324,0.290284 1.69324,0.290284 z"
       id="path32"
       sodipodi:nodetypes="cccccscaaascccccscc"
       inkscape:label="mata kanan putih" /><path
       style="fill:#0a1f22;stroke-width:0.22092"
       d="m 124.03671,89.885906 -0.59614,-0.235518 -0.61601,-0.166244 -0.73524,-0.08312 -0.89421,0.04156 -1.19227,0.138538 -1.17241,0.20781 c 0,0 -1.13267,0.387907 -1.21215,0.415615 -0.0795,0.0277 -0.57627,0.221662 -0.57627,0.221662 l -0.47691,0.304785 -0.33781,0.249369 -0.0397,0.193954 c 0,0 0.11923,0.08312 0.29808,0.08312 0.17884,0 0.39742,-0.138538 0.39742,-0.138538 0,0 -0.0803,0.179679 -0.0993,0.255947 -0.0555,0.223137 -0.0397,0.644554 -0.0397,0.644554 l 0.0298,0.651131 0.10929,0.387909 0.26755,0.491813 0.33781,0.290931 0.40807,0.2083 0.43717,0.103412 c 0,0 0.53653,-0.03093 0.67563,-0.127903 0.13559,-0.09453 0.56583,-0.343128 0.56583,-0.343128 0,0 0.50722,-0.49874 0.56683,-0.623425 0.0596,-0.124685 0.4173,-0.734255 0.4173,-0.969771 0,-0.235515 0.0199,-0.817379 0.0199,-1.011333 0,-0.193953 -0.14942,-0.790128 -0.18455,-0.853804 -0.0351,-0.06367 -0.0773,-0.137146 -0.0773,-0.137146 l 0.8501,-0.156738 0.51989,-0.0098 0.6323,-0.0098 0.73066,0.107759 0.44963,0.166534 0.39344,0.09796 c 0,0 0.17443,-0.07769 0.14342,-0.396405 z"
       id="path33"
       inkscape:label="mata kanan"
       sodipodi:nodetypes="cccccccsccccscscccccccscssssccccccccc" /></g><g
     inkscape:groupmode="layer"
     id="g39"
     inkscape:label="mata tertutup"
     style="display:none"
     transform="translate(-0.1124091,1.124091)"><path
       style="display:inline;opacity:1;fill:#0a1f22;fill-opacity:1;stroke-width:0.281579"
       d="m 106.29831,92.255605 c -0.0132,-0.06456 -0.35931,-0.292784 -0.72671,-0.473951 -0.3674,-0.181168 -0.98951,-0.431347 -1.49471,-0.578946 -0.49278,-0.143971 -1.49394,-0.365649 -1.49394,-0.365649 0,0 -0.93874,-0.11812 -1.47374,-0.171959 -0.53503,-0.05384 -1.159318,-0.0507 -1.734525,0.01432 -0.379649,0.04293 -1.138676,0.184565 -1.138676,0.184565 0,0 -1.02992,0.269026 -1.524075,0.536569 -0.153755,0.08323 -0.368712,0.190411 -0.435987,0.364642 -0.06517,0.168788 -0.03947,0.420628 0.101761,0.455818 0.141222,0.03517 0.659675,-0.222006 0.659675,-0.222006 0,0 0.998377,-0.311808 1.524019,-0.468551 0.484203,-0.144386 1.151238,-0.182561 1.710258,-0.198018 0.55902,-0.01546 1.87444,0.144059 2.12379,0.217393 0,0 1.81326,0.437735 2.67887,0.777111 0.30337,0.118941 0.87378,0.43832 0.87378,0.43832 0,0 0.47815,0.115909 0.35021,-0.50965 z"
       id="path35"
       sodipodi:nodetypes="szsccscssscsscacss"
       inkscape:label="mata kiri" /><path
       style="opacity:1;fill:#0a1f22;fill-opacity:1;stroke-width:0.264583"
       d="m 106.89687,87.200868 c 0,0 -1.50889,-0.772646 -2.54236,-1.063326 -0.95501,-0.268622 -2.94601,-0.566608 -2.94601,-0.566608 0,0 -2.329746,-0.104283 -2.894562,-0.09871 -0.564825,0.0056 -2.427998,0.287725 -2.427998,0.287725 l -1.241609,0.278402 c 0,0 -0.0273,0.242105 0.01542,0.267397 0.04272,0.02528 0.320014,0.0469 0.320014,0.0469 0,0 0.903698,-0.07225 1.355264,-0.107923 0.554787,-0.0438 1.662298,-0.127461 1.662298,-0.127461 0,0 0.960295,0.01894 1.435772,0.02003 0.580631,0.0013 1.163971,0.05517 1.737761,0.119892 0.52115,0.05879 1.00822,0.0899 1.50456,0.184527 0.48254,0.09199 1.42614,0.37134 1.42614,0.37134 l 1.34583,0.412301 0.95225,0.432448 c 0,0 0.21918,0.04612 0.29484,-0.01834 0.13274,-0.112985 0.0706,-0.222599 0.0539,-0.334183 -0.006,-0.03825 -0.0514,-0.104365 -0.0514,-0.104365 z"
       id="path36"
       sodipodi:nodetypes="cscsccscscssacccsacc"
       inkscape:label="alis kiri" /><path
       style="fill:#0a1f22;stroke-width:0.258304"
       d="m 115.48835,87.184969 0.4887,-0.371441 0.83652,-0.526038 0.96734,-0.417866 1.20638,-0.29244 1.09995,-0.151838 1.44634,-0.08607 1.00529,0.02347 0.59374,0.02091 0.77863,0.08554 c 0,0 0.57093,0.06945 0.80636,0.164251 0.18043,0.07266 0.39459,0.344899 -0.28208,0.352554 -0.1512,0.0017 -0.97426,-0.0761 -0.97426,-0.0761 l -1.85682,-0.03562 -1.3597,0.106868 -1.07836,0.151595 -1.24899,0.345195 -0.77356,0.361286 -0.77209,0.492574 -0.23168,0.176865 c 0,0 -0.74617,0.123374 -0.65171,-0.323691 z"
       id="path37"
       sodipodi:nodetypes="ccccccccccsscccccccccc"
       inkscape:label="alis kanan" /><path
       style="fill:#0a1f22;stroke-width:0.247629"
       d="m 123.98755,90.995762 -0.52415,-0.170051 c 0,0 -0.5033,-0.127024 -0.75104,-0.161911 -0.25076,-0.03531 -0.7422,-0.09026 -0.7422,-0.09026 l -0.91752,-0.01602 c 0,0 -0.83933,0.04617 -1.25555,0.101526 -0.39764,0.05288 -1.18315,0.21994 -1.18315,0.21994 0,0 -0.83479,0.235574 -1.25008,0.360504 -0.20243,0.0609 -0.60516,0.189629 -0.60516,0.189629 0,0 -0.34246,0.129923 -0.48395,0.241708 -0.10176,0.08043 -0.21398,0.167711 -0.24977,0.298527 -0.0358,0.130814 -0.01,0.372885 0.10247,0.402391 0.23484,0.06176 0.74267,-0.234122 1.11505,-0.347813 0.47023,-0.143569 0.93657,-0.301869 1.41327,-0.422183 0.28225,-0.07123 0.56924,-0.122411 0.85516,-0.17704 0.23238,-0.0444 0.69911,-0.122472 0.69911,-0.122472 0,0 0.53929,-0.06586 0.81038,-0.07902 0.19388,-0.0095 0.38837,-0.0076 0.58233,1.38e-4 0.20732,0.0083 0.41159,0.02833 0.62047,0.04956 0.25219,0.02566 0.54939,0.05077 0.75782,0.08991 0.20843,0.03915 0.49308,0.127579 0.49308,0.127579 l 0.87607,0.277617 c 0,0 0.60674,-0.03272 0.29906,-0.537201 z"
       id="path39"
       inkscape:label="mata kanan"
       sodipodi:nodetypes="ccsccscacazsaaacaaszcccc" /></g><g
     inkscape:groupmode="layer"
     id="layer4"
     inkscape:label="rambut"><path
       style="display:inline;opacity:1;fill:#1b2b26;fill-opacity:1;stroke-width:0.264583"
       d="m 120.26234,77.168829 c 0,0 5.72409,2.847569 7.02337,10.343702 0.51145,2.950792 -0.3086,6.729667 -0.3086,6.729667 0,0 4.22552,-5.101239 4.41768,-11.69878 0.14334,-4.921332 -0.86004,-9.317085 -1.48118,-11.562741 -0.62114,-2.245657 -3.15348,-6.54585 -3.87018,-7.405889 -0.71669,-0.860039 -4.15685,-3.535714 -5.30357,-4.061293 -1.14672,-0.525579 -4.20463,-1.97372 -5.59025,-2.0215 -0.95857,-0.03305 -2.99261,-0.469982 -4.87355,-0.797514 -2.9392,-0.51181 -4.89448,-0.966807 -8.20417,-0.584608 -3.309694,0.3822 -8.734882,1.426701 -11.391027,2.777272 -2.656145,1.350572 -4.823451,4.465926 -4.823451,4.465926 -1.32708,1.490259 -3.41521,3.425742 -4.275248,5.050257 -0.860039,1.624518 -1.885254,5.157465 -2.171933,7.880922 -0.286679,2.723454 -0.33446,1.242276 -0.430019,2.771235 -0.09556,1.528958 -0.143341,2.436775 0,3.965733 0.14334,1.528956 0.525578,4.730213 0.860038,5.97249 0.33446,1.242277 1.728502,6.27313 2.25408,7.419847 0.525579,1.14672 3.583526,4.311565 3.583526,4.311565 l 4.097819,3.17611 c 0,0 -2.951101,-4.024918 -3.57224,-4.932742 -0.621138,-0.907817 -2.861169,-3.400707 -2.875251,-4.814548 -0.02344,-2.353255 -0.43002,-3.965733 0.38224,-5.303572 0.812258,-1.337837 2.341216,-2.484557 2.341216,-2.484557 0,0 1.385618,-0.143338 2.054537,0.191122 0.668917,0.33446 2.150097,2.682825 2.150097,2.682825 0,0 3.312063,-3.449378 3.861702,-5.500657 0.05701,-0.212749 1.125858,2.073005 1.125858,2.073005 l 2.151056,0.06069 c 0,0 3.10384,-0.215492 4.47523,-0.215492 1.45057,0 2.61796,0.0239 3.92516,-0.03296 1.84793,-0.08038 3.89099,0.418201 5.53192,-0.435407 2.60818,-1.356767 5.61416,-6.802354 5.61416,-6.802354 0,0 0.89937,-1.564226 1.75915,-1.785629 0.651,-0.16764 0.4147,0.269814 0.93656,0.3501"
       id="path3"
       inkscape:label="rambut"
       sodipodi:nodetypes="cscssssssczsssssssccssscscsccsaacsc" /></g></svg>
