<?xml version="1.0" encoding="UTF-8" standalone="no"?>
<!-- Created with Inkscape (http://www.inkscape.org/) -->

<svg
   width="210mm"
   height="297mm"
   viewBox="0 0 210 297"
   version="1.1"
   id="svg1"
   xml:space="preserve"
   inkscape:version="1.3.2 (091e20e, 2023-11-25, custom)"
   sodipodi:docname="Karakter Pak RT.svg"
   xmlns:inkscape="http://www.inkscape.org/namespaces/inkscape"
   xmlns:sodipodi="http://sodipodi.sourceforge.net/DTD/sodipodi-0.dtd"
   xmlns="http://www.w3.org/2000/svg"
   xmlns:svg="http://www.w3.org/2000/svg"><sodipodi:namedview
     id="namedview1"
     pagecolor="#ffffff"
     bordercolor="#999999"
     borderopacity="1"
     inkscape:showpageshadow="2"
     inkscape:pageopacity="0"
     inkscape:pagecheckerboard="0"
     inkscape:deskcolor="#d1d1d1"
     inkscape:document-units="mm"
     inkscape:zoom="0.76729167"
     inkscape:cx="164.21396"
     inkscape:cy="455.49823"
     inkscape:window-width="1920"
     inkscape:window-height="991"
     inkscape:window-x="-9"
     inkscape:window-y="-9"
     inkscape:window-maximized="1"
     inkscape:current-layer="layer3"
     showguides="false" /><defs
     id="defs1" /><g
     inkscape:label="Layer 1"
     inkscape:groupmode="layer"
     id="layer1"
     style="display:inline" /><g
     inkscape:groupmode="layer"
     id="layer2"
     inkscape:label="Layer 2"
     style="display:inline"><path
       style="display:inline;opacity:1;fill:#4e6a57;fill-opacity:1;stroke-width:0.299752"
       d="m 92.798336,170.81933 0.09951,32.55713 14.311574,0.28524 1.12873,-31.94593 c 0,0 -7.7287,-9.33114 -15.539807,-0.89644 z"
       id="path14"
       sodipodi:nodetypes="cccccc"
       inkscape:label="kaki kiri" /><path
       style="display:inline;opacity:1;fill:#4e6a57;fill-opacity:1;stroke-width:0.304698"
       d="m 116.94646,168.77084 0.6912,35.54915 13.87667,0.004 0.46754,-35.16842 c 0,0 -7.36486,-7.74115 -14.9096,1.28189 z"
       id="path15"
       sodipodi:nodetypes="cccccc"
       inkscape:label="kaki kanan" /><path
       style="display:inline;opacity:1;fill:#3d422b;fill-opacity:1;stroke-width:0.300425"
       d="m 92.361891,203.12969 -0.171073,14.54667 21.420792,0.24584 -6e-5,-0.51395 -6.1337,-4.6928 0.0277,-9.58 z"
       id="path16"
       sodipodi:nodetypes="ccccccc"
       inkscape:label="sepatu kiri" /><path
       style="display:inline;opacity:1;fill:#3d422b;fill-opacity:1;stroke-width:0.296723"
       d="m 117.33107,203.35231 -0.13272,14.54666 20.90847,0.24584 -0.0121,-0.51394 -6.4518,-4.69281 -0.0911,-9.57999 z"
       id="path17"
       sodipodi:nodetypes="ccccccc"
       inkscape:label="sepatu kanan" /><path
       style="display:inline;opacity:1;fill:#4d6a58;fill-opacity:1;stroke-width:0.314962"
       d="m 89.869231,161.25544 42.737409,0.30618 c 0,0 -0.11968,9.15706 -0.4971,11.68182 -0.24812,1.65981 -2.96197,2.00262 -2.96197,2.00262 0,0 -1.79798,0.50163 -3.00419,0.75678 -1.20621,0.25516 -4.75907,0.81212 -4.75907,0.81212 l -3.61864,0.35535 -4.73714,0.28687 -4.49589,-0.15307 -2.34663,-0.10204 -3.02649,-0.35721 c 0,0 -2.10666,-0.18776 -3.15809,-0.30618 -1.194501,-0.13451 -3.578544,-0.5675 -3.578544,-0.5675 0,0 -2.120846,-0.35139 -2.977773,-1.02731 -0.743401,-0.58637 -1.11959,-0.70149 -1.667871,-2.46198 -0.548277,-1.76052 -1.191808,-4.84777 -1.191808,-4.84777 0,0 -0.5937,-3.0118 -0.5937,-4.82226 0,-0.52219 -0.122503,-1.55638 -0.122503,-1.55638 z"
       id="path13"
       sodipodi:nodetypes="ccscsccccccscascsc"
       inkscape:label="celana" /><path
       style="display:inline;opacity:1;fill:#e8c4ba;fill-opacity:1;stroke-width:0.336616"
       d="m 142.0838,165.20634 -0.0184,1.42261 -0.0872,1.51438 -0.0626,1.78376 -0.0472,0.97332 c 0,0 0.23872,1.03795 0.85025,1.34621 0.61157,0.30825 0.96396,0.19117 0.96396,0.19117 0,0 0.69317,-0.1312 1.12185,-0.0658 0.42868,0.0653 1.88415,1.02066 1.88415,1.02066 0,0 0.38848,0.4737 0.63953,0.46724 0.25107,-0.006 1.31114,0.19531 2.29532,-0.64473 0.98419,-0.84003 0.70678,-0.8838 1.36649,-1.63909 0.65969,-0.75529 2.09579,-1.60697 2.09579,-1.60697 0,0 0.94343,-1.47544 0.63784,-2.6641 -0.30559,-1.18864 -1.97613,-4.37877 -1.97613,-4.37877 l -2.08115,-3.28138 -7.82292,4.69465 z"
       id="path11"
       sodipodi:nodetypes="cccccscscssscscccc"
       inkscape:label="tagan kanan" /><path
       style="display:inline;opacity:1;fill:#609478;fill-opacity:1;stroke-width:0.282719"
       d="m 126.78703,115.02451 c 2.3457,-1.48498 7.59,1.39532 8.22246,1.98816 0.59925,0.56175 5.08651,9.36161 5.08651,9.36161 l 3.8459,8.89643 4.71434,11.86191 3.72183,9.30345 0.86843,2.32587 0.24813,0.8722 -4.77637,2.90733 -6.01698,3.08177 -1.98498,0.58146 -3.22559,-8.14052 -4.032,-11.45488 -3.47372,-9.01273 -3.10153,-8.08238 -1.48874,-4.53542 c 0,0 -2.18081,-7.69224 1.39231,-9.95426 z"
       id="path9"
       sodipodi:nodetypes="ssccccccccccccccs"
       inkscape:label="lengan kanan" /><path
       style="display:inline;opacity:1;fill:#609578;fill-opacity:1;stroke-width:0.282719"
       d="m 126.62586,112.25944 -27.370091,-0.65785 -8.684741,2.71364 -1.754492,0.57563 c 0,0 -2.651853,1.6866 -2.675129,5.55352 -0.03728,6.19275 2.493443,24.62551 2.493443,24.62551 0,0 0.325209,14.87366 0.500657,16.10714 0.0919,0.64612 0.385351,2.51787 0.385351,2.51787 0,0 3.882047,-0.19769 5.819992,-0.10679 3.203129,0.15022 6.35159,0.89195 9.55273,1.0757 3.72521,0.21385 11.19654,0.0291 11.19654,0.0291 0,0 4.06178,-0.22162 6.11003,-0.40701 1.85929,-0.16829 5.58276,-0.61055 5.58276,-0.61055 0,0 1.96155,-0.11037 3.4427,0.26166 0.59852,0.15033 1.62332,-0.37195 1.75237,-0.58146 0.25244,-0.40987 0.26362,-3.9249 0.26362,-3.9249 l 0.94778,-30.02537 c 0,0 0.58352,-4.58362 0.55822,-6.88517 -0.0194,-1.76639 -0.54452,-5.27482 -0.54452,-5.27482 0,0 -2.9344,-2.87775 -7.57722,-4.98582 z"
       id="path10"
       inkscape:label="badan"
       sodipodi:nodetypes="ccccscscascscssccacc" /><path
       style="display:inline;fill:#b3c6b3;fill-opacity:1;stroke-width:0.267174"
       d="m 114.82758,115.68966 1.12069,49.05002 -1.03448,0.0879 -1.20689,-48.52262 z"
       id="path41" /><path
       style="display:inline;opacity:1;fill:#e8c4ba;fill-opacity:1;stroke-width:0.313444"
       d="m 69.254669,161.61112 -0.622972,1.47314 -0.726801,1.92148 -0.969068,1.85742 -0.761413,1.79338 c 0,0 -0.110786,0.98668 0.085,1.66603 0.195781,0.67933 0.293672,0.83785 0.513927,1.15487 0.220251,0.31703 0.856543,0.67934 0.856543,0.67934 l 0.758653,0.4076 c 0,0 0.611816,0.47555 0.832071,0.88317 0.220254,0.4076 0.46498,0.74727 0.66076,0.83784 0.195785,0.0906 1.174689,0.52085 1.443891,0.58878 0.269201,0.068 0.636289,0.45289 1.394944,0.33967 0.758653,-0.11328 1.345997,-0.58878 1.443885,-0.6567 0.0979,-0.068 1.713088,-0.52084 2.080181,-0.47556 0.367089,0.0453 1.370469,0.27175 1.639669,0.11328 0.269199,-0.15852 1.076799,-0.81521 1.150214,-1.0643 0.07341,-0.2491 0.0979,-1.44929 0.0979,-1.44929 0,0 -0.538398,-1.74363 -0.660762,-1.99273 -0.122368,-0.24909 -0.289384,-1.03324 -0.245958,-1.46254 0.07626,-0.75393 0.671627,-1.49224 0.390545,-2.2034 -1.255456,-3.17646 -9.361209,-4.41148 -9.361209,-4.41148 z"
       id="path12"
       inkscape:label="tangan kiri"
       sodipodi:nodetypes="cccccssccssscscsscsssc" /><path
       style="display:inline;opacity:1;fill:#5f9670;fill-opacity:1;stroke-width:0.282719"
       d="m 94.048732,118.75332 c -1.61583,-2.62346 -2.559178,-3.82695 -2.559178,-3.82695 0,0 -2.01665,-0.15116 -3.374814,0.51542 -0.816679,0.40084 -2.28084,1.62201 -2.28084,1.62201 l -1.754496,2.17209 -3.508985,6.00206 -5.43893,13.15707 -3.59671,9.37441 -3.070362,8.38764 -0.789522,2.79587 -0.350899,0.90456 c 0,0 3.772161,4.44051 5.351205,5.34506 1.579044,0.90455 3.18801,1.43824 3.436134,1.52547 0.24812,0.0872 2.310642,0.23257 2.310642,0.23257 h 1.488736 l 1.101045,-2.76195 2.109045,-6.1054 1.39569,-4.44822 1.705844,-4.82617 1.674829,-4.15747 0.775383,-2.15143 1.415994,-3.29262 c 0,0 3.449124,-9.41659 3.966917,-11.18709 0,0 1.609102,-6.65347 -0.0067,-9.27693 z"
       id="path8"
       inkscape:label="lengan kiri"
       sodipodi:nodetypes="ccsccccccccsscccccccccsc" /><path
       style="display:inline;opacity:1;fill:#c6d4c6;fill-opacity:1;stroke-width:0.282719"
       d="m 100.00143,108.91496 c 0,0 -1.403595,3.20703 -1.49132,3.37149 -0.08773,0.16447 1.052696,2.05579 1.84222,2.91923 0.78952,0.86343 3.24581,3.78266 3.24581,3.78266 l 3.11423,3.37149 1.62291,1.52129 3.11422,-3.98823 2.76333,-3.23787 0.61406,-0.17476 3.15809,4.19382 1.62291,2.34361 0.61406,0.86343 6.27233,-9.99115 0.35089,-0.7812 -0.70179,-0.74008 -0.48249,-1.72687 -0.52635,-1.0279 -0.21931,-0.41116 z"
       id="path5"
       inkscape:label="kerah"
       sodipodi:nodetypes="csscccccccccccccccc" /><path
       style="display:inline;opacity:1;fill:#e8c4ba;fill-opacity:1;stroke-width:0.282719"
       d="m 133.9796,88.179863 -1.10739,5.289102 c -0.10551,1.482925 -0.38555,2.924917 -1.12379,6.286212 -0.73826,3.361293 -2.21477,5.041953 -2.21477,5.041953 0,0 -1.42379,2.07609 -2.74211,3.41072 -1.31833,1.33464 -4.58775,3.55903 -4.58775,3.55903 0,0 -2.34334,1.66358 -3.6568,2.21776 -1.18088,0.49824 -2.77311,0.86489 -3.7223,0.96377 -0.9492,0.0989 -2.23872,-0.0173 -3.32987,-0.23532 -1.28493,-0.25674 -3.72661,-1.25101 -3.72661,-1.25101 l -3.13218,-1.36316 c 0,0 -2.90844,-1.64279 -3.24402,-1.7826 -0.33559,-0.13981 -2.796579,-1.7826 -3.020309,-1.95736 -0.22372,-0.17477 -3.169452,-2.55156 -3.355891,-2.9011 -0.18644,-0.34952 -2.498277,-2.44669 -2.498277,-2.44669 l -0.969479,-0.83887 -6.823649,-8.982897 -0.894907,-8.283838 c 0,0 5.145703,-12.211369 7.12195,-12.595853 1.976251,-0.38448 12.081212,-2.009369 12.081212,-2.009369 l 13.72188,-2.583746 7.68127,1.096939 9.28464,9.739232 z"
       id="path4"
       sodipodi:nodetypes="ccscscasaccsssccccsccccc"
       inkscape:label="wajah" /><path
       style="display:none;opacity:1;fill:#d797a0;fill-opacity:1;stroke-width:0.264583"
       d="m 118.08899,105.00808 c 0,0 0.0528,-1.26119 -0.98699,-1.48601 -1.03979,-0.22482 -1.77044,0.22963 -1.77044,0.22963 0,0 -0.67446,0.46952 -1.01168,1.08777 -0.33723,0.61825 -0.39344,1.09939 -0.39344,1.09939 0,0 -0.14051,0.56205 0.19672,0.78687 0.33723,0.22482 0.78686,0.47774 1.43321,0.47774 0.64636,0 1.13432,0 1.61206,-0.28103 0.47774,-0.28102 0.67587,-0.50584 0.78828,-0.81496 0.11241,-0.30913 0.13228,-1.0994 0.13228,-1.0994 z"
       id="path18"
       sodipodi:nodetypes="cscscssssc"
       inkscape:label="mulut1" /><path
       style="display:none;opacity:1;fill:#d797a0;fill-opacity:1;stroke-width:0.424869"
       d="m 119.95901,105.25527 c 0,0 0.0955,-1.7979 -1.78533,-2.1184 -1.88082,-0.32049 -3.57561,0.32735 -3.57561,0.32735 0,0 -0.84686,0.37052 -1.45682,1.25186 -0.61001,0.88135 -0.71168,1.86608 -0.71168,1.86608 0,0 0.0128,0.80123 0.62281,1.12173 0.60999,0.32048 1.15634,0.68104 2.3255,0.68104 1.16916,0 2.0518,0 2.91597,-0.40063 0.86416,-0.4006 1.22254,-0.7211 1.42588,-1.16176 0.20333,-0.44069 0.23928,-1.56727 0.23928,-1.56727 z"
       id="path23"
       sodipodi:nodetypes="cscscssssc"
       inkscape:label="mulut2" /><path
       style="display:none;opacity:1;fill:#d797a0;fill-opacity:1;stroke-width:0.326153"
       d="m 119.73419,105.47275 c 0,0 0.0955,-1.05949 -1.78533,-1.24836 -1.88082,-0.18886 -3.57561,0.19291 -3.57561,0.19291 0,0 -0.84686,0.21834 -1.45682,0.73771 -0.61001,0.51937 -0.71168,1.09967 -0.71168,1.09967 0,0 0.0128,0.47216 0.62281,0.66103 0.60999,0.18885 1.15634,0.40133 2.3255,0.40133 1.16916,0 2.0518,0 2.91597,-0.23609 0.86416,-0.23607 1.22254,-0.42494 1.42588,-0.68462 0.20333,-0.25969 0.23928,-0.92358 0.23928,-0.92358 z"
       id="path24"
       sodipodi:nodetypes="cscscssssc"
       inkscape:label="mulut3" /><path
       style="display:none;opacity:1;fill:#d797a0;fill-opacity:1;stroke-width:0.233742"
       d="m 118.16483,105.2985 c 0,0 0.0395,-1.31386 -0.73943,-1.54807 -0.77898,-0.23421 -1.48091,0.23922 -1.48091,0.23922 0,0 -0.35075,0.27076 -0.60337,0.91483 -0.25267,0.64406 -0.29477,1.36369 -0.29477,1.36369 0,0 0.004,0.58552 0.25794,0.81973 0.25265,0.2342 0.47894,0.49769 0.96317,0.49769 0.48423,0 0.84979,0 1.20771,-0.29277 0.35791,-0.29275 0.50634,-0.52697 0.59056,-0.84899 0.0842,-0.32204 0.0991,-1.14533 0.0991,-1.14533 z"
       id="path25"
       sodipodi:nodetypes="cscscssssc"
       inkscape:label="mulut4" /><path
       style="display:none;opacity:1;fill:#d3b2a9;fill-opacity:1;stroke-width:0.303475"
       d="m 118.86526,105.99904 c -0.20328,-0.12272 -0.95548,-0.0397 -1.43535,-0.0397 -1.05859,0 -3.19495,0.0253 -3.19495,0.0253 0,0 -1.0683,-0.0231 -1.30172,-0.0231 -0.0938,0 -0.2329,-7.2e-4 -0.27036,0.10883 -0.0495,0.14474 0.10746,0.20209 0.1909,0.22547 0.26643,0.0746 1.38462,0.0918 2.07796,0.10027 0.79892,0.01 2.39628,-0.057 2.39628,-0.057 0.80236,-0.0192 0.84411,-0.0467 1.07303,-0.0467 0.15816,0 0.3661,-0.011 0.46819,-0.1175 0.0459,-0.048 0.0458,-0.14573 -0.004,-0.1758 z"
       id="path27"
       sodipodi:nodetypes="sscsssasssss"
       inkscape:label="mulut diam" /><path
       style="display:inline;opacity:1;fill:#d797a0;fill-opacity:1;stroke-width:0.298685"
       d="m 119.86804,105.13944 c 0,0 0.0876,-0.96751 -1.63964,-1.13998 -1.72736,-0.17247 -3.28385,0.17616 -3.28385,0.17616 0,0 -0.77778,0.19939 -1.33795,0.67367 -0.56028,0.47427 -0.65364,1.0042 -0.65364,1.0042 0,0 0.009,0.43116 0.57195,0.60363 0.56025,0.17247 1.06203,0.36649 2.1358,0.36649 1.07376,0 1.88438,0 2.67804,-0.2156 0.79365,-0.21557 1.12279,-0.38805 1.30953,-0.62517 0.18673,-0.23714 0.21976,-0.8434 0.21976,-0.8434 z"
       id="path26"
       sodipodi:nodetypes="cscscssssc"
       inkscape:label="mulut5" /><path
       style="opacity:0.7;fill:#c7a49d;fill-opacity:1;stroke-width:0.354298"
       d="m 116.94417,95.787855 c 0,0 0.46755,-0.26085 1.12502,-0.08967 0.65749,0.171176 0.89187,0.284047 1.25328,0.550562 0.29868,0.220253 0.63165,0.599794 0.70777,0.830686 0.0762,0.230905 0.13895,0.786463 -0.0304,1.12664 -0.12192,0.245227 -0.37141,0.461194 -0.65218,0.542583 -0.32839,0.09518 -0.70665,-0.07842 -0.70665,-0.07842 0,0 -0.17861,-0.152789 0.13902,-0.201268 0.28758,-0.04387 0.79538,-0.294221 0.80306,-0.661606 0.007,-0.367371 -0.20617,-0.653404 -0.43977,-0.906021 -0.24696,-0.267099 -0.6411,-0.470333 -0.95587,-0.57867 -0.31478,-0.108333 -0.73439,-0.204341 -1.05497,-0.195518 -0.3206,0.0089 -0.18851,-0.33931 -0.18851,-0.33931 z"
       id="path20"
       sodipodi:nodetypes="csacascscasscc"
       inkscape:label="hidung" /><circle
       id="path42"
       style="fill:#5f9276;stroke:#000000;stroke-width:0.264583"
       cx="93.874519"
       cy="145.56647"
       r="0.032477908" /></g><g
     inkscape:groupmode="layer"
     id="layer3"
     inkscape:label="mata"
     style="display:inline"><path
       style="display:inline;opacity:1;fill:#d2f7f2;fill-opacity:1;stroke-width:0.310522"
       d="m 99.810724,88.942871 -0.04178,0.775977 0.1038,0.984282 c 0,0 0.199166,1.089268 0.413546,1.398172 0.21437,0.3089 0.3433,0.752863 0.72315,1.151775 0.37985,0.398912 1.59976,1.181233 1.59976,1.181233 0,0 1.20055,0.647854 1.52722,0.711309 0.32662,0.06346 1.41542,0.274975 2.11867,0.241748 0.70325,-0.03322 1.37213,-0.151679 1.91491,-0.394718 0.54278,-0.243037 1.04041,-0.505189 1.28723,-0.965408 0.65159,-1.214981 0.46504,-2.902907 0.15507,-4.077019 -0.30952,-1.174108 -1.65758,-1.371054 -1.65758,-1.371054 l -3.84604,-0.534855 -2.71644,0.356758 z"
       id="path21"
       inkscape:label="mata kiri putih"
       sodipodi:nodetypes="cccsccsszaccccc" /><path
       style="display:inline;opacity:1;fill:#0a1f22;fill-opacity:1;stroke-width:0.308055"
       d="m 108.0259,88.27278 c 0,0 -1.46385,-0.242766 -2.21065,-0.306565 -0.59688,-0.051 -1.14807,-0.0514 -1.80323,-0.05396 -0.65518,-0.0025 -1.41126,0.04371 -2.10388,0.161095 -0.45715,0.07751 -1.41945,0.262587 -1.41945,0.262587 -8.1e-4,-0.0064 -1.102206,0.312913 -1.570764,0.612294 -0.190515,0.121728 -0.38272,0.270587 -0.480676,0.46624 -0.07352,0.146864 -0.232573,0.495907 -0.05663,0.483798 0.09842,-0.0068 0.752182,-0.299228 0.752182,-0.299228 0,0 0.931878,-0.388524 1.555488,-0.590972 0.57445,-0.186483 1.50587,-0.234958 2.18358,-0.302381 0.67772,-0.06741 1.84877,-0.07083 2.15875,-0.02245 0.30996,0.04837 0.40146,0.04939 0.40146,0.04939 0,0 -1.10145,1.339641 -0.98528,2.798011 0.0528,0.808324 0.30508,1.684129 0.85387,2.329217 0.3842,0.451606 0.97617,0.770489 1.57603,0.924598 0.54219,0.139295 1.17184,0.170441 1.68784,-0.03612 0.49115,-0.196603 0.87878,-0.62364 1.12296,-1.058196 0.21685,-0.385954 0.55169,-1.735447 0.45012,-2.539605 -0.10156,-0.804175 -0.18104,-1.245625 -0.44155,-1.495639 -0.0372,-0.03561 0.41798,0.194717 0.41798,0.194717 0,0 0.68374,0.299787 0.52651,-0.269905 l -0.0236,-0.09936 c -0.005,-0.02526 -0.0834,-0.170864 -0.12016,-0.190787 -0.0724,-0.03916 -0.45984,-0.368899 -0.86904,-0.551654 -0.40921,-0.182755 -1.03031,-0.324983 -1.60184,-0.465128 z"
       id="path19"
       sodipodi:nodetypes="cssscaascsssccaaascsccsszc"
       inkscape:label="mata kiri" /><path
       style="display:inline;opacity:1;fill:#808080;fill-opacity:1;stroke-width:0.282719"
       d="m 108.41129,84.152987 c -1.06621,-0.233456 -3.24441,-0.464204 -3.24441,-0.464204 0,0 -2.60672,-0.03616 -3.22919,-0.0042 -0.62248,0.03186 -2.712555,0.363925 -2.712555,0.363925 l -0.957908,0.294363 c 0,0 -0.396729,0.356524 -0.348333,0.380681 0.04839,0.02417 0.342164,-0.04463 0.342164,-0.04463 l 1.483464,-0.207207 1.853128,-0.167264 1.56333,-0.04084 1.9529,0.06234 1.68723,0.205989 1.54731,0.303407 1.52651,0.440239 1.07122,0.40291 c 0,0 0.24393,0.0375 0.32418,-0.03254 0.14079,-0.122884 0.0992,-0.24374 0.0429,-0.347888 -0.12396,-0.229516 -0.19338,-0.30592 -0.19338,-0.30592 z"
       id="path22"
       sodipodi:nodetypes="ccsccscccccccccsscc"
       inkscape:label="alis kiri" /><path
       style="fill:#808080;fill-opacity:1;stroke-width:0.289753"
       d="m 120.63402,85.142258 0.53039,-0.426581 0.90509,-0.600706 1.04187,-0.469999 1.29358,-0.316371 1.17657,-0.153036 1.54424,-0.06724 1.07124,0.05153 0.63251,0.03874 0.82802,0.119364 c 0,0 0.60698,0.09546 0.8556,0.212878 0.19056,0.09001 0.41207,0.416217 -0.3096,0.409202 -0.16123,-0.0016 -1.03682,-0.112876 -1.03682,-0.112876 l -1.97884,-0.08605 -1.45238,0.09382 -1.15355,0.153259 -1.34033,0.377594 -0.83384,0.407849 -0.83556,0.562758 -0.25147,0.203145 c 0,0 -0.79865,0.127845 -0.68672,-0.397296 z"
       id="path1"
       sodipodi:nodetypes="ccccccccccsscccccccccc"
       inkscape:label="alis kanan" /><path
       style="display:inline;fill:#d2f9f4;fill-opacity:1;stroke-width:0.295522"
       d="m 129.44989,88.076503 0.0821,0.965169 -0.0357,1.576767 -0.16061,0.7245 -0.56395,1.20833 c 0,0 -0.38928,0.619566 -0.55794,0.742517 -0.1687,0.122951 -0.90412,0.729081 -0.90412,0.729081 0,0 -0.43559,0.387253 -0.71412,0.521973 -0.29437,0.142373 -0.63887,0.217258 -0.97465,0.284778 -0.3567,0.07173 -0.72523,0.127505 -1.0917,0.125216 -0.34757,-0.0022 -0.70971,-0.03303 -1.02363,-0.131613 -0.28178,-0.08849 -0.7087,-0.388848 -0.7087,-0.388848 l -0.55444,-0.677004 -0.50115,-1.828406 0.39838,-1.955397 1.95421,-1.401266 c 0,0 3.04891,-0.694923 3.11807,-0.727818 0.0691,-0.03289 2.23794,0.23202 2.23794,0.23202 z"
       id="path7"
       sodipodi:nodetypes="cccccscaaascccccscc"
       inkscape:label="mata kanan putih" /><path
       style="fill:#0a1f22;stroke-width:0.301607"
       d="m 130.8916,88.638486 c 0,0 -0.3884,-0.245067 -0.59622,-0.344961 -0.22452,-0.107921 -0.69878,-0.272816 -0.69878,-0.272816 l -0.85933,-0.235443 -1.07648,-0.06744 -1.45351,0.03765 c 0,0 -0.97138,0.05302 -1.44504,0.146859 -0.52709,0.104433 -1.03007,0.234738 -1.53398,0.387335 -0.25118,0.07606 -0.50776,0.151561 -0.74062,0.262759 -0.22757,0.108675 -0.46613,0.227054 -0.67105,0.346852 -0.15871,0.09279 -0.32014,0.20122 -0.42308,0.347634 -0.0788,0.112022 -0.16561,0.279761 -0.0898,0.393571 0.0613,0.0922 0.22161,0.07699 0.33754,0.07878 0.15712,0.0024 0.46093,-0.0926 0.46093,-0.0926 0,0 -0.20104,0.315339 -0.24053,0.429587 -0.11516,0.334276 -0.12846,0.636173 -0.17791,0.962717 -0.0502,0.3316 -0.1006,0.669834 -0.0759,1.003566 0,0 0.003,0.410855 0.0452,0.611302 0.0572,0.273396 0.27847,0.793968 0.27847,0.793968 l 0.33936,0.496019 0.44134,0.379523 0.5689,0.230109 c 0,0 0.563,0.02132 0.83451,-0.03671 0.30551,-0.06529 0.63865,-0.166134 0.86529,-0.344302 0.30818,-0.242271 0.49639,-0.605907 0.75862,-1.004126 0.26223,-0.398219 0.44875,-0.937928 0.57984,-1.434186 0.13605,-0.515126 0.20911,-1.049302 0.20864,-1.579982 -4.3e-4,-0.451711 -0.15192,-1.241722 -0.17993,-1.344591 -0.028,-0.102865 0.12355,-0.21258 0.12355,-0.21258 l 1.04911,-0.115782 0.6227,0.06126 0.75687,0.07776 c 0,0 0.56911,0.147317 0.84847,0.247137 0.16965,0.06061 0.50206,0.223408 0.50206,0.223408 l 0.51983,0.224414 c 0.20655,-0.08277 0.12819,-0.266254 0.12859,-0.465892 z"
       id="path2"
       inkscape:label="mata kanan"
       sodipodi:nodetypes="caccccsasssaacsssaccccaszaasccccscccc" /><path
       style="display:inline;fill:#d1afa7;fill-opacity:1;stroke-width:0.264583"
       d="m 111.48172,94.030211 c -0.18321,-0.04909 -0.19671,1.377011 -1.2927,1.798545 -1.09599,0.421534 -1.2084,0.421534 -1.2084,0.421534 0,0 0.84359,0.175615 1.2365,0.04998 0.46284,-0.147995 0.86658,-0.529728 1.15219,-0.893048 0.18498,-0.235313 0.30936,-0.543749 0.30913,-0.843068 -1.5e-4,-0.189676 0.10801,-0.452291 -0.19672,-0.533943 z"
       id="path6"
       inkscape:label="kerut mata"
       sodipodi:nodetypes="sscasss" /><path
       style="display:inline;fill:#d1afa7;fill-opacity:1;stroke-width:0.229135"
       d="m 121.35382,93.910643 c 0,0 0.14753,1.377011 0.96952,1.798545 0.82199,0.421534 0.9063,0.421534 0.9063,0.421534 0,0 -0.72103,7.3e-4 -1.04167,-0.140512 -0.33434,-0.147283 -0.63837,-0.391683 -0.84128,-0.702556 -0.1593,-0.244067 -0.14041,-0.843068 -0.14041,-0.843068 0,0 -0.0678,-0.476238 0.14754,-0.533943 z"
       id="path6-1"
       inkscape:label="kerut mata"
       sodipodi:nodetypes="cscascc" /><path
       style="fill:#d1ada5;fill-opacity:1;stroke-width:0.29572"
       d="m 108.96177,78.735843 2.88075,0.08621 2.77332,0.237069 2.12243,-0.01155 2.29265,-0.247079 2.7192,-0.301723 1.26537,-0.0431 0.59231,0.12931 -0.26923,0.215516 -0.56537,-0.02156 -0.78077,0.06465 -2.39614,0.258622 -2.79167,0.354836 -2.38809,0.0331 -2.73555,-0.280173 -2.01921,-0.107757 -0.67308,-0.08621 -0.18846,-0.0431 z"
       id="path34"
       inkscape:label="kerut dahi"
       sodipodi:nodetypes="ccccccccccccccccccc" /><path
       style="fill:#d1ada5;fill-opacity:1;stroke-width:0.29572"
       d="m 109.12616,80.189602 2.88076,0.08621 2.73021,0.237069 2.02545,-0.01155 2.43274,-0.247079 2.7192,-0.301723 1.26537,-0.0431 0.59231,0.12931 -0.26924,0.215516 -0.56537,-0.02156 -0.78076,0.06465 -2.39614,0.258622 -2.77644,0.324357 -2.47875,0.06358 -2.66012,-0.280173 -2.01922,-0.107757 -0.67308,-0.08621 -0.18845,-0.0431 z"
       id="path34-7"
       inkscape:label="kerut dahi"
       sodipodi:nodetypes="ccccccccccccccccccc" /></g><g
     inkscape:groupmode="layer"
     id="g33"
     inkscape:label="mata setengah "
     style="display:none"
     transform="translate(0.05620455,1.0116819)"><path
       style="display:inline;opacity:1;fill:#d2f7f2;fill-opacity:1;stroke-width:0.259324"
       d="m 101.09335,88.959196 0.032,0.772163 0.15965,0.78404 c 0,0 0.2395,0.748405 0.44705,0.985995 0.20755,0.237587 0.23948,0.344503 0.76636,0.902835 0.52686,0.558334 1.42094,0.974113 1.42094,0.974113 0,0 1.08566,0.463298 1.37305,0.498938 0.28738,0.03564 1.24533,0.154433 1.85203,0.09503 0.6067,-0.05941 1.22703,-0.304418 1.50078,-0.422019 0.29997,-0.128852 1.01578,-0.473218 1.22615,-0.860961 0.54246,-0.999866 0.14692,-2.304608 -0.20428,-3.231204 -0.35127,-0.926597 -1.53273,-1.02163 -1.53273,-1.02163 l -3.36877,-0.249469 -2.34696,0.19007 z"
       id="path28"
       inkscape:label="mata kiri putih"
       sodipodi:nodetypes="cccsscsssaccccc" /><path
       style="display:inline;opacity:1;fill:#0a1f22;fill-opacity:1;stroke-width:0.264787"
       d="m 110.96174,89.449477 c 0,0 -0.54634,-0.348288 -0.85027,-0.476486 -0.4394,-0.185342 -1.39139,-0.423328 -1.39139,-0.423328 l -2.02242,-0.223151 c 0,0 -1.0628,-0.09865 -1.66609,-0.105285 -0.60329,-0.0066 -1.30478,-8.83e-4 -1.94585,0.08843 -0.42312,0.05898 -1.26279,0.29088 -1.26279,0.29088 0,0 -1.13669,0.324406 -1.67445,0.5673 -0.167323,0.07557 -0.401812,0.174002 -0.466563,0.315231 -0.06272,0.136819 -0.01692,0.371058 0.143638,0.389275 0.160532,0.0182 0.725655,-0.230938 0.725655,-0.230938 0,0 1.0948,-0.451603 1.67466,-0.609631 0.53416,-0.145569 1.1136,-0.261805 1.73957,-0.311163 0.62595,-0.04936 1.69634,0.01779 1.98048,0.05874 0.28411,0.04095 0.40191,0.158835 0.40191,0.158835 0,0 -0.87337,1.030167 -0.78772,2.025871 0.0264,0.648673 0.14746,1.606306 0.62066,2.130328 0.38714,0.428699 0.92245,0.649439 1.26241,0.705705 0.35503,0.05876 1.02661,-0.03512 1.478,-0.207609 0.40595,-0.155047 0.77374,-0.36008 1.01055,-0.706919 0.21033,-0.308041 0.5492,-1.500339 0.47778,-2.146023 -0.0714,-0.64569 -0.12669,-0.891858 -0.2501,-1.149746 -0.0492,-0.102902 0.43589,0.160452 0.43589,0.160452 0,0 0.58902,0.307069 0.36644,-0.300811 z"
       id="path29"
       sodipodi:nodetypes="cscccscssscsssccssascsccc"
       inkscape:label="mata kiri" /><path
       style="opacity:1;fill:#808080;fill-opacity:1;stroke-width:0.273552"
       d="m 111.68787,85.372305 c 0,0 -1.50596,-0.893163 -2.55224,-1.258227 -0.96685,-0.337352 -2.99451,-0.682442 -2.99451,-0.682442 0,0 -2.39283,-0.253118 -2.97486,-0.282582 -0.58202,-0.02946 -2.52265,0.05887 -2.52265,0.05887 l -1.295967,0.210495 c 0,0 -0.04818,0.146907 -0.0052,0.175724 0.0425,0.02882 0.3553,0.06117 0.3553,0.06117 l 1.371287,-0.05618 1.74183,0.03026 1.45419,0.0847 1.7822,0.15957 1.57286,0.403066 1.41287,0.396414 1.3671,0.646472 0.95383,0.506613 c 0,0 0.22286,0.06135 0.30478,-5.27e-4 0.14371,-0.108541 0.0866,-0.225805 0.0763,-0.342252 -0.004,-0.04 -0.0464,-0.111136 -0.0464,-0.111136 z"
       id="path30"
       sodipodi:nodetypes="cscsccscccccccccsacc"
       inkscape:label="alis kiri" /><path
       style="fill:#808080;fill-opacity:1;stroke-width:0.280356"
       d="m 120.76381,84.946044 0.49139,-0.432347 0.83985,-0.610365 0.96905,-0.480804 1.20593,-0.329409 1.09825,-0.164704 1.44281,-0.08236 1.00191,0.04117 0.59165,0.03265 0.77525,0.111473 c 0,0 0.56838,0.08969 0.802,0.20485 0.17905,0.08827 0.38948,0.412794 -0.28518,0.412794 -0.15073,0 -0.97037,-0.102943 -0.97037,-0.102943 l -1.85064,-0.06691 -1.35668,0.108092 -1.07673,0.164704 -1.249,0.391174 -0.77525,0.416542 -0.77523,0.571686 -0.23297,0.20588 c 0,0 -0.74524,0.1358 -0.64604,-0.391173 z"
       id="path31"
       sodipodi:nodetypes="ccccccccccsscccccccccc"
       inkscape:label="alis kanan" /><path
       style="display:inline;fill:#d2f9f4;fill-opacity:1;stroke-width:0.22561"
       d="m 128.25616,88.546881 -0.0142,0.711786 -0.15751,1.152894 -0.18615,0.521308 -0.54413,0.852139 c 0,0 -0.35799,0.43108 -0.50117,0.511283 -0.14322,0.0802 -0.77326,0.481208 -0.77326,0.481208 0,0 -0.37547,0.258204 -0.60633,0.340606 -0.24396,0.0871 -0.52195,0.121801 -0.79246,0.151634 -0.28735,0.03168 -0.58274,0.05102 -0.87175,0.02791 -0.27409,-0.02191 -0.55733,-0.06567 -0.79697,-0.156235 -0.21511,-0.08129 -0.52736,-0.326253 -0.52736,-0.326253 l -0.44317,-0.532843 -0.25775,-1.369504 0.1432,-1.433599 2.06198,-0.882213 c 0,0 2.46292,-0.330829 2.52019,-0.350882 0.0573,-0.02006 1.74696,0.300756 1.74696,0.300756 z"
       id="path32"
       sodipodi:nodetypes="cccccscaaascccccscc"
       inkscape:label="mata kanan putih" /><path
       style="fill:#0a1f22;stroke-width:0.228408"
       d="m 129.2679,88.666118 -0.61505,-0.244013 -0.63555,-0.172241 -0.75857,-0.08612 -0.92258,0.04306 -1.23011,0.143535 -1.2096,0.215306 c 0,0 -1.16861,0.401899 -1.25062,0.430607 -0.0821,0.0287 -0.59456,0.229657 -0.59456,0.229657 l -0.49203,0.315779 -0.34853,0.258364 -0.0409,0.20095 c 0,0 0.12302,0.08612 0.30754,0.08612 0.18451,0 0.41002,-0.143535 0.41002,-0.143535 0,0 -0.0829,0.18616 -0.10244,0.265179 -0.0573,0.231186 -0.0409,0.667804 -0.0409,0.667804 l 0.0308,0.674617 0.11275,0.401902 0.27605,0.509553 0.34853,0.301425 0.42101,0.215814 0.45105,0.107143 c 0,0 0.55355,-0.03204 0.69706,-0.132517 0.1399,-0.09794 0.58378,-0.355505 0.58378,-0.355505 0,0 0.52332,-0.51673 0.58481,-0.645913 0.0614,-0.129183 0.43054,-0.76074 0.43054,-1.004752 0,-0.24401 0.0206,-0.846862 0.0206,-1.047812 0,-0.200949 -0.15416,-0.818629 -0.19041,-0.884602 -0.0361,-0.06596 -0.0797,-0.142093 -0.0797,-0.142093 l 0.87706,-0.162392 0.5364,-0.01015 0.65235,-0.01015 0.75384,0.111646 0.46391,0.172541 0.40591,0.101494 c 0,0 0.17996,-0.08049 0.14798,-0.410704 z"
       id="path33"
       inkscape:label="mata kanan"
       sodipodi:nodetypes="cccccccsccccscscccccccscssssccccccccc" /><path
       style="display:inline;fill:#d1afa7;fill-opacity:1;stroke-width:0.264583"
       d="m 111.31335,92.401706 c -0.18321,-0.04909 -0.19671,1.377011 -1.2927,1.798545 -1.09599,0.421534 -1.2084,0.421534 -1.2084,0.421534 0,0 0.84359,0.175615 1.2365,0.04998 0.46284,-0.147995 0.86658,-0.529728 1.15219,-0.893048 0.18498,-0.235313 0.30936,-0.543749 0.30913,-0.843068 -1.5e-4,-0.189676 0.10801,-0.452291 -0.19672,-0.533943 z"
       id="path6-4"
       inkscape:label="kerut mata"
       sodipodi:nodetypes="sscasss" /><path
       style="display:inline;fill:#d1afa7;fill-opacity:1;stroke-width:0.229135"
       d="m 121.18545,92.282138 c 0,0 0.14753,1.377011 0.96952,1.798545 0.82199,0.421534 0.9063,0.421534 0.9063,0.421534 0,0 -0.72103,7.3e-4 -1.04167,-0.140512 -0.33434,-0.147283 -0.63837,-0.391683 -0.84128,-0.702556 -0.1593,-0.244067 -0.14041,-0.843068 -0.14041,-0.843068 0,0 -0.0678,-0.476238 0.14754,-0.533943 z"
       id="path6-1-5"
       inkscape:label="kerut mata"
       sodipodi:nodetypes="cscascc" /><path
       style="display:inline;fill:#d1ada5;fill-opacity:1;stroke-width:0.29572"
       d="m 108.97977,78.213821 2.88075,0.08621 2.34229,0.237069 2.11165,-0.01155 2.73446,-0.247079 2.7192,-0.301723 1.26537,-0.0431 0.59231,0.12931 -0.26923,0.215516 -0.56537,-0.02156 -0.78077,0.06465 -2.39614,0.258622 -3.06107,0.354836 -2.43119,0.0331 -2.42305,-0.280173 -2.01921,-0.107757 -0.67308,-0.08621 -0.18846,-0.0431 z"
       id="path34-4"
       inkscape:label="kerut dahi"
       sodipodi:nodetypes="ccccccccccccccccccc" /><path
       style="display:inline;fill:#d1ada5;fill-opacity:1;stroke-width:0.29572"
       d="m 109.14416,79.66758 2.88076,0.08621 2.34228,0.237069 2.11166,-0.01155 2.73446,-0.247079 2.7192,-0.301723 1.26537,-0.0431 0.59231,0.12931 -0.26924,0.215516 -0.56537,-0.02156 -0.78076,0.06465 -2.39614,0.258622 -3.04584,0.324357 -2.44642,0.06358 -2.42305,-0.280173 -2.01922,-0.107757 -0.67308,-0.08621 -0.18845,-0.0431 z"
       id="path34-7-7"
       inkscape:label="kerut dahi"
       sodipodi:nodetypes="ccccccccccccccccccc" /></g><g
     inkscape:groupmode="layer"
     id="g39"
     inkscape:label="mata tertutup"
     style="display:none"
     transform="translate(-0.1124091,1.124091)"><path
       style="display:inline;opacity:1;fill:#0a1f22;fill-opacity:1;stroke-width:0.315263"
       d="m 110.38412,91.204145 c -0.0148,-0.07205 -0.40362,-0.326734 -0.81632,-0.528908 -0.4127,-0.202176 -1.11152,-0.481364 -1.67902,-0.646078 -0.55354,-0.160666 -1.67815,-0.408049 -1.67815,-0.408049 0,0 -1.05449,-0.131816 -1.65546,-0.191898 -0.601,-0.06008 -1.30227,-0.05658 -1.94839,0.01598 -0.42646,0.04791 -1.27909,0.205967 -1.27909,0.205967 0,0 -1.15691,0.300221 -1.711992,0.598787 -0.172719,0.09288 -0.414185,0.21249 -0.48975,0.406924 -0.07324,0.18836 -0.04437,0.469403 0.114308,0.508673 0.158633,0.03925 0.741011,-0.247749 0.741011,-0.247749 0,0 1.121483,-0.347964 1.711943,-0.522882 0.54391,-0.161128 1.29319,-0.20373 1.92114,-0.220979 0.62795,-0.01725 2.10557,0.160763 2.38566,0.242601 0,0 2.03685,0.488493 3.00919,0.867221 0.34078,0.132733 0.98152,0.489146 0.98152,0.489146 0,0 0.53711,0.129349 0.3934,-0.568747 z"
       id="path35"
       sodipodi:nodetypes="szsccscssscsscacss"
       inkscape:label="mata kiri" /><path
       style="opacity:1;fill:#808080;fill-opacity:1;stroke-width:0.296234"
       d="m 111.05648,85.563282 c 0,0 -1.69494,-0.862239 -2.85584,-1.186625 -1.07277,-0.29977 -3.30927,-0.632309 -3.30927,-0.632309 0,0 -2.61701,-0.116376 -3.25148,-0.110156 -0.63447,0.0062 -2.727381,0.321088 -2.727381,0.321088 l -1.394705,0.310684 c 0,0 -0.03067,0.270179 0.01732,0.298404 0.04799,0.02821 0.359473,0.05234 0.359473,0.05234 0,0 1.015124,-0.08063 1.522375,-0.120437 0.623198,-0.04888 1.867268,-0.142241 1.867268,-0.142241 0,0 1.0787,0.02114 1.61281,0.02235 0.65223,0.0015 1.3075,0.06157 1.95204,0.133795 0.58541,0.06561 1.13254,0.100324 1.69008,0.205924 0.54204,0.102656 1.60199,0.414399 1.60199,0.414399 l 1.51178,0.460109 1.06966,0.482593 c 0,0 0.24621,0.05147 0.3312,-0.02047 0.14911,-0.126086 0.0793,-0.24841 0.0605,-0.372933 -0.007,-0.04269 -0.0577,-0.116467 -0.0577,-0.116467 z"
       id="path36"
       sodipodi:nodetypes="cscsccscscssacccsacc"
       inkscape:label="alis kiri" /><path
       style="fill:#808080;fill-opacity:1;stroke-width:0.289203"
       d="m 120.70734,85.545539 0.54896,-0.414511 0.93967,-0.587036 1.08661,-0.46632 1.35514,-0.32635 1.23558,-0.169444 1.62468,-0.09605 1.12925,0.02619 0.66695,0.02334 0.87464,0.09546 c 0,0 0.64132,0.0775 0.90578,0.183297 0.20268,0.08109 0.44325,0.384892 -0.31686,0.393435 -0.16984,0.0019 -1.09439,-0.08492 -1.09439,-0.08492 l -2.08577,-0.03975 -1.52736,0.11926 -1.21133,0.169174 -1.403,0.385222 -0.86894,0.403179 -0.86729,0.549691 -0.26025,0.197374 c 0,0 -0.83818,0.13768 -0.73207,-0.361225 z"
       id="path37"
       sodipodi:nodetypes="ccccccccccsscccccccccc"
       inkscape:label="alis kanan" /><path
       style="fill:#0a1f22;stroke-width:0.277252"
       d="m 130.25454,89.798216 -0.58879,-0.189769 c 0,0 -0.56535,-0.141754 -0.84364,-0.180686 -0.28168,-0.0394 -0.83372,-0.100726 -0.83372,-0.100726 l -1.03065,-0.01788 c 0,0 -0.94283,0.05152 -1.41037,0.113299 -0.44667,0.05901 -1.32904,0.245443 -1.32904,0.245443 0,0 -0.93772,0.26289 -1.40422,0.402307 -0.22739,0.06796 -0.67978,0.211617 -0.67978,0.211617 0,0 -0.38469,0.144989 -0.54362,0.269736 -0.11431,0.08976 -0.24037,0.187158 -0.28057,0.333143 -0.0402,0.145982 -0.0112,0.416123 0.1151,0.44905 0.2638,0.06892 0.83425,-0.26127 1.25254,-0.388144 0.52822,-0.160216 1.05206,-0.336872 1.58754,-0.471137 0.31705,-0.07949 0.63943,-0.136606 0.9606,-0.197569 0.26104,-0.04955 0.78532,-0.136673 0.78532,-0.136673 0,0 0.60579,-0.0735 0.9103,-0.08818 0.21779,-0.0106 0.43626,-0.0085 0.65414,1.54e-4 0.23288,0.0093 0.46234,0.03162 0.69697,0.05531 0.28329,0.02864 0.61714,0.05666 0.85127,0.100336 0.23413,0.04369 0.55388,0.142373 0.55388,0.142373 l 0.98409,0.309808 c 0,0 0.68155,-0.03651 0.33594,-0.599493 z"
       id="path39"
       inkscape:label="mata kanan"
       sodipodi:nodetypes="ccsccscacazsaaacaaszcccc" /><path
       style="display:inline;fill:#d1afa7;fill-opacity:1;stroke-width:0.264583"
       d="m 111.30956,91.341021 c -0.18321,-0.04909 -0.19671,1.377011 -1.2927,1.798545 -1.09599,0.421534 -1.2084,0.421534 -1.2084,0.421534 0,0 0.84359,0.175615 1.2365,0.04998 0.46284,-0.147995 0.86658,-0.529728 1.15219,-0.893048 0.18498,-0.235313 0.30936,-0.543749 0.30913,-0.843068 -1.5e-4,-0.189676 0.10801,-0.452291 -0.19672,-0.533943 z"
       id="path6-6"
       inkscape:label="kerut mata"
       sodipodi:nodetypes="sscasss" /><path
       style="display:inline;fill:#d1afa7;fill-opacity:1;stroke-width:0.229135"
       d="m 120.96614,91.264556 c 0,0 0.14753,1.377011 0.96952,1.798545 0.82199,0.421534 0.9063,0.421534 0.9063,0.421534 0,0 -0.72103,7.3e-4 -1.04167,-0.140512 -0.33434,-0.147283 -0.63837,-0.391683 -0.84128,-0.702556 -0.1593,-0.244067 -0.14041,-0.843068 -0.14041,-0.843068 0,0 -0.0678,-0.476238 0.14754,-0.533943 z"
       id="path6-1-1"
       inkscape:label="kerut mata"
       sodipodi:nodetypes="cscascc" /><path
       style="display:inline;fill:#d1ada5;fill-opacity:1;stroke-width:0.29572"
       d="m 109.19148,78.238983 2.88075,0.08621 2.34229,0.237069 2.11165,-0.01155 2.73446,-0.247079 2.7192,-0.301723 1.26537,-0.0431 0.59231,0.12931 -0.26923,0.215516 -0.56537,-0.02156 -0.78077,0.06465 -2.39614,0.258622 -3.06107,0.354836 -2.43119,0.0331 -2.42305,-0.280173 -2.01921,-0.107757 -0.67308,-0.08621 -0.18846,-0.0431 z"
       id="path34-0"
       inkscape:label="kerut dahi"
       sodipodi:nodetypes="ccccccccccccccccccc" /><path
       style="display:inline;fill:#d1ada5;fill-opacity:1;stroke-width:0.29572"
       d="m 109.35587,79.692742 2.88076,0.08621 2.34228,0.237069 2.11166,-0.01155 2.73446,-0.247079 2.7192,-0.301723 1.26537,-0.0431 0.59231,0.12931 -0.26924,0.215516 -0.56537,-0.02156 -0.78076,0.06465 -2.39614,0.258622 -3.04584,0.324357 -2.44642,0.06358 -2.42305,-0.280173 -2.01922,-0.107757 -0.67308,-0.08621 -0.18845,-0.0431 z"
       id="path34-7-74"
       inkscape:label="kerut dahi"
       sodipodi:nodetypes="ccccccccccccccccccc" /></g><g
     inkscape:groupmode="layer"
     id="layer4"
     inkscape:label="rambut"><path
       style="display:inline;opacity:1;fill:#acacac;fill-opacity:1;stroke-width:0.277709"
       d="m 128.0371,76.517754 c 0,0 4.22177,1.575317 5.60537,9.330464 0.38837,2.176796 -0.32861,5.47513 -0.32861,5.47513 0,0 2.91024,-3.790435 3.11487,-10.615942 0.15265,-5.09138 -0.53326,-9.63902 -1.19472,-11.962271 -0.66145,-2.323252 -2.84088,-6.77203 -3.60409,-7.661786 -0.76321,-0.889757 -3.73695,-3.313057 -4.95809,-3.856796 -1.22112,-0.54374 -4.47748,-1.380051 -5.95302,-1.429482 -1.02077,-0.03419 -3.18682,-1.310045 -5.18983,-1.648894 -3.12993,-0.529495 -5.2121,-0.622741 -8.73657,-0.227332 -3.52447,0.395406 -9.301728,2.101071 -12.130244,3.49831 -2.828514,1.397238 -5.136467,3.800564 -5.136467,3.800564 -1.413201,1.541752 -3.340455,3.386915 -4.430775,5.462462 -1.219869,2.322158 -1.913995,4.732224 -2.219278,7.549786 -0.305283,2.817558 -0.31306,1.2852 -0.41482,2.86699 -0.10176,1.581788 0,2.474769 0,4.102762 0,1.589677 0.301064,4.893657 0.657228,6.178858 0.356165,1.285202 1.840673,6.489887 2.400358,7.676227 0.559686,1.186343 2.630733,3.512267 2.630733,3.512267 l 2.294782,2.143609 c 0,0 -1.095199,-2.633815 -1.756647,-3.573007 -0.661447,-0.939185 -1.839947,-2.957867 -1.854943,-4.420561 -0.02496,-2.434568 -0.457925,-4.102762 0.407045,-5.486828 0.864969,-1.384063 2.493149,-2.570406 2.493149,-2.570406 0,0 1.475537,-0.148291 2.187866,0.197726 0.712326,0.346017 2.289626,2.775525 2.289626,2.775525 0,0 2.124605,-3.568565 2.709913,-5.690722 0.06071,-0.2201 1.456578,-2.932728 2.601315,-4.061637 0.639959,-0.631107 1.449989,-1.104468 2.290649,-1.422489 1.37198,-0.519022 2.78372,-0.587656 4.33895,-0.734127 1.55523,-0.14647 3.32749,0.04266 4.98747,0.146187 1.60718,0.10023 3.21713,0.497964 4.80901,0.459515 1.59188,-0.03845 4.12901,-0.781791 5.50613,-0.961194 1.37712,-0.179398 2.23291,-0.05566 3.04668,0.03558 0.81377,0.09123 1.82469,0.392004 1.82469,0.392004"
       id="path3"
       inkscape:label="rambut"
       sodipodi:nodetypes="cscsssssscssasssssccssscscsaacazzzc" /><path
       style="fill:#999999;fill-opacity:1;stroke-width:0.264583"
       d="m 110.94457,103.63765 1.31466,-1.87501 3.50049,-0.48568 3.41762,0.12035 2.15518,0.48416 1.18381,1.82081 -2.86485,-0.64656 -3.53449,-0.17241 -2.62931,0.28017 z"
       id="path40"
       sodipodi:nodetypes="cccccccccc"
       inkscape:label="kumis" /></g></svg>
