<svg id="Folder_9" data-name="Folder 9" xmlns="http://www.w3.org/2000/svg" width="2064" height="1080" viewBox="0 0 2064 1080">
  <defs>
    <style>
      .cls-1 {
        fill: #444959;
      }

      .cls-1, .cls-2 {
        fill-rule: evenodd;
      }

      .cls-2 {
        fill: #292d37;
      }
    </style>
  </defs>
  <g id="Tempat_Guru" data-name="Tempat Guru">
    <g id="Kursi_Guru" data-name="Kursi Guru">
      <path class="cls-1" d="M1990.18,802.767s-25.69,3.95-38.43,3.918h-62.08l-21.68,8.817,3.95,4.9,100.5,1.959,18.72-6.858Z"/>
      <path class="cls-2" d="M1867.99,815.5l-0.98,22.532,66.02,0.98-1.16,66.617a60.692,60.692,0,0,1-9.74,4.379c-8.26,2.829-18.66,6.4-18.66,6.4l-21.68,1.959-10.84,3.919-0.99,5.878,4.93,4.9,9.85,1.959h7.89l7.88-6.857,5.91-1.96,13.8-2.939,11.82-2.939,4.93-1.959,10.62,0.98,13.03,1.959,18.42,2.939,4.24,2.939,2.96,6.858,5.91,1.959h12.81l4.93-4.9,3.94-7.838-1.97-3.918-6.9-1.96h-8.87l-23.65-2.938-16.75-4.9s-4.43-2.916-5.91-4.9-0.99-65.637-.99-65.637,46.87-.373,61.1-9.8c0,0,.32-32.472,4.92-34.287l10.84,0.979,6.9-13.715s8.94-48.564,3.94-71.515c0,0-4.6-10.149-10.84-13.715,0,0-13.28-5-25.62-1.959,0,0-10.19,5.713-14.78,13.715,0.04-.138-10.1,19.03-13.64,33.736,0,0-4.25,27.15-2.12,39.738,0,0,3.41,10.549,7.88,12.736l12.81,0.979v5.878l-1.97,7.837-5.91,2.939s-32.59,3.275-47.3,3.919Z"/>
    </g>
  </g>
</svg>
