<svg xmlns="http://www.w3.org/2000/svg" width="2064" height="1080" viewBox="0 0 2064 1080">
  <defs>
    <style>
      .cls-1 {
        fill: #f7f4f2;
      }

      .cls-1, .cls-3, .cls-4, .cls-5, .cls-6, .cls-7 {
        fill-rule: evenodd;
      }

      .cls-2 {
        fill: #a9b797;
      }

      .cls-3 {
        fill: #b3bbcd;
      }

      .cls-4 {
        fill: #919eb9;
      }

      .cls-5 {
        fill: #f4d6d6;
      }

      .cls-6 {
        fill: #9d97da;
      }

      .cls-7 {
        fill: #da9797;
      }
    </style>
  </defs>
  <path id="Rectangle_20_copy" data-name="Rectangle 20 copy" class="cls-1" d="M1746.99,525l295.21,0.132v133L1746.99,658V525Z"/>
  <rect class="cls-2" x="1751" y="529" width="287" height="124"/>
  <path id="Rectangle_12_copy_11" data-name="Rectangle 12 copy 11" class="cls-3" d="M1767.64,602.149l45.34,2.642L1811.33,633l-45.34-2.642Z"/>
  <path id="Rectangle_12_copy_13" data-name="Rectangle 12 copy 13" class="cls-4" d="M1923.83,573.7l44.16-10.718,9.01,33.293L1932.84,607Z"/>
  <path id="Rectangle_12_copy_2" data-name="Rectangle 12 copy 2" class="cls-5" d="M1240,596.554l-45.72-2.568-1.65,28.365,45.73,2.568Z"/>
  <path id="Rectangle_12_copy_7" data-name="Rectangle 12 copy 7" class="cls-6" d="M83.213,714.009l45.516-5.1-3.216-28.659L80,685.35Z"/>
  <path id="Rectangle_12_copy_5" data-name="Rectangle 12 copy 5" class="cls-7" d="M644.214,603.039l45.531,5.139-3.218,28.9L641,631.943Z"/>
  <path id="Rectangle_12_copy_4" data-name="Rectangle 12 copy 4" class="cls-5" d="M655.621,640.6l45.741-2.571,1.646,28.4L657.267,669Z"/>
</svg>
