<?xml version="1.0" encoding="UTF-8" standalone="no"?>
<!-- Created with Inkscape (http://www.inkscape.org/) -->

<svg
   width="107.24512mm"
   height="128.30734mm"
   viewBox="0 0 107.24512 128.30734"
   version="1.1"
   id="svg1"
   xml:space="preserve"
   inkscape:version="1.3.2 (091e20ef0f, 2023-11-25)"
   sodipodi:docname="Karakter Andika spreadsheet.svg"
   inkscape:export-filename="Karakter Andika spreadsheet.svg"
   inkscape:export-xdpi="96"
   inkscape:export-ydpi="96"
   xmlns:inkscape="http://www.inkscape.org/namespaces/inkscape"
   xmlns:sodipodi="http://sodipodi.sourceforge.net/DTD/sodipodi-0.dtd"
   xmlns="http://www.w3.org/2000/svg"
   xmlns:svg="http://www.w3.org/2000/svg"><sodipodi:namedview
     id="namedview1"
     pagecolor="#ffffff"
     bordercolor="#999999"
     borderopacity="1"
     inkscape:showpageshadow="2"
     inkscape:pageopacity="0"
     inkscape:pagecheckerboard="0"
     inkscape:deskcolor="#d1d1d1"
     inkscape:document-units="mm"
     inkscape:zoom="0.9694327"
     inkscape:cx="227.96838"
     inkscape:cy="298.62826"
     inkscape:window-width="1920"
     inkscape:window-height="1011"
     inkscape:window-x="0"
     inkscape:window-y="0"
     inkscape:window-maximized="1"
     inkscape:current-layer="layer7" /><defs
     id="defs1" /><g
     inkscape:groupmode="layer"
     id="layer2"
     inkscape:label="kaki kiri"
     style="display:inline"
     transform="translate(-87.594624,-96.133863)"><path
       style="display:inline;opacity:1;fill:#637178;fill-opacity:1;stroke-width:0.263395"
       d="m 90.29523,168.91502 0.07948,31.46975 11.43223,0.27571 0.90163,-30.87896 c 0,0 -6.173753,-9.01949 -12.413345,-0.8665 z"
       id="path14"
       sodipodi:nodetypes="cccccc"
       inkscape:label="kaki kiri" /><path
       style="display:inline;opacity:1;fill:#2b4042;fill-opacity:1;stroke-width:0.264583"
       d="m 90.035077,199.8998 -0.137274,14.06082 17.188677,0.23763 -6e-5,-0.49678 -4.92185,-4.53607 0.0223,-9.26003 z"
       id="path16"
       sodipodi:nodetypes="ccccccc"
       inkscape:label="sepatu kiri" /></g><g
     inkscape:groupmode="layer"
     id="layer8"
     inkscape:label="tangan kanan"
     transform="rotate(-75,34.378418,119.43529)"
     style="display:none"><path
       style="display:inline;opacity:1;fill:#e9c9bf;fill-opacity:1;stroke-width:0.264583"
       d="m 135.05953,164.84795 -0.0422,1.11004 -0.0984,1.18029 -0.0843,1.39106 -0.0562,0.75877 c 0,0 0.16862,0.81496 0.64635,1.06788 0.47774,0.25292 0.75876,0.16862 0.75876,0.16862 0,0 0.55086,-0.0884 0.88867,-0.0288 0.33781,0.0596 1.47048,0.8346 1.47048,0.8346 0,0 0.29807,0.37756 0.49678,0.37756 0.19872,0 1.03331,0.17884 1.82816,-0.45705 0.79485,-0.63588 0.57627,-0.67562 1.1128,-1.25189 0.53652,-0.57627 1.68906,-1.21215 1.68906,-1.21215 0,0 0.77498,-1.13266 0.55639,-2.06661 -0.21858,-0.93395 -1.47787,-3.45761 -1.47787,-3.45761 l -1.58231,-2.60314 -6.27933,3.50699 z"
       id="path11"
       sodipodi:nodetypes="cccccscscssscscccc"
       inkscape:label="tagan kanan" /><path
       style="display:inline;opacity:1;fill:#d9dff6;fill-opacity:1;stroke-width:0.264583"
       d="m 121.20205,115.71436 c 2.12538,-1.43538 6.87712,1.34872 7.45017,1.92176 0.54297,0.54298 4.60877,9.04894 4.60877,9.04894 l 3.48468,8.59929 4.27155,11.46573 3.37227,8.99273 0.78686,2.24818 0.22482,0.84307 -4.32775,2.81023 -5.45184,2.97884 -1.79855,0.56204 -2.92263,-7.86863 -3.6533,-11.0723 -3.14745,-8.71171 -2.81023,-7.81243 -1.34891,-4.38395 c 0,0 -1.97598,-7.43532 1.26154,-9.62179 z"
       id="path9"
       sodipodi:nodetypes="ssccccccccccccccs"
       inkscape:label="lengan kanan" /></g><g
     inkscape:groupmode="layer"
     id="layer7"
     inkscape:label="tubuh"
     style="display:inline"
     transform="translate(-23.984015,-86.071495)"><path
       style="display:inline;opacity:1;fill:#637178;fill-opacity:1;stroke-width:0.264583"
       d="m 87.751702,160.40121 38.723358,0.23846 c 0,0 -0.10844,7.13173 -0.45041,9.09807 -0.22482,1.2927 -2.68377,1.55968 -2.68377,1.55968 0,0 -1.62911,0.39069 -2.72203,0.58941 -1.09292,0.19871 -4.31208,0.63248 -4.31208,0.63248 l -3.27876,0.27677 -4.29221,0.22341 -4.07362,-0.11921 -2.12623,-0.0795 -2.742235,-0.2782 c 0,0 -1.908793,-0.14624 -2.861469,-0.23846 -1.082307,-0.10477 -3.242432,-0.44199 -3.242432,-0.44199 0,0 -1.921649,-0.27367 -2.69809,-0.80009 -0.673578,-0.45668 -1.014434,-0.54633 -1.511219,-1.91745 -0.496781,-1.37113 -1.079869,-3.77555 -1.079869,-3.77555 0,0 -0.537937,-2.34566 -0.537937,-3.75568 0,-0.4067 -0.110997,-1.21215 -0.110997,-1.21215 z"
       id="path13"
       sodipodi:nodetypes="ccscsccccccscascsc"
       inkscape:label="celana" /><path
       style="display:inline;opacity:1;fill:#0b7575;fill-opacity:1;stroke-width:0.264583"
       d="m 122.58105,112.95868 c 0,0 -34.930316,-0.52287 -36.131634,0.0193 -2.970691,1.34077 -4.182259,3.09143 -5.177638,4.81547 -0.904968,1.56745 -3.990523,10.29674 -2.754022,23.56101 1.236498,13.26428 1.108098,12.8394 3.316069,18.15407 0.546868,1.31633 1.622762,2.34254 3.147454,2.89478 0.822453,0.29788 1.686137,0.92713 2.585408,0.36509 0.899274,-0.56205 32.656303,-23.97902 37.433983,-42.15342 0.70161,-2.66894 0.66481,-4.65293 -0.53677,-6.58839 -0.38554,-0.62102 -1.88285,-1.06793 -1.88285,-1.06793 z"
       id="path38"
       sodipodi:nodetypes="cssssssssc"
       inkscape:label="tas2" /><path
       style="display:inline;opacity:1;fill:#d9dff6;fill-opacity:1;stroke-width:0.264583"
       d="m 121.05602,113.26646 -24.799398,-0.63588 -7.869039,2.62301 -1.589704,0.5564 c 0,0 -2.402781,1.63027 -2.423871,5.36804 -0.03378,5.98592 2.25925,23.80304 2.25925,23.80304 0,0 0.294664,14.37689 0.453633,15.56917 0.08327,0.62454 0.236749,1.64692 0.236749,1.64692 0,0 3.868243,0.85224 5.385766,1.07706 1.517523,0.22482 9.442364,0.64635 9.442364,0.64635 l 9.35806,0.0281 5.87337,-0.1124 4.15914,-0.14052 c 0,0 2.47788,-0.19006 3.6814,-0.47774 0.54606,-0.13053 1.47085,-0.35952 1.58778,-0.56204 0.22873,-0.39618 0.23886,-3.79381 0.23886,-3.79381 l 0.85877,-29.02255 c 0,0 0.52871,-4.43053 0.50578,-6.65521 -0.0176,-1.7074 -0.49337,-5.09864 -0.49337,-5.09864 0,0 -2.65879,-2.78164 -6.86554,-4.8193 z"
       id="path10"
       inkscape:label="badan"
       sodipodi:nodetypes="ccccscscsccccssccacc" /><path
       style="display:inline;opacity:1;fill:#0a9797;fill-opacity:1;stroke-width:0.264583"
       d="m 121.6919,113.56453 c 0,0 0.69549,0.93395 0.93395,2.92109 0.23846,1.98713 0.34181,4.40261 0.18283,5.91283 -0.15897,1.51022 -0.86637,9.5374 -0.70737,11.6835 0.15897,2.1461 0.0193,9.49449 0.65517,12.59442 0.63589,3.09992 1.83863,5.77548 2.31554,7.12673 0.47691,1.35125 2.21195,3.18741 2.21195,3.18741 0,0 0.47692,0.17201 0.43717,-3.74263 -0.008,-0.81055 -0.55439,-2.7981 -0.55439,-2.7981 0,0 -1.02367,-4.39565 -1.10315,-5.90588 -0.0795,-1.51021 -0.2784,-7.04702 -0.23846,-10.57153 0.0332,-2.93052 0.22569,-5.85745 0.39742,-8.78312 0.16026,-2.73031 0.15897,-7.39213 -0.0795,-8.1075 -0.23846,-0.71536 -0.48871,-1.22394 -1.03331,-1.76854 -1.27439,-1.27439 -3.41786,-1.74868 -3.41786,-1.74868 z"
       id="path40"
       sodipodi:nodetypes="cssssscscsassscc"
       inkscape:label="tas3" /><path
       style="display:inline;opacity:1;fill:#0a9797;fill-opacity:1;stroke-width:0.264583"
       d="m 94.601809,113.84232 c 0.594702,1.5001 1.348909,4.64934 1.348909,4.64934 0,0 1.185202,5.88431 1.448267,8.86785 0.207753,2.35623 0.324175,3.72314 0.09936,7.09541 -0.224817,3.37228 -1.037786,9.0915 -1.262605,9.99077 -0.224819,0.89928 -1.049052,3.23318 -2.102849,5.05841 -0.453134,0.78485 -5.039123,5.59435 -5.713578,5.93158 -0.674455,0.33722 -1.586195,1.1502 -1.586195,1.1502 l -0.140267,-4.05238 c -0.06956,-2.00963 2.629702,-4.41871 3.525009,-5.83963 0.643237,-1.02087 1.573728,-3.25986 1.573728,-3.25986 l 1.011682,-5.50805 c 0,0 0.462248,-4.4135 0.46269,-6.63213 4.5e-4,-2.25617 -0.172994,-4.51097 -0.46951,-6.74455 -0.176002,-1.32578 -0.786863,-3.93432 -0.786863,-3.93432 0,0 -0.382314,-2.279 -0.780045,-3.37227 -0.242025,-0.66527 -0.441851,-1.34477 -0.899271,-1.924 -0.146092,-0.185 -0.760501,-0.42845 -0.562047,-0.62691 0.540731,-0.54073 2.262235,-1.41151 4.510415,-1.41151 0,0 0.235938,0.34201 0.32317,0.56205 z"
       id="path34"
       sodipodi:nodetypes="scasssscssccsscssscs"
       inkscape:label="tas" /><path
       style="display:inline;opacity:1;fill:#7294b4;fill-opacity:0.996078;stroke-width:0.264583"
       d="m 111.39856,116.16767 1.82816,2.18585 0.19871,3.33838 -0.31794,2.54353 -0.51665,2.54352 0.0397,18.04315 -2.30507,8.06776 -3.09992,-8.30621 -0.0397,-17.36753 c 0,0 -1.15253,-5.92165 -1.19228,-6.95496 -0.0397,-1.0333 1.47048,-3.25889 1.47048,-3.25889 l 0.99357,-0.8346 z"
       id="path6"
       inkscape:label="Dasi" /><path
       style="display:inline;opacity:1;fill:#c3caec;fill-opacity:1;stroke-width:0.264583"
       d="m 96.932246,109.80886 c 0,0 -1.271762,3.09992 -1.351248,3.25889 -0.07949,0.15897 0.953823,1.98713 1.66919,2.82173 0.715367,0.83459 2.940952,3.65632 2.940952,3.65632 l 2.82173,3.25889 1.47048,1.47048 2.82172,-3.85503 2.50379,-3.12973 0.55639,-0.16892 2.86147,4.05375 1.47048,2.26533 0.55639,0.8346 5.6832,-9.65746 0.31794,-0.75511 -0.63588,-0.71536 -0.43717,-1.66919 -0.47691,-0.99357 -0.19872,-0.39743 z"
       id="path5"
       inkscape:label="kerah"
       sodipodi:nodetypes="csscccccccccccccccc" /></g><g
     inkscape:groupmode="layer"
     id="layer9"
     inkscape:label="tangan kiri"
     transform="rotate(-15,-113.8935,285.22139)"><path
       style="display:inline;opacity:1;fill:#e9c9bf;fill-opacity:1;stroke-width:0.264583"
       d="m 70.002767,160.74501 -0.505841,1.29271 -0.590147,1.68614 -0.786863,1.62993 -0.618252,1.57372 c 0,0 -0.08995,0.86583 0.06902,1.46197 0.15897,0.59614 0.238456,0.73524 0.417298,1.01343 0.17884,0.2782 0.695495,0.59614 0.695495,0.59614 l 0.61601,0.35768 c 0,0 0.496782,0.4173 0.675625,0.77499 0.178842,0.35768 0.377555,0.65575 0.536524,0.73523 0.158973,0.0795 0.953823,0.45705 1.172409,0.51666 0.218585,0.0596 0.516654,0.39742 1.132665,0.29807 0.616011,-0.0994 1.092922,-0.51666 1.172406,-0.57627 0.07949,-0.0596 1.390991,-0.45704 1.689063,-0.4173 0.298069,0.0397 1.112792,0.23846 1.331378,0.0994 0.218583,-0.1391 0.874337,-0.71537 0.93395,-0.93395 0.05961,-0.21859 0.07949,-1.27177 0.07949,-1.27177 0,0 -0.437168,-1.53009 -0.536525,-1.74867 -0.09936,-0.21859 -0.234973,-0.90669 -0.199713,-1.28341 0.06192,-0.6616 0.545348,-1.30947 0.317114,-1.93354 -1.019403,-2.78739 -7.601106,-3.87116 -7.601106,-3.87116 z"
       id="path12"
       inkscape:label="tangan kiri"
       sodipodi:nodetypes="cccccssccssscscsscsssc" /><path
       style="display:inline;opacity:1;fill:#d9dff6;fill-opacity:1;stroke-width:0.264583"
       d="m 91.538649,119.31863 c -1.464065,-2.53584 -2.318811,-3.69913 -2.318811,-3.69913 0,0 -1.827239,-0.14611 -3.05784,0.4982 -0.739973,0.38745 -2.066615,1.56784 -2.066615,1.56784 l -1.589707,2.09954 -3.179408,5.8016 -4.928087,12.71763 -3.258894,9.06132 -2.781982,8.1075 -0.715368,2.70249 -0.317941,0.87434 c 0,0 3.417866,4.2922 4.8486,5.16654 1.430735,0.87434 2.888581,1.39021 3.1134,1.47452 0.224816,0.0843 2.093619,0.22481 2.093619,0.22481 h 1.348909 l 0.99763,-2.66971 1.910956,-5.90148 1.264602,-4.29965 1.545625,-4.66498 1.517523,-4.01862 0.702556,-2.07957 1.282999,-3.18265 c 0,0 3.12517,-9.10209 3.59433,-10.81345 0,0 1.457969,-6.43125 -0.0061,-8.96709 z"
       id="path8"
       inkscape:label="lengan kiri"
       sodipodi:nodetypes="ccsccccccccsscccccccccsc" /></g><g
     inkscape:groupmode="layer"
     id="layer6"
     inkscape:label="kepala"
     inkscape:transform-center-x="5.2264772"
     inkscape:transform-center-y="-27.0826"
     transform="translate(-78.730775,-56.913393)"><g
       inkscape:groupmode="layer"
       id="layer5"
       inkscape:label="wajah"
       style="display:inline"><path
         style="display:inline;fill:#e9c9bf;fill-opacity:1;stroke-width:0.264583"
         d="m 127.84267,90.128833 -1.00338,5.112451 c -0.0956,1.433396 -0.34934,2.827227 -1.01824,6.076256 -0.66891,3.24904 -2.00675,4.87356 -2.00675,4.87356 0,0 -1.29006,2.00675 -2.48456,3.29681 -1.1945,1.29006 -4.15685,3.44016 -4.15685,3.44016 0,0 -2.12515,1.57923 -3.31334,2.14369 -1.06723,0.507 -2.51265,0.99497 -3.37269,1.09055 -0.86004,0.0956 -1.86826,-0.1728 -2.77866,-0.38643 -1.23704,-0.29029 -3.61505,-1.20923 -3.61505,-1.20923 l -2.83799,-1.31763 c 0,0 -2.635262,-1.58792 -2.939332,-1.72306 -0.30407,-0.13514 -2.53392,-1.72306 -2.73663,-1.89199 -0.20271,-0.16893 -2.87177,-2.46634 -3.0407,-2.8042 -0.16892,-0.33785 -2.26363,-2.36498 -2.26363,-2.36498 l -0.87842,-0.81085 -6.18275,-8.682881 -0.81085,-8.007165 c 0,0 4.6624,-3.142051 6.45303,-3.513693 1.79064,-0.371639 10.94651,-1.824415 10.94651,-1.824415 l 12.433062,-6.62196 6.95982,-2.533912 8.41259,11.453286 z"
         id="path4-6"
         sodipodi:nodetypes="ccscscasaccsssccccsccccc"
         inkscape:label="wajah" /><path
         style="display:none;opacity:1;fill:#d797a0;fill-opacity:1;stroke-width:0.264583"
         d="m 114.12675,104.73377 c 0,0 0.0528,-1.26119 -0.98699,-1.48601 -1.03979,-0.22482 -1.77044,0.22963 -1.77044,0.22963 0,0 -0.67446,0.46952 -1.01168,1.08777 -0.33723,0.61825 -0.39344,1.09939 -0.39344,1.09939 0,0 -0.14051,0.56205 0.19672,0.78687 0.33723,0.22482 0.78686,0.47774 1.43321,0.47774 0.64636,0 1.13432,0 1.61206,-0.28103 0.47774,-0.28102 0.67587,-0.50584 0.78828,-0.81496 0.11241,-0.30913 0.13228,-1.0994 0.13228,-1.0994 z"
         id="path18"
         sodipodi:nodetypes="cscscssssc"
         inkscape:label="mulut1" /><path
         style="display:none;opacity:1;fill:#d797a0;fill-opacity:1;stroke-width:0.424869"
         d="m 115.99677,104.98096 c 0,0 0.0955,-1.7979 -1.78533,-2.1184 -1.88082,-0.32049 -3.57561,0.32735 -3.57561,0.32735 0,0 -0.84686,0.37052 -1.45682,1.25186 -0.61001,0.88135 -0.71168,1.86608 -0.71168,1.86608 0,0 0.0128,0.80123 0.62281,1.12173 0.60999,0.32048 1.15634,0.68104 2.3255,0.68104 1.16916,0 2.0518,0 2.91597,-0.40063 0.86416,-0.4006 1.22254,-0.7211 1.42588,-1.16176 0.20333,-0.44069 0.23928,-1.56727 0.23928,-1.56727 z"
         id="path23"
         sodipodi:nodetypes="cscscssssc"
         inkscape:label="mulut2" /><path
         style="display:none;opacity:1;fill:#d797a0;fill-opacity:1;stroke-width:0.326153"
         d="m 115.77195,105.19844 c 0,0 0.0955,-1.05949 -1.78533,-1.24836 -1.88082,-0.18886 -3.57561,0.19291 -3.57561,0.19291 0,0 -0.84686,0.21834 -1.45682,0.73771 -0.61001,0.51937 -0.71168,1.09967 -0.71168,1.09967 0,0 0.0128,0.47216 0.62281,0.66103 0.60999,0.18885 1.15634,0.40133 2.3255,0.40133 1.16916,0 2.0518,0 2.91597,-0.23609 0.86416,-0.23607 1.22254,-0.42494 1.42588,-0.68462 0.20333,-0.25969 0.23928,-0.92358 0.23928,-0.92358 z"
         id="path24"
         sodipodi:nodetypes="cscscssssc"
         inkscape:label="mulut3" /><path
         style="display:none;opacity:1;fill:#d797a0;fill-opacity:1;stroke-width:0.233742"
         d="m 114.20259,105.02419 c 0,0 0.0395,-1.31386 -0.73943,-1.54807 -0.77898,-0.23421 -1.48091,0.23922 -1.48091,0.23922 0,0 -0.35075,0.27076 -0.60337,0.91483 -0.25267,0.64406 -0.29477,1.36369 -0.29477,1.36369 0,0 0.004,0.58552 0.25794,0.81973 0.25265,0.2342 0.47894,0.49769 0.96317,0.49769 0.48423,0 0.84979,0 1.20771,-0.29277 0.35791,-0.29275 0.50634,-0.52697 0.59056,-0.84899 0.0842,-0.32204 0.0991,-1.14533 0.0991,-1.14533 z"
         id="path25"
         sodipodi:nodetypes="cscscssssc"
         inkscape:label="mulut4" /><path
         style="display:none;opacity:1;fill:#d797a0;fill-opacity:1;stroke-width:0.254079"
         d="m 114.774,106.16526 c 0,0 0.073,-0.84052 -1.36572,-0.99036 -1.43877,-0.14983 -2.73523,0.15304 -2.73523,0.15304 0,0 -0.64783,0.17322 -1.11442,0.58525 -0.46668,0.41203 -0.54444,0.8724 -0.54444,0.8724 0,0 0.007,0.37458 0.47641,0.52441 0.46665,0.14983 0.8846,0.31839 1.77897,0.31839 0.89437,0 1.56956,0 2.23063,-0.1873 0.66106,-0.18728 0.93521,-0.33712 1.09076,-0.54312 0.15552,-0.20602 0.18304,-0.73271 0.18304,-0.73271 z"
         id="path26"
         sodipodi:nodetypes="cscscssssc"
         inkscape:label="mulut5" /><path
         style="display:inline;opacity:1;fill:#d3b2a9;fill-opacity:1;stroke-width:0.303475"
         d="m 114.90302,105.72473 c -0.20328,-0.12272 -0.95548,-0.0397 -1.43535,-0.0397 -1.05859,0 -3.19495,0.0253 -3.19495,0.0253 0,0 -1.0683,-0.0231 -1.30172,-0.0231 -0.0938,0 -0.2329,-7.2e-4 -0.27036,0.10883 -0.0495,0.14474 0.10746,0.20209 0.1909,0.22547 0.26643,0.0746 1.38462,0.0918 2.07796,0.10027 0.79892,0.01 2.39628,-0.057 2.39628,-0.057 0.80236,-0.0192 0.84411,-0.0467 1.07303,-0.0467 0.15816,0 0.3661,-0.011 0.46819,-0.1175 0.0459,-0.048 0.0458,-0.14573 -0.004,-0.1758 z"
         id="path27"
         sodipodi:nodetypes="sscsssasssss"
         inkscape:label="mulut diam" /><path
         style="display:inline;opacity:0.7;fill:#c7a49d;fill-opacity:1;stroke-width:0.331569"
         d="m 111.80606,97.36804 c 0,0 0.3407,-0.356308 0.95897,-0.356308 0.61828,0 0.8521,0.04829 1.23657,0.208871 0.31773,0.132709 0.7066,0.405455 0.83278,0.602038 0.12623,0.196582 0.32474,0.698778 0.26498,1.056638 -0.043,0.257953 -0.20495,0.519593 -0.42901,0.66347 -0.26208,0.168291 -0.63722,0.0983 -0.63722,0.0983 0,0 -0.19546,-0.09899 0.0693,-0.221158 0.23973,-0.110602 0.61829,-0.466886 0.52996,-0.810909 -0.0883,-0.344019 -0.34901,-0.558554 -0.61829,-0.737187 -0.2847,-0.188878 -0.68136,-0.282591 -0.9842,-0.307162 -0.30283,-0.02457 -0.694,-0.01224 -0.97159,0.07371 -0.2776,0.08598 -0.25235,-0.270304 -0.25235,-0.270304 z"
         id="path20"
         sodipodi:nodetypes="csacascscasscc"
         inkscape:label="hidung" /><g
         inkscape:groupmode="layer"
         id="layer3"
         inkscape:label="mata"
         style="display:inline"
         transform="translate(-0.15897047,0.79485236)"><path
           style="display:inline;opacity:1;fill:#d2f7f2;fill-opacity:1;stroke-width:0.286312"
           d="m 96.688856,89.691393 0.03095,0.971111 0.154746,0.986051 c 0,0 0.232122,0.941232 0.433295,1.240037 0.20117,0.298802 0.232121,0.433265 0.742789,1.135452 0.510666,0.70219 1.377252,1.225095 1.377252,1.225095 0,0 1.052282,0.582668 1.330832,0.627488 0.27854,0.04482 1.20703,0.194223 1.79507,0.119521 0.58804,-0.07471 1.18929,-0.38285 1.45463,-0.530751 0.29073,-0.162052 0.98454,-0.595144 1.18844,-1.082788 0.52578,-1.257483 0.14239,-2.898394 -0.19801,-4.063728 -0.34046,-1.165334 -1.48558,-1.284855 -1.48558,-1.284855 l -3.26518,-0.313744 -2.274787,0.239041 z"
           id="path21"
           inkscape:label="mata kiri putih"
           sodipodi:nodetypes="cccsscsssaccccc" /><path
           style="display:inline;opacity:1;fill:#0a1f22;fill-opacity:1;stroke-width:0.286312"
           d="m 106.39153,90.271497 c 0,0 -0.5154,-0.446761 -0.80469,-0.616284 -0.41824,-0.245083 -1.33082,-0.578929 -1.33082,-0.578929 l -1.94983,-0.368818 c 0,0 -1.02537,-0.171386 -1.60936,-0.209165 -0.584,-0.03778 -1.263572,-0.06549 -1.887932,0.01053 -0.412093,0.0502 -1.234387,0.288241 -1.234387,0.288241 0,0 -1.113577,0.334874 -1.643916,0.601077 -0.165014,0.08283 -0.395974,0.189882 -0.464242,0.356906 -0.06614,0.161804 -0.03095,0.446392 0.123796,0.476275 0.15475,0.02988 0.711838,-0.242514 0.711838,-0.242514 0,0 1.078014,-0.490251 1.645797,-0.652087 0.52302,-0.149077 1.088756,-0.260564 1.696911,-0.289145 0.608155,-0.02858 1.642105,0.105189 1.915665,0.168576 0.27355,0.06338 0.38298,0.211286 0.38298,0.211286 0,0 -0.88633,1.198517 -0.84255,2.402849 0,0.783135 0.0796,1.943329 0.51725,2.598287 0.35806,0.535817 0.86779,0.828304 1.19482,0.912905 0.34151,0.08835 0.99559,0.0083 1.43952,-0.177249 0.39924,-0.16683 0.76348,-0.395792 1.00647,-0.802138 0.21582,-0.36089 0.59089,-1.781212 0.54712,-2.562969 -0.0437,-0.78176 -0.0876,-1.081194 -0.19696,-1.398113 -0.0436,-0.126454 0.41581,0.21491 0.41581,0.21491 0,0 0.55835,0.399187 0.36671,-0.344468 z"
           id="path19"
           sodipodi:nodetypes="cscccscssscsssccssascsccc"
           inkscape:label="mata kiri" /><path
           style="opacity:1;fill:#0a1f22;fill-opacity:1;stroke-width:0.264583"
           d="m 106.95136,84.700257 c 0,0 -1.4154,-0.932954 -2.4109,-1.334856 -0.91993,-0.371393 -2.86643,-0.800916 -2.86643,-0.800916 0,0 -2.304384,-0.358303 -2.866431,-0.414508 -0.562046,-0.05621 -2.444898,-0.01406 -2.444898,-0.01406 l -1.264602,0.09134 c 0,0 -0.05363,0.139319 -0.01389,0.169127 0.03974,0.02981 0.312973,0.005 0.312973,0.005 l 1.358945,0.0086 1.686137,0.08431 1.405112,0.182663 1.714244,0.309126 1.50347,0.463688 1.34891,0.449635 1.2927,0.688507 0.89927,0.533942 c 0,0 0.21283,0.06978 0.29508,0.01405 0.14429,-0.09777 0.0945,-0.213551 0.0901,-0.326294 -0.002,-0.03875 -0.0397,-0.109355 -0.0397,-0.109355 z"
           id="path22"
           sodipodi:nodetypes="cscsccscccccccccsac"
           inkscape:label="alis kiri" /><path
           style="fill:#0a1f22;stroke-width:0.271165"
           d="m 115.79415,84.85049 0.47627,-0.417295 0.81402,-0.589115 0.93925,-0.464065 1.16885,-0.317941 1.06447,-0.15897 1.39845,-0.07949 0.97109,0.03974 0.57346,0.03151 0.7514,0.107592 c 0,0 0.5509,0.08656 0.77734,0.197718 0.17355,0.0852 0.37751,0.398423 -0.27641,0.398423 -0.1461,0 -0.94052,-0.09936 -0.94052,-0.09936 l -1.79374,-0.06458 -1.31496,0.104329 -1.04361,0.15897 -1.21059,0.377555 -0.7514,0.40204 -0.7514,0.551783 -0.2258,0.198712 c 0,0 -0.72232,0.131072 -0.62617,-0.377554 z"
           id="path1"
           sodipodi:nodetypes="ccccccccccsscccccccccc"
           inkscape:label="alis kanan" /><path
           style="display:inline;fill:#d2f9f4;fill-opacity:1;stroke-width:0.276229"
           d="m 123.43477,88.920508 -0.0148,1.028037 -0.16348,1.665127 -0.19322,0.752927 -0.56475,1.230749 c 0,0 -0.37158,0.62261 -0.52019,0.738447 -0.14864,0.115835 -0.80257,0.69501 -0.80257,0.69501 0,0 -0.38972,0.372926 -0.62932,0.49194 -0.25322,0.125773 -0.54176,0.175916 -0.82252,0.219005 -0.29825,0.04577 -0.60484,0.07367 -0.90481,0.04031 -0.28448,-0.03164 -0.57846,-0.09486 -0.82719,-0.225651 -0.22326,-0.117402 -0.54735,-0.471208 -0.54735,-0.471208 l -0.45999,-0.769588 -0.26752,-1.97798 0.14863,-2.070551 2.14017,-1.274184 c 0,0 2.55632,-0.477818 2.61577,-0.506779 0.0594,-0.02896 1.81321,0.434382 1.81321,0.434382 z"
           id="path7"
           sodipodi:nodetypes="cccccscaaascccccscc"
           inkscape:label="mata kanan putih" /><path
           style="fill:#0a1f22;stroke-width:0.279655"
           d="m 124.31464,88.854841 -0.63838,-0.352429 -0.65966,-0.248769 -0.78733,-0.124386 -0.95757,0.06219 -1.27674,0.20731 -1.25548,0.310966 c 0,0 -1.21292,0.580465 -1.29803,0.621927 -0.0851,0.04146 -0.6171,0.331695 -0.6171,0.331695 l -0.5107,0.456081 -0.36175,0.373156 -0.0425,0.290234 c 0,0 0.12768,0.124386 0.3192,0.124386 0.19151,0 0.42558,-0.207309 0.42558,-0.207309 0,0 -0.086,0.268873 -0.10634,0.383001 -0.0594,0.333901 -0.0425,0.96451 -0.0425,0.96451 l 0.0319,0.974353 0.11704,0.580468 0.2865,0.735949 0.36175,0.43535 0.43698,0.311699 0.46814,0.154747 c 0,0 0.57455,-0.04628 0.7235,-0.191394 0.1452,-0.141452 0.60592,-0.513458 0.60592,-0.513458 0,0 0.54316,-0.746314 0.60699,-0.932893 0.0638,-0.186579 0.44687,-1.09874 0.44687,-1.451166 0,-0.352425 0.0213,-1.223127 0.0213,-1.51336 0,-0.290232 -0.16001,-1.182349 -0.19763,-1.277632 -0.0376,-0.09528 -0.0828,-0.205227 -0.0828,-0.205227 l 0.91033,-0.234543 0.55672,-0.01466 0.6771,-0.01466 0.78243,0.161251 0.48149,0.249201 0.42132,0.146592 c 0,0 0.18678,-0.116259 0.15358,-0.593182 z"
           id="path2"
           inkscape:label="mata kanan"
           sodipodi:nodetypes="cccccccsccccscscccccccscssssccccccccc" /></g><g
         inkscape:groupmode="layer"
         id="g33"
         inkscape:label="mata setengah "
         style="display:none"
         transform="translate(-0.15897047,0.79485236)"><path
           style="display:inline;opacity:1;fill:#d2f7f2;fill-opacity:1;stroke-width:0.250821"
           d="m 96.728599,90.16878 0.03095,0.74528 0.154746,0.756744 c 0,0 0.232122,0.722349 0.433295,0.951668 0.20117,0.229315 0.232121,0.332509 0.742789,0.871403 0.510666,0.538895 1.377252,0.940199 1.377252,0.940199 0,0 1.052279,0.447168 1.330829,0.481567 0.27854,0.0344 1.20703,0.149056 1.79507,0.09172 0.58804,-0.05734 1.18929,-0.29382 1.45463,-0.407327 0.29073,-0.124366 0.98454,-0.456743 1.18844,-0.830986 0.52578,-0.965056 0.14239,-2.224373 -0.19801,-3.11871 -0.34046,-0.894337 -1.48558,-0.986062 -1.48558,-0.986062 l -3.26518,-0.240784 -2.274784,0.183453 z"
           id="path28"
           inkscape:label="mata kiri putih"
           sodipodi:nodetypes="cccsscsssaccccc" /><path
           style="display:inline;opacity:1;fill:#0a1f22;fill-opacity:1;stroke-width:0.256106"
           d="m 106.43127,90.664676 c 0,0 -0.5154,-0.357468 -0.80469,-0.493108 -0.41824,-0.196099 -1.33082,-0.46322 -1.33082,-0.46322 l -1.94983,-0.295103 c 0,0 -1.02537,-0.137131 -1.60936,-0.167359 -0.584,-0.03023 -1.263569,-0.0524 -1.887929,0.0084 -0.412093,0.04016 -1.234387,0.23063 -1.234387,0.23063 0,0 -1.113577,0.267943 -1.643916,0.480941 -0.165014,0.06627 -0.395974,0.15193 -0.464242,0.285571 -0.06614,0.129466 -0.03095,0.357174 0.123796,0.381084 0.15475,0.0239 0.711838,-0.194044 0.711838,-0.194044 0,0 1.078014,-0.392265 1.645797,-0.521755 0.52302,-0.119281 1.088756,-0.208485 1.696911,-0.231354 0.608152,-0.02287 1.642102,0.08417 1.915662,0.134883 0.27355,0.05071 0.38298,0.169057 0.38298,0.169057 0,0 -0.88633,0.958971 -0.84255,1.922595 0,0.62661 0.0796,1.554919 0.51725,2.078971 0.35806,0.428725 0.86779,0.662752 1.19482,0.730445 0.34151,0.07069 0.99559,0.0067 1.43952,-0.141823 0.39924,-0.133486 0.76348,-0.316686 1.00647,-0.641816 0.21582,-0.28876 0.59089,-1.425203 0.54712,-2.050712 -0.0437,-0.625511 -0.0876,-0.865098 -0.19696,-1.118675 -0.0436,-0.101181 0.41581,0.171957 0.41581,0.171957 0,0 0.55835,0.319402 0.36671,-0.27562 z"
           id="path29"
           sodipodi:nodetypes="cscccscssscsssccssascsccc"
           inkscape:label="mata kiri" /><path
           style="opacity:1;fill:#0a1f22;fill-opacity:1;stroke-width:0.264583"
           d="m 106.95136,86.164985 c 0,0 -1.4154,-0.932954 -2.4109,-1.334856 -0.91993,-0.371393 -2.86643,-0.800916 -2.86643,-0.800916 0,0 -2.304384,-0.358303 -2.866431,-0.414508 -0.562046,-0.05621 -2.444898,-0.06374 -2.444898,-0.06374 l -1.264602,0.141018 c 0,0 -0.05363,0.139319 -0.01389,0.169127 0.03974,0.02981 0.312973,0.07455 0.312973,0.07455 l 1.358945,-0.0013 1.686137,0.08431 1.405112,0.123049 1.714244,0.309126 1.50347,0.463688 1.34891,0.449635 1.2927,0.688507 0.89927,0.533942 c 0,0 0.21283,0.06978 0.29508,0.01405 0.14429,-0.09777 0.0945,-0.213547 0.0901,-0.326294 -0.002,-0.03875 -0.0397,-0.109355 -0.0397,-0.109355 z"
           id="path30"
           sodipodi:nodetypes="cscsccscccccccccsacc"
           inkscape:label="alis kiri" /><path
           style="fill:#0a1f22;stroke-width:0.271165"
           d="m 115.79415,86.255604 0.47627,-0.417295 0.81402,-0.589115 0.93925,-0.464065 1.16885,-0.317941 1.06447,-0.15897 1.39845,-0.07949 0.97109,0.03974 0.57346,0.03151 0.7514,0.107592 c 0,0 0.5509,0.08656 0.77734,0.197718 0.17355,0.0852 0.37751,0.398423 -0.27641,0.398423 -0.1461,0 -0.94052,-0.09936 -0.94052,-0.09936 l -1.79374,-0.06458 -1.31496,0.104329 -1.04361,0.15897 -1.21059,0.377555 -0.7514,0.40204 -0.7514,0.551783 -0.2258,0.198712 c 0,0 -0.72232,0.131072 -0.62617,-0.377554 z"
           id="path31"
           sodipodi:nodetypes="ccccccccccsscccccccccc"
           inkscape:label="alis kanan" /><path
           style="display:inline;fill:#d2f9f4;fill-opacity:1;stroke-width:0.218213"
           d="m 123.05609,89.77082 -0.0138,0.687006 -0.15267,1.112755 -0.18043,0.503159 -0.52739,0.822472 c 0,0 -0.34699,0.416072 -0.48577,0.493482 -0.1388,0.07741 -0.74947,0.464455 -0.74947,0.464455 0,0 -0.36393,0.249215 -0.58768,0.328748 -0.23646,0.08406 -0.50591,0.11756 -0.7681,0.146355 -0.27851,0.03058 -0.56482,0.04924 -0.84494,0.02694 -0.26566,-0.02115 -0.54019,-0.06339 -0.77246,-0.150796 -0.20849,-0.07846 -0.51114,-0.314894 -0.51114,-0.314894 l -0.42955,-0.514293 -0.24982,-1.321824 0.13879,-1.383688 1.99857,-0.851499 c 0,0 2.38719,-0.319311 2.4427,-0.338665 0.0555,-0.01936 1.69324,0.290284 1.69324,0.290284 z"
           id="path32"
           sodipodi:nodetypes="cccccscaaascccccscc"
           inkscape:label="mata kanan putih" /><path
           style="fill:#0a1f22;stroke-width:0.22092"
           d="m 123.87774,89.726936 -0.59614,-0.235518 -0.61601,-0.166244 -0.73524,-0.08312 -0.89421,0.04156 -1.19227,0.138538 -1.17241,0.20781 c 0,0 -1.13267,0.387907 -1.21215,0.415615 -0.0795,0.0277 -0.57627,0.221662 -0.57627,0.221662 l -0.47691,0.304785 -0.33781,0.249369 -0.0397,0.193954 c 0,0 0.11923,0.08312 0.29808,0.08312 0.17884,0 0.39742,-0.138538 0.39742,-0.138538 0,0 -0.0803,0.179679 -0.0993,0.255947 -0.0555,0.223137 -0.0397,0.644554 -0.0397,0.644554 l 0.0298,0.651131 0.10929,0.387909 0.26755,0.491813 0.33781,0.290931 0.40807,0.2083 0.43717,0.103412 c 0,0 0.53653,-0.03093 0.67563,-0.127903 0.13559,-0.09453 0.56583,-0.343128 0.56583,-0.343128 0,0 0.50722,-0.49874 0.56683,-0.623425 0.0596,-0.124685 0.4173,-0.734255 0.4173,-0.969771 0,-0.235515 0.0199,-0.817379 0.0199,-1.011333 0,-0.193953 -0.14942,-0.790128 -0.18455,-0.853804 -0.0351,-0.06367 -0.0773,-0.137146 -0.0773,-0.137146 l 0.8501,-0.156738 0.51989,-0.0098 0.6323,-0.0098 0.73066,0.107759 0.44963,0.166534 0.39344,0.09796 c 0,0 0.17443,-0.07769 0.14342,-0.396405 z"
           id="path33"
           inkscape:label="mata kanan"
           sodipodi:nodetypes="cccccccsccccscscccccccscssssccccccccc" /></g><g
         inkscape:groupmode="layer"
         id="g39"
         inkscape:label="mata tertutup"
         style="display:none"
         transform="translate(-0.15897047,0.79485236)"><path
           style="display:inline;opacity:1;fill:#0a1f22;fill-opacity:1;stroke-width:0.281579"
           d="m 106.41754,91.778694 c -0.0132,-0.06456 -0.35931,-0.292784 -0.72671,-0.473951 -0.3674,-0.181168 -0.98951,-0.431347 -1.49471,-0.578946 -0.49278,-0.143971 -1.49394,-0.365649 -1.49394,-0.365649 0,0 -0.93874,-0.11812 -1.47374,-0.171959 -0.53503,-0.05384 -1.15932,-0.0507 -1.734527,0.01432 -0.379649,0.04293 -1.138676,0.184565 -1.138676,0.184565 0,0 -1.02992,0.269026 -1.524075,0.536569 -0.153755,0.08323 -0.368712,0.190411 -0.435987,0.364642 -0.06517,0.168788 -0.03947,0.420628 0.101761,0.455818 0.141222,0.03517 0.659675,-0.222006 0.659675,-0.222006 0,0 0.998377,-0.311808 1.524019,-0.468551 0.484203,-0.144386 1.151238,-0.182561 1.71026,-0.198018 0.55902,-0.01546 1.87444,0.144059 2.12379,0.217393 0,0 1.81326,0.437735 2.67887,0.777111 0.30337,0.118941 0.87378,0.43832 0.87378,0.43832 0,0 0.47815,0.115909 0.35021,-0.50965 z"
           id="path35"
           sodipodi:nodetypes="szsccscssscsscacss"
           inkscape:label="mata kiri" /><path
           style="opacity:1;fill:#0a1f22;fill-opacity:1;stroke-width:0.264583"
           d="m 107.05584,86.247045 c 0,0 -1.50889,-0.772646 -2.54236,-1.063326 -0.95501,-0.268622 -2.94601,-0.566608 -2.94601,-0.566608 0,0 -2.329745,-0.104283 -2.894561,-0.09871 -0.564825,0.0056 -2.427998,0.287725 -2.427998,0.287725 l -1.241609,0.278402 c 0,0 -0.0273,0.242105 0.01542,0.267397 0.04272,0.02528 0.320014,0.0469 0.320014,0.0469 0,0 0.903698,-0.07225 1.355264,-0.107923 0.554787,-0.0438 1.662298,-0.127461 1.662298,-0.127461 0,0 0.960295,0.01894 1.435772,0.02003 0.58063,0.0013 1.16397,0.05517 1.73776,0.119892 0.52115,0.05879 1.00822,0.0899 1.50456,0.184527 0.48254,0.09199 1.42614,0.37134 1.42614,0.37134 l 1.34583,0.412301 0.95225,0.432448 c 0,0 0.21918,0.04612 0.29484,-0.01834 0.13274,-0.112985 0.0706,-0.222599 0.0539,-0.334183 -0.006,-0.03825 -0.0514,-0.104365 -0.0514,-0.104365 z"
           id="path36"
           sodipodi:nodetypes="cscsccscscssacccsacc"
           inkscape:label="alis kiri" /><path
           style="fill:#0a1f22;stroke-width:0.258304"
           d="m 115.40886,86.549088 0.4887,-0.371441 0.83652,-0.526038 0.96734,-0.417866 1.20638,-0.29244 1.09995,-0.151838 1.44634,-0.08607 1.00529,0.02347 0.59374,0.02091 0.77863,0.08554 c 0,0 0.57093,0.06945 0.80636,0.164251 0.18043,0.07266 0.39459,0.344899 -0.28208,0.352554 -0.1512,0.0017 -0.97426,-0.0761 -0.97426,-0.0761 l -1.85682,-0.03562 -1.3597,0.106868 -1.07836,0.151595 -1.24899,0.345195 -0.77356,0.361286 -0.77209,0.492574 -0.23168,0.176865 c 0,0 -0.74617,0.123374 -0.65171,-0.323691 z"
           id="path37"
           sodipodi:nodetypes="ccccccccccsscccccccccc"
           inkscape:label="alis kanan" /><path
           style="fill:#0a1f22;stroke-width:0.247629"
           d="m 123.9935,90.251182 -0.53235,-0.142322 c 0,0 -0.50927,-0.100448 -0.7585,-0.122291 -0.25227,-0.02211 -0.74591,-0.0512 -0.74591,-0.0512 l -0.9171,0.03213 c 0,0 -0.83575,0.09013 -1.2485,0.167248 -0.39431,0.07367 -1.16998,0.281701 -1.16998,0.281701 0,0 -0.82128,0.27904 -1.22945,0.425583 -0.19895,0.07143 -0.59438,0.221112 -0.59438,0.221112 0,0 -0.33517,0.147709 -0.4706,0.266762 -0.0974,0.08566 -0.20489,0.178705 -0.23377,0.311218 -0.0289,0.132513 0.01,0.372874 0.12344,0.396462 0.23776,0.04936 0.72937,-0.272758 1.09527,-0.405826 0.46205,-0.168038 0.91944,-0.350583 1.38918,-0.495737 0.27812,-0.08594 0.56203,-0.152103 0.84469,-0.221655 0.22973,-0.05653 0.69173,-0.158977 0.69173,-0.158977 0,0 0.53509,-0.09406 0.80511,-0.121418 0.19312,-0.01961 0.38744,-0.02797 0.58154,-0.03041 0.20747,-0.0026 0.41251,0.0067 0.62222,0.01694 0.25318,0.0124 0.55129,0.02188 0.76149,0.05003 0.21019,0.02816 0.49909,0.101538 0.49909,0.101538 l 0.88943,0.231279 c 0,0 0.60419,-0.0645 0.27047,-0.552149 z"
           id="path39"
           inkscape:label="mata kanan"
           sodipodi:nodetypes="ccsccscacazsaaacaaszcccc" /></g></g><g
       inkscape:groupmode="layer"
       id="layer4"
       inkscape:label="rambut"
       transform="translate(-0.15897047,0.79485236)"><path
         style="display:inline;opacity:1;fill:#2a222f;fill-opacity:1;stroke-width:0.264583"
         d="m 118.87115,75.223095 c 0,0 7.26784,7.778934 8.41456,12.174687 0.85207,3.266271 -0.4778,7.337104 -0.4778,7.337104 0,0 4.39472,-5.708676 4.58688,-12.306217 0.14334,-4.921332 -0.86004,-9.317085 -1.48118,-11.562741 -0.62114,-2.245657 -3.15348,-6.54585 -3.87018,-7.405889 -0.71669,-0.860039 -4.15685,-3.535714 -5.30357,-4.061293 -1.14672,-0.525579 -4.20463,-1.337838 -5.59025,-1.385618 -0.95857,-0.03305 -2.99261,-1.105864 -4.87355,-1.433396 -2.9392,-0.51181 -5.56601,-0.602652 -8.31658,-0.247381 -3.503644,0.452539 -7.019578,1.389762 -10.165824,2.996442 -1.898714,0.969608 -3.549112,2.407293 -5.061906,3.909529 -1.517558,1.506967 -3.097269,3.425742 -3.957307,5.050257 -0.860039,1.624518 -3.077533,5.157465 -3.364212,7.880922 -0.286679,2.723454 -0.33446,1.242276 -0.430019,2.771235 -0.09556,1.528958 -0.143341,2.436775 0,3.965733 0.14334,1.528956 0.525578,4.730213 0.860038,5.97249 0.33446,1.242277 1.672297,5.542471 2.197875,6.689188 0.525579,1.14672 3.569476,4.19916 3.569476,4.19916 l 3.968362,3.147313 c 0,0 -2.429625,-3.455538 -3.050764,-4.363358 -0.621138,-0.907817 -3.018144,-3.998942 -3.097658,-4.452457 -0.249567,-1.423431 -0.529377,-4.025347 0.282883,-5.363186 0.812258,-1.337837 2.341216,-2.484557 2.341216,-2.484557 0,0 1.385618,-0.143338 2.054537,0.191122 0.668917,0.33446 2.150097,2.245656 2.150097,2.245656 0,0 3.743452,-3.685386 3.861702,-3.871209 0.118251,-0.185819 1.165601,3.344768 1.165601,3.344768 l 0.132927,0.191981 c 0,0 7.620896,-5.78137 8.242036,-6.35473 0.62114,-0.573358 2.60401,-2.747346 2.60401,-2.747346 0,0 3.29681,4.730212 3.5596,5.638032 0.26279,0.907817 7.11921,-6.61752 7.11921,-6.61752 l 1.4334,-2.090724 c 0.15103,-0.220294 0.49639,-0.957997 0.49639,-0.957997 z"
         id="path3"
         inkscape:label="rambut"
         sodipodi:nodetypes="cscssssssaaassssssccssscscsccscscsc" /></g></g></svg>
