<?xml version="1.0" encoding="UTF-8" standalone="no"?>
<!-- Created with Inkscape (http://www.inkscape.org/) -->

<svg
   width="210mm"
   height="297mm"
   viewBox="0 0 210 297"
   version="1.1"
   id="svg1"
   xml:space="preserve"
   inkscape:version="1.3.2 (091e20e, 2023-11-25, custom)"
   sodipodi:docname="Karakter Ayah Andika - Duduk.svg"
   xmlns:inkscape="http://www.inkscape.org/namespaces/inkscape"
   xmlns:sodipodi="http://sodipodi.sourceforge.net/DTD/sodipodi-0.dtd"
   xmlns="http://www.w3.org/2000/svg"
   xmlns:svg="http://www.w3.org/2000/svg"><sodipodi:namedview
     id="namedview1"
     pagecolor="#ffffff"
     bordercolor="#999999"
     borderopacity="1"
     inkscape:showpageshadow="2"
     inkscape:pageopacity="0"
     inkscape:pagecheckerboard="0"
     inkscape:deskcolor="#d1d1d1"
     inkscape:document-units="mm"
     inkscape:zoom="0.54255716"
     inkscape:cx="919.71876"
     inkscape:cy="410.09504"
     inkscape:window-width="1920"
     inkscape:window-height="991"
     inkscape:window-x="-9"
     inkscape:window-y="-9"
     inkscape:window-maximized="1"
     inkscape:current-layer="layer2"
     showguides="false" /><defs
     id="defs1"><style
       id="style1">
      .cls-1 {
        fill: #6a584b;
      }

      .cls-1, .cls-10, .cls-2, .cls-3, .cls-4, .cls-5, .cls-6, .cls-7, .cls-8 {
        fill-rule: evenodd;
      }

      .cls-2 {
        fill: #2b5c72;
      }

      .cls-3 {
        fill: #224c60;
      }

      .cls-4 {
        fill: #153242;
      }

      .cls-5 {
        fill: #153342;
      }

      .cls-6 {
        fill: #173a4d;
      }

      .cls-7 {
        fill: #122c3a;
      }

      .cls-8, .cls-9 {
        fill: #112d3a;
      }

      .cls-10 {
        fill: #7693a9;
      }
    </style></defs><g
     inkscape:label="Layer 1"
     inkscape:groupmode="layer"
     id="layer1"
     style="display:inline" /><g
     inkscape:groupmode="layer"
     id="layer2"
     inkscape:label="Layer 2"
     style="display:inline"><path
       style="display:inline;opacity:1;fill:#3b3532;fill-opacity:1;stroke-width:0.326319"
       d="m 108.82451,202.49145 -3.06755,15.85284 22.35309,4.3421 0.102,-0.56126 -5.48275,-6.29112 1.93141,-10.45637 z"
       id="path16"
       sodipodi:nodetypes="ccccccc"
       inkscape:label="sepatu kiri" /><path
       style="display:inline;opacity:1;fill:#3b3532;fill-opacity:1;stroke-width:0.325104"
       d="m 132.43281,199.82267 -3.01269,15.86296 22.20447,4.29016 0.0887,-0.56366 -5.94035,-6.36665 1.7941,-10.48122 z"
       id="path17"
       sodipodi:nodetypes="ccccccc"
       inkscape:label="sepatu kanan" /><path
       style="display:inline;opacity:1;fill:#373d45;fill-opacity:1;stroke-width:0.347312"
       d="m 112.72089,174.66504 c 0,0 12.89527,4.43783 16.66553,9.72503 3.05604,4.28562 3.21819,15.57379 3.21819,15.57379 0,0 14.28886,3.82959 14.37331,3.37338 3.79596,-20.50629 0.16482,-25.07015 0.16482,-25.07015 0.0244,-3.71363 -15.69025,-13.41681 -15.69025,-13.41681 0,0 -7.28482,-9.69867 -11.58097,3.32854 z"
       id="path15"
       sodipodi:nodetypes="cscssccc"
       inkscape:label="kaki kanan" /><path
       style="display:inline;fill:#3a414b;fill-opacity:1;stroke-width:0.358929"
       d="m 93.366293,171.47211 c 0,0 1.63016,3.66103 5.64563,8.96301 1.086347,1.43439 8.621687,5.48153 8.885347,8.60445 0.54311,6.43296 0.55397,14.66359 0.55397,14.66359 0,0 16.34316,3.173 16.4331,2.71552 4.04285,-20.56358 0.0904,-28.38359 0.0904,-28.38359 0.026,-3.724 -16.71074,-13.45428 -16.71074,-13.45428 0,0 -7.75862,-9.72577 -12.334183,3.33784 z"
       id="path15-2"
       sodipodi:nodetypes="csscssccc"
       inkscape:label="kaki kanan" /><path
       style="display:inline;opacity:1;fill:#3a414b;fill-opacity:1;stroke-width:0.348877"
       d="m 89.537709,160.58071 45.189911,0.35528 c 0,0 1.45005,4.80995 1.05096,7.73961 -0.26236,1.926 -4.70853,8.13943 -4.70853,8.13943 0,0 -2.35594,2.81141 -3.63138,3.10746 -1.27543,0.2961 -4.57737,0.58698 -4.57737,0.58698 l -4.28109,0.31541 -4.63995,1.06892 -4.1536,-0.17761 -2.48129,0.38422 c 0,0 -1.83245,0.28174 -3.68222,-0.11839 -1.84977,-0.40013 -4.692908,-0.90229 -7.337617,-2.52947 -2.203469,-1.3557 -2.180597,-1.33156 -2.966739,-2.25669 -0.786142,-0.92514 -1.183839,-1.54547 -1.763583,-3.58829 -0.57974,-2.04287 -1.260201,-5.62522 -1.260201,-5.62522 0,0 -0.627768,-3.4948 -0.627768,-5.59561 0,-0.60593 -0.129533,-1.80599 -0.129533,-1.80599 z"
       id="path13"
       sodipodi:nodetypes="ccscsccccczszscscc"
       inkscape:label="celana" /><path
       style="display:inline;opacity:1;fill:#e9c7be;fill-opacity:1;stroke-width:0.349101"
       d="m 139.87479,163.18339 -0.11887,1.43469 -0.19832,1.52229 -0.191,1.79601 -0.1181,0.97905 c 0,0 0.1806,1.06528 0.80753,1.42134 0.62697,0.35606 1.00884,0.26375 1.00884,0.26375 0,0 0.74422,-0.0815 1.19423,0.0159 0.45001,0.0974 1.92665,1.16862 1.92665,1.16862 0,0 0.37883,0.5067 0.6455,0.51861 0.26665,0.0125 1.3767,0.29341 2.47905,-0.48231 1.10236,-0.7757 0.81125,-0.84025 1.5636,-1.55424 0.75233,-0.71399 2.33471,-1.46828 2.33471,-1.46828 0,0 1.10354,-1.42011 0.86257,-2.64244 -0.24098,-1.22229 -1.7895,-4.5652 -1.7895,-4.5652 l -1.97755,-3.46516 -8.62364,4.16466 z"
       id="path11"
       sodipodi:nodetypes="cccccscscssscscccc"
       inkscape:label="tagan kanan" /><path
       style="display:inline;opacity:1;fill:#e7e7e7;fill-opacity:1;stroke-width:0.289472"
       d="m 127.16098,112.73779 c 2.59118,-1.29322 7.95101,1.91598 8.58026,2.54453 0.59619,0.59559 4.73955,9.57489 4.73955,9.57489 l 3.45648,9.02841 4.17016,12.0083 3.2965,9.41999 0.75833,2.35058 0.20217,0.87591 -5.26812,2.51874 -6.59587,2.60158 -2.14554,0.43006 -2.85154,-8.24029 -3.47502,-11.55898 -3.05372,-9.11622 -2.72405,-8.1742 -1.26171,-4.56894 c 0,0 -1.77496,-7.72445 2.17212,-9.69436 z"
       id="path9"
       sodipodi:nodetypes="ssccccccccccccccs"
       inkscape:label="lengan kanan" /><path
       style="display:inline;opacity:1;fill:#eeeeee;fill-opacity:1;stroke-width:0.293205"
       d="m 128.36444,111.0036 -29.093123,-0.66565 -9.231461,2.74583 -1.864942,0.58245 c 0,0 -2.818794,1.70661 -2.843535,5.61939 -0.03963,6.2662 2.650411,24.91758 2.650411,24.91758 0,0 0.345682,15.05006 0.532175,16.29817 0.09768,0.65379 0.40961,2.54774 0.40961,2.54774 0,0 4.126431,-0.20004 6.186375,-0.10806 3.404774,0.152 6.75145,0.90253 10.1541,1.08846 3.95972,0.21638 11.90139,0.0294 11.90139,0.0294 0,0 4.31748,-0.22425 6.49467,-0.41183 1.97634,-0.17029 5.93421,-0.6178 5.93421,-0.6178 0,0 2.08504,-0.11167 3.65943,0.26477 0.6362,0.15211 1.72551,-0.37636 1.86268,-0.58836 0.26834,-0.41473 0.28023,-3.97145 0.28023,-3.97145 l 1.00744,-30.38148 c 0,0 0.62025,-4.63798 0.59336,-6.96683 -0.0206,-1.78734 -0.5788,-5.33738 -0.5788,-5.33738 0,0 -3.11912,-2.91188 -8.05422,-5.04496 z"
       id="path10"
       inkscape:label="badan"
       sodipodi:nodetypes="ccccscscascscssccacc" /><path
       style="display:inline;opacity:1;fill:#e9c7be;fill-opacity:1;stroke-width:0.32507"
       d="m 88.849696,166.22161 0.862046,1.38466 1.175573,1.73063 0.977394,1.90737 1.047645,1.68833 c 0,0 0.760222,0.65781 1.445948,0.87137 0.685715,0.21356 0.87687,0.21746 1.273762,0.20373 0.396899,-0.0137 1.079922,-0.36774 1.079922,-0.36774 l 0.793945,-0.43595 c 0,0 0.763252,-0.26818 1.236024,-0.23045 0.472746,0.0377 0.903207,0.0153 1.095851,-0.1055 0.192694,-0.12077 1.136994,-0.73764 1.354484,-0.93588 0.21754,-0.19822 0.75888,-0.30258 1.11665,-1.03431 0.35774,-0.73176 0.30992,-1.51851 0.31144,-1.6432 0.001,-0.12474 0.58581,-1.80287 0.84273,-2.1001 0.25691,-0.29725 1.04518,-1.05135 1.07306,-1.37817 0.0279,-0.32686 -0.0403,-1.41028 -0.20511,-1.61633 -0.16484,-0.20602 -1.15532,-0.90918 -1.15532,-0.90918 0,0 -1.78142,-0.51657 -2.06304,-0.55038 -0.2816,-0.0338 -1.03794,-0.3322 -1.371554,-0.6142 -0.585878,-0.49529 -0.849016,-1.43832 -1.612281,-1.59491 -3.409146,-0.69944 -9.27917,5.73021 -9.279169,5.73021 z"
       id="path12"
       inkscape:label="tangan kiri"
       sodipodi:nodetypes="cccccssccssscscsscsssc" /><path
       style="display:inline;opacity:1;fill:#ccd1d9;fill-opacity:1;stroke-width:0.244335"
       d="m 100.00143,107.61946 c 0,0 -1.403595,2.39531 -1.49132,2.51814 -0.08773,0.12285 1.052696,1.53547 1.84222,2.18037 0.78952,0.64489 3.24581,2.82524 3.24581,2.82524 l 3.11423,2.51815 1.62291,1.13624 3.11422,-2.97878 2.76333,-2.41835 0.61406,-0.13053 3.15809,3.13234 1.62291,1.75043 0.61406,0.64489 6.27233,-7.46234 0.35089,-0.58347 -0.70179,-0.55276 -0.48249,-1.28979 -0.52635,-0.76773 -0.21931,-0.3071 z"
       id="path5"
       inkscape:label="kerah"
       sodipodi:nodetypes="csscccccccccccccccc" /><path
       style="display:inline;opacity:1;fill:#e9c9bf;fill-opacity:1;stroke-width:0.27951"
       d="m 133.9796,86.638436 -1.0697,5.351832 c -0.10192,1.500513 -0.37243,2.959608 -1.08554,6.360769 -0.71314,3.401163 -2.1394,5.101753 -2.1394,5.101753 0,0 -1.37533,2.10071 -2.64878,3.45117 -1.27346,1.35047 -4.43161,3.60124 -4.43161,3.60124 0,0 -2.26359,1.68331 -3.53235,2.24407 -1.14069,0.50415 -2.67873,0.87514 -3.59561,0.9752 -0.9169,0.10007 -2.16253,-0.0175 -3.21654,-0.23811 -1.2412,-0.25979 -3.59978,-1.26585 -3.59978,-1.26585 l -3.02558,-1.37933 c 0,0 -2.80945,-1.66227 -3.13361,-1.80374 -0.32417,-0.14147 -2.701404,-1.80374 -2.917519,-1.98058 -0.216106,-0.17684 -3.061583,-2.58182 -3.241677,-2.9355 -0.180094,-0.35367 -2.41325,-2.47571 -2.41325,-2.47571 l -0.936484,-0.84882 -6.591413,-9.08944 -0.86445,-8.382087 c 0,0 4.970575,-12.3562 6.879562,-12.745244 1.908991,-0.38904 11.670041,-2.0332 11.670041,-2.0332 l 13.25487,-2.614391 7.41984,1.10995 8.96865,9.854742 z"
       id="path4"
       sodipodi:nodetypes="ccscscasaccsssccccsccccc"
       inkscape:label="wajah" /><path
       style="display:none;opacity:1;fill:#d797a0;fill-opacity:1;stroke-width:0.264583"
       d="m 118.36916,103.90894 c 0,0 0.0528,-1.26119 -0.98699,-1.48601 -1.03979,-0.22482 -1.77044,0.22963 -1.77044,0.22963 0,0 -0.67446,0.46952 -1.01168,1.08777 -0.33723,0.61825 -0.39344,1.09939 -0.39344,1.09939 0,0 -0.14051,0.56205 0.19672,0.78687 0.33723,0.22482 0.78686,0.47774 1.43321,0.47774 0.64636,0 1.13432,0 1.61206,-0.28103 0.47774,-0.28102 0.67587,-0.50584 0.78828,-0.81496 0.11241,-0.30913 0.13228,-1.0994 0.13228,-1.0994 z"
       id="path18"
       sodipodi:nodetypes="cscscssssc"
       inkscape:label="mulut1" /><path
       style="display:none;opacity:1;fill:#d797a0;fill-opacity:1;stroke-width:0.424869"
       d="m 120.41159,103.68199 c 0,0 0.0955,-1.7979 -1.78533,-2.1184 -1.88082,-0.32049 -3.57561,0.32735 -3.57561,0.32735 0,0 -0.84686,0.37052 -1.45682,1.25186 -0.61001,0.88135 -0.71168,1.86608 -0.71168,1.86608 0,0 0.0128,0.80123 0.62281,1.12173 0.60999,0.32048 1.15634,0.68104 2.3255,0.68104 1.16916,0 2.0518,0 2.91597,-0.40063 0.86416,-0.4006 1.22254,-0.7211 1.42588,-1.16176 0.20333,-0.44069 0.23928,-1.56727 0.23928,-1.56727 z"
       id="path23"
       sodipodi:nodetypes="cscscssssc"
       inkscape:label="mulut2" /><path
       style="display:none;opacity:1;fill:#d797a0;fill-opacity:1;stroke-width:0.326153"
       d="m 120.18677,103.89947 c 0,0 0.0955,-1.05949 -1.78533,-1.24836 -1.88082,-0.18886 -3.57561,0.19291 -3.57561,0.19291 0,0 -0.84686,0.21834 -1.45682,0.73771 -0.61001,0.51937 -0.71168,1.09967 -0.71168,1.09967 0,0 0.0128,0.47216 0.62281,0.66103 0.60999,0.18885 1.15634,0.40133 2.3255,0.40133 1.16916,0 2.0518,0 2.91597,-0.23609 0.86416,-0.23607 1.22254,-0.42494 1.42588,-0.68462 0.20333,-0.25969 0.23928,-0.92358 0.23928,-0.92358 z"
       id="path24"
       sodipodi:nodetypes="cscscssssc"
       inkscape:label="mulut3" /><path
       style="display:none;opacity:1;fill:#d797a0;fill-opacity:1;stroke-width:0.233742"
       d="m 118.61741,103.72522 c 0,0 0.0395,-1.31386 -0.73943,-1.54807 -0.77898,-0.23421 -1.48091,0.23922 -1.48091,0.23922 0,0 -0.35075,0.27076 -0.60337,0.91483 -0.25267,0.64406 -0.29477,1.36369 -0.29477,1.36369 0,0 0.004,0.58552 0.25794,0.81973 0.25265,0.2342 0.47894,0.49769 0.96317,0.49769 0.48423,0 0.84979,0 1.20771,-0.29277 0.35791,-0.29275 0.50634,-0.52697 0.59056,-0.84899 0.0842,-0.32204 0.0991,-1.14533 0.0991,-1.14533 z"
       id="path25"
       sodipodi:nodetypes="cscscssssc"
       inkscape:label="mulut4" /><path
       style="display:inline;opacity:1;fill:#d3b2a9;fill-opacity:1;stroke-width:0.420492"
       d="m 120.79263,104.01174 c -0.26917,-0.17793 -1.28326,-0.0262 -1.92495,-0.0262 -1.44317,0 -4.20627,0.006 -4.20627,0.006 0,0 -1.4146,-0.0648 -1.72367,-0.0648 -0.12422,0 -0.3084,-0.0167 -0.35801,0.14223 -0.0655,0.20986 0.1423,0.24613 0.25279,0.28003 0.35278,0.10816 1.83301,0.18066 2.75153,0.20789 1.05749,0.0313 3.17304,-0.0515 3.17304,-0.0515 1.06246,-0.0278 1.11773,-0.0677 1.42086,-0.0677 0.20942,0 0.48478,-0.016 0.61996,-0.17036 0.0608,-0.0696 0.0606,-0.2113 -0.006,-0.25489 z"
       id="path27"
       sodipodi:nodetypes="sscsssasssss"
       inkscape:label="mulut diam" /><path
       style="display:none;opacity:1;fill:#d797a0;fill-opacity:1;stroke-width:0.300451"
       d="m 120.04045,103.32502 c 0,0 0.0876,-0.97899 -1.63964,-1.1535 -1.72736,-0.17452 -3.28385,0.17825 -3.28385,0.17825 0,0 -0.77778,0.20175 -1.33795,0.68166 -0.56028,0.47989 -0.65364,1.01611 -0.65364,1.01611 0,0 0.009,0.43627 0.57195,0.61079 0.56025,0.17451 1.06203,0.37083 2.1358,0.37083 1.07376,0 1.88438,0 2.67804,-0.21815 0.79365,-0.21813 1.12279,-0.39266 1.30953,-0.63259 0.18673,-0.23995 0.21976,-0.8534 0.21976,-0.8534 z"
       id="path26"
       sodipodi:nodetypes="cscscssssc"
       inkscape:label="mulut5" /><path
       style="opacity:0.7;fill:#c7a49d;fill-opacity:1;stroke-width:0.356393"
       d="m 117.10282,94.827358 c 0,0 0.49255,-0.213689 1.12835,0.02722 0.63581,0.240904 0.85699,0.378958 1.18827,0.684892 0.27378,0.252831 0.56483,0.669537 0.61615,0.909837 0.0514,0.240323 0.0551,0.805949 -0.14925,1.130599 -0.14716,0.234051 -0.41811,0.425338 -0.70594,0.47793 -0.33665,0.0615 -0.6945,-0.152692 -0.6945,-0.152692 0,0 -0.1615,-0.172403 0.15952,-0.188028 0.29064,-0.01412 0.82211,-0.213046 0.86856,-0.581954 0.0458,-0.368966 -0.13602,-0.679066 -0.34165,-0.95767 -0.2174,-0.294573 -0.58791,-0.540242 -0.88952,-0.682127 -0.30161,-0.141883 -0.70879,-0.282307 -1.02855,-0.306896 -0.31979,-0.02452 -0.15163,-0.361139 -0.15163,-0.361139 z"
       id="path20"
       sodipodi:nodetypes="csacascscasscc"
       inkscape:label="hidung" /><ellipse
       id="path42"
       style="fill:#5f9276;stroke:#000000;stroke-width:0.274396"
       cx="93.551308"
       cy="144.70566"
       rx="0.034522474"
       ry="0.032863107" /><path
       style="fill:#e7e7e7;fill-opacity:1;stroke-width:0.264583"
       d="m 90.582812,113.38091 -6.217663,2.4383 c 0,0 -9.997027,13.8983 -11.581921,22.18852 -1.584894,8.29022 0,0.24383 0,0.24383 l -0.609573,5.85192 4.023193,11.58192 11.703836,12.43532 12.313406,-9.26553 -9.753192,-9.02171 c 0,0 -3.291705,-10.72852 -3.047876,-12.06958 0.243832,-1.34107 7.924472,-12.1915 7.924472,-12.1915 0,0 7.436816,-12.31341 -4.754682,-12.19149 z"
       id="path8" /></g><g
     inkscape:groupmode="layer"
     id="layer3"
     inkscape:label="mata"
     style="display:inline"
     transform="translate(0,0.36574489)"><path
       style="display:inline;opacity:1;fill:#d2f7f2;fill-opacity:1;stroke-width:0.295717"
       d="m 100.95949,87.287741 -0.0407,0.722144 0.10115,0.915999 c 0,0 0.1941,1.013701 0.40301,1.301175 0.20891,0.287471 0.33456,0.700634 0.70473,1.071872 0.37017,0.371238 1.55901,1.099286 1.55901,1.099286 0,0 1.16996,0.60291 1.48831,0.661963 0.3183,0.05906 1.37936,0.255899 2.06469,0.224977 0.68534,-0.03091 1.33718,-0.141156 1.86613,-0.367335 0.52895,-0.226176 1.0139,-0.470142 1.25443,-0.898434 0.63499,-1.130693 0.4532,-2.701521 0.15112,-3.79418 -0.30163,-1.092656 -1.61535,-1.275939 -1.61535,-1.275939 l -3.74806,-0.497749 -2.64723,0.332008 z"
       id="path21"
       inkscape:label="mata kiri putih"
       sodipodi:nodetypes="cccsccsszaccccc" /><path
       style="display:inline;opacity:1;fill:#0a1f22;fill-opacity:1;stroke-width:0.293367"
       d="m 109.17147,86.920316 c 0,0 -1.40566,-0.325153 -2.12703,-0.4353 -0.57654,-0.08804 -1.11225,-0.126003 -1.74886,-0.173061 -0.63664,-0.04699 -1.3748,-0.05568 -2.05629,0.006 -0.44978,0.04075 -1.39817,0.146908 -1.39817,0.146908 -3.5e-4,-0.0061 -1.09339,0.215251 -1.56993,0.461158 -0.19376,0.09999 -0.39108,0.225038 -0.500096,0.399947 -0.08182,0.131293 -0.261045,0.444402 -0.08918,0.445164 0.09615,3.68e-4 0.752196,-0.226423 0.752196,-0.226423 0,0 0.93317,-0.297045 1.55358,-0.442412 0.57151,-0.133903 1.48024,-0.115371 2.1437,-0.131728 0.66349,-0.01634 1.80194,0.06034 2.09983,0.12638 0.29784,0.06603 0.38671,0.07321 0.38671,0.07321 0,0 -1.16508,1.168235 -1.15509,2.529708 -0.006,0.753825 0.17769,1.583889 0.66556,2.220037 0.34157,0.445352 0.89445,0.781686 1.46661,0.965628 0.51717,0.166262 1.12696,0.238111 1.64307,0.08158 0.49127,-0.148977 0.89815,-0.518884 1.16616,-0.905553 0.23799,-0.343426 0.65866,-1.573088 0.6167,-2.326373 -0.0421,-0.753304 -0.0881,-1.168444 -0.32364,-1.418255 -0.0335,-0.03559 0.39252,0.209228 0.39252,0.209228 0,0 0.64342,0.324871 0.53079,-0.214599 l -0.0159,-0.09383 c -0.004,-0.02381 -0.069,-0.164272 -0.10332,-0.185269 -0.0676,-0.04129 -0.42093,-0.373746 -0.80575,-0.571272 -0.38484,-0.197529 -0.9785,-0.371892 -1.52412,-0.540942 z"
       id="path19"
       sodipodi:nodetypes="cssscaascsssccaaascsccsszc"
       inkscape:label="mata kiri" /><path
       style="display:inline;opacity:1;fill:#000000;fill-opacity:1;stroke-width:0.284391"
       d="m 108.50041,81.745903 c -1.08984,-0.06962 -3.27806,0.03432 -3.27806,0.03432 0,0 -2.5814,0.364321 -3.1915,0.491961 -0.61012,0.127513 -2.623776,0.780609 -2.623776,0.780609 l -0.900776,0.441486 c 0,0 -0.336595,0.417419 -0.285018,0.434139 0.05158,0.01672 0.331164,-0.09719 0.331164,-0.09719 l 1.43364,-0.435084 1.805136,-0.451938 1.53841,-0.281015 1.93941,-0.237739 1.69921,-0.05326 1.57611,0.06564 1.57683,0.205649 1.12114,0.238274 c 0,0 0.24686,1.7e-5 0.31527,-0.08235 0.12001,-0.144495 0.0601,-0.258939 -0.0117,-0.354422 -0.15817,-0.210438 -0.23865,-0.276165 -0.23865,-0.276165 z"
       id="path22"
       sodipodi:nodetypes="ccsccscccccccccsscc"
       inkscape:label="alis kiri" /><path
       style="fill:#0a1f22;fill-opacity:1;stroke-width:0.291466"
       d="m 120.5691,82.497352 0.60885,-0.311348 1.01207,-0.405398 1.11823,-0.247488 1.33191,-0.0429 1.18296,0.09424 1.5244,0.25598 1.03672,0.274722 0.61037,0.170431 0.78455,0.291046 c 0,0 0.57342,0.221231 0.79174,0.389346 0.16733,0.128874 0.31503,0.497926 -0.38925,0.340263 -0.15734,-0.03524 -0.99009,-0.328239 -0.99009,-0.328239 l -1.91703,-0.498429 -1.44017,-0.210494 -1.16051,-0.08923 -1.39056,0.09372 -0.90164,0.22944 -0.93606,0.382364 -0.28886,0.148501 c 0,0 -0.80806,-0.04029 -0.58762,-0.536566 z"
       id="path1"
       sodipodi:nodetypes="ccccccccccsscccccccccc"
       inkscape:label="alis kanan" /><path
       style="display:inline;fill:#d2f9f4;fill-opacity:1;stroke-width:0.281432"
       d="m 129.84357,86.481477 0.08,0.898211 -0.0348,1.46738 -0.15651,0.674239 -0.54959,1.124503 c 0,0 -0.37936,0.576584 -0.54372,0.691006 -0.1644,0.114422 -0.88109,0.678502 -0.88109,0.678502 0,0 -0.42449,0.360388 -0.69593,0.485761 -0.28687,0.132497 -0.62259,0.202186 -0.94982,0.265022 -0.34761,0.06675 -0.70675,0.11866 -1.06388,0.11653 -0.33872,-0.002 -0.69163,-0.03074 -0.99755,-0.122483 -0.27461,-0.08235 -0.69065,-0.361872 -0.69065,-0.361872 l -0.54031,-0.630037 -0.48839,-1.701563 0.38823,-1.819743 1.90443,-1.304055 c 0,0 2.97123,-0.646713 3.03863,-0.677326 0.0673,-0.03061 2.18093,0.215924 2.18093,0.215924 z"
       id="path7"
       sodipodi:nodetypes="cccccscaaascccccscc"
       inkscape:label="mata kanan putih" /><path
       style="fill:#0a1f22;stroke-width:0.287227"
       d="m 130.63966,86.104277 c 0,0 -0.41984,-0.146266 -0.63816,-0.196123 -0.23585,-0.05387 -0.72131,-0.110269 -0.72131,-0.110269 l -0.86678,-0.0446 -1.03974,0.151056 -1.37785,0.321021 c 0,0 -0.91518,0.239875 -1.34767,0.418681 -0.48126,0.19898 -0.93432,0.416736 -1.38374,0.65495 -0.22402,0.118734 -0.45331,0.238034 -0.65275,0.385116 -0.19491,0.143744 -0.39834,0.298484 -0.5694,0.447874 -0.1325,0.115707 -0.26442,0.246184 -0.3329,0.399664 -0.0525,0.117441 -0.10119,0.287126 -0.006,0.375686 0.0771,0.07178 0.22682,0.0263 0.3377,0.0051 0.15026,-0.02878 0.4206,-0.175166 0.4206,-0.175166 0,0 -0.12779,0.326481 -0.1423,0.438185 -0.0421,0.326759 0.006,0.603968 0.0253,0.910739 0.019,0.311528 0.0395,0.629105 0.13089,0.927757 0,0 0.086,0.373103 0.16686,0.547088 0.10982,0.237383 0.42619,0.667207 0.42619,0.667207 l 0.42391,0.384195 0.49754,0.258115 0.58885,0.09705 c 0,0 0.54097,-0.09167 0.78802,-0.198034 0.27798,-0.119667 0.5751,-0.277109 0.75507,-0.483879 0.2447,-0.28116 0.35047,-0.649036 0.5198,-1.062972 0.16933,-0.413937 0.23783,-0.941625 0.26231,-1.418858 0.0254,-0.495373 -0.0132,-0.995638 -0.12111,-1.478221 -0.0918,-0.410775 -0.39622,-1.099429 -0.44376,-1.187465 -0.0476,-0.08804 0.0747,-0.217731 0.0747,-0.217731 l 0.97655,-0.312295 0.60596,-0.06715 0.73717,-0.07866 c 0,0 0.57231,0.02171 0.85881,0.05738 0.17397,0.02165 0.52379,0.104144 0.52379,0.104144 l 0.54093,0.101553 c 0.18012,-0.116033 0.0682,-0.267459 0.0283,-0.449123 z"
       id="path2"
       inkscape:label="mata kanan"
       sodipodi:nodetypes="caccccsasssaacsssaccccaszaasccccscccc" /><path
       style="display:inline;fill:#d1afa7;fill-opacity:1;stroke-width:0.229135"
       d="m 121.63641,92.180674 c 0,0 0.14753,1.377011 0.96952,1.798545 0.82199,0.421534 0.9063,0.421534 0.9063,0.421534 0,0 -0.72103,7.3e-4 -1.04167,-0.140512 -0.33434,-0.147283 -0.63837,-0.391683 -0.84128,-0.702556 -0.1593,-0.244067 -0.14041,-0.843068 -0.14041,-0.843068 0,0 -0.0678,-0.476238 0.14754,-0.533943 z"
       id="path6-1-5-2"
       inkscape:label="kerut mata"
       sodipodi:nodetypes="cscascc" /><path
       style="display:inline;fill:#d1afa7;fill-opacity:1;stroke-width:0.264583"
       d="m 112.10285,92.578136 c -0.18321,-0.04909 -0.19671,1.377011 -1.2927,1.798545 -1.09599,0.421534 -1.2084,0.421534 -1.2084,0.421534 0,0 0.84359,0.175615 1.2365,0.04998 0.46284,-0.147995 0.86658,-0.529728 1.15219,-0.893048 0.18498,-0.235313 0.30936,-0.543749 0.30913,-0.843068 -1.5e-4,-0.189676 0.10801,-0.452291 -0.19672,-0.533943 z"
       id="path6-4-7"
       inkscape:label="kerut mata"
       sodipodi:nodetypes="sscasss" /></g><g
     inkscape:groupmode="layer"
     id="g33"
     inkscape:label="mata setengah "
     style="display:none"
     transform="translate(0.05620455,-0.45383532)"><path
       style="display:inline;opacity:1;fill:#d2f7f2;fill-opacity:1;stroke-width:0.259324"
       d="m 101.09335,88.700575 0.032,0.772163 0.15965,0.78404 c 0,0 0.2395,0.748405 0.44705,0.985995 0.20755,0.237587 0.23948,0.344503 0.76636,0.902835 0.52686,0.558334 1.42094,0.974113 1.42094,0.974113 0,0 1.08566,0.463298 1.37305,0.498938 0.28738,0.03564 1.24533,0.154433 1.85203,0.09503 0.6067,-0.05941 1.22703,-0.304418 1.50078,-0.422019 0.29997,-0.128852 1.01578,-0.473218 1.22615,-0.860961 0.54246,-0.999866 0.14692,-2.304608 -0.20428,-3.231204 -0.35127,-0.926597 -1.53273,-1.02163 -1.53273,-1.02163 l -3.36877,-0.249469 -2.34696,0.19007 z"
       id="path28"
       inkscape:label="mata kiri putih"
       sodipodi:nodetypes="cccsscsssaccccc" /><path
       style="display:inline;opacity:1;fill:#0a1f22;fill-opacity:1;stroke-width:0.264787"
       d="m 110.98545,89.192321 c 0,0 -0.54086,-0.356738 -0.84276,-0.489644 -0.43647,-0.19215 -1.38465,-0.444904 -1.38465,-0.444904 l -2.0187,-0.254559 c 0,0 -1.06114,-0.115158 -1.66426,-0.131169 -0.60311,-0.01598 -1.3046,-0.02116 -1.94698,0.05817 -0.42399,0.0524 -1.26716,0.271217 -1.26716,0.271217 0,0 -1.1416,0.306699 -1.68307,0.541205 -0.16848,0.07296 -0.404467,0.167736 -0.471405,0.307941 -0.06484,0.135828 -0.02269,0.37075 0.13757,0.391461 0.160225,0.02069 0.729155,-0.219631 0.729155,-0.219631 0,0 1.10169,-0.434532 1.68393,-0.583528 0.53636,-0.137249 1.11754,-0.244464 1.7442,-0.284087 0.62664,-0.03962 1.69586,0.04415 1.97933,0.08952 0.28344,0.04536 0.39939,0.165062 0.39939,0.165062 0,0 -0.88928,1.016468 -0.81911,2.013383 0.0163,0.649005 0.12247,1.608404 0.58747,2.139718 0.38043,0.434664 0.91224,0.663698 1.25129,0.725241 0.35407,0.06427 1.02703,-0.01916 1.48105,-0.18461 0.40831,-0.148719 0.77924,-0.34801 1.02141,-0.691127 0.2151,-0.304734 0.57246,-1.491621 0.51108,-2.138337 -0.0614,-0.646722 -0.11281,-0.89372 -0.2322,-1.153495 -0.0476,-0.103654 0.43335,0.167208 0.43335,0.167208 0,0 0.58417,0.316187 0.37107,-0.295079 z"
       id="path29"
       sodipodi:nodetypes="cscccscssscsssccssascsccc"
       inkscape:label="mata kiri" /><path
       style="opacity:1;fill:#000000;fill-opacity:1;stroke-width:0.331246"
       d="m 111.74355,84.001056 c 0,0 -1.80183,-0.733484 -2.99305,-0.905323 -1.1008,-0.158798 -3.3234,-0.01274 -3.3234,-0.01274 0,0 -2.58631,0.376173 -3.20779,0.510121 -0.62147,0.133948 -2.649367,0.827218 -2.649367,0.827218 l -1.318308,0.663279 c 0,0 -0.01603,0.208539 0.0362,0.233869 0.05171,0.02549 0.389624,-0.02468 0.389624,-0.02468 l 1.434431,-0.481633 1.84614,-0.477426 1.55539,-0.320005 1.91943,-0.318454 1.7562,0.06565 1.5857,0.104393 1.59668,0.448587 1.12721,0.386444 c 0,0 0.24984,0.01491 0.32166,-0.09124 0.12596,-0.186192 0.0379,-0.324261 -6.4e-4,-0.475156 -0.0132,-0.05175 -0.0753,-0.133149 -0.0753,-0.133149 z"
       id="path30"
       sodipodi:nodetypes="cscsccscccccccccsacc"
       inkscape:label="alis kiri" /><path
       style="fill:#000000;fill-opacity:1;stroke-width:0.280356"
       d="m 120.69123,84.196728 0.57225,-0.317676 0.95064,-0.41733 1.04927,-0.263208 1.24843,-0.0648 1.10812,0.07317 1.42721,0.227058 0.97011,0.253775 0.57109,0.158007 0.73368,0.274151 c 0,0 0.5362,0.208776 0.73991,0.371084 0.15612,0.124405 0.29254,0.486324 -0.36662,0.342524 -0.14726,-0.03213 -0.92613,-0.307406 -0.92613,-0.307406 l -1.79385,-0.459825 -1.34854,-0.18356 -1.08709,-0.06858 -1.30368,0.115968 -0.84622,0.241731 -0.87927,0.393313 -0.27149,0.151493 c 0,0 -0.75706,-0.02616 -0.54782,-0.519883 z"
       id="path31"
       sodipodi:nodetypes="ccccccccccsscccccccccc"
       inkscape:label="alis kanan" /><path
       style="display:inline;fill:#d2f9f4;fill-opacity:1;stroke-width:0.25138"
       d="m 129.28547,88.102584 -0.0154,0.810108 -0.17181,1.312149 -0.20306,0.593319 -0.59355,0.969849 c 0,0 -0.39049,0.490627 -0.54668,0.581909 -0.15623,0.09128 -0.84349,0.547679 -0.84349,0.547679 0,0 -0.40956,0.293871 -0.66138,0.387656 -0.26612,0.09913 -0.56936,0.138625 -0.86443,0.172579 -0.31345,0.03605 -0.63567,0.05807 -0.95093,0.03176 -0.29898,-0.02494 -0.60793,-0.07474 -0.86934,-0.177817 -0.23465,-0.09252 -0.57525,-0.37132 -0.57525,-0.37132 l -0.48342,-0.606447 -0.28116,-1.55868 0.15621,-1.631629 2.24924,-1.004077 c 0,0 2.68659,-0.376528 2.74906,-0.39935 0.0626,-0.02284 1.90561,0.3423 1.90561,0.3423 z"
       id="path32"
       sodipodi:nodetypes="cccccscaaascccccscc"
       inkscape:label="mata kanan putih" /><path
       style="fill:#0a1f22;stroke-width:0.254498"
       d="m 130.36338,88.188128 -0.67401,-0.270056 -0.69546,-0.18812 -0.82853,-0.08857 -1.00574,0.06048 -1.33987,0.178643 -1.31658,0.260069 c 0,0 -1.26944,0.471913 -1.35852,0.505604 -0.0892,0.03368 -0.64554,0.268756 -0.64554,0.268756 l -0.53257,0.365492 -0.37681,0.298367 -0.042,0.2292 c 0,0 0.1353,0.09647 0.33656,0.09418 0.20126,-0.0023 0.44537,-0.168449 0.44537,-0.168449 0,0 -0.088,0.212891 -0.10829,0.303064 -0.0596,0.263817 -0.0359,0.76051 -0.0359,0.76051 l 0.0423,0.767371 0.1282,0.455988 0.30771,0.57647 0.38406,0.338708 0.46201,0.240375 0.49338,0.116328 c 0,0 0.60336,-0.04335 0.75859,-0.159478 0.15132,-0.113201 0.63215,-0.411844 0.63215,-0.411844 0,0 0.5641,-0.594575 0.6295,-0.742357 0.0653,-0.147782 0.45973,-0.871121 0.45657,-1.148822 -0.003,-0.277698 0.0115,-0.964037 0.009,-1.19273 -0.003,-0.228692 -0.17876,-0.929733 -0.21917,-1.004363 -0.0401,-0.07462 -0.0887,-0.160721 -0.0887,-0.160721 l 0.95454,-0.195715 0.58494,-0.01822 0.71142,-0.01966 0.82368,0.117688 0.50825,0.190594 0.44406,0.110461 c 0,0 0.19525,-0.09384 0.15608,-0.469247 z"
       id="path33"
       inkscape:label="mata kanan"
       sodipodi:nodetypes="cccccccsccccscscccccccscssssccccccccc" /><path
       style="display:inline;fill:#d1afa7;fill-opacity:1;stroke-width:0.264583"
       d="m 111.31335,92.143085 c -0.18321,-0.04909 -0.19671,1.377011 -1.2927,1.798545 -1.09599,0.421534 -1.2084,0.421534 -1.2084,0.421534 0,0 0.84359,0.175615 1.2365,0.04998 0.46284,-0.147995 0.86658,-0.529728 1.15219,-0.893048 0.18498,-0.235313 0.30936,-0.543749 0.30913,-0.843068 -1.5e-4,-0.189676 0.10801,-0.452291 -0.19672,-0.533943 z"
       id="path6-4"
       inkscape:label="kerut mata"
       sodipodi:nodetypes="sscasss" /><path
       style="display:inline;fill:#d1afa7;fill-opacity:1;stroke-width:0.229135"
       d="m 121.18545,92.023517 c 0,0 0.14753,1.377011 0.96952,1.798545 0.82199,0.421534 0.9063,0.421534 0.9063,0.421534 0,0 -0.72103,7.3e-4 -1.04167,-0.140512 -0.33434,-0.147283 -0.63837,-0.391683 -0.84128,-0.702556 -0.1593,-0.244067 -0.14041,-0.843068 -0.14041,-0.843068 0,0 -0.0678,-0.476238 0.14754,-0.533943 z"
       id="path6-1-5"
       inkscape:label="kerut mata"
       sodipodi:nodetypes="cscascc" /></g><g
     inkscape:groupmode="layer"
     id="g39"
     inkscape:label="mata tertutup"
     style="display:none"
     transform="translate(-0.1124091,1.124091)"><path
       style="display:inline;opacity:1;fill:#0a1f22;fill-opacity:1;stroke-width:0.315263"
       d="m 110.38412,89.997248 c -0.0148,-0.07205 -0.40362,-0.326734 -0.81632,-0.528908 -0.4127,-0.202176 -1.11152,-0.481364 -1.67902,-0.646078 -0.55354,-0.160666 -1.67815,-0.408049 -1.67815,-0.408049 0,0 -1.05449,-0.131816 -1.65546,-0.191898 -0.601,-0.06008 -1.30227,-0.05658 -1.94839,0.01598 -0.42646,0.04791 -1.27909,0.205967 -1.27909,0.205967 0,0 -1.15691,0.300221 -1.711992,0.598787 -0.172719,0.09288 -0.414185,0.21249 -0.48975,0.406924 -0.07324,0.18836 -0.04437,0.469403 0.114308,0.508673 0.158633,0.03925 0.741011,-0.247749 0.741011,-0.247749 0,0 1.121483,-0.347964 1.711943,-0.522882 0.54391,-0.161128 1.29319,-0.20373 1.92114,-0.220979 0.62795,-0.01725 2.10557,0.160763 2.38566,0.242601 0,0 2.03685,0.488493 3.00919,0.867221 0.34078,0.132733 0.98152,0.489146 0.98152,0.489146 0,0 0.53711,0.129349 0.3934,-0.568747 z"
       id="path35"
       sodipodi:nodetypes="szsccscssscsscacss"
       inkscape:label="mata kiri" /><path
       style="opacity:1;fill:#0a1f22;fill-opacity:1;stroke-width:0.296234"
       d="m 111.05648,85.563282 c 0,0 -1.69494,-0.862239 -2.85584,-1.186625 -1.07277,-0.29977 -3.30927,-0.632309 -3.30927,-0.632309 0,0 -2.61701,-0.116376 -3.25148,-0.110156 -0.63447,0.0062 -2.727381,0.321088 -2.727381,0.321088 l -1.394705,0.310684 c 0,0 -0.03067,0.270179 0.01732,0.298404 0.04799,0.02821 0.359473,0.05234 0.359473,0.05234 0,0 1.015124,-0.08063 1.522375,-0.120437 0.623198,-0.04888 1.867268,-0.142241 1.867268,-0.142241 0,0 1.0787,0.02114 1.61281,0.02235 0.65223,0.0015 1.3075,0.06157 1.95204,0.133795 0.58541,0.06561 1.13254,0.100324 1.69008,0.205924 0.54204,0.102656 1.60199,0.414399 1.60199,0.414399 l 1.51178,0.460109 1.06966,0.482593 c 0,0 0.24621,0.05147 0.3312,-0.02047 0.14911,-0.126086 0.0793,-0.24841 0.0605,-0.372933 -0.007,-0.04269 -0.0577,-0.116467 -0.0577,-0.116467 z"
       id="path36"
       sodipodi:nodetypes="cscsccscscssacccsacc"
       inkscape:label="alis kiri" /><path
       style="fill:#0a1f22;fill-opacity:1;stroke-width:0.289203"
       d="m 120.70734,85.545539 0.54896,-0.414511 0.93967,-0.587036 1.08661,-0.46632 1.35514,-0.32635 1.23558,-0.169444 1.62468,-0.09605 1.12925,0.02619 0.66695,0.02334 0.87464,0.09546 c 0,0 0.64132,0.0775 0.90578,0.183297 0.20268,0.08109 0.44325,0.384892 -0.31686,0.393435 -0.16984,0.0019 -1.09439,-0.08492 -1.09439,-0.08492 l -2.08577,-0.03975 -1.52736,0.11926 -1.21133,0.169174 -1.403,0.385222 -0.86894,0.403179 -0.86729,0.549691 -0.26025,0.197374 c 0,0 -0.83818,0.13768 -0.73207,-0.361225 z"
       id="path37"
       sodipodi:nodetypes="ccccccccccsscccccccccc"
       inkscape:label="alis kanan" /><path
       style="fill:#0a1f22;stroke-width:0.277252"
       d="m 130.25454,88.591319 -0.58879,-0.189769 c 0,0 -0.56535,-0.141754 -0.84364,-0.180686 -0.28168,-0.0394 -0.83372,-0.100726 -0.83372,-0.100726 l -1.03065,-0.01788 c 0,0 -0.94283,0.05152 -1.41037,0.113299 -0.44667,0.05901 -1.32904,0.245443 -1.32904,0.245443 0,0 -0.93772,0.26289 -1.40422,0.402307 -0.22739,0.06796 -0.67978,0.211617 -0.67978,0.211617 0,0 -0.38469,0.144989 -0.54362,0.269736 -0.11431,0.08976 -0.24037,0.187158 -0.28057,0.333143 -0.0402,0.145982 -0.0112,0.416123 0.1151,0.44905 0.2638,0.06892 0.83425,-0.26127 1.25254,-0.388144 0.52822,-0.160216 1.05206,-0.336872 1.58754,-0.471137 0.31705,-0.07949 0.63943,-0.136606 0.9606,-0.197569 0.26104,-0.04955 0.78532,-0.136673 0.78532,-0.136673 0,0 0.60579,-0.0735 0.9103,-0.08818 0.21779,-0.0106 0.43626,-0.0085 0.65414,1.54e-4 0.23288,0.0093 0.46234,0.03162 0.69697,0.05531 0.28329,0.02864 0.61714,0.05666 0.85127,0.100336 0.23413,0.04369 0.55388,0.142373 0.55388,0.142373 l 0.98409,0.309808 c 0,0 0.68155,-0.03651 0.33594,-0.599493 z"
       id="path39"
       inkscape:label="mata kanan"
       sodipodi:nodetypes="ccsccscacazsaaacaaszcccc" /><path
       style="display:inline;fill:#d1afa7;fill-opacity:1;stroke-width:0.264583"
       d="m 111.30956,91.341021 c -0.18321,-0.04909 -0.19671,1.377011 -1.2927,1.798545 -1.09599,0.421534 -1.2084,0.421534 -1.2084,0.421534 0,0 0.84359,0.175615 1.2365,0.04998 0.46284,-0.147995 0.86658,-0.529728 1.15219,-0.893048 0.18498,-0.235313 0.30936,-0.543749 0.30913,-0.843068 -1.5e-4,-0.189676 0.10801,-0.452291 -0.19672,-0.533943 z"
       id="path6-6"
       inkscape:label="kerut mata"
       sodipodi:nodetypes="sscasss" /><path
       style="display:inline;fill:#d1afa7;fill-opacity:1;stroke-width:0.229135"
       d="m 120.96614,91.264556 c 0,0 0.14753,1.377011 0.96952,1.798545 0.82199,0.421534 0.9063,0.421534 0.9063,0.421534 0,0 -0.72103,7.3e-4 -1.04167,-0.140512 -0.33434,-0.147283 -0.63837,-0.391683 -0.84128,-0.702556 -0.1593,-0.244067 -0.14041,-0.843068 -0.14041,-0.843068 0,0 -0.0678,-0.476238 0.14754,-0.533943 z"
       id="path6-1-1"
       inkscape:label="kerut mata"
       sodipodi:nodetypes="cscascc" /></g><g
     inkscape:groupmode="layer"
     id="layer4"
     inkscape:label="rambut"><path
       style="display:inline;opacity:1;fill:#2a222f;fill-opacity:1;stroke-width:0.275863"
       d="m 128.2459,74.83801 c 0,0 4.11699,1.594001 5.46626,9.441127 0.37873,2.202613 -0.32046,5.540066 -0.32046,5.540066 0,0 2.83801,-3.83539 3.03756,-10.74185 0.14887,-5.151766 -0.76385,-9.753342 -1.40889,-12.104148 -0.64504,-2.350806 -1.83583,-4.387036 -3.27082,-6.249637 -1.33205,-1.728986 -2.99075,-3.248238 -4.83503,-4.415448 -1.76675,-1.118142 -3.78071,-1.853353 -5.80528,-2.37559 -1.64468,-0.424242 -3.10772,-0.249265 -5.06102,-0.592132 -3.05225,-0.535775 -5.08275,-1.250161 -8.51974,-0.850063 -3.437,0.400096 -8.631546,1.902572 -11.351991,3.270721 -2.720444,1.36815 -3.54594,2.680358 -5.120443,4.200927 -1.574503,1.52057 -3.201887,3.302952 -4.320809,5.527249 -1.118922,2.224297 -1.971058,4.600765 -2.468987,7.035881 -0.471969,2.30816 -0.375668,4.681742 -0.465482,7.052415 0,1.608532 0.293592,4.951698 0.640917,6.252142 0.347325,1.300445 1.79499,6.566859 2.340784,7.767269 0.545796,1.200414 2.565442,3.553924 2.565442,3.553924 l 2.668863,2.169033 c 0,0 -1.499052,-2.665053 -2.144084,-3.615384 -0.645031,-0.950324 -1.587893,-2.879944 -1.808906,-4.47299 -0.219306,-1.580745 -0.08825,-3.57701 0.518858,-4.759457 0.607105,-1.182448 1.974092,-1.747487 1.974092,-1.747487 0,0 1.313868,-0.274066 1.950694,-0.135197 1.020124,0.222453 2.750939,1.497858 2.750939,1.497858 0,0 1.140962,-8.210179 2.642656,-9.077182 0.608131,-0.351104 1.155828,1.676858 1.502274,1.476837 0,0 2.970213,-3.883509 3.268283,-3.707041 0,0 2.03298,3.478471 2.03298,4.993603 0,1.515132 6.90866,-5.066719 7.06197,-5.157482 0,0 2.97307,4.888908 3.35344,4.990827 0.31918,-0.319178 5.4421,-5.199957 6.70569,-5.92949 1.26461,-0.730125 2.17749,-0.665895 2.97107,-0.573575 0.79357,0.09231 2.24177,1.006229 2.24177,1.006229"
       id="path3"
       inkscape:label="rambut"
       sodipodi:nodetypes="cscssaaasccscasssccsaccacscszscscc" /></g></svg>
