<?xml version="1.0" encoding="UTF-8" standalone="no"?>
<!-- Created with Inkscape (http://www.inkscape.org/) -->

<svg
   width="1000"
   height="1000"
   viewBox="0 0 1000 1000"
   version="1.1"
   id="svg1"
   xml:space="preserve"
   inkscape:version="1.3.2 (091e20ef0f, 2023-11-25)"
   sodipodi:docname="tangan1.svg"
   xmlns:inkscape="http://www.inkscape.org/namespaces/inkscape"
   xmlns:sodipodi="http://sodipodi.sourceforge.net/DTD/sodipodi-0.dtd"
   xmlns="http://www.w3.org/2000/svg"
   xmlns:svg="http://www.w3.org/2000/svg"><sodipodi:namedview
     id="namedview1"
     pagecolor="#ffffff"
     bordercolor="#cccccc"
     borderopacity="1"
     inkscape:showpageshadow="0"
     inkscape:pageopacity="1"
     inkscape:pagecheckerboard="0"
     inkscape:deskcolor="#d1d1d1"
     inkscape:document-units="px"
     inkscape:zoom="1.1180556"
     inkscape:cx="576.8944"
     inkscape:cy="625.63974"
     inkscape:window-width="1920"
     inkscape:window-height="1011"
     inkscape:window-x="0"
     inkscape:window-y="0"
     inkscape:window-maximized="1"
     inkscape:current-layer="layer1" /><defs
     id="defs1" /><g
     inkscape:label="Layer 1"
     inkscape:groupmode="layer"
     id="layer1"><path
       style="display:inline;opacity:1;fill:#ffccaa;stroke-width:6.22944"
       d="m 438.88865,997.58671 c 0,-7.63332 -71.73917,-204.66016 -71.73917,-204.66016 0,0 -286.153058,-112.80095 -349.420465,-254.08569 C -5.3386311,487.32767 113.35193,478.74082 213.74863,515.0575 189.60403,402.90957 97.987169,214.57711 174.22398,177.02236 c 76.23681,-37.55476 124.27197,70.34255 132.02069,94.03886 7.74872,23.69632 40.32491,97.00908 40.32491,97.00908 0,0 -65.19854,-272.767346 -19.95662,-323.715007 45.24192,-50.9476591 92.29599,-34.222886 113.74156,-3.000996 21.44557,31.22189 92.68072,261.221213 92.68072,261.221213 0,0 -54.98745,-183.51854 11.44995,-211.781749 33.21869,-14.131603 97.95323,-51.689568 130.46567,73.581249 16.25623,62.6354 36.64362,181.94293 36.64362,181.94293 0,0 -18.10163,-108.58227 40.08925,-109.94202 29.09547,-0.67987 78.26749,13.31778 84.46323,174.01057 3.0979,80.34638 -0.32704,218.5333 -58.24744,315.07442 13.25263,65.93457 36.82589,185.94025 37.90814,187.0864"
       id="path1"
       sodipodi:nodetypes="ccscsscsscsscsscc" /></g></svg>
