<?xml version="1.0" encoding="UTF-8" standalone="no"?>
<!-- Created with Inkscape (http://www.inkscape.org/) -->

<svg
   width="1000"
   height="1000"
   viewBox="0 0 1000 1000"
   version="1.1"
   id="svg1"
   xml:space="preserve"
   inkscape:version="1.3.2 (091e20ef0f, 2023-11-25)"
   sodipodi:docname="tangan2.svg"
   xmlns:inkscape="http://www.inkscape.org/namespaces/inkscape"
   xmlns:sodipodi="http://sodipodi.sourceforge.net/DTD/sodipodi-0.dtd"
   xmlns="http://www.w3.org/2000/svg"
   xmlns:svg="http://www.w3.org/2000/svg"><sodipodi:namedview
     id="namedview1"
     pagecolor="#ffffff"
     bordercolor="#cccccc"
     borderopacity="1"
     inkscape:showpageshadow="0"
     inkscape:pageopacity="1"
     inkscape:pagecheckerboard="0"
     inkscape:deskcolor="#d1d1d1"
     inkscape:document-units="px"
     inkscape:zoom="1.1180556"
     inkscape:cx="576.8944"
     inkscape:cy="625.63974"
     inkscape:window-width="1920"
     inkscape:window-height="1011"
     inkscape:window-x="0"
     inkscape:window-y="0"
     inkscape:window-maximized="1"
     inkscape:current-layer="layer1" /><defs
     id="defs1" /><g
     inkscape:label="Layer 1"
     inkscape:groupmode="layer"
     id="layer1"><path
       style="display:inline;opacity:1;fill:#ffccaa;stroke-width:6.22944"
       d="m 438.88865,997.58671 c 0,-7.63332 -71.73917,-204.66016 -71.73917,-204.66016 0,0 -195.91548,-91.11151 -228.462,-186.99097 -18.14268,-53.44687 27.19706,-127.8446 75.06115,-90.87808 -11.72418,-67.67899 -22.20121,-117.76905 12.37209,-146.60347 27.90695,-23.27462 74.40348,-38.73741 89.03661,-28.65601 11.75179,8.09632 31.41225,28.27228 31.41225,28.27228 0,0 -25.91826,-70.68679 29.26737,-110.64979 40.76987,-29.52375 92.29599,-34.22289 113.74156,-3.001 21.44557,31.22189 43.45673,48.156 43.45673,48.156 0,0 3.28545,-47.00224 69.72285,-75.26545 33.21869,-14.1316 75.83094,17.69722 87.87988,48.93956 17.11013,44.36574 20.95651,70.06832 20.95651,70.06832 0,0 5.35916,-33.53918 63.55004,-34.89893 29.09547,-0.67987 59.69451,60.43851 60.09056,107.1115 0.68227,80.40319 0.58484,210.38928 -57.33556,306.9304 13.25263,65.93457 36.82589,185.94025 37.90814,187.0864"
       id="path1"
       sodipodi:nodetypes="ccscsscsscsscsscc" /></g></svg>
