<svg xmlns="http://www.w3.org/2000/svg" width="2321" height="1080" viewBox="0 0 2321 1080">
  <defs>
    <style>
      .cls-1 {
        fill: #463c3c;
      }

      .cls-1, .cls-2, .cls-3, .cls-4, .cls-5, .cls-6, .cls-7, .cls-8, .cls-9 {
        fill-rule: evenodd;
      }

      .cls-2 {
        fill: #669971;
      }

      .cls-3 {
        fill: #b9d0e9;
      }

      .cls-4 {
        fill: #d8d8d8;
      }

      .cls-5 {
        fill: #1a1934;
      }

      .cls-6 {
        fill: #6d6e9c;
      }

      .cls-7 {
        fill: #a5544d;
      }

      .cls-8 {
        fill: #181733;
      }

      .cls-9 {
        fill: none;
        stroke: #37375b;
        stroke-width: 3px;
      }
    </style>
  </defs>
  <g id="mobil_1_copy" data-name="mobil 1 copy">
    <path class="cls-1" d="M2238.22,942.087v6.991l-779.44.955c-0.65,0-1.26,1.042-1.89,1.043-21.56.026-33.89,0-33.89,0v-6.992Z"/>
    <path class="cls-2" d="M2237.25,897.142s2.15,35.69.97,47.941l-782.3,2-30.02-1s4.59-88.89,7.75-97.881c0,0,9.8-20.417,13.55-22.972l66.81,1s53.94-116.341,77.46-137.831c0,0,31.86-30.713,54.22-32.96,0,0,107.14-2.124,255.6,3,0,0,42.68,5.79,66.81,31.961l112.31,139.829,127.8,2s23.13,0.819,25.17,17.978l0.97,12.984Z"/>
    <g id="Jendela">
      <path class="cls-3" d="M1754.12,835.217h-191.7s20.9-82.076,52.28-135.834c0,0,24-16.67,32.92-18.977h107.47Z"/>
      <path class="cls-3" d="M1787.04,680.406V834.218h220.75s-17.02-54.994-51.31-111.863c0,0-20.66-37.4-41.64-39.951Z"/>
      <path class="cls-3" d="M1965.19,687.4s30.11,40.756,75.52,142.825h38.73C2080.11,830.017,1989.53,715.081,1965.19,687.4Z"/>
      <path class="cls-4" d="M2234.35,863.183s-6.67-.2-7.75,10.987c0,0-1.09,11.571.97,16.979,0,0,2.27,5.957,6.78,5.993,0,0,4.5.7,5.81-8.989,0,0,.8-10.039,0-14.982C2240.16,873.171,2239.46,864.734,2234.35,863.183Z"/>
      <path class="cls-5" d="M2007.79,822.233V848.2H1968.1V822.233h39.69ZM1830.61,848.2v6.992h-28.08V848.2C1803.07,848.122,1830.61,848.2,1830.61,848.2Zm-192.67,0v6.992h-27.11V848.2h27.11Z"/>
      <path class="cls-6" d="M1427.84,918.116s-3.79,7.585-4.84,8.989v20.974h33.89V935.1s-3.61-6.981-10.65-7.99h-15.49S1427.98,920.611,1427.84,918.116Z"/>
      <path class="cls-6" d="M2237.25,910.126s-0.06,8.249-2.9,10.986c0,0-14.09,1.56-22.27,4,0,0-4.53,2.568-4.84,4.994v16.98s1.98,2.616,2.9,3h28.08s6.16-2.179,6.78-4.994V917.117Z"/>
      <path class="cls-7" d="M1452.05,871.173l-1.94,39.951-17.43-1,1.94-38.953h17.43Z"/>
    </g>
    <g id="ban_2" data-name="ban 2">
      <path class="cls-8" d="M1607.93,901.144c-33.15-.065-60.02,24.924-60.02,55.814s26.87,55.982,60.02,56.052,60.02-24.927,60.02-55.817S1641.08,901.209,1607.93,901.144Z"/>
      <path id="Ellipse_1_copy" data-name="Ellipse 1 copy" class="cls-6" d="M1607.92,916.105c-24.06-.048-43.57,18.475-43.57,41.372s19.51,41.5,43.57,41.546,43.57-18.475,43.57-41.372S1631.98,916.153,1607.92,916.105Z"/>
      <path id="Ellipse_1_copy_2" data-name="Ellipse 1 copy 2" class="cls-9" d="M1608.16,925.1c-18.05-.036-32.68,13.937-32.68,31.21s14.63,31.3,32.68,31.341,32.68-13.937,32.68-31.21S1626.21,925.134,1608.16,925.1Z"/>
    </g>
    <g id="ban_1" data-name="ban 1">
      <path class="cls-8" d="M2070.73,901.144c-33.15-.065-60.02,24.924-60.02,55.814s26.87,55.982,60.02,56.052,60.02-24.927,60.02-55.817S2103.88,901.209,2070.73,901.144Z"/>
      <path id="Ellipse_1_copy-2" data-name="Ellipse 1 copy" class="cls-6" d="M2070.72,916.105c-24.07-.048-43.57,18.475-43.57,41.372s19.5,41.5,43.57,41.546,43.57-18.475,43.57-41.372S2094.78,916.153,2070.72,916.105Z"/>
      <path id="Ellipse_1_copy_2-2" data-name="Ellipse 1 copy 2" class="cls-9" d="M2070.96,925.1c-18.05-.036-32.68,13.937-32.68,31.21s14.63,31.3,32.68,31.341,32.68-13.937,32.68-31.21S2089.01,925.134,2070.96,925.1Z"/>
    </g>
  </g>
</svg>
