<svg xmlns="http://www.w3.org/2000/svg" width="2321" height="1080" viewBox="0 0 2321 1080">
  <defs>
    <style>
      .cls-1 {
        fill: #463c3c;
      }

      .cls-1, .cls-2, .cls-3, .cls-4, .cls-5, .cls-6, .cls-7, .cls-8, .cls-9 {
        fill-rule: evenodd;
      }

      .cls-2 {
        fill: #6c64a6;
      }

      .cls-3 {
        fill: #b9d0e9;
      }

      .cls-4 {
        fill: #d8d8d8;
      }

      .cls-5 {
        fill: #1a1934;
      }

      .cls-6 {
        fill: #6d6e9c;
      }

      .cls-7 {
        fill: #a5544d;
      }

      .cls-8 {
        fill: #181733;
      }

      .cls-9 {
        fill: none;
        stroke: #37375b;
        stroke-width: 3px;
      }
    </style>
  </defs>
  <g id="mobil_1_copy_3" data-name="mobil 1 copy 3">
    <path class="cls-1" d="M131.588,906.087v6.991l757.636,0.955c0.633,0,1.22,1.042,1.837,1.043,20.956,0.026,32.939,0,32.939,0v-6.992Z"/>
    <path class="cls-2" d="M132.529,861.142s-2.084,35.69-.941,47.941l760.414,2,29.175-1s-4.461-88.89-7.529-97.881c0,0-9.523-20.417-13.176-22.972l-64.936,1S783.1,673.887,760.247,652.4c0,0-30.974-30.713-52.7-32.96,0,0-104.151-2.124-248.452,3,0,0-41.488,5.79-64.936,31.961L284.988,794.223l-124.226,2s-22.482.819-24.469,17.978l-0.941,12.984Z"/>
    <g id="Jendela">
      <path class="cls-3" d="M602.141,799.217h186.34s-20.312-82.076-50.82-135.834c0,0-23.323-16.67-32-18.977H601.2Z"/>
      <path class="cls-3" d="M570.144,644.406V798.218H355.571s16.55-54.994,49.879-111.863c0,0,20.078-37.4,40.468-39.951Z"/>
      <path class="cls-3" d="M396.98,651.4s-29.267,40.756-73.406,142.825H285.929C285.28,794.017,373.326,679.081,396.98,651.4Z"/>
      <path class="cls-4" d="M135.352,827.183s6.485-.2,7.529,10.987c0,0,1.068,11.571-.941,16.979,0,0-2.2,5.957-6.588,5.993,0,0-4.376.7-5.646-8.989,0,0-.776-10.039,0-14.982C129.706,837.171,130.384,828.734,135.352,827.183Z"/>
      <path class="cls-5" d="M355.571,786.233V812.2h38.586V786.233H355.571ZM527.794,812.2v6.992h27.292V812.2C554.565,812.122,527.794,812.2,527.794,812.2Zm187.28,0v6.992h26.351V812.2H715.074Z"/>
      <path class="cls-6" d="M919.294,882.116s3.688,7.585,4.706,8.989v20.974H891.061V899.1s3.508-6.981,10.352-7.99h15.058S919.156,884.611,919.294,882.116Z"/>
      <path class="cls-6" d="M132.529,874.126s0.066,8.249,2.823,10.986c0,0,13.7,1.56,21.646,4,0,0,4.4,2.568,4.705,4.994v16.98s-1.925,2.616-2.823,3H131.588s-5.983-2.179-6.588-4.994V881.117Z"/>
      <path class="cls-7" d="M895.767,835.173l1.882,39.951,16.94-1-1.882-38.953h-16.94Z"/>
    </g>
    <g id="ban_2" data-name="ban 2">
      <path class="cls-8" d="M744.243,865.144c32.222-.065,58.344,24.924,58.344,55.814s-26.122,55.984-58.344,56.049S685.9,952.083,685.9,921.193,712.021,865.209,744.243,865.144Z"/>
      <path id="Ellipse_1_copy" data-name="Ellipse 1 copy" class="cls-6" d="M744.255,880.105c23.391-.048,42.353,18.475,42.353,41.372s-18.962,41.5-42.353,41.546S701.9,944.548,701.9,921.651,720.865,880.153,744.255,880.105Z"/>
      <path id="Ellipse_1_copy_2" data-name="Ellipse 1 copy 2" class="cls-9" d="M744.02,889.1a31.446,31.446,0,0,1,31.767,31.21c0,17.273-14.222,31.3-31.767,31.341a31.446,31.446,0,0,1-31.767-31.21C712.253,903.165,726.476,889.134,744.02,889.1Z"/>
    </g>
    <g id="ban_1" data-name="ban 1">
      <path class="cls-8" d="M294.394,865.144c32.222-.065,58.343,24.924,58.343,55.814s-26.121,55.984-58.343,56.049-58.343-24.924-58.343-55.814S262.172,865.209,294.394,865.144Z"/>
      <path id="Ellipse_1_copy-2" data-name="Ellipse 1 copy" class="cls-6" d="M294.406,880.105c23.391-.048,42.352,18.475,42.352,41.372s-18.961,41.5-42.352,41.546-42.352-18.475-42.352-41.372S271.015,880.153,294.406,880.105Z"/>
      <path id="Ellipse_1_copy_2-2" data-name="Ellipse 1 copy 2" class="cls-9" d="M294.171,889.1a31.446,31.446,0,0,1,31.767,31.21c0,17.273-14.222,31.3-31.767,31.341a31.446,31.446,0,0,1-31.767-31.21C262.4,903.165,276.627,889.134,294.171,889.1Z"/>
    </g>
  </g>
</svg>
