<svg xmlns="http://www.w3.org/2000/svg" width="2321" height="1080" viewBox="0 0 2321 1080">
  <defs>
    <style>
      .cls-1 {
        fill: #463c3c;
      }

      .cls-1, .cls-2, .cls-3, .cls-4, .cls-5, .cls-6, .cls-7, .cls-8, .cls-9 {
        fill-rule: evenodd;
      }

      .cls-2 {
        fill: #648ca6;
      }

      .cls-3 {
        fill: #b9d0e9;
      }

      .cls-4 {
        fill: #d8d8d8;
      }

      .cls-5 {
        fill: #1a1934;
      }

      .cls-6 {
        fill: #6d6e9c;
      }

      .cls-7 {
        fill: #a5544d;
      }

      .cls-8 {
        fill: #181733;
      }

      .cls-9 {
        fill: none;
        stroke: #37375b;
        stroke-width: 3px;
      }
    </style>
  </defs>
  <g id="mobil_1_copy_2" data-name="mobil 1 copy 2">
    <path class="cls-1" d="M82,906v7l805.048,0.956c0.673,0,1.3,1.043,1.952,1.044,22.267,0.026,35,0,35,0v-7Z"/>
    <path class="cls-2" d="M83,861s-2.215,35.734-1,48l808,2,31-1s-4.74-89-8-98c0,0-10.119-20.442-14-23l-69,1s-55.713-116.483-80-138c0,0-32.913-30.75-56-33,0,0-110.669-2.127-264,3,0,0-44.084,5.8-69,32L245,794l-132,2s-23.889.82-26,18l-1,13Z"/>
    <g id="Jendela">
      <path class="cls-3" d="M582,799H780s-21.582-82.176-54-136c0,0-24.782-16.691-34-19H581Z"/>
      <path class="cls-3" d="M548,644V798H320s17.585-55.062,53-112c0,0,21.335-37.442,43-40Z"/>
      <path class="cls-3" d="M364,651s-31.1,40.806-78,143H246C245.31,793.793,338.866,678.717,364,651Z"/>
      <path class="cls-4" d="M86,827s6.891-.2,8,11c0,0,1.135,11.585-1,17,0,0-2.341,5.964-7,6,0,0-4.65.7-6-9,0,0-.824-10.051,0-15C80,837,80.721,828.553,86,827Z"/>
      <path class="cls-5" d="M320,786v26h41V786H320Zm183,26v7h29v-7C531.447,811.921,503,812,503,812Zm199,0v7h28v-7H702Z"/>
      <path class="cls-6" d="M919,882s3.919,7.6,5,9v21H889V899s3.728-6.989,11-8h16S918.853,884.5,919,882Z"/>
      <path class="cls-6" d="M83,874s0.07,8.26,3,11c0,0,14.558,1.561,23,4,0,0,4.679,2.571,5,5v17s-2.045,2.62-3,3H82s-6.357-2.182-7-5V881Z"/>
      <path class="cls-7" d="M894,835l2,40,18-1-2-39H894Z"/>
    </g>
    <g id="ban_2" data-name="ban 2">
      <path class="cls-8" d="M732.994,865.007c34.239-.065,62,24.955,62,55.883s-27.756,56.052-61.995,56.117S671,952.053,671,921.125,698.756,865.072,732.994,865.007Z"/>
      <path id="Ellipse_1_copy" data-name="Ellipse 1 copy" class="cls-6" d="M733.007,879.986c24.854-.048,45,18.5,45,41.423s-20.149,41.548-45,41.6-45-18.5-45-41.422S708.153,880.035,733.007,879.986Z"/>
      <path id="Ellipse_1_copy_2" data-name="Ellipse 1 copy 2" class="cls-9" d="M732.758,888.99c18.642-.037,33.754,13.954,33.754,31.248S751.4,951.58,732.758,951.617,699,937.663,699,920.369,714.115,889.026,732.758,888.99Z"/>
    </g>
    <g id="ban_1" data-name="ban 1">
      <path class="cls-8" d="M254.994,865.007c34.239-.065,61.995,24.955,61.995,55.883s-27.756,56.052-61.995,56.117S193,952.053,193,921.125,220.756,865.072,254.994,865.007Z"/>
      <path id="Ellipse_1_copy-2" data-name="Ellipse 1 copy" class="cls-6" d="M255.007,879.986c24.854-.048,45,18.5,45,41.423s-20.149,41.548-45,41.6-45-18.5-45-41.422S230.153,880.035,255.007,879.986Z"/>
      <path id="Ellipse_1_copy_2-2" data-name="Ellipse 1 copy 2" class="cls-9" d="M254.758,888.99c18.642-.037,33.754,13.954,33.754,31.248S273.4,951.58,254.758,951.617,221,937.663,221,920.369,236.115,889.026,254.758,888.99Z"/>
    </g>
  </g>
</svg>
