<svg xmlns="http://www.w3.org/2000/svg" width="1920" height="1080" viewBox="0 0 1920 1080">
  <defs>
    <style>
      .cls-1 {
        fill: #585d7c;
      }

      .cls-2 {
        fill: #686d8b;
      }

      .cls-3 {
        fill: #dcf5f7;
      }

      .cls-10, .cls-11, .cls-12, .cls-13, .cls-14, .cls-15, .cls-16, .cls-17, .cls-18, .cls-3, .cls-4, .cls-5, .cls-6, .cls-7, .cls-8, .cls-9 {
        fill-rule: evenodd;
      }

      .cls-4 {
        fill: #b79174;
      }

      .cls-5 {
        fill: #9cacde;
      }

      .cls-6 {
        fill: #b7a874;
      }

      .cls-7 {
        fill: #837365;
      }

      .cls-8 {
        fill: #dbde9c;
      }

      .cls-9 {
        fill: #de9c9c;
      }

      .cls-10 {
        fill: #8a9cd5;
      }

      .cls-11 {
        fill: #575a62;
      }

      .cls-12 {
        fill: #99a9a6;
      }

      .cls-13 {
        fill: #99a6a9;
      }

      .cls-14 {
        fill: #8397a0;
      }

      .cls-15 {
        fill: #828da9;
      }

      .cls-16 {
        fill: #b1bcd8;
      }

      .cls-17 {
        fill: none;
        stroke: #374850;
        stroke-width: 8px;
      }

      .cls-18 {
        fill: #374850;
      }
    </style>
  </defs>
  <g>
    <rect class="cls-1" x="1366" y="776" width="136" height="172"/>
    <rect class="cls-2" x="516" y="776" width="852" height="172"/>
  </g>
  <g id="Makanan">
    <path class="cls-3" d="M827.98,772.411l608.96-2-2-138.763-554.964,1Z"/>
    <g>
      <path class="cls-4" d="M1297.95,691.508s2.31-13.663,29-7.951l2,5.963-2,3.976Z"/>
      <path class="cls-4" d="M1327.95,692.547s8.93-18.3,20.99-2Z"/>
      <path class="cls-4" d="M1359.94,690.551l-3-5.99-6-2h-6l-4,3,3,4.992,6,2Z"/>
      <path class="cls-5" d="M1312.95,768.417V749.45l19,1h34.99v16.971Z"/>
      <path class="cls-6" d="M1385.94,691.549s-7.25-21.819-17-1l7,3Z"/>
      <path class="cls-7" d="M1374.94,681.566h35v2h9l4,3.993-1,2-1,1-28,2-8-1Z"/>
      <path class="cls-7" d="M1215.95,761.429l-7-25.955,4-2,8,28.951Z"/>
      <path class="cls-7" d="M1168.96,735.474h4l-10,27.952-2-1Z"/>
      <path class="cls-7" d="M1132.96,735.474l3-2v29.949l-3-1V735.474Z"/>
      <path class="cls-8" d="M875.977,675.576s5.186,8.176,18,8.985h7s12.572-1.16,17-8.985c0,0,16.58,1.048,1,13.976,0,0-11.976,14.5-40,4.992C878.977,694.544,858.327,684.894,875.977,675.576Z"/>
      <path id="Shape_32_copy" data-name="Shape 32 copy" class="cls-8" d="M892.124,678.571s5.2,8.1,18.058,8.9h7.023s12.614-1.148,17.055-8.9c0,0,16.635,1.037,1,13.839,0,0-12.015,14.361-40.129,4.942C895.134,697.352,874.417,687.8,892.124,678.571Z"/>
      <path id="Shape_32_copy_2" data-name="Shape 32 copy 2" class="cls-8" d="M906.15,677.573s5.2,8.083,18.049,8.883h7.018s12.607-1.146,17.046-8.883c0,0,16.626,1.035,1,13.819,0,0-12.009,14.34-40.108,4.935C909.158,696.327,888.453,686.786,906.15,677.573Z"/>
      <path class="cls-9" d="M983.969,695.542s6.246-14.417-8-13.976c0,0-3.744-7.587-6-7.986l3,6.988-4,3-3,5.989v4.992Z"/>
      <path id="Shape_33_copy" data-name="Shape 33 copy" class="cls-9" d="M1006.62,694.544s6.12-14.417-7.845-13.976c0,0-3.672-7.587-5.884-7.987l2.942,6.989-3.922,2.994-2.942,5.99v4.992Z"/>
      <path id="Shape_33_copy_2" data-name="Shape 33 copy 2" class="cls-9" d="M1028.62,694.544s6.12-14.417-7.85-13.976c0,0-3.67-7.587-5.88-7.987l2.94,6.989-3.92,2.994-2.94,5.99v4.992Z"/>
      <path class="cls-6" d="M1139.96,629.655l2-9.983,14-3.993s5.76,1.565,7,2,3.21,2.466,4,4.992,0.5,2.871,2,4.991,2,2,2,2h-31Z"/>
      <path class="cls-6" d="M1188.95,628.657l-1.99-3-6-3.993-7-1s1.67-3.6-3-1-7.87,3.211-7,4.991,2,3.994,2,3.994-5.48,1.291,4,1S1188.95,628.657,1188.95,628.657Z"/>
      <path class="cls-6" d="M1217.95,628.657l-16-15.973-9,2-6.99,4.991,4.99,5.99v2l10,2-5,2Z"/>
      <path class="cls-6" d="M1234.95,628.657l-8-9.983-9,1s-2.43.436-2,1,1,4.992,1,4.992v2s-0.74,2.082,3,2S1234.95,628.657,1234.95,628.657Z"/>
      <path class="cls-10" d="M1258.95,629.655l-1-12.978h19l-1,12.978h-17Z"/>
      <path class="cls-11" d="M1258.95,629.655l-3-21.963h2l3,20.965Z"/>
      <path class="cls-11" d="M1273.95,628.657l2-20.965,2,1-2,19.966h-2Z"/>
      <path class="cls-11" d="M1255.95,607.692h21v2l-21-1v-1Z"/>
    </g>
    <g>
      <path class="cls-12" d="M1293.95,700.454l-4-8.946,141.99-.994-3,7.952Z"/>
      <path class="cls-12" d="M1108.96,768.042l-3-6.957,88.99,0.994-4,6.957Z"/>
      <path class="cls-13" d="M1204.95,767.048l-3-4.969,51-.994-2,6.957"/>
      <path class="cls-14" d="M882.976,767.048l-6-16.9,62,0.994-8,16.9Z"/>
      <path class="cls-14" d="M973.97,765.06h53l-2-11.927-6-.994-3-7.951-28,.993v2.982s-6.7.946-8,1.988S973.97,765.06,973.97,765.06Z"/>
      <path class="cls-15" d="M956.971,700.454l-1-6.958h88l-3,8.946Z"/>
      <path class="cls-15" d="M1122.06,683.478c0.9,0.079,59.9-.915,59.9-0.915s1.63,17.639-7,19.879C1174.74,702.423,1110.62,710.638,1122.06,683.478Z"/>
      <path class="cls-16" d="M646.993,775l7-3.976-7-2.982,5-2.982-8-2.981,11-4.97-10-1.988,9-4.97-10-.994,10-5.963h-11l9-5.964L541,738.224l10,4.97-10,.994,12,4.969-11,3.976,15,0.994-15,6.958,11,0.994-11,7.951,9-.994L544,775H646.993Z"/>
    </g>
    <g>
      <path class="cls-17" d="M824.98,771.412l54-139.761,412.973,1,143.99-1,2,139.761H824.98Z"/>
      <path class="cls-18" d="M854.978,700.534H1058.96v5.989H854.978v-5.989Z"/>
      <path id="Rectangle_27_copy" data-name="Rectangle 27 copy" class="cls-18" d="M1058.96,700.534h220.99v5.989H1058.96v-5.989Z"/>
      <path id="Rectangle_27_copy_2" data-name="Rectangle 27 copy 2" class="cls-18" d="M1279.81,700.326l158.95-3.576,0.14,5.988-158.95,3.576Z"/>
      <path id="Rectangle_27_copy_3" data-name="Rectangle 27 copy 3" class="cls-18" d="M1262.17,771.384l26.79-140.538,5.88,1.147-26.78,140.538Z"/>
      <path id="Rectangle_27_copy_4" data-name="Rectangle 27 copy 4" class="cls-18" d="M1042.97,770.26l27.04-140.6,5.94,1.148-27.04,140.6Z"/>
    </g>
  </g>
</svg>
