<svg xmlns="http://www.w3.org/2000/svg" width="1920" height="1080" viewBox="0 0 1920 1080">
  <defs>
    <style>
      .cls-1 {
        fill: #222f41;
      }

      .cls-2 {
        fill: #264558;
      }

      .cls-3 {
        fill: #e5fdff;
      }

      .cls-4 {
        fill: #b1d6da;
      }

      .cls-14, .cls-5 {
        fill: #ff9470;
      }

      .cls-6 {
        fill: #071220;
      }

      .cls-13, .cls-7 {
        fill: #bede9c;
      }

      .cls-8 {
        fill: #ff7070;
      }

      .cls-9 {
        fill: #a69cde;
      }

      .cls-10 {
        fill: #8aff70;
      }

      .cls-11, .cls-17 {
        fill: #9cded3;
      }

      .cls-12 {
        fill: #5a737e;
      }

      .cls-13, .cls-14, .cls-15, .cls-16, .cls-17, .cls-18 {
        fill-rule: evenodd;
      }

      .cls-15 {
        fill: #9cacde;
      }

      .cls-16 {
        fill: #8170ff;
      }

      .cls-18 {
        fill: #71bdd0;
      }

      .cls-19 {
        fill: #3f6988;
      }

      .cls-20 {
        fill: #445a6d;
      }
    </style>
  </defs>
  <g id="Mechine">
    <g>
      <rect class="cls-1" x="1497" y="546" width="237" height="399"/>
      <rect class="cls-2" x="1496" y="546" width="226" height="399"/>
      <rect class="cls-3" x="1521" y="567" width="162" height="292"/>
      <rect class="cls-4" x="1691" y="754" width="23" height="29"/>
      <rect class="cls-5" x="1691" y="731" width="23" height="15"/>
      <rect class="cls-6" x="1558" y="879" width="88" height="28"/>
    </g>
    <g>
      <rect class="cls-5" x="1630" y="784" width="18" height="37"/>
      <rect class="cls-7" x="1653" y="784" width="19" height="37"/>
      <rect id="Rectangle_8_copy" data-name="Rectangle 8 copy" class="cls-8" x="1626" y="666" width="18" height="30"/>
      <rect id="Rectangle_9_copy" data-name="Rectangle 9 copy" class="cls-9" x="1649" y="666" width="19" height="30"/>
      <rect id="Rectangle_8_copy_2" data-name="Rectangle 8 copy 2" class="cls-10" x="1573" y="666" width="18" height="30"/>
      <rect id="Rectangle_9_copy_2" data-name="Rectangle 9 copy 2" class="cls-11" x="1596" y="666" width="19" height="30"/>
      <rect class="cls-12" x="1533" y="821" width="140" height="7"/>
      <rect id="Rectangle_13_copy" data-name="Rectangle 13 copy" class="cls-12" x="1533" y="753" width="140" height="7"/>
      <rect id="Rectangle_13_copy_2" data-name="Rectangle 13 copy 2" class="cls-12" x="1533" y="696" width="140" height="7"/>
      <rect id="Rectangle_13_copy_3" data-name="Rectangle 13 copy 3" class="cls-12" x="1533" y="643" width="140" height="7"/>
      <path class="cls-13" d="M1537,753V717l3,2,28,2,4-2-3,34h-32Z"/>
      <path class="cls-14" d="M1580,753s-1.64-17.236-.3-22.2a4.208,4.208,0,0,1,.3-0.8c1.86-3.455-1-4-1-4h5l29-1-2,7s0.41,18.442,0,21h-31Z"/>
      <path class="cls-15" d="M1636.14,753s-0.35-24.895-2.14-29.931l6.43,1.069,21.43-1.069L1664,722v2.138L1662.93,753h-26.79Z"/>
      <path class="cls-15" d="M1559,643l-2-22h23v22h-21Z"/>
      <path class="cls-16" d="M1590,617s-2.25,9.229-2.17,14.875c0.09,6.081.17,11.125,0.17,11.125h20l-1-21-4-6h-6Z"/>
      <path class="cls-14" d="M1613,617h20v3l3,22-25,1,1-2-1-25Z"/>
      <path class="cls-17" d="M1640,618h21l-1,3,2,21h-2l-18,2-3-3-2-22Z"/>
    </g>
    <g id="Group_4_copy" data-name="Group 4 copy">
      <path class="cls-18" d="M1577,785s1.85-5.04,6.46-5a7.637,7.637,0,0,1,7.54,5v36h-14V785Z"/>
      <rect class="cls-19" x="1581" y="776" width="6" height="5"/>
      <rect class="cls-20" x="1577" y="794" width="14" height="13"/>
    </g>
    <g>
      <path class="cls-18" d="M1596,785s1.85-5.04,6.46-5a7.637,7.637,0,0,1,7.54,5v36h-14V785Z"/>
      <rect class="cls-19" x="1600" y="776" width="6" height="5"/>
      <rect class="cls-20" x="1596" y="794" width="14" height="13"/>
    </g>
    <g id="Group_4_copy_2" data-name="Group 4 copy 2">
      <path class="cls-18" d="M1558,785s1.85-5.04,6.46-5a7.637,7.637,0,0,1,7.54,5v36h-14V785Z"/>
      <rect class="cls-19" x="1562" y="776" width="6" height="5"/>
      <rect class="cls-20" x="1558" y="794" width="14" height="13"/>
    </g>
  </g>
</svg>
