<svg xmlns="http://www.w3.org/2000/svg" width="1920" height="1080" viewBox="0 0 1920 1080">
  <defs>
    <style>
      .cls-1 {
        fill: #b1bcd8;
      }

      .cls-1, .cls-10, .cls-11, .cls-12, .cls-13, .cls-2, .cls-3, .cls-4, .cls-5, .cls-6, .cls-7, .cls-8, .cls-9 {
        fill-rule: evenodd;
      }

      .cls-2 {
        fill: #5dbe9a;
      }

      .cls-3 {
        fill: #5ab794;
      }

      .cls-4 {
        fill: #5a71b7;
      }

      .cls-5 {
        fill: #71bdd0;
      }

      .cls-6 {
        fill: #3f6988;
      }

      .cls-7 {
        fill: #445a6d;
      }

      .cls-8 {
        fill: #d09471;
      }

      .cls-9 {
        fill: #a8b352;
      }

      .cls-10 {
        fill: #be5d5d;
      }

      .cls-11 {
        fill: #767097;
      }

      .cls-12 {
        fill: #47555b;
      }

      .cls-13 {
        fill: #cdd4c3;
        stroke: #5e6456;
        stroke-width: 8px;
      }

      .cls-14 {
        font-size: 18px;
        text-anchor: middle;
      }

      .cls-14, .cls-15 {
        fill: #5c5c5c;
        font-family: "Arial Rounded MT Bold";
      }

      .cls-15 {
        font-size: 11.274px;
      }
    </style>
  </defs>
  <g>
    <path id="Shape_22_copy" data-name="Shape 22 copy" class="cls-1" d="M1428.46,482.906l4.85-5.148-4.85-3.861,3.46-3.861-5.54-3.861,7.62-6.434-6.93-2.574,6.24-6.435-6.93-1.287,6.93-7.722h-7.63l6.24-7.722L1355,435.288l6.93,6.435L1355,443.01l8.32,6.435-7.63,5.148,10.4,1.287-10.4,9.009,7.63,1.286-7.63,10.3,6.24-1.287-4.85,7.722h71.38Z"/>
    <path id="Shape_22_copy_2" data-name="Shape 22 copy 2" class="cls-1" d="M1471.35,565.764l3.19-4.1-3.19-3.073,2.28-3.073-3.65-3.073,5.02-5.122-4.56-2.048,4.1-5.122-4.56-1.024,4.56-6.146h-5.01l4.1-6.146L1423,527.864l4.56,5.122L1423,534.01l5.47,5.122-5.01,4.1,6.84,1.025-6.84,7.17,5.01,1.024-5.01,8.2,4.1-1.025-3.19,6.146h46.98Z"/>
    <path class="cls-2" d="M1389,563.768l2-20.964-21-1,1,21.963h17"/>
    <path id="Shape_44_copy" data-name="Shape 44 copy" class="cls-3" d="M1389,543.8l2-20.964-21-1,1,21.963h17"/>
    <path class="cls-4" d="M1298,564.766l-1-16.971-70-1v16.971Z"/>
    <g id="Group_4_copy_2" data-name="Group 4 copy 2">
      <path class="cls-5" d="M1314,527.829s2.11-5.031,7.38-4.991c6.95,0.052,8.62,4.991,8.62,4.991v35.939h-16V527.829Z"/>
      <path class="cls-6" d="M1318.57,518.845h6.86v4.991h-6.86v-4.991Z"/>
      <path class="cls-7" d="M1314,536.814h16v12.978h-16V536.814Z"/>
    </g>
    <g id="Group_4_copy_3" data-name="Group 4 copy 3">
      <path class="cls-5" d="M1333,527.829s2.11-5.031,7.38-4.991c6.95,0.052,8.62,4.991,8.62,4.991v35.939h-16V527.829Z"/>
      <path class="cls-6" d="M1337.57,518.845h6.86v4.991h-6.86v-4.991Z"/>
    </g>
    <g id="Group_4_copy_4" data-name="Group 4 copy 4">
      <path class="cls-8" d="M1533,438.981a11.424,11.424,0,0,1,10.15-6.1c9.55,0.064,11.85,6.1,11.85,6.1v43.925h-22V438.981Z"/>
      <path class="cls-6" d="M1539.29,428h9.42v6.1h-9.42V428Z"/>
    </g>
    <g id="Group_4_copy_5" data-name="Group 4 copy 5">
      <path class="cls-8" d="M1561,438.981a11.424,11.424,0,0,1,10.15-6.1c9.55,0.064,11.85,6.1,11.85,6.1v43.925h-22V438.981Z"/>
      <path class="cls-6" d="M1567.29,428h9.42v6.1h-9.42V428Z"/>
    </g>
    <path class="cls-9" d="M1438,483.9l-2-27.952,31-1-1,9.983,5,1-1,11.98-6,1v3.993Z"/>
    <path id="Shape_42_copy" data-name="Shape 42 copy" class="cls-9" d="M1438,456.95L1436,429l31-1-1,9.983,5,1-1,11.98-6,1v3.993Z"/>
    <path class="cls-10" d="M1477,482.906l-2-20.964,52-1-2,21.962h-48Z"/>
    <path class="cls-11" d="M1654,483.9l-1-45.921,103,4.991,1,40.93H1654Z"/>
    <path id="Rectangle_28_copy" data-name="Rectangle 28 copy" class="cls-12" d="M1335,482.906h451v10.981H1335V482.906Z"/>
    <path class="cls-12" d="M1176,563.768h309v10.981H1176V563.768Z"/>
  </g>
  <g>
    <path class="cls-13" d="M623,409h390a17,17,0,0,1,17,17V638a17,17,0,0,1-17,17H623a17,17,0,0,1-17-17V426A17,17,0,0,1,623,409Z"/>
    <text id="Menu_Kantin" data-name="Menu Kantin" class="cls-14" transform="translate(816.202 451.718) scale(1.774)"><tspan x="0">Menu Kantin</tspan></text>
    <text id="Bakso...................................12_k_Mie_Ayam.........." data-name="Bakso...................................12 k Mie Ayam.........." class="cls-15" transform="translate(634.481 491.989) scale(1.774)">Bakso...................................12 k<tspan x="0" dy="13.529">Mie Ayam..............................12 k</tspan><tspan x="0" dy="13.529">Nasi Goreng..........................13 k</tspan><tspan x="0" dy="13.529">Nasi Ayam Geprek.................13 k</tspan><tspan x="0" dy="13.529">Nasi Telor..............................10 k</tspan><tspan x="0" dy="13.529">Gado-gado.............................10 k</tspan></text>
  </g>
</svg>
