<svg id="sketsa" xmlns="http://www.w3.org/2000/svg" width="1920" height="1080" viewBox="0 0 1920 1080">
  <defs>
    <style>
      .cls-1 {
        fill: #444559;
      }

      .cls-1, .cls-2 {
        fill-rule: evenodd;
      }

      .cls-2 {
        fill: #292937;
      }
    </style>
  </defs>
  <g id="Warna">
    <g id="Kursi">
      <path class="cls-1" d="M542.577,819.053s-24.942,3.853-37.305,3.822H445.009l-21.044,8.6,3.826,4.778,97.568,1.911,18.175-6.689Z"/>
      <path class="cls-2" d="M423.965,831.474l-0.957,21.977,64.089,0.955-1.126,64.974a58.779,58.779,0,0,1-9.456,4.271L458.4,929.89,437.357,931.8l-10.522,3.822-0.957,5.733,4.783,4.777,9.565,1.911h7.653l7.652-6.688,5.739-1.911,13.392-2.866,11.479-2.867,4.783-1.911,10.31,0.956,12.647,1.911,17.88,2.866,4.12,2.867,2.87,6.688L544.49,949h12.436l4.782-4.777,3.827-7.644-1.914-3.822-6.695-1.911h-8.609l-22.958-2.867L509.1,923.2s-4.3-2.845-5.739-4.778-0.957-64.018-.957-64.018,45.5-.364,59.306-9.555c0,0,.319-31.671,4.783-33.442l10.522,0.955,6.7-13.376s8.683-47.367,3.826-69.751c0,0-4.464-9.9-10.522-13.377,0,0-12.89-4.878-24.87-1.911,0,0-9.9,5.572-14.349,13.377,0.037-.135-9.8,18.561-13.245,32.9,0,0-4.122,26.48-2.059,38.758,0,0,3.31,10.288,7.652,12.421l12.435,0.955V818.1l-1.913,7.644-5.739,2.867S503.29,831.8,489.01,832.43Z"/>
    </g>
  </g>
</svg>
