<svg id="sketsa" xmlns="http://www.w3.org/2000/svg" width="1920" height="1080" viewBox="0 0 1920 1080">
  <defs>
    <style>
      .cls-1 {
        fill: #2a2835;
      }

      .cls-1, .cls-10, .cls-2, .cls-3, .cls-4, .cls-5, .cls-6, .cls-7, .cls-8, .cls-9 {
        fill-rule: evenodd;
      }

      .cls-2 {
        fill: #a09797;
      }

      .cls-3 {
        fill: #77674e;
      }

      .cls-4 {
        fill: #9e8a6c;
      }

      .cls-5 {
        fill: #b2976f;
      }

      .cls-6 {
        fill: #282c35;
      }

      .cls-7 {
        fill: #424c52;
      }

      .cls-8 {
        fill: #30393e;
      }

      .cls-9 {
        fill: #ababab;
      }

      .cls-10 {
        fill: #818a87;
      }
    </style>
  </defs>
  <g id="Warna">
    <g id="Meja">
      <path class="cls-1" d="M255.352,855.76s0.182,18.925,4.553,23.515,10.016,18.089,10.016,18.089l8.2,10.853s17.46,14.93,20.033,23.516c0,0-1.788,5.858-4.553,1.809,0,0-12.645-16.685-18.212-20.8s-9.129-8.567-10.927-13.567-10.017-17.184-10.017-17.184l-4.553-13.567Z"/>
      <path class="cls-2" d="M274.943,945.994l-0.937-13.987H319v13.987H274.943Z"/>
      <path class="cls-1" d="M254.441,911.307s26.889,2.807,20.034,9.106c0,0-17.074,9.754-11.838,14.57h12.748v5.464s-12.938,2.23-18.212-.911c0,0-6.758-3.35-2.732-9.106A44.691,44.691,0,0,1,266.279,919.5a22.087,22.087,0,0,0-13.659-2.732Z"/>
      <path id="Shape_5_copy" data-name="Shape 5 copy" class="cls-3" d="M394.675,945V843.012H373.91V945h20.765Zm-140.413,0V843.012H233.5V945h20.765Z"/>
      <path class="cls-4" d="M407.561,854.772V766.847h9.879l-0.987-15.807-206.477,1.976L208,769.81h11.855L215.9,855.76h7.9Z"/>
      <path class="cls-5" d="M416.453,751.04l0.987,15.377L208,768.339,209.976,752Z"/>
    </g>
    <g id="Komputer">
      <path class="cls-1" d="M305.435,729.185s-3.831,12.553-3.642,17.3l-5.464,1.821s2.123-18.534,3.643-21.855Z"/>
      <path class="cls-1" d="M297.24,710.973s-10.9,4.08-22.765-10.017l5.463-7.285s3.343,12.981,20.944,10.928Z"/>
      <path class="cls-1" d="M299.061,721.9s-19.648,13.206-20.944,20.944l8.2,2.732s-2.259-6.748,19.122-22.765Z"/>
      <path class="cls-1" d="M226.212,727.364s-8.826,13.8-10.927,24.586h5.464a49.63,49.63,0,0,1,9.106-20.033Z"/>
      <path class="cls-6" d="M342.77,745.576s-21.756-2.216-25.5-5.463v1.821s0.053,3.642,25.5,5.463"/>
      <path class="cls-7" d="M342.77,751.04v-6.374h48.263v6.374H342.77Z"/>
      <path class="cls-8" d="M329.111,751.04v-4.553l-9.106-.911V732.828h14.57l-0.911-109.274L297.24,635.392l-1.821,91.061,11.838,3.643v15.48l-10.928.911v4.553h32.782Z"/>
      <path class="cls-9" d="M227.123,751.95L225.3,662.711l61.011,0.91,1.821,88.329H227.123Z"/>
      <path class="cls-10" d="M246.5,669.085h21.352a13,13,0,0,1,13,13v19.53a13,13,0,0,1-13,13H246.5a13,13,0,0,1-13-13v-19.53A13,13,0,0,1,246.5,669.085Z"/>
      <path class="cls-10" d="M236.229,722.811h41.888V739.2H236.229V722.811Z"/>
    </g>
  </g>
</svg>
