<svg id="sketsa" xmlns="http://www.w3.org/2000/svg" width="1920" height="1080" viewBox="0 0 1920 1080">
  <defs>
    <style>
      .cls-1 {
        fill: #544f7c;
        fill-rule: evenodd;
      }
    </style>
  </defs>
  <g id="Warna">
    <g id="Tempat_Tidur_copy" data-name="Tempat Tidur copy">
      <path class="cls-1" d="M797,882s37.534-3.271,93.1,6.885c5.8,1.06,11.817,2.386,18.02,4.022,0,0,9.172.376,13-.436C932.856,889.98,972,897,972,897s31.88-.269,130.06-9.044c0,0,15.56-4.151,30.99,0,0,0,34.82-3.935,62.98,1.981,0,0,5.29-29.865-3.03-52.937l-35-39c-5.7-4.084-53.37-7.587-69-14-65.77-26.99-99-22-99-22s-49.575,7.628-75,17c-17.084,6.3-36,11-36,11l-47,4s-30.607,29.27-34,37C798,831,786.648,874.16,797,882Z"/>
    </g>
  </g>
</svg>
