<svg id="sketsa" xmlns="http://www.w3.org/2000/svg" width="1920" height="1080" viewBox="0 0 1920 1080">
  <defs>
    <style>
      .cls-1 {
        fill: #333546;
      }

      .cls-1, .cls-2, .cls-3, .cls-4, .cls-5, .cls-6 {
        fill-rule: evenodd;
      }

      .cls-2 {
        fill: #70738a;
      }

      .cls-3 {
        fill: #4a4d5f;
      }

      .cls-4 {
        fill: #525569;
      }

      .cls-5 {
        fill: #61657d;
      }

      .cls-6 {
        fill: #544f7c;
      }
    </style>
  </defs>
  <g id="Warna">
    <g id="Tempat_Tidur" data-name="Tempat Tidur">
      <path class="cls-1" d="M796.155,944.67L798.11,829l390.92,2.659V946Z"/>
      <path class="cls-2" d="M1158.04,797l-4.99-88-300.912-3-8,87,19,1Z"/>
      <path class="cls-3" d="M1127.05,791s-7.8-25.61-16.99-31l-59.98-8-3,41Z"/>
      <path id="Shape_44_copy" data-name="Shape 44 copy" class="cls-3" d="M1127.05,791s-7.8-25.61-16.99-31l-59.98-8-3,41Z"/>
      <path class="cls-4" d="M952.107,728.957s-20.963-5.817-32.99-.985c0,0-15.271,14.749-21.993,36.457l-4,13.8-5,5.912,9,0.985,25.992,0.985,14,0.986,24.992,1.97-2-17.736Z"/>
      <path class="cls-5" d="M1051.11,794s4.82-53.874-7-70.112l-8-9.888s-75.609,1.445-86,10.787c0,0-14.1,52.511,5,68.314Z"/>
      <path class="cls-6" d="M798.155,892.907s36.379-14.178,91.946-4.022c5.8,1.06,11.817,2.386,18.02,4.022,0,0,9.172.376,13-.436,11.739-2.491,48.985-5.97,48.985-5.97s33.778,10.23,131.958,1.455c0,0,15.56-4.151,30.99,0,0,0,34.82-3.935,62.98,1.981,0,0,7.32-34.1-1-57.172l-32.99-35.824s-22.34-7.7-73.97-9.951S969.1,786.972,969.1,786.972s-28.843-1.98-53.983-1.98a338.011,338.011,0,0,0-34.99,1.98l-48.985,6.984S799.548,827.27,796.155,835C796.155,835,787.8,885.067,798.155,892.907Z"/>
    </g>
  </g>
</svg>
