<svg id="Jembatan" xmlns="http://www.w3.org/2000/svg" width="2454" height="1080" viewBox="0 0 2454 1080">
  <defs>
    <style>
      .cls-1 {
        fill: #9196a7;
      }

      .cls-1, .cls-2, .cls-3, .cls-4, .cls-5, .cls-6, .cls-7 {
        fill-rule: evenodd;
      }

      .cls-2 {
        fill: #a0a5b7;
      }

      .cls-3 {
        fill: #a8b3d7;
      }

      .cls-4 {
        fill: #949bb5;
      }

      .cls-5 {
        fill: #343d47;
      }

      .cls-6, .cls-8 {
        fill: #8c95b8;
      }

      .cls-7 {
        fill: #9eabdd;
      }
    </style>
  </defs>
  <g>
    <path id="Rectangle_6_copy" data-name="Rectangle 6 copy" class="cls-1" d="M1866.57,718h49.85v26.24h-49.85V718Z"/>
    <path class="cls-2" d="M1854.84,734.794h72.33v26.239h-72.33V734.794Z"/>
    <path class="cls-3" d="M1848,756.835h86.99v130.15H1848V756.835Z"/>
  </g>
  <g id="Group_3_copy" data-name="Group 3 copy">
    <path id="Rectangle_6_copy-2" data-name="Rectangle 6 copy" class="cls-1" d="M2185.2,718h50.11v26.24H2185.2V718Z"/>
    <path class="cls-2" d="M2173.4,734.794h72.72v26.239H2173.4V734.794Z"/>
    <path class="cls-3" d="M2166.53,756.835h87.45v130.15h-87.45V756.835Z"/>
  </g>
  <path class="cls-4" d="M1767.48,762.053h81.53V886h-81.53V762.053Z"/>
  <path id="Rectangle_7_copy" data-name="Rectangle 7 copy" class="cls-4" d="M741.984,761h82.031V885.01H741.984V761Z"/>
  <g id="Group_3_copy_2" data-name="Group 3 copy 2">
    <path id="Rectangle_6_copy-3" data-name="Rectangle 6 copy" class="cls-1" d="M1698.77,718h50.12v26.24h-50.12V718Z"/>
    <path class="cls-2" d="M1686.98,734.794h72.72v26.239h-72.72V734.794Z"/>
    <path class="cls-3" d="M1680.1,756.835h87.46v130.15H1680.1V756.835Z"/>
  </g>
  <g id="Group_3_copy_3" data-name="Group 3 copy 3">
    <path id="Rectangle_6_copy-4" data-name="Rectangle 6 copy" class="cls-1" d="M1271.23,718h50.1v26.24h-50.1V718Z"/>
    <path class="cls-2" d="M1259.44,734.794h72.7v26.239h-72.7V734.794Z"/>
    <path class="cls-3" d="M1252.56,756.835H1340v130.15h-87.44V756.835Z"/>
  </g>
  <g id="Group_3_copy_4" data-name="Group 3 copy 4">
    <path id="Rectangle_6_copy-5" data-name="Rectangle 6 copy" class="cls-1" d="M842.561,718h49.853v26.24H842.561V718Z"/>
    <path class="cls-2" d="M830.83,734.794h72.337v26.239H830.83V734.794Z"/>
    <path class="cls-3" d="M823.988,756.835h87v130.15h-87V756.835Z"/>
  </g>
  <g id="Group_3_copy_5" data-name="Group 3 copy 5">
    <path id="Rectangle_6_copy-6" data-name="Rectangle 6 copy" class="cls-1" d="M673.581,718h49.854v26.24H673.581V718Z"/>
    <path class="cls-2" d="M661.851,734.794h72.337v26.239H661.851V734.794Z"/>
    <path class="cls-3" d="M655.008,756.835h87v130.15h-87V756.835Z"/>
  </g>
  <g id="Group_3_copy_6" data-name="Group 3 copy 6">
    <path id="Rectangle_6_copy-7" data-name="Rectangle 6 copy" class="cls-1" d="M353.574,718h49.854v26.24H353.574V718Z"/>
    <path class="cls-2" d="M341.844,734.794H414.18v26.239H341.844V734.794Z"/>
    <path class="cls-3" d="M335,756.835h87v130.15H335V756.835Z"/>
  </g>
  <g>
    <g>
      <g>
        <path class="cls-5" d="M2087.41,814.581h31.46v38.825h-31.46V814.581Z"/>
        <path class="cls-5" d="M2075.62,818.778h53.08v4.2h-53.08v-4.2Z"/>
        <path class="cls-5" d="M2074.64,842.913h54.06v4.2h-54.06v-4.2Z"/>
      </g>
      <g id="Group_5_copy" data-name="Group 5 copy">
        <path class="cls-5" d="M1983.23,814.581h31.45v38.825h-31.45V814.581Z"/>
        <path class="cls-5" d="M1971.43,818.778h53.08v4.2h-53.08v-4.2Z"/>
        <path class="cls-5" d="M1970.45,842.913h54.06v4.2h-54.06v-4.2Z"/>
      </g>
      <path class="cls-6" d="M1968.48,861.8h57.01v25.184h-57.01V861.8Z"/>
      <path id="Rectangle_3_copy" data-name="Rectangle 3 copy" class="cls-6" d="M2135.58,861.8h-57.01v25.184h57.01V861.8Z"/>
      <path class="cls-6" d="M2024.51,805.137h54.06v81.848h-54.06V805.137Z"/>
      <path class="cls-7" d="M1934.08,761.064h234.91v44.073H1934.08V761.064Z"/>
      <path id="Rectangle_2_copy" data-name="Rectangle 2 copy" class="cls-6" d="M2168.99,805.137h-41.28v81.848h41.28V805.137Z"/>
      <path class="cls-6" d="M1935.06,805.137h36.37v81.848h-36.37V805.137Z"/>
    </g>
    <g id="Group_6_copy_7" data-name="Group 6 copy 7">
      <g>
        <path class="cls-5" d="M2403.77,809.545h30.93V848.39h-30.93V809.545Z"/>
        <path class="cls-5" d="M2392.17,813.744h52.2v4.2h-52.2v-4.2Z"/>
        <path class="cls-5" d="M2391.2,837.891h53.17v4.2H2391.2v-4.2Z"/>
      </g>
      <g id="Group_5_copy-2" data-name="Group 5 copy">
        <path class="cls-5" d="M2301.31,809.545h30.93V848.39h-30.93V809.545Z"/>
        <path class="cls-5" d="M2289.72,813.744h52.19v4.2h-52.19v-4.2Z"/>
        <path class="cls-5" d="M2288.75,837.891h53.16v4.2h-53.16v-4.2Z"/>
      </g>
      <path class="cls-6" d="M2286.82,856.788h56.06v25.2h-56.06v-25.2Z"/>
      <path id="Rectangle_3_copy-2" data-name="Rectangle 3 copy" class="cls-6" d="M2451.13,856.788h-56.06v25.2h56.06v-25.2Z"/>
      <path class="cls-6" d="M2341.91,800.1h53.16v81.889h-53.16V800.1Z"/>
      <path class="cls-7" d="M2252.99,756h231V800.1h-231V756Z"/>
      <path id="Rectangle_2_copy-2" data-name="Rectangle 2 copy" class="cls-6" d="M2483.99,800.1H2443.4v81.889h40.59V800.1Z"/>
      <path class="cls-6" d="M2253.95,800.1h35.77v81.889h-35.77V800.1Z"/>
    </g>
    <g id="Group_6_copy_3" data-name="Group 6 copy 3">
      <g>
        <path class="cls-5" d="M573.729,813.558h31.332V852.4H573.729V813.558Z"/>
        <path class="cls-5" d="M561.98,817.757h52.872v4.2H561.98v-4.2Z"/>
        <path class="cls-5" d="M561,841.9h53.851v4.2H561v-4.2Z"/>
      </g>
      <g id="Group_5_copy-3" data-name="Group 5 copy">
        <path class="cls-5" d="M469.943,813.558h31.332V852.4H469.943V813.558Z"/>
        <path class="cls-5" d="M458.194,817.757h52.872v4.2H458.194v-4.2Z"/>
        <path class="cls-5" d="M457.215,841.9h53.851v4.2H457.215v-4.2Z"/>
      </g>
      <path class="cls-6" d="M455.256,860.8h56.789V886H455.256V860.8Z"/>
      <path id="Rectangle_3_copy-3" data-name="Rectangle 3 copy" class="cls-6" d="M621.706,860.8H564.917V886h56.789V860.8Z"/>
      <path class="cls-6" d="M511.066,804.109h53.851V886H511.066V804.109Z"/>
      <path class="cls-7" d="M420.988,760.015H655v44.094H420.988V760.015Z"/>
      <path id="Rectangle_2_copy-3" data-name="Rectangle 2 copy" class="cls-6" d="M655,804.109H613.873V886H655V804.109Z"/>
      <path class="cls-6" d="M421.967,804.109h36.227V886H421.967V804.109Z"/>
    </g>
    <g id="Group_6_copy_4" data-name="Group 6 copy 4">
      <g>
        <path class="cls-5" d="M254.778,813.558H285.7V852.4H254.778V813.558Z"/>
        <path class="cls-5" d="M243.181,817.757h52.187v4.2H243.181v-4.2Z"/>
        <path class="cls-5" d="M242.215,841.9h53.153v4.2H242.215v-4.2Z"/>
      </g>
      <g id="Group_5_copy-4" data-name="Group 5 copy">
        <path class="cls-5" d="M152.337,813.558h30.925V852.4H152.337V813.558Z"/>
        <path class="cls-5" d="M140.739,817.757h52.188v4.2H140.739v-4.2Z"/>
        <path class="cls-5" d="M139.773,841.9h53.154v4.2H139.773v-4.2Z"/>
      </g>
      <path class="cls-6" d="M137.84,860.8h56.053V886H137.84V860.8Z"/>
      <path id="Rectangle_3_copy-4" data-name="Rectangle 3 copy" class="cls-6" d="M302.133,860.8H246.08V886h56.053V860.8Z"/>
      <path class="cls-6" d="M192.927,804.109H246.08V886H192.927V804.109Z"/>
      <path class="cls-7" d="M104.015,760.015H334.992v44.094H104.015V760.015Z"/>
      <path id="Rectangle_2_copy-4" data-name="Rectangle 2 copy" class="cls-6" d="M334.992,804.109H294.4V886h40.59V804.109Z"/>
      <path class="cls-6" d="M104.981,804.109h35.758V886H104.981V804.109Z"/>
    </g>
    <g id="Group_6_copy" data-name="Group 6 copy">
      <g id="Group_5_copy_2" data-name="Group 5 copy 2">
        <path class="cls-5" d="M1494.72,814.581h31.46v38.825h-31.46V814.581Z"/>
        <path class="cls-5" d="M1482.93,818.778H1536v4.2h-53.07v-4.2Z"/>
        <path class="cls-5" d="M1481.94,842.913H1536v4.2h-54.06v-4.2Z"/>
        <g id="Group_5_copy_3" data-name="Group 5 copy 3">
          <path class="cls-5" d="M1389.55,814.581H1421v38.825h-31.45V814.581Z"/>
          <path class="cls-5" d="M1377.76,818.778h53.07v4.2h-53.07v-4.2Z"/>
          <path class="cls-5" d="M1376.77,842.913h54.06v4.2h-54.06v-4.2Z"/>
        </g>
        <g id="Group_5_copy_5" data-name="Group 5 copy 5">
          <path class="cls-5" d="M1598.91,814.581h31.45v38.825h-31.45V814.581Z"/>
          <path class="cls-5" d="M1587.12,818.778h53.07v4.2h-53.07v-4.2Z"/>
          <path class="cls-5" d="M1586.13,842.913h54.06v4.2h-54.06v-4.2Z"/>
        </g>
        <g id="Group_5_copy_4" data-name="Group 5 copy 4">
          <path class="cls-5" d="M1496.69,814.581h31.45v38.825h-31.45V814.581Z"/>
          <path class="cls-5" d="M1484.89,818.778h53.08v4.2h-53.08v-4.2Z"/>
          <path class="cls-5" d="M1483.91,842.913h54.06v4.2h-54.06v-4.2Z"/>
        </g>
      </g>
      <path class="cls-7" d="M1340.41,760.015h342.05v44.072H1340.41V760.015Z"/>
      <path id="Rectangle_3_copy-5" data-name="Rectangle 3 copy" class="cls-6" d="M1649.04,860.752h-57.01v25.184h57.01V860.752Z"/>
      <path id="Rectangle_2_copy-5" data-name="Rectangle 2 copy" class="cls-6" d="M1682.46,804.087h-41.29v81.849h41.29V804.087Z"/>
      <rect class="cls-8" x="1537.97" y="804.094" width="54.06" height="81.844"/>
      <path id="Rectangle_4_copy" data-name="Rectangle 4 copy" class="cls-6" d="M1430.83,804.087h54.06v81.849h-54.06V804.087Z"/>
      <path class="cls-6" d="M1481.94,860.752h57.01v25.184h-57.01V860.752Z"/>
      <path id="Rectangle_3_copy_2" data-name="Rectangle 3 copy 2" class="cls-6" d="M1373.83,860.752h57v25.184h-57V860.752Z"/>
      <path class="cls-6" d="M1340.41,804.087h36.36v81.849h-36.36V804.087Z"/>
    </g>
    <g id="Group_6_copy_2" data-name="Group 6 copy 2">
      <g id="Group_5_copy_2-2" data-name="Group 5 copy 2">
        <path class="cls-5" d="M1065.29,814.608h31.45v38.845h-31.45V814.608Z"/>
        <path class="cls-5" d="M1053.5,818.807h53.06v4.2H1053.5v-4.2Z"/>
        <path class="cls-5" d="M1052.51,842.954h54.05v4.2h-54.05v-4.2Z"/>
        <g id="Group_5_copy_3-2" data-name="Group 5 copy 3">
          <path class="cls-5" d="M960.138,814.608h31.447v38.845H960.138V814.608Z"/>
          <path class="cls-5" d="M948.346,818.807h53.064v4.2H948.346v-4.2Z"/>
          <path class="cls-5" d="M947.363,842.954h54.047v4.2H947.363v-4.2Z"/>
        </g>
        <g id="Group_5_copy_5-2" data-name="Group 5 copy 5">
          <path class="cls-5" d="M1169.46,814.608h31.45v38.845h-31.45V814.608Z"/>
          <path class="cls-5" d="M1157.67,818.807h53.06v4.2h-53.06v-4.2Z"/>
          <path class="cls-5" d="M1156.68,842.954h54.05v4.2h-54.05v-4.2Z"/>
        </g>
        <g id="Group_5_copy_4-2" data-name="Group 5 copy 4">
          <path class="cls-5" d="M1067.26,814.608h31.44v38.845h-31.44V814.608Z"/>
          <path class="cls-5" d="M1055.46,818.807h53.07v4.2h-53.07v-4.2Z"/>
          <path class="cls-5" d="M1054.48,842.954h54.05v4.2h-54.05v-4.2Z"/>
        </g>
      </g>
      <path class="cls-7" d="M911,760.015H1252.99v44.094H911V760.015Z"/>
      <path id="Rectangle_3_copy-6" data-name="Rectangle 3 copy" class="cls-6" d="M1219.58,860.8h-57V886h57V860.8Z"/>
      <path id="Rectangle_2_copy-6" data-name="Rectangle 2 copy" class="cls-6" d="M1252.99,804.109h-41.27V886h41.27V804.109Z"/>
      <path class="cls-6" d="M1108.53,804.109h54.05V886h-54.05V804.109Z"/>
      <path id="Rectangle_4_copy-2" data-name="Rectangle 4 copy" class="cls-6" d="M1001.41,804.109h54.05V886h-54.05V804.109Z"/>
      <path class="cls-6" d="M1052.51,860.8h57V886h-57V860.8Z"/>
      <path id="Rectangle_3_copy_2-2" data-name="Rectangle 3 copy 2" class="cls-6" d="M944.415,860.8h57V886H944.415V860.8Z"/>
      <path class="cls-6" d="M911,804.109h36.361V886H911V804.109Z"/>
      <g id="Group_6_copy_5" data-name="Group 6 copy 5">
        <g id="Group_5_copy_2-3" data-name="Group 5 copy 2">
          <path class="cls-5" d="M1065.29,814.608h31.45v38.845h-31.45V814.608Z"/>
          <path class="cls-5" d="M1053.5,818.807h53.06v4.2H1053.5v-4.2Z"/>
          <path class="cls-5" d="M1052.51,842.954h54.05v4.2h-54.05v-4.2Z"/>
          <g id="Group_5_copy_3-3" data-name="Group 5 copy 3">
            <path class="cls-5" d="M960.138,814.608h31.447v38.845H960.138V814.608Z"/>
            <path class="cls-5" d="M948.346,818.807h53.064v4.2H948.346v-4.2Z"/>
            <path class="cls-5" d="M947.363,842.954h54.047v4.2H947.363v-4.2Z"/>
          </g>
          <g id="Group_5_copy_5-3" data-name="Group 5 copy 5">
            <path class="cls-5" d="M1169.46,814.608h31.45v38.845h-31.45V814.608Z"/>
            <path class="cls-5" d="M1157.67,818.807h53.06v4.2h-53.06v-4.2Z"/>
            <path class="cls-5" d="M1156.68,842.954h54.05v4.2h-54.05v-4.2Z"/>
          </g>
          <g id="Group_5_copy_4-3" data-name="Group 5 copy 4">
            <path class="cls-5" d="M1067.26,814.608h31.44v38.845h-31.44V814.608Z"/>
            <path class="cls-5" d="M1055.46,818.807h53.07v4.2h-53.07v-4.2Z"/>
            <path class="cls-5" d="M1054.48,842.954h54.05v4.2h-54.05v-4.2Z"/>
          </g>
        </g>
        <path class="cls-7" d="M911,760.015H1252.99v44.094H911V760.015Z"/>
        <path id="Rectangle_3_copy-7" data-name="Rectangle 3 copy" class="cls-6" d="M1219.58,860.8h-57V886h57V860.8Z"/>
        <path id="Rectangle_2_copy-7" data-name="Rectangle 2 copy" class="cls-6" d="M1252.99,804.109h-41.27V886h41.27V804.109Z"/>
        <path class="cls-6" d="M1108.53,804.109h54.05V886h-54.05V804.109Z"/>
        <path id="Rectangle_4_copy-3" data-name="Rectangle 4 copy" class="cls-6" d="M1001.41,804.109h54.05V886h-54.05V804.109Z"/>
        <path class="cls-6" d="M1052.51,860.8h57V886h-57V860.8Z"/>
        <path id="Rectangle_3_copy_2-3" data-name="Rectangle 3 copy 2" class="cls-6" d="M944.415,860.8h57V886H944.415V860.8Z"/>
        <path class="cls-6" d="M911,804.109h36.361V886H911V804.109Z"/>
      </g>
    </g>
    <g id="Group_6_copy_6" data-name="Group 6 copy 6">
      <g id="Group_5_copy_2-4" data-name="Group 5 copy 2">
        <path class="cls-5" d="M-162.71,816.608h31.447v38.845H-162.71V816.608Z"/>
        <path class="cls-5" d="M-174.5,820.807h53.067v4.2H-174.5v-4.2Z"/>
        <path class="cls-5" d="M-175.485,844.954h54.049v4.2h-54.049v-4.2Z"/>
        <g id="Group_5_copy_3-4" data-name="Group 5 copy 3">
          <path class="cls-5" d="M-267.862,816.608h31.448v38.845h-31.448V816.608Z"/>
          <path class="cls-5" d="M-279.654,820.807h53.067v4.2h-53.067v-4.2Z"/>
          <path class="cls-5" d="M-280.637,844.954h54.05v4.2h-54.05v-4.2Z"/>
        </g>
        <g id="Group_5_copy_5-4" data-name="Group 5 copy 5">
          <path class="cls-5" d="M-58.541,816.608h31.447v38.845H-58.541V816.608Z"/>
          <path class="cls-5" d="M-70.334,820.807h53.067v4.2H-70.334v-4.2Z"/>
          <path class="cls-5" d="M-71.317,844.954h54.05v4.2h-54.05v-4.2Z"/>
        </g>
        <g id="Group_5_copy_4-4" data-name="Group 5 copy 4">
          <path class="cls-5" d="M-160.745,816.608H-129.3v38.845h-31.448V816.608Z"/>
          <path class="cls-5" d="M-172.537,820.807h53.067v4.2h-53.067v-4.2Z"/>
          <path class="cls-5" d="M-173.52,844.954h54.05v4.2h-54.05v-4.2Z"/>
        </g>
      </g>
      <path class="cls-7" d="M-317,762.015H24.99v44.094H-317V762.015Z"/>
      <path id="Rectangle_3_copy-8" data-name="Rectangle 3 copy" class="cls-6" d="M-8.422,862.8h-57V888h57V862.8Z"/>
      <path id="Rectangle_2_copy-8" data-name="Rectangle 2 copy" class="cls-6" d="M24.99,806.109H-16.284V888H24.99V806.109Z"/>
      <path class="cls-6" d="M-119.47,806.109h54.05V888h-54.05V806.109Z"/>
      <path id="Rectangle_4_copy-4" data-name="Rectangle 4 copy" class="cls-6" d="M-226.587,806.109h54.05V888h-54.05V806.109Z"/>
      <path class="cls-6" d="M-175.485,862.8h57V888h-57V862.8Z"/>
      <path id="Rectangle_3_copy_2-4" data-name="Rectangle 3 copy 2" class="cls-6" d="M-283.585,862.8h57V888h-57V862.8Z"/>
      <path class="cls-6" d="M-317,806.109h36.361V888H-317V806.109Z"/>
      <g id="Group_6_copy_5-2" data-name="Group 6 copy 5">
        <g id="Group_5_copy_2-5" data-name="Group 5 copy 2">
          <path class="cls-5" d="M-162.71,816.608h31.447v38.845H-162.71V816.608Z"/>
          <path class="cls-5" d="M-174.5,820.807h53.067v4.2H-174.5v-4.2Z"/>
          <path class="cls-5" d="M-175.485,844.954h54.049v4.2h-54.049v-4.2Z"/>
          <g id="Group_5_copy_3-5" data-name="Group 5 copy 3">
            <path class="cls-5" d="M-267.862,816.608h31.448v38.845h-31.448V816.608Z"/>
            <path class="cls-5" d="M-279.654,820.807h53.067v4.2h-53.067v-4.2Z"/>
            <path class="cls-5" d="M-280.637,844.954h54.05v4.2h-54.05v-4.2Z"/>
          </g>
          <g id="Group_5_copy_5-5" data-name="Group 5 copy 5">
            <path class="cls-5" d="M-58.541,816.608h31.447v38.845H-58.541V816.608Z"/>
            <path class="cls-5" d="M-70.334,820.807h53.067v4.2H-70.334v-4.2Z"/>
            <path class="cls-5" d="M-71.317,844.954h54.05v4.2h-54.05v-4.2Z"/>
          </g>
          <g id="Group_5_copy_4-5" data-name="Group 5 copy 4">
            <path class="cls-5" d="M-160.745,816.608H-129.3v38.845h-31.448V816.608Z"/>
            <path class="cls-5" d="M-172.537,820.807h53.067v4.2h-53.067v-4.2Z"/>
            <path class="cls-5" d="M-173.52,844.954h54.05v4.2h-54.05v-4.2Z"/>
          </g>
        </g>
        <path class="cls-7" d="M-317,762.015H24.99v44.094H-317V762.015Z"/>
        <path id="Rectangle_3_copy-9" data-name="Rectangle 3 copy" class="cls-6" d="M-8.422,862.8h-57V888h57V862.8Z"/>
        <path id="Rectangle_2_copy-9" data-name="Rectangle 2 copy" class="cls-6" d="M24.99,806.109H-16.284V888H24.99V806.109Z"/>
        <path class="cls-6" d="M-119.47,806.109h54.05V888h-54.05V806.109Z"/>
        <path id="Rectangle_4_copy-5" data-name="Rectangle 4 copy" class="cls-6" d="M-226.587,806.109h54.05V888h-54.05V806.109Z"/>
        <path class="cls-6" d="M-175.485,862.8h57V888h-57V862.8Z"/>
        <path id="Rectangle_3_copy_2-5" data-name="Rectangle 3 copy 2" class="cls-6" d="M-283.585,862.8h57V888h-57V862.8Z"/>
        <path class="cls-6" d="M-317,806.109h36.361V888H-317V806.109Z"/>
      </g>
    </g>
  </g>
  <g id="Group_3_copy_7" data-name="Group 3 copy 7">
    <path id="Rectangle_6_copy-8" data-name="Rectangle 6 copy" class="cls-1" d="M36.574,718H86.428v26.24H36.574V718Z"/>
    <path class="cls-2" d="M24.844,734.794H97.181v26.239H24.844V734.794Z"/>
    <path class="cls-3" d="M18,756.835h87v130.15H18V756.835Z"/>
  </g>
</svg>
